<svg xmlns="http://www.w3.org/2000/svg" version="1.1" xmlns:xlink="http://www.w3.org/1999/xlink" xmlns:svgjs="http://svgjs.com/svgjs" width="1000" height="1000"><style>
    #light-icon {
      display: inline;
    }
    #dark-icon {
      display: none;
    }

    @media (prefers-color-scheme: dark) {
      #light-icon {
        display: none;
      }
      #dark-icon {
        display: inline;
      }
    }
  </style><g id="light-icon"><svg xmlns="http://www.w3.org/2000/svg" version="1.1" xmlns:xlink="http://www.w3.org/1999/xlink" xmlns:svgjs="http://svgjs.com/svgjs" width="1000" height="1000"><g transform="matrix(7.8125,0,0,7.8125,-0.681249350309372,-0.3354092836380005)"><svg xmlns="http://www.w3.org/2000/svg" version="1.1" xmlns:xlink="http://www.w3.org/1999/xlink" xmlns:svgjs="http://svgjs.com/svgjs" width="128" height="128"><svg version="1.1" id="Capa_1" xmlns="http://www.w3.org/2000/svg" xmlns:xlink="http://www.w3.org/1999/xlink" x="0px" y="0px" viewBox="0 0 128 128" style="enable-background:new 0 0 128 128;" xml:space="preserve">
<style type="text/css">
	.st0{fill:#50465A;}
	.st1{fill:#0078A0;}
	.st2{fill:#FFA400;}
	.st3{fill:#3BBFAD;}
</style>
<g>
	<path class="st0" d="M119,22.3c-2.5,0-4.8,0.9-6.6,2.8c-1.8,1.8-2.8,4.3-2.8,6.9c0,0.8,0.1,1.5,0.2,2.2L77,52.1
		c-1-1.3-2.2-2.5-3.5-3.7c-6-5.4-13.3-8.1-21.8-8.1c-4,0-7.7,0.6-11.1,1.8l-3.1-5.8c2.3-2,3.8-4.9,3.9-8.2c0.1-2.9-1-5.7-3-7.7
		c-2-2.1-4.6-3.3-7.4-3.3c-5.8-0.1-10.6,4.7-10.7,10.7c-0.1,2.9,1,5.7,3,7.7c2,2.1,4.6,3.3,7.4,3.3c0.1,0,0.1,0,0.2,0
		c1,0,1.9-0.1,2.8-0.4l2.9,5.5c-2.4,1.2-4.6,2.8-6.6,4.6c-4.2,3.7-6.9,8-8.2,12.8L11,59.9c-0.4-2.7-2.6-4.8-5.3-4.9c0,0-0.1,0-0.1,0
		c-3,0-5.4,2.5-5.5,5.6c0,1.5,0.5,2.9,1.5,4c1,1.1,2.4,1.7,3.9,1.7c0,0,0.1,0,0.1,0c1.4,0,2.8-0.6,3.8-1.6c0.2-0.2,0.3-0.3,0.4-0.5
		L21,65.7c-0.1,0.8-0.1,1.7-0.1,2.5c0,7.7,3.1,14.3,9.1,19.8c0.9,0.8,1.7,1.5,2.7,2.1L29,95c-0.9-0.4-2-0.6-3.1-0.6
		c-4.6,0-8.3,3.7-8.3,8.3s3.7,8.3,8.3,8.3c4.6,0,8.3-3.7,8.3-8.3c0-1.9-0.7-3.7-1.7-5.1l3.9-5.1c4.6,2.4,9.7,3.6,15.4,3.6
		c6.4,0,12.1-1.6,17.2-4.7l3.1,3.6c-0.4,0.8-0.6,1.7-0.6,2.7c-0.1,3.4,2.6,6.2,5.9,6.3c0,0,0.1,0,0.1,0c3.2,0,5.9-2.7,6-6
		c0-1.6-0.6-3.2-1.7-4.4c-1.1-1.2-2.6-1.9-4.2-1.9c-0.8,0-1.5,0.1-2.2,0.4l-2.8-3.2c0.3-0.3,0.7-0.6,1-0.9
		c6.1-5.4,9.1-12.1,9.1-19.8c0-4.5-1.1-8.6-3.1-12.4l32-17.4c0.2,0.2,0.4,0.5,0.6,0.7c1.7,1.9,4,3,6.5,3c0.1,0,0.1,0,0.2,0
		c5,0,9.1-4.3,9.2-9.7C128.1,27,124,22.4,119,22.3z M61.6,65.6l4.7-2.6c0.8,1.6,1.1,3.4,1.1,5.4c0,3.8-1.4,6.9-4.4,9.6l-3.2-3.8
		c1.3-1.7,2-3.8,2-6C61.9,67.3,61.8,66.4,61.6,65.6z M45,60.7c-1,1-1.7,2.1-2.3,3.4L37,63.3c0.7-1.7,1.9-3.3,3.5-4.7
		c0.9-0.8,1.8-1.4,2.8-2l2,3.9C45.2,60.5,45.1,60.6,45,60.7z M36,68.4c0-0.2,0-0.5,0-0.7l5.9,0.8c0.1,2.3,0.9,4.5,2.4,6.2l-3.1,4.1
		c-0.2-0.2-0.5-0.4-0.7-0.6C37.5,75.4,36,72.2,36,68.4z M51.8,78.3c0.1,0,0.1,0,0.2,0c1.6,0,3.2-0.4,4.6-1.2l3,3.4
		c-2.3,1.2-4.9,1.8-7.7,1.8c-2.5,0-4.7-0.4-6.7-1.3l2.8-3.7C49.1,78,50.4,78.3,51.8,78.3z M52.1,57.8c-1,0-2,0.1-3,0.4l-1.7-3.3
		c1.4-0.3,2.8-0.5,4.4-0.5c4.4,0,8.1,1.4,11.2,4.2c0.3,0.3,0.6,0.5,0.8,0.8l-4.1,2.2C57.9,59.3,55.2,57.8,52.1,57.8z"></path>
	<g>
		<path class="st1" d="M39.1,78.6c-3.3-3-4.9-6.6-4.9-10.8c0-4.2,1.6-7.9,4.9-10.8c1-0.9,2.1-1.7,3.2-2.3l-5.5-10.3
			c-2.3,1.2-4.5,2.7-6.6,4.5c-5.8,5.2-8.7,11.5-8.7,18.8c0,7.3,2.9,13.6,8.7,18.8c1,0.9,2.1,1.8,3.2,2.5l7-9.3
			C40.1,79.4,39.6,79,39.1,78.6z"></path>
		<path class="st1" d="M67.3,62.5c0.7,1.6,1,3.4,1,5.3c0,4.2-1.7,7.8-5,10.8c-3.3,3-7.3,4.5-12,4.5c-2.4,0-4.7-0.4-6.8-1.2l-7.1,9.4
			c4.2,2,8.8,3,13.9,3c8.2,0,15.1-2.6,20.9-7.8c5.8-5.2,8.7-11.5,8.7-18.8c0-4-0.9-7.7-2.6-11.1L67.3,62.5z"></path>
		<path class="st1" d="M51.2,52.5c4.7,0,8.7,1.5,12,4.5c0.6,0.6,1.2,1.1,1.7,1.7l10.9-5.9c-1.1-1.4-2.3-2.7-3.7-3.9
			c-5.8-5.2-12.8-7.8-20.9-7.8c-3.7,0-7.1,0.5-10.3,1.6l5.5,10.4C47.9,52.7,49.5,52.5,51.2,52.5z"></path>
	</g>
	<g>
		<path class="st2" d="M29.7,95.3c0.5,0.3,1.1,0.6,1.5,1l15-19.8c-0.5-0.4-0.9-0.8-1.4-1.2L29.7,95.3z"></path>
		<path class="st2" d="M25.6,94.9c-4.2,0-7.5,3.4-7.5,7.5c0,4.1,3.4,7.5,7.5,7.5c4.2,0,7.5-3.4,7.5-7.5
			C33.1,98.2,29.7,94.9,25.6,94.9z"></path>
		<path class="st2" d="M47.8,58.7L36.4,37.2c-0.5,0.3-1,0.6-1.6,0.8l11.4,21.6C46.7,59.3,47.2,59,47.8,58.7z"></path>
		<path class="st2" d="M30.4,37.7c0.1,0,0.1,0,0.2,0c5.4,0,9.8-4.5,9.9-10c0-2.7-0.9-5.3-2.8-7.3c-1.8-2-4.3-3.1-7-3.1
			c-5.5-0.1-10,4.4-10.1,10c0,2.7,0.9,5.3,2.8,7.3C25.3,36.6,27.8,37.7,30.4,37.7z"></path>
		<path class="st2" d="M21.4,64.1c0.1-0.6,0.2-1.2,0.4-1.8l-0.2,0L11,60.9c0,0.6-0.1,1.2-0.4,1.8l10.5,1.4L21.4,64.1z"></path>
		<path class="st2" d="M42.1,66.8c0.1-0.6,0.2-1.2,0.4-1.8l-5.5-0.7c-0.2,0.6-0.4,1.2-0.5,1.8L42.1,66.8z"></path>
		<path class="st2" d="M59,75.3c0,0-0.1,0.1-0.1,0.1c-0.4,0.4-0.8,0.7-1.2,1l3,3.5l0.2,0.2c0.5-0.3,1-0.7,1.5-1.1l-0.2-0.2L59,75.3z
			"></path>
		<path class="st2" d="M74.1,92.7l-2.4-2.8c-0.5,0.4-1,0.7-1.5,1.1l2.6,3C73.2,93.5,73.6,93.1,74.1,92.7z"></path>
		<path class="st2" d="M107,36.7L86.6,47.8L60.1,62.2c0.3,0.5,0.6,1,0.9,1.6l25.5-13.9L107,38.8l3.6-2c-0.3-0.6-0.5-1.1-0.7-1.7
			L107,36.7z"></path>
		<path class="st2" d="M60.9,67.8c0.1-5.3-4-9.6-9.1-9.7c-2.5,0-4.8,0.9-6.6,2.7c-1.8,1.8-2.8,4.2-2.8,6.7c0,2.6,0.9,5,2.6,6.8
			c1.7,1.8,4,2.9,6.5,2.9c0.1,0,0.1,0,0.2,0c2.4,0,4.7-0.9,6.4-2.7C59.8,72.8,60.8,70.4,60.9,67.8z"></path>
		<path class="st2" d="M118.6,22.7c0,0-0.1,0-0.1,0c-2.2,0-4.3,0.9-5.9,2.6c-1.6,1.7-2.5,4-2.6,6.4c0,2.4,0.8,4.8,2.4,6.5
			c1.6,1.8,3.7,2.8,6,2.8c0,0,0.1,0,0.1,0c4.6,0,8.4-4,8.5-9C127,27,123.3,22.8,118.6,22.7z"></path>
		<path class="st2" d="M5.2,55.6C5.2,55.6,5.2,55.6,5.2,55.6c-2.5,0-4.5,2-4.6,4.6c0,1.2,0.4,2.4,1.3,3.3c0.8,0.9,2,1.4,3.2,1.4
			c0,0,0.1,0,0.1,0c2.5,0,4.5-2,4.5-4.6C9.7,57.8,7.7,55.7,5.2,55.6z"></path>
		<path class="st2" d="M77.1,92.3c-2.8-0.1-5.1,2.2-5.1,5.1c0,2.9,2.2,5.2,4.9,5.3c0,0,0.1,0,0.1,0c2.7,0,5-2.3,5-5.1
			c0-1.4-0.5-2.7-1.4-3.7C79.7,92.9,78.5,92.3,77.1,92.3z"></path>
	</g>
	<g>
		<ellipse class="st3" cx="25.6" cy="102.3" rx="7" ry="7"></ellipse>
		<ellipse class="st3" cx="30.6" cy="27.5" rx="9.3" ry="9.6"></ellipse>
		<ellipse class="st3" cx="51.6" cy="67.7" rx="8.7" ry="8.9"></ellipse>
		
			<ellipse transform="matrix(1.098739e-02 -0.9999 0.9999 1.098739e-02 85.2631 149.9242)" class="st3" cx="118.4" cy="31.9" rx="8.6" ry="7.9"></ellipse>
		<ellipse class="st3" cx="5.1" cy="60.3" rx="4.2" ry="4.3"></ellipse>
		<ellipse class="st3" cx="77" cy="97.5" rx="4.7" ry="4.8"></ellipse>
	</g>
</g>
</svg></svg></g></svg></g><g id="dark-icon"><svg xmlns="http://www.w3.org/2000/svg" version="1.1" xmlns:xlink="http://www.w3.org/1999/xlink" xmlns:svgjs="http://svgjs.com/svgjs" width="1000" height="1000"><g transform="matrix(7.8125,0,0,7.8125,-0.681249350309372,-0.3354092836380005)" style="filter: brightness(1.5)"><svg xmlns="http://www.w3.org/2000/svg" version="1.1" xmlns:xlink="http://www.w3.org/1999/xlink" xmlns:svgjs="http://svgjs.com/svgjs" width="128" height="128"><svg version="1.1" id="Capa_1" xmlns="http://www.w3.org/2000/svg" xmlns:xlink="http://www.w3.org/1999/xlink" x="0px" y="0px" viewBox="0 0 128 128" style="enable-background:new 0 0 128 128;" xml:space="preserve">
<style type="text/css">
	.st0{fill:#50465A;}
	.st1{fill:#0078A0;}
	.st2{fill:#FFA400;}
	.st3{fill:#3BBFAD;}
</style>
<g>
	<path class="st0" d="M119,22.3c-2.5,0-4.8,0.9-6.6,2.8c-1.8,1.8-2.8,4.3-2.8,6.9c0,0.8,0.1,1.5,0.2,2.2L77,52.1
		c-1-1.3-2.2-2.5-3.5-3.7c-6-5.4-13.3-8.1-21.8-8.1c-4,0-7.7,0.6-11.1,1.8l-3.1-5.8c2.3-2,3.8-4.9,3.9-8.2c0.1-2.9-1-5.7-3-7.7
		c-2-2.1-4.6-3.3-7.4-3.3c-5.8-0.1-10.6,4.7-10.7,10.7c-0.1,2.9,1,5.7,3,7.7c2,2.1,4.6,3.3,7.4,3.3c0.1,0,0.1,0,0.2,0
		c1,0,1.9-0.1,2.8-0.4l2.9,5.5c-2.4,1.2-4.6,2.8-6.6,4.6c-4.2,3.7-6.9,8-8.2,12.8L11,59.9c-0.4-2.7-2.6-4.8-5.3-4.9c0,0-0.1,0-0.1,0
		c-3,0-5.4,2.5-5.5,5.6c0,1.5,0.5,2.9,1.5,4c1,1.1,2.4,1.7,3.9,1.7c0,0,0.1,0,0.1,0c1.4,0,2.8-0.6,3.8-1.6c0.2-0.2,0.3-0.3,0.4-0.5
		L21,65.7c-0.1,0.8-0.1,1.7-0.1,2.5c0,7.7,3.1,14.3,9.1,19.8c0.9,0.8,1.7,1.5,2.7,2.1L29,95c-0.9-0.4-2-0.6-3.1-0.6
		c-4.6,0-8.3,3.7-8.3,8.3s3.7,8.3,8.3,8.3c4.6,0,8.3-3.7,8.3-8.3c0-1.9-0.7-3.7-1.7-5.1l3.9-5.1c4.6,2.4,9.7,3.6,15.4,3.6
		c6.4,0,12.1-1.6,17.2-4.7l3.1,3.6c-0.4,0.8-0.6,1.7-0.6,2.7c-0.1,3.4,2.6,6.2,5.9,6.3c0,0,0.1,0,0.1,0c3.2,0,5.9-2.7,6-6
		c0-1.6-0.6-3.2-1.7-4.4c-1.1-1.2-2.6-1.9-4.2-1.9c-0.8,0-1.5,0.1-2.2,0.4l-2.8-3.2c0.3-0.3,0.7-0.6,1-0.9
		c6.1-5.4,9.1-12.1,9.1-19.8c0-4.5-1.1-8.6-3.1-12.4l32-17.4c0.2,0.2,0.4,0.5,0.6,0.7c1.7,1.9,4,3,6.5,3c0.1,0,0.1,0,0.2,0
		c5,0,9.1-4.3,9.2-9.7C128.1,27,124,22.4,119,22.3z M61.6,65.6l4.7-2.6c0.8,1.6,1.1,3.4,1.1,5.4c0,3.8-1.4,6.9-4.4,9.6l-3.2-3.8
		c1.3-1.7,2-3.8,2-6C61.9,67.3,61.8,66.4,61.6,65.6z M45,60.7c-1,1-1.7,2.1-2.3,3.4L37,63.3c0.7-1.7,1.9-3.3,3.5-4.7
		c0.9-0.8,1.8-1.4,2.8-2l2,3.9C45.2,60.5,45.1,60.6,45,60.7z M36,68.4c0-0.2,0-0.5,0-0.7l5.9,0.8c0.1,2.3,0.9,4.5,2.4,6.2l-3.1,4.1
		c-0.2-0.2-0.5-0.4-0.7-0.6C37.5,75.4,36,72.2,36,68.4z M51.8,78.3c0.1,0,0.1,0,0.2,0c1.6,0,3.2-0.4,4.6-1.2l3,3.4
		c-2.3,1.2-4.9,1.8-7.7,1.8c-2.5,0-4.7-0.4-6.7-1.3l2.8-3.7C49.1,78,50.4,78.3,51.8,78.3z M52.1,57.8c-1,0-2,0.1-3,0.4l-1.7-3.3
		c1.4-0.3,2.8-0.5,4.4-0.5c4.4,0,8.1,1.4,11.2,4.2c0.3,0.3,0.6,0.5,0.8,0.8l-4.1,2.2C57.9,59.3,55.2,57.8,52.1,57.8z"></path>
	<g>
		<path class="st1" d="M39.1,78.6c-3.3-3-4.9-6.6-4.9-10.8c0-4.2,1.6-7.9,4.9-10.8c1-0.9,2.1-1.7,3.2-2.3l-5.5-10.3
			c-2.3,1.2-4.5,2.7-6.6,4.5c-5.8,5.2-8.7,11.5-8.7,18.8c0,7.3,2.9,13.6,8.7,18.8c1,0.9,2.1,1.8,3.2,2.5l7-9.3
			C40.1,79.4,39.6,79,39.1,78.6z"></path>
		<path class="st1" d="M67.3,62.5c0.7,1.6,1,3.4,1,5.3c0,4.2-1.7,7.8-5,10.8c-3.3,3-7.3,4.5-12,4.5c-2.4,0-4.7-0.4-6.8-1.2l-7.1,9.4
			c4.2,2,8.8,3,13.9,3c8.2,0,15.1-2.6,20.9-7.8c5.8-5.2,8.7-11.5,8.7-18.8c0-4-0.9-7.7-2.6-11.1L67.3,62.5z"></path>
		<path class="st1" d="M51.2,52.5c4.7,0,8.7,1.5,12,4.5c0.6,0.6,1.2,1.1,1.7,1.7l10.9-5.9c-1.1-1.4-2.3-2.7-3.7-3.9
			c-5.8-5.2-12.8-7.8-20.9-7.8c-3.7,0-7.1,0.5-10.3,1.6l5.5,10.4C47.9,52.7,49.5,52.5,51.2,52.5z"></path>
	</g>
	<g>
		<path class="st2" d="M29.7,95.3c0.5,0.3,1.1,0.6,1.5,1l15-19.8c-0.5-0.4-0.9-0.8-1.4-1.2L29.7,95.3z"></path>
		<path class="st2" d="M25.6,94.9c-4.2,0-7.5,3.4-7.5,7.5c0,4.1,3.4,7.5,7.5,7.5c4.2,0,7.5-3.4,7.5-7.5
			C33.1,98.2,29.7,94.9,25.6,94.9z"></path>
		<path class="st2" d="M47.8,58.7L36.4,37.2c-0.5,0.3-1,0.6-1.6,0.8l11.4,21.6C46.7,59.3,47.2,59,47.8,58.7z"></path>
		<path class="st2" d="M30.4,37.7c0.1,0,0.1,0,0.2,0c5.4,0,9.8-4.5,9.9-10c0-2.7-0.9-5.3-2.8-7.3c-1.8-2-4.3-3.1-7-3.1
			c-5.5-0.1-10,4.4-10.1,10c0,2.7,0.9,5.3,2.8,7.3C25.3,36.6,27.8,37.7,30.4,37.7z"></path>
		<path class="st2" d="M21.4,64.1c0.1-0.6,0.2-1.2,0.4-1.8l-0.2,0L11,60.9c0,0.6-0.1,1.2-0.4,1.8l10.5,1.4L21.4,64.1z"></path>
		<path class="st2" d="M42.1,66.8c0.1-0.6,0.2-1.2,0.4-1.8l-5.5-0.7c-0.2,0.6-0.4,1.2-0.5,1.8L42.1,66.8z"></path>
		<path class="st2" d="M59,75.3c0,0-0.1,0.1-0.1,0.1c-0.4,0.4-0.8,0.7-1.2,1l3,3.5l0.2,0.2c0.5-0.3,1-0.7,1.5-1.1l-0.2-0.2L59,75.3z
			"></path>
		<path class="st2" d="M74.1,92.7l-2.4-2.8c-0.5,0.4-1,0.7-1.5,1.1l2.6,3C73.2,93.5,73.6,93.1,74.1,92.7z"></path>
		<path class="st2" d="M107,36.7L86.6,47.8L60.1,62.2c0.3,0.5,0.6,1,0.9,1.6l25.5-13.9L107,38.8l3.6-2c-0.3-0.6-0.5-1.1-0.7-1.7
			L107,36.7z"></path>
		<path class="st2" d="M60.9,67.8c0.1-5.3-4-9.6-9.1-9.7c-2.5,0-4.8,0.9-6.6,2.7c-1.8,1.8-2.8,4.2-2.8,6.7c0,2.6,0.9,5,2.6,6.8
			c1.7,1.8,4,2.9,6.5,2.9c0.1,0,0.1,0,0.2,0c2.4,0,4.7-0.9,6.4-2.7C59.8,72.8,60.8,70.4,60.9,67.8z"></path>
		<path class="st2" d="M118.6,22.7c0,0-0.1,0-0.1,0c-2.2,0-4.3,0.9-5.9,2.6c-1.6,1.7-2.5,4-2.6,6.4c0,2.4,0.8,4.8,2.4,6.5
			c1.6,1.8,3.7,2.8,6,2.8c0,0,0.1,0,0.1,0c4.6,0,8.4-4,8.5-9C127,27,123.3,22.8,118.6,22.7z"></path>
		<path class="st2" d="M5.2,55.6C5.2,55.6,5.2,55.6,5.2,55.6c-2.5,0-4.5,2-4.6,4.6c0,1.2,0.4,2.4,1.3,3.3c0.8,0.9,2,1.4,3.2,1.4
			c0,0,0.1,0,0.1,0c2.5,0,4.5-2,4.5-4.6C9.7,57.8,7.7,55.7,5.2,55.6z"></path>
		<path class="st2" d="M77.1,92.3c-2.8-0.1-5.1,2.2-5.1,5.1c0,2.9,2.2,5.2,4.9,5.3c0,0,0.1,0,0.1,0c2.7,0,5-2.3,5-5.1
			c0-1.4-0.5-2.7-1.4-3.7C79.7,92.9,78.5,92.3,77.1,92.3z"></path>
	</g>
	<g>
		<ellipse class="st3" cx="25.6" cy="102.3" rx="7" ry="7"></ellipse>
		<ellipse class="st3" cx="30.6" cy="27.5" rx="9.3" ry="9.6"></ellipse>
		<ellipse class="st3" cx="51.6" cy="67.7" rx="8.7" ry="8.9"></ellipse>
		
			<ellipse transform="matrix(1.098739e-02 -0.9999 0.9999 1.098739e-02 85.2631 149.9242)" class="st3" cx="118.4" cy="31.9" rx="8.6" ry="7.9"></ellipse>
		<ellipse class="st3" cx="5.1" cy="60.3" rx="4.2" ry="4.3"></ellipse>
		<ellipse class="st3" cx="77" cy="97.5" rx="4.7" ry="4.8"></ellipse>
	</g>
</g>
</svg></svg></g></svg></g></svg>