<?xml version="1.0" encoding="utf-8"?>
<!-- Generator: Adobe Illustrator 23.0.0, SVG Export Plug-In . SVG Version: 6.00 Build 0)  -->
<svg version="1.1" id="Capa_1" xmlns:svgjs="http://svgjs.com/svgjs"
	 xmlns="http://www.w3.org/2000/svg" xmlns:xlink="http://www.w3.org/1999/xlink" x="0px" y="0px" viewBox="0 0 1000 1000"
	 style="enable-background:new 0 0 1000 1000;" xml:space="preserve">
<style type="text/css">
	.st0{fill:#46B3B3;}
	.st1{fill:#FFFFFF;}
</style>
<g>
	<g>
		<path class="st0" d="M937.8,557.3l-175.5,0c-19.7,0-41.4-11.8-41.4-35.5v-46.4c0-23.7,21.7-35.5,41.4-35.5h175.5V241.2h-179v5.2
			c0,102.2-61.5,186-184.6,186h-6.6v132.5l6.6,0c123.1,0,184.6,83.8,184.6,186l0,5.2l179,0L937.8,557.3z"/>
		<path class="st0" d="M435,564.9l0-132.5h-6.6c-123.1,0-184.6-83.8-184.6-186v-5.2l-181.6,0l0,198.8h178
			c19.7,0,41.4,11.8,41.4,35.5v46.4c0,23.7-21.7,35.5-41.4,35.5h-178v198.8h181.6l0-5.2c0-102.2,61.5-186,184.6-186L435,564.9z"/>
	</g>
	<g>
		<path class="st0" d="M753.6,756.1c-102.2,0-186-61.5-186-184.6v-6.6l-132.5,0v6.6c0,123.1-83.8,184.6-186,184.6h-5.2v181.7
			l198.8,0l0-178.1c0-19.7,11.8-41.4,35.5-41.4h46.4c23.7,0,35.5,21.7,35.5,41.4v178.1h198.8V756.1L753.6,756.1z"/>
		<path class="st0" d="M435,425.8l0,6.6h132.5l0-6.6c0-123.1,83.8-184.6,186-184.6h5.2l0-179H560v175.4c0,19.7-11.8,41.4-35.5,41.4
			h-46.4c-23.7,0-35.5-21.7-35.5-41.4V62.2H243.8l0,179l5.2,0C351.2,241.2,435,302.7,435,425.8z"/>
	</g>
	<g>
		<path class="st1" d="M758.7,750.9c0-102.2-61.5-186-184.6-186l-6.6,0v6.6c0,123,83.8,184.6,186,184.6l5.2,0L758.7,750.9z"/>
		<path class="st1" d="M243.8,750.9l0,5.2h5.2c102.2,0,186-61.5,186-184.6v-6.6l-6.6,0C305.4,564.9,243.8,648.7,243.8,750.9z"/>
		<path class="st1" d="M758.7,246.4v-5.2h-5.2c-102.2,0-186,61.5-186,184.6v6.6h6.6C697.2,432.4,758.7,348.6,758.7,246.4z"/>
		<path class="st1" d="M249,241.2h-5.2v5.2c0,102.2,61.5,186,184.6,186h6.6l0-6.6C435,302.7,351.2,241.2,249,241.2z"/>
	</g>
</g>
</svg>
