<?xml version="1.0" encoding="utf-8"?>
<!-- Generator: Adobe Illustrator 23.0.0, SVG Export Plug-In . SVG Version: 6.00 Build 0)  -->
<svg version="1.1" id="Capa_1" xmlns:svgjs="http://svgjs.com/svgjs"
	 xmlns="http://www.w3.org/2000/svg" xmlns:xlink="http://www.w3.org/1999/xlink" x="0px" y="0px" viewBox="0 0 1000 1000"
	 style="enable-background:new 0 0 1000 1000;" xml:space="preserve">
<style type="text/css">
	.st0{fill:#FFA400;}
</style>
<path class="st0" d="M762.1,50.1v589c0,66.8-2.2,113.7-6.5,140.7c-4.4,27-17.2,54.8-38.7,83.3c-21.4,28.5-49.6,50.1-84.6,64.8
	c-35,14.7-76.3,22-123.8,22c-52.6,0-99.1-8.7-139.4-26.1c-40.3-17.4-70.4-40.1-90.4-68c-20-27.9-31.8-57.4-35.4-88.5
	c-3.6-31-5.4-96.3-5.4-195.7V50.1h229.2v660.9c0,38.5,2.1,63.1,6.3,73.8c4.2,10.7,12.6,16.1,25.3,16.1c14.5,0,23.9-5.9,28-17.7
	c4.2-11.8,6.3-39.6,6.3-83.6V50.1H762.1z"/>
</svg>
