<?xml version="1.0" encoding="utf-8"?>
<!-- Generator: Adobe Illustrator 23.0.0, SVG Export Plug-In . SVG Version: 6.00 Build 0)  -->
<svg version="1.1" id="Capa_1" xmlns="http://www.w3.org/2000/svg" xmlns:xlink="http://www.w3.org/1999/xlink" x="0px" y="0px"
	 viewBox="0 0 864 174.2" style="enable-background:new 0 0 864 174.2;" xml:space="preserve">
<style type="text/css">
	.st0{fill:#282624;}
</style>
<path class="st0" d="M182,1.4h60.4c23.4,0.2,40.9,9.9,52.6,29.2c4.2,6.5,6.8,13.3,7.9,20.4c0.9,7.1,1.3,19.4,1.3,36.9
	c0,18.6-0.7,31.5-2,38.9c-0.6,3.7-1.6,7-2.8,10c-1.3,2.8-3,5.8-4.9,8.9c-5.1,8.1-12.1,14.9-21.1,20.2c-8.9,5.7-19.9,8.5-32.8,8.5
	H182V1.4z M208.2,149.5h31.3c14.7,0,25.4-5,32-15.1c2.9-3.7,4.8-8.4,5.6-14.1c0.7-5.6,1.1-16.1,1.1-31.5c0-15-0.4-25.8-1.1-32.2
	c-0.9-6.5-3.2-11.7-6.8-15.8c-7.3-10-17.5-14.9-30.8-14.6h-31.3V149.5z"/>
<path class="st0" d="M315.5,87.8c0-20.1,0.6-33.5,1.8-40.3c1.3-6.8,3.2-12.3,5.8-16.5c4.2-8,10.9-15.1,20.1-21.3
	c9.1-6.3,20.4-9.6,34-9.7c13.8,0.2,25.2,3.4,34.4,9.7c9.1,6.2,15.6,13.4,19.7,21.3c2.9,4.2,4.9,9.7,6,16.5c1,6.8,1.5,20.2,1.5,40.3
	c0,19.8-0.5,33.1-1.5,40.1c-1.1,7-3.1,12.5-6,16.7c-4,8-10.6,15-19.7,21.1c-9.2,6.3-20.6,9.6-34.4,10c-13.6-0.3-24.9-3.6-34-10
	c-9.2-6.1-16-13.1-20.1-21.1c-1.3-2.6-2.4-5.1-3.4-7.5c-0.9-2.4-1.7-5.5-2.4-9.2C316.1,120.9,315.5,107.6,315.5,87.8z M341.8,87.8
	c0,17,0.6,28.5,1.9,34.5c1.1,6,3.4,10.9,6.8,14.6c2.8,3.6,6.4,6.4,10.9,8.7c4.4,2.6,9.7,3.9,15.9,3.9c6.2,0,11.7-1.3,16.2-3.9
	c4.3-2.2,7.8-5.1,10.4-8.7c3.4-3.7,5.7-8.6,7-14.6c1.2-6,1.8-17.5,1.8-34.5c0-17-0.6-28.6-1.8-34.7c-1.3-5.8-3.6-10.6-7-14.3
	c-2.6-3.6-6.1-6.5-10.4-8.9c-4.6-2.3-10-3.5-16.2-3.7c-6.2,0.2-11.5,1.4-15.9,3.7c-4.5,2.4-8.1,5.3-10.9,8.9
	c-3.4,3.7-5.6,8.5-6.8,14.3C342.4,59.3,341.8,70.8,341.8,87.8z"/>
<path class="st0" d="M532.7,112.4l-25-75.5h-0.5l-25,75.5H532.7z M540.1,135.6h-65.5l-13.3,38.6h-27.7L496.4,1.4h21.9l62.8,172.8
	h-27.6L540.1,135.6z"/>
<path class="st0" d="M602.8,137.8c2.4,3.2,5.6,5.9,9.5,7.9c3.9,2.5,8.4,3.7,13.6,3.7c7,0.2,13.6-2.3,19.9-7.2
	c3.1-2.4,5.5-5.7,7.2-9.7c1.8-3.9,2.7-8.7,2.7-14.6V1.4H682v119.1c-0.3,17.4-6,30.8-17.1,40.3c-11,9.7-23.7,14.7-38.3,14.8
	c-20.1-0.5-35-8-44.9-22.5L602.8,137.8z"/>
</svg>
