<?xml version="1.0" encoding="utf-8"?>
<!-- Generator: Adobe Illustrator 23.0.0, SVG Export Plug-In . SVG Version: 6.00 Build 0)  -->
<svg version="1.1"
	 id="svg2" inkscape:version="0.92.1 r15371" sodipodi:docname="Scopus logo.svg" xmlns:cc="http://creativecommons.org/ns#" xmlns:dc="http://purl.org/dc/elements/1.1/" xmlns:inkscape="http://www.inkscape.org/namespaces/inkscape" xmlns:rdf="http://www.w3.org/1999/02/22-rdf-syntax-ns#" xmlns:sodipodi="http://sodipodi.sourceforge.net/DTD/sodipodi-0.dtd" xmlns:svg="http://www.w3.org/2000/svg"
	 xmlns="http://www.w3.org/2000/svg" xmlns:xlink="http://www.w3.org/1999/xlink" x="0px" y="0px" viewBox="0 0 345 52.2"
	 style="enable-background:new 0 0 345 52.2;" xml:space="preserve">
<style type="text/css">
	.st0{fill:#EA4335;}
	.st1{fill:#FBBC05;}
	.st2{fill:#4285F4;}
	.st3{fill:#34A853;}
	.st4{fill:#767676;}
</style>
<sodipodi:namedview  bordercolor="#666666" borderopacity="1" fit-margin-bottom="10" fit-margin-left="10" fit-margin-right="10" fit-margin-top="10" gridtolerance="10" guidetolerance="10" id="namedview4" inkscape:current-layer="svg2" inkscape:cx="119.80418" inkscape:cy="67.576223" inkscape:pageopacity="0" inkscape:pageshadow="2" inkscape:window-height="1224" inkscape:window-maximized="0" inkscape:window-width="1802" inkscape:window-x="0" inkscape:window-y="31" inkscape:zoom="1.0225" objecttolerance="10" pagecolor="#ffffff" showgrid="false">
	</sodipodi:namedview>
<g>
	<g>
		<path class="st0" d="M68.6,27.5c0,7.5-5.9,13-13.1,13s-13.1-5.5-13.1-13c0-7.6,5.9-13,13.1-13S68.6,19.9,68.6,27.5z M62.8,27.5
			c0-4.7-3.4-7.9-7.4-7.9S48,22.8,48,27.5c0,4.6,3.4,7.9,7.4,7.9S62.8,32.1,62.8,27.5z"/>
		<path class="st1" d="M96.8,27.5c0,7.5-5.9,13-13.1,13s-13.1-5.5-13.1-13c0-7.6,5.9-13,13.1-13S96.8,19.9,96.8,27.5z M91.1,27.5
			c0-4.7-3.4-7.9-7.4-7.9s-7.4,3.2-7.4,7.9c0,4.6,3.4,7.9,7.4,7.9S91.1,32.1,91.1,27.5z"/>
		<path class="st2" d="M123.8,15.2v23.4c0,9.6-5.7,13.6-12.4,13.6c-6.3,0-10.1-4.2-11.6-7.7l5-2.1c0.9,2.1,3.1,4.6,6.6,4.6
			c4.3,0,7-2.7,7-7.6v-1.9h-0.2c-1.3,1.6-3.8,3-6.9,3c-6.5,0-12.5-5.7-12.5-13c0-7.4,6-13.1,12.5-13.1c3.1,0,5.6,1.4,6.9,2.9h0.2
			v-2.1L123.8,15.2L123.8,15.2z M118.8,27.5c0-4.6-3.1-7.9-7-7.9c-4,0-7.3,3.4-7.3,7.9s3.3,7.9,7.3,7.9
			C115.7,35.4,118.8,32.1,118.8,27.5z"/>
		<path class="st3" d="M132.8,1.5v38.2h-5.6V1.5H132.8z"/>
		<path class="st0" d="M154.6,31.8l4.4,3c-1.4,2.1-4.9,5.8-10.9,5.8c-7.4,0-12.9-5.7-12.9-13c0-7.8,5.6-13,12.3-13
			c6.8,0,10.1,5.4,11.2,8.3l0.6,1.5l-17.4,7.2c1.3,2.6,3.4,4,6.3,4C151.1,35.4,153.1,33.9,154.6,31.8L154.6,31.8z M140.9,27.1
			l11.7-4.8c-0.6-1.6-2.6-2.8-4.8-2.8C144.8,19.5,140.7,22,140.9,27.1z"/>
		<path class="st2" d="M21.3,24.1v-5.5h18.6c0.2,1,0.3,2.1,0.3,3.3c0,4.2-1.1,9.3-4.8,12.9c-3.6,3.7-8.1,5.7-14.1,5.7
			c-11.2,0-20.5-9.1-20.5-20.2S10.1,0,21.3,0c6.2,0,10.6,2.4,13.9,5.6l-3.9,3.9c-2.4-2.2-5.6-4-10-4c-8.1,0-14.5,6.6-14.5,14.7
			S13.1,35,21.3,35c5.3,0,8.3-2.1,10.2-4.1c1.6-1.6,2.6-3.8,3-6.8L21.3,24.1z"/>
	</g>
</g>
<g>
	<path class="st4" d="M175.6,41.4h-4.7V5h5.7l17.7,28.4h0.2l-0.2-7V5h4.7v36.5h-4.9l-18.6-29.8h-0.2l0.2,7V41.4z"/>
	<path class="st4" d="M204.2,29c0-3.8,1.2-7,3.6-9.5c2.4-2.5,5.5-3.8,9.2-3.8c3.7,0,6.8,1.3,9.2,3.8c2.4,2.5,3.7,5.7,3.7,9.5
		c0,3.9-1.2,7-3.7,9.5c-2.4,2.5-5.5,3.8-9.2,3.8c-3.7,0-6.8-1.3-9.2-3.8C205.4,36,204.2,32.8,204.2,29z M208.8,29
		c0,2.7,0.8,4.9,2.3,6.5c1.6,1.7,3.5,2.5,5.8,2.5c2.3,0,4.2-0.8,5.8-2.5c1.6-1.7,2.3-3.8,2.3-6.5c0-2.7-0.8-4.8-2.3-6.5
		c-1.6-1.7-3.5-2.5-5.8-2.5c-2.3,0-4.2,0.8-5.8,2.5C209.6,24.2,208.8,26.3,208.8,29z"/>
	<path class="st4" d="M243.2,41.9c-2,0-3.7-0.6-5.1-1.9c-1.3-1.3-2-3-2.1-5.2v-14h-4.4v-4.3h4.4V8.8h4.7v7.6h6.1v4.3h-6.1v12.4
		c0,1.7,0.3,2.8,1,3.4c0.6,0.6,1.4,0.9,2.2,0.9c0.4,0,0.7,0,1.1-0.1c0.4-0.1,0.7-0.2,1-0.3l1.5,4.2
		C246.3,41.6,244.9,41.9,243.2,41.9z"/>
	<path class="st4" d="M257.7,7.9c0,0.9-0.3,1.7-1,2.3c-0.6,0.6-1.4,1-2.3,1c-0.9,0-1.7-0.3-2.3-1c-0.6-0.6-1-1.4-1-2.3
		c0-0.9,0.3-1.7,1-2.3c0.6-0.6,1.4-1,2.3-1c0.9,0,1.7,0.3,2.3,1C257.4,6.2,257.7,6.9,257.7,7.9z M256.7,16.5v25h-4.7v-25H256.7z"/>
	<path class="st4" d="M274,42.3c-3.7,0-6.8-1.3-9.2-3.8c-2.4-2.6-3.6-5.8-3.6-9.5c0-3.8,1.2-7,3.6-9.5c2.4-2.5,5.5-3.8,9.2-3.8
		c2.5,0,4.8,0.6,6.7,1.9c1.9,1.3,3.3,3,4.3,5.3l-4.3,1.8c-1.3-3.1-3.7-4.7-7-4.7c-2.1,0-4,0.9-5.6,2.6c-1.5,1.7-2.3,3.9-2.3,6.4
		c0,2.5,0.8,4.7,2.3,6.4c1.6,1.7,3.4,2.6,5.6,2.6c3.4,0,5.8-1.6,7.2-4.7l4.2,1.8c-0.9,2.2-2.4,4-4.3,5.3
		C278.9,41.6,276.6,42.3,274,42.3z"/>
	<path class="st4" d="M295.3,7.9c0,0.9-0.3,1.7-1,2.3c-0.6,0.6-1.4,1-2.3,1c-0.9,0-1.7-0.3-2.3-1c-0.6-0.6-1-1.4-1-2.3
		c0-0.9,0.3-1.7,1-2.3c0.6-0.6,1.4-1,2.3-1c0.9,0,1.7,0.3,2.3,1C294.9,6.2,295.3,6.9,295.3,7.9z M294.3,16.5v25h-4.7v-25H294.3z"/>
	<path class="st4" d="M309.6,15.7c3.5,0,6.2,0.9,8.2,2.8c2,1.9,3,4.4,3,7.6v15.4h-4.5V38h-0.2c-1.9,2.9-4.5,4.3-7.7,4.3
		c-2.8,0-5.1-0.8-6.9-2.4s-2.8-3.7-2.8-6.1c0-2.6,1-4.6,2.9-6.2c2-1.5,4.6-2.3,7.8-2.3c2.8,0,5.1,0.5,6.9,1.5v-1.1
		c0-1.6-0.6-3-1.9-4.2c-1.3-1.1-2.8-1.7-4.5-1.7c-2.6,0-4.7,1.1-6.2,3.3l-4.1-2.6C301.8,17.3,305.2,15.7,309.6,15.7z M303.6,33.8
		c0,1.2,0.5,2.2,1.6,3.1s2.3,1.2,3.6,1.2c2,0,3.7-0.7,5.3-2.2c1.5-1.5,2.3-3.2,2.3-5.1c-1.5-1.2-3.5-1.7-6.1-1.7
		c-1.9,0-3.5,0.5-4.8,1.4C304.2,31.3,303.6,32.4,303.6,33.8z"/>
	<path class="st4" d="M345,34.5c0,2.2-1,4-2.9,5.5c-1.9,1.5-4.3,2.2-7.2,2.2c-2.5,0-4.7-0.7-6.6-2c-1.9-1.3-3.3-3-4.1-5.2l4.2-1.8
		c0.6,1.5,1.5,2.7,2.7,3.5c1.2,0.8,2.5,1.2,3.8,1.2c1.5,0,2.7-0.3,3.7-1c1-0.6,1.5-1.4,1.5-2.3c0-1.6-1.2-2.8-3.7-3.5l-4.3-1.1
		c-4.9-1.2-7.3-3.6-7.3-7c0-2.3,0.9-4.1,2.8-5.5s4.2-2.1,7.1-2.1c2.2,0,4.2,0.5,6,1.6c1.8,1.1,3,2.5,3.7,4.2l-4.2,1.7
		c-0.5-1.1-1.2-1.9-2.3-2.5c-1.1-0.6-2.3-0.9-3.6-0.9c-1.2,0-2.3,0.3-3.3,0.9c-1,0.6-1.5,1.4-1.5,2.2c0,1.4,1.3,2.4,4,3.1l3.8,1
		C342.5,28.3,345,30.7,345,34.5z"/>
</g>
</svg>
