<?xml version="1.0" encoding="utf-8"?>
<!-- Generator: Adobe Illustrator 23.0.0, SVG Export Plug-In . SVG Version: 6.00 Build 0)  -->
<svg version="1.1"
	 id="svg2" inkscape:version="0.92.1 r15371" sodipodi:docname="Scopus logo.svg" xmlns:cc="http://creativecommons.org/ns#" xmlns:dc="http://purl.org/dc/elements/1.1/" xmlns:inkscape="http://www.inkscape.org/namespaces/inkscape" xmlns:rdf="http://www.w3.org/1999/02/22-rdf-syntax-ns#" xmlns:sodipodi="http://sodipodi.sourceforge.net/DTD/sodipodi-0.dtd" xmlns:svg="http://www.w3.org/2000/svg"
	 xmlns="http://www.w3.org/2000/svg" xmlns:xlink="http://www.w3.org/1999/xlink" x="0px" y="0px" viewBox="0 0 411.7 52.2"
	 style="enable-background:new 0 0 411.7 52.2;" xml:space="preserve">
<style type="text/css">
	.st0{fill:#EA4335;}
	.st1{fill:#FBBC05;}
	.st2{fill:#4285F4;}
	.st3{fill:#34A853;}
	.st4{fill:#767676;}
</style>
<sodipodi:namedview  bordercolor="#666666" borderopacity="1" fit-margin-bottom="10" fit-margin-left="10" fit-margin-right="10" fit-margin-top="10" gridtolerance="10" guidetolerance="10" id="namedview4" inkscape:current-layer="svg2" inkscape:cx="119.80418" inkscape:cy="67.576223" inkscape:pageopacity="0" inkscape:pageshadow="2" inkscape:window-height="1224" inkscape:window-maximized="0" inkscape:window-width="1802" inkscape:window-x="0" inkscape:window-y="31" inkscape:zoom="1.0225" objecttolerance="10" pagecolor="#ffffff" showgrid="false">
	</sodipodi:namedview>
<g>
	<g>
		<path class="st0" d="M68.6,27.5c0,7.5-5.9,13-13.1,13s-13.1-5.5-13.1-13c0-7.6,5.9-13,13.1-13S68.6,19.9,68.6,27.5z M62.8,27.5
			c0-4.7-3.4-7.9-7.4-7.9s-7.4,3.2-7.4,7.9c0,4.6,3.4,7.9,7.4,7.9S62.8,32.1,62.8,27.5z"/>
		<path class="st1" d="M96.8,27.5c0,7.5-5.9,13-13.1,13s-13.1-5.5-13.1-13c0-7.6,5.9-13,13.1-13S96.8,19.9,96.8,27.5z M91.1,27.5
			c0-4.7-3.4-7.9-7.4-7.9c-4,0-7.4,3.2-7.4,7.9c0,4.6,3.4,7.9,7.4,7.9C87.7,35.4,91.1,32.1,91.1,27.5z"/>
		<path class="st2" d="M123.8,15.2v23.4c0,9.6-5.7,13.6-12.4,13.6c-6.3,0-10.1-4.2-11.6-7.7l5-2.1c0.9,2.1,3.1,4.6,6.6,4.6
			c4.3,0,7-2.7,7-7.6v-1.9h-0.2c-1.3,1.6-3.8,3-6.9,3c-6.5,0-12.5-5.7-12.5-13c0-7.4,6-13.1,12.5-13.1c3.1,0,5.6,1.4,6.9,2.9h0.2
			v-2.1L123.8,15.2L123.8,15.2z M118.8,27.5c0-4.6-3.1-7.9-7-7.9c-4,0-7.3,3.4-7.3,7.9c0,4.5,3.3,7.9,7.3,7.9
			C115.7,35.4,118.8,32.1,118.8,27.5z"/>
		<path class="st3" d="M132.8,1.5v38.2h-5.6V1.5L132.8,1.5z"/>
		<path class="st0" d="M154.6,31.8l4.4,3c-1.4,2.1-4.9,5.8-10.9,5.8c-7.4,0-12.9-5.7-12.9-13c0-7.8,5.6-13,12.3-13
			c6.8,0,10.1,5.4,11.2,8.3l0.6,1.5l-17.4,7.2c1.3,2.6,3.4,4,6.3,4C151.1,35.4,153.1,33.9,154.6,31.8L154.6,31.8z M140.9,27.1
			l11.7-4.8c-0.6-1.6-2.6-2.8-4.8-2.8C144.8,19.5,140.7,22,140.9,27.1z"/>
		<path class="st2" d="M21.3,24.1v-5.5h18.6c0.2,1,0.3,2.1,0.3,3.3c0,4.2-1.1,9.3-4.8,12.9c-3.6,3.7-8.1,5.7-14.1,5.7
			c-11.2,0-20.5-9.1-20.5-20.2S10.1,0,21.3,0c6.2,0,10.6,2.4,13.9,5.6l-3.9,3.9c-2.4-2.2-5.6-4-10-4c-8.1,0-14.5,6.6-14.5,14.7
			S13.1,35,21.3,35c5.3,0,8.3-2.1,10.2-4.1c1.6-1.6,2.6-3.8,3-6.8L21.3,24.1z"/>
	</g>
	<g>
		<path class="st4" d="M176.7,39.7h-5l13.1-34.9h5.1L203,39.7h-5l-3.4-9.4h-14.7L176.7,39.7z M187.3,10.4l-5.7,15.7h11.6l-5.7-15.7
			H187.3z"/>
		<path class="st4" d="M216.8,40.5c-3.5,0-6.5-1.2-8.8-3.6c-2.3-2.5-3.5-5.5-3.5-9.1c0-3.7,1.2-6.7,3.5-9.1c2.3-2.4,5.3-3.6,8.8-3.6
			c2.4,0,4.6,0.6,6.4,1.8c1.8,1.2,3.2,2.9,4.1,5l-4.1,1.7c-1.3-3-3.5-4.5-6.7-4.5c-2,0-3.8,0.8-5.3,2.5c-1.5,1.7-2.2,3.7-2.2,6.1
			c0,2.4,0.7,4.5,2.2,6.1c1.5,1.7,3.3,2.5,5.3,2.5c3.3,0,5.6-1.5,6.9-4.5l4,1.7c-0.9,2.1-2.2,3.8-4.1,5
			C221.5,39.9,219.3,40.5,216.8,40.5z"/>
		<path class="st4" d="M240.8,15.1c3.3,0,5.9,0.9,7.8,2.7c1.9,1.8,2.9,4.2,2.9,7.3v14.7h-4.3v-3.3H247c-1.9,2.7-4.3,4.1-7.4,4.1
			c-2.6,0-4.8-0.8-6.6-2.3c-1.8-1.6-2.7-3.5-2.7-5.8c0-2.5,0.9-4.4,2.8-5.9s4.4-2.2,7.5-2.2c2.7,0,4.9,0.5,6.6,1.5v-1
			c0-1.6-0.6-2.9-1.9-4c-1.2-1.1-2.7-1.6-4.3-1.6c-2.5,0-4.5,1.1-5.9,3.2l-3.9-2.5C233.3,16.7,236.5,15.1,240.8,15.1z M235,32.4
			c0,1.2,0.5,2.1,1.5,2.9c1,0.8,2.2,1.2,3.5,1.2c1.9,0,3.6-0.7,5-2.1c1.5-1.4,2.2-3,2.2-4.9c-1.4-1.1-3.3-1.7-5.8-1.7
			c-1.8,0-3.3,0.4-4.6,1.3C235.6,30.1,235,31.1,235,32.4z"/>
		<path class="st4" d="M266.8,40.5c-3.1,0-5.8-1.2-8-3.7c-2.2-2.5-3.3-5.5-3.3-9c0-3.5,1.1-6.5,3.3-9c2.2-2.5,4.9-3.7,8-3.7
			c1.8,0,3.4,0.4,4.8,1.1c1.4,0.7,2.6,1.7,3.3,3h0.2l-0.2-3.3v-11h4.5v34.9h-4.3v-3.3h-0.2c-0.8,1.2-1.9,2.2-3.3,3
			C270.1,40.1,268.5,40.5,266.8,40.5z M267.5,36.4c2.2,0,4-0.8,5.4-2.4c1.5-1.6,2.2-3.7,2.2-6.2c0-2.5-0.7-4.6-2.2-6.2
			c-1.4-1.6-3.2-2.4-5.4-2.4c-2.1,0-3.9,0.8-5.4,2.4c-1.5,1.6-2.2,3.7-2.2,6.2c0,2.5,0.7,4.6,2.2,6.2
			C263.6,35.6,265.4,36.4,267.5,36.4z"/>
		<path class="st4" d="M295.8,40.5c-3.5,0-6.4-1.2-8.7-3.6c-2.3-2.4-3.4-5.4-3.4-9.1c0-3.6,1.1-6.7,3.3-9.1c2.2-2.4,5-3.6,8.5-3.6
			c3.5,0,6.4,1.1,8.4,3.4c2.1,2.3,3.1,5.5,3.1,9.6l0,0.5h-18.7c0.1,2.3,0.8,4.2,2.3,5.6c1.5,1.4,3.3,2.1,5.4,2.1
			c2.9,0,5.1-1.4,6.7-4.3l4,1.9c-1.1,2-2.6,3.6-4.5,4.7C300.3,40,298.2,40.5,295.8,40.5z M288.6,24.9h13.7c-0.1-1.7-0.8-3-2-4.1
			c-1.2-1.1-2.8-1.6-4.9-1.6c-1.7,0-3.1,0.5-4.4,1.6C289.8,21.8,289,23.2,288.6,24.9z M300.5,4.9l-3.5,6.2h-3.9l2.5-6.2H300.5z"/>
		<path class="st4" d="M315.8,39.7h-4.5V15.9h4.3v3.3h0.2c0.7-1.2,1.7-2.1,3.1-2.9c1.4-0.8,2.8-1.2,4.2-1.2c1.8,0,3.3,0.4,4.6,1.2
			c1.3,0.8,2.3,1.9,2.9,3.4c2-3.1,4.7-4.6,8.2-4.6c2.8,0,4.9,0.8,6.4,2.5c1.5,1.7,2.2,4.1,2.2,7.2v14.9h-4.5V25.5
			c0-2.2-0.4-3.9-1.2-4.8c-0.8-1-2.2-1.5-4.1-1.5c-1.7,0-3.2,0.7-4.3,2.2c-1.2,1.5-1.8,3.2-1.8,5.2v13.2h-4.5V25.5
			c0-2.2-0.4-3.9-1.2-4.8c-0.8-1-2.2-1.5-4.1-1.5c-1.7,0-3.2,0.7-4.3,2.2c-1.2,1.5-1.8,3.2-1.8,5.2V39.7z"/>
		<path class="st4" d="M358.5,7.6c0,0.9-0.3,1.6-0.9,2.2c-0.6,0.6-1.4,0.9-2.2,0.9c-0.9,0-1.6-0.3-2.2-0.9c-0.6-0.6-0.9-1.4-0.9-2.2
			s0.3-1.6,0.9-2.2c0.6-0.6,1.4-0.9,2.2-0.9c0.9,0,1.6,0.3,2.2,0.9C358.1,6,358.5,6.8,358.5,7.6z M357.5,15.9v23.9H353V15.9H357.5z"
			/>
		<path class="st4" d="M374.1,40.5c-3.5,0-6.5-1.2-8.8-3.6c-2.3-2.5-3.5-5.5-3.5-9.1c0-3.7,1.2-6.7,3.5-9.1c2.3-2.4,5.3-3.6,8.8-3.6
			c2.4,0,4.6,0.6,6.4,1.8c1.8,1.2,3.2,2.9,4.1,5l-4.1,1.7c-1.3-3-3.5-4.5-6.7-4.5c-2,0-3.8,0.8-5.3,2.5c-1.5,1.7-2.2,3.7-2.2,6.1
			c0,2.4,0.7,4.5,2.2,6.1c1.5,1.7,3.3,2.5,5.3,2.5c3.3,0,5.6-1.5,6.9-4.5l4,1.7c-0.9,2.1-2.2,3.8-4.1,5
			C378.7,39.9,376.6,40.5,374.1,40.5z"/>
		<path class="st4" d="M387.2,27.8c0-3.7,1.2-6.7,3.5-9.1c2.3-2.4,5.3-3.6,8.8-3.6c3.5,0,6.5,1.2,8.8,3.6c2.3,2.4,3.5,5.4,3.5,9.1
			c0,3.7-1.2,6.7-3.5,9.1c-2.3,2.4-5.2,3.6-8.8,3.6c-3.5,0-6.5-1.2-8.8-3.6C388.3,34.5,387.2,31.5,387.2,27.8z M391.7,27.8
			c0,2.6,0.7,4.6,2.2,6.2c1.5,1.6,3.3,2.4,5.6,2.4c2.2,0,4.1-0.8,5.6-2.4c1.5-1.6,2.2-3.7,2.2-6.2c0-2.5-0.7-4.6-2.2-6.2
			c-1.5-1.6-3.4-2.4-5.6-2.4s-4,0.8-5.6,2.4C392.4,23.2,391.7,25.3,391.7,27.8z"/>
	</g>
</g>
</svg>
