<?xml version="1.0" encoding="utf-8"?>
<!-- Generator: Adobe Illustrator 23.0.0, SVG Export Plug-In . SVG Version: 6.00 Build 0)  -->
<svg version="1.1" id="Capa_1" xmlns="http://www.w3.org/2000/svg" xmlns:xlink="http://www.w3.org/1999/xlink" x="0px" y="0px"
	 viewBox="0 0 1024 286" style="enable-background:new 0 0 1024 286;" xml:space="preserve">
<style type="text/css">
	.st0{fill:#FFFFFF;}
	.st1{fill:#50465A;}
	.st2{fill:#FFA400;}
	.st3{fill:#3BBFAD;}
</style>
<g>
	<g>
		<path class="st0" d="M1013.2,23.1c-5.1-4.8-12.1-7.2-21-7.2h-1.5c-12.1,0-20.2,3.9-24.2,11.8l-72.9,161.7L820.6,27.7
			c-4-7.8-12.1-11.8-24.4-11.8h-1.5c-8.8,0-15.8,2.4-21,7.2c-3.3,3.1-4.9,6.3-4.9,9.8c0,2,0.6,4.1,1.7,6.2l86.7,184.2
			c6.6,11.2,18.7,16.8,36.2,16.8c17.7,0,29.7-5.6,36.2-16.8L1016.6,39c1.1-2.1,1.7-4.1,1.7-6C1018.3,29.5,1016.6,26.2,1013.2,23.1z"
			/>
		<path class="st0" d="M297.9,187.4c-10.3-9.1-15.4-20-15.4-32.8c0-12.9,5.1-23.9,15.4-33c3.1-2.7,6.5-5,10-6.9l-17.1-31.4
			c-7.3,3.6-14.2,8.2-20.6,13.8C252,112.9,243,131.9,243,154.1c0,22.3,9.1,41.3,27.2,57.1c3.3,2.8,6.6,5.4,10.1,7.7l21.9-28.1
			C300.7,189.8,299.3,188.6,297.9,187.4z"/>
		<path class="st0" d="M385.8,138.5c2.1,5,3.1,10.3,3.1,16.1c0,12.8-5.2,23.7-15.6,32.8c-10.4,9.1-23,13.6-37.7,13.6
			c-7.7,0-14.7-1.2-21.2-3.7l-22.1,28.4c13,6.1,27.5,9.2,43.3,9.2c25.5,0,47.4-7.9,65.5-23.7c18.1-15.8,27.2-34.8,27.2-57.1
			c0-12.2-2.7-23.5-8.2-33.8L385.8,138.5z"/>
		<path class="st0" d="M335.7,108c14.7,0,27.2,4.5,37.7,13.6c1.9,1.7,3.7,3.5,5.3,5.3l34-18c-3.3-4.1-7.1-8.1-11.4-11.9
			c-18.1-15.8-40-23.7-65.5-23.7c-11.5,0-22.2,1.6-32.1,4.8l17.2,31.6C325.4,108.6,330.4,108,335.7,108z"/>
		<path class="st0" d="M750.1,73.6H647.6c-0.3,0-0.5,0-0.8,0.1c-8.6,2.9-14.3,11.1-13.8,19.8c0.4,8,5.9,15.1,13.8,17.7
			c0.2,0.1,0.5,0.1,0.8,0.1h81.9c5,0,9.4,2.9,13.1,8.7c3.5,5.4,5.2,11.4,5.2,18.2v0.1c0,1.9-2,3-3.7,2.1c-4.4-2.5-9.3-3.8-14.6-3.8
			h-59c-3,0.1-7.4,0.6-12.4,2.5c-1.5,0.6-8.4,3.3-14.7,10c-8.8,9.3-10.6,20.3-11.1,24.6c0,0,0,0,0,0.1c0,0.1,0,0.2,0,0.2
			c0,0.1-0.3,3.4-0.8,10.8c0.3,5.9,1.2,13.5,4,21.8c1.5,4.3,3.1,8.2,4.8,11.4l0,0c1.4,3.1,4.8,9.2,11.5,12.9
			c3.2,1.8,6.4,2.5,7.9,2.9c4.4,1,8.3,1,10.8,0.7h79.6c10.5,0,18.9-4.5,25.2-13.5c6.2-9.1,9.4-21.3,9.5-36.5v-57.8
			c0-14.4-3.4-26.8-10.3-37.3C767.6,78.9,759.4,73.6,750.1,73.6z M746.4,193.5c-2.2,2.5-5.3,3.3-8.7,4.1c-2.9,0.7-5.4,0.8-7.2,0.8
			c-11.6,0-23.3,0-34.9,0c-14.2-0.7-17.8-2.7-17.8-2.7c-1.6-1-4.7-2.9-6.5-6.8c-1.1-2.4-1.4-4.6-1.4-6c0-0.1,0-0.1,0-0.2
			c0.1-1.3,0.1-2.6,0.2-3.9c0-0.1,0-0.2,0-0.3c0.3-1.7,1.1-4.3,3-6.7c0,0,2.2-2.8,6.1-4.6c5.5-2.5,25-3.4,51.2-1.4c0,0,0.1,0,0.1,0
			c4.4,0,8.1,0.9,11.1,2.8c3,1.8,5,4,6.1,6.6c0.3,0.7,0.8,2.1,1,4.9C749.2,184.8,749.6,189.9,746.4,193.5z"/>
		<path class="st0" d="M211.9,21.7c-13.5-2.4-27.3-3.7-41.4-3.9c-46-0.6-85.4,9.6-118.3,30.5C19.3,69.2,2.7,94.7,2.3,124.8
			c-0.4,30.1,15.6,56,47.9,77.7c32.3,21.7,71.5,32.9,117.5,33.5c14.1,0.2,27.9-0.8,41.5-2.8c13.1-2.1,19.8-7.5,19.9-16.2l0-0.3
			c0.1-5.6-3.3-10.1-10.1-13.5c-4.5-2.4-9.5-3.6-14.9-3.7c-2.3,0-4.6,0.1-7.1,0.5c-9.6,1.4-19.2,2-28.9,1.9
			c-31.6-0.4-58.5-8-80.7-22.8c-22.2-14.9-33.1-32.7-32.9-53.5c0.3-20.8,11.7-38.3,34.2-52.7c22.5-14.3,49.6-21.3,81.2-20.9
			c9.7,0.1,19.3,1,28.8,2.7c2.4,0.4,4.8,0.6,7,0.6c5.4,0.1,10.4-1,15-3.3c6.9-3.4,10.4-7.8,10.4-13.3l0-0.4
			C231.5,29.6,225,24.1,211.9,21.7z"/>
		<path class="st0" d="M614.3,209.4c-5.4-3.3-11.8-4.9-19.2-4.9H532c-7.6,0-14.1-1.6-19.4-4.8c-5.3-3.2-8-7.1-8-11.7V40.3
			c0-4.6-2.7-8.5-8.2-11.8c-5.5-3.2-12-4.8-19.4-4.8h-0.7c-7.5,0-13.9,1.6-19.4,4.8c-5.5,3.3-8.2,7.2-8.2,11.8v147.6
			c0,13.8,8,25.7,23.9,35.5c15.9,9.8,35.1,14.7,57.6,14.7h65c7.4,0,13.8-1.6,19.2-4.9c5.4-3.1,8-7,8-11.7v-0.3
			C622.3,216.6,619.6,212.7,614.3,209.4z"/>
	</g>
	<g>
		<path class="st1" d="M1017.6,21.9c-5.8-5.5-13.8-8.3-23.7-8.3h-1.5c-13.7,0-23.1,4.7-27.7,14c0,0.1-0.1,0.1-0.1,0.2l-69.2,153.6
			L826,27.7c0-0.1,0-0.1-0.1-0.2c-4.7-9.3-14.1-14-28-14h-1.5c-9.8,0-17.7,2.8-23.7,8.3c-4.1,3.8-6.1,8.1-6.1,12.7
			c0,2.6,0.7,5.3,2.1,8l86.6,184.1c0.1,0.1,0.1,0.2,0.2,0.3c7.4,12.4,20.7,18.8,39.7,18.8c19.1,0,32.5-6.3,39.7-18.8
			c0.1-0.1,0.1-0.2,0.2-0.3l86.8-184.1c1.4-2.7,2.1-5.3,2.1-7.8C1024,30.1,1021.9,25.8,1017.6,21.9z M1016.6,39l-86.9,184.2
			c-6.5,11.2-18.6,16.8-36.2,16.8c-17.5,0-29.6-5.6-36.2-16.8L770.6,39c-1.1-2.1-1.7-4.2-1.7-6.2c0-3.4,1.6-6.7,4.9-9.8
			c5.2-4.8,12.2-7.2,21-7.2h1.5c12.3,0,20.4,3.9,24.4,11.8l73.1,161.7l72.9-161.7c4-7.8,12-11.8,24.2-11.8h1.5
			c8.9,0,15.9,2.4,21,7.2c3.4,3.2,5.1,6.5,5.1,9.9C1018.3,34.9,1017.7,36.9,1016.6,39z"/>
		<path class="st1" d="M234.9,218.5c0.1-5-2-12-12.3-17.2c-5.1-2.7-10.7-4.1-16.7-4.1c-2.5,0-5,0.1-7.7,0.5
			c-9.3,1.3-18.8,1.9-28.2,1.8c-30.7-0.4-57.1-7.8-78.5-22.1c-21.2-14.2-31.3-30.6-31.1-50.1c0.2-19.5,10.8-35.6,32.4-49.3
			c21.8-13.8,48.4-20.7,79-20.3c9.4,0.1,18.9,1,28.2,2.7c2.6,0.4,5.2,0.7,7.7,0.7c6,0.1,11.7-1.2,16.8-3.7
			c8.3-4.1,12.6-9.7,12.7-16.8l0-0.4c0.1-7.5-3.8-17.1-22.7-20.6c0,0,0,0,0,0c-13.7-2.4-27.8-3.8-42.1-3.9
			c-46.6-0.6-87.1,9.9-120.5,31.1C17.8,68.2,0.4,95.1,0,126.5c-0.4,31.4,16.3,58.7,49.7,81.1c32.8,22.1,73.1,33.6,119.7,34.2
			c1.1,0,2.3,0,3.4,0c13.1,0,26.1-1,38.8-2.9c19-3,23.2-12.6,23.3-20.2L234.9,218.5z M229.1,217c-0.1,8.8-6.7,14.2-19.9,16.2
			c-13.6,2.1-27.4,3-41.5,2.8c-46-0.6-85.2-11.8-117.5-33.5c-32.3-21.7-48.3-47.7-47.9-77.7c0.4-30.1,17-55.6,49.9-76.5
			c32.9-20.9,72.3-31.1,118.3-30.5c14.1,0.2,27.9,1.5,41.4,3.9c13.1,2.4,19.6,7.9,19.4,16.6l0,0.4c-0.1,5.5-3.5,9.9-10.4,13.3
			c-4.6,2.3-9.6,3.4-15,3.3c-2.3,0-4.6-0.2-7-0.6c-9.5-1.7-19.1-2.6-28.8-2.7c-31.6-0.4-58.7,6.6-81.2,20.9
			c-22.5,14.3-34,31.9-34.2,52.7c-0.3,20.8,10.7,38.6,32.9,53.5c22.2,14.8,49.1,22.4,80.7,22.8c9.7,0.1,19.3-0.5,28.9-1.9
			c2.4-0.3,4.8-0.5,7.1-0.5c5.4,0.1,10.4,1.3,14.9,3.7c6.8,3.4,10.2,8,10.1,13.5L229.1,217z"/>
		<path class="st1" d="M751.8,71.3H649.3c-0.7,0-1.4,0.1-2,0.3c-10.3,3.4-17.1,13.3-16.6,23.9c0.5,9.7,7.2,18.2,16.6,21.3
			c0.6,0.2,1.3,0.3,2,0.3h81.9c3.6,0,6.7,2.3,9.7,6.9c2.6,4.1,4.1,8.5,4.5,13.4c-4.4-2-9.1-3.1-14.2-3.1h-59c0,0-0.1,0-0.1,0
			c-4.7,0.2-9.3,1.1-13.7,2.8c-2.7,1-9.8,4.2-16.2,11c-9.1,9.6-11.5,21-12.2,26.9c0,0.1,0,0.2,0,0.2c0,0.1,0,0.3,0,0.3
			c0,0.4-0.2,2.7-0.8,10.6c0,0.2,0,0.3,0,0.5c0.3,7.8,1.8,15.6,4.2,22.9c1.4,4.1,3.1,8.1,5,11.9c2.1,4.6,6.1,10.8,13.2,14.7
			c3.8,2.1,7.5,2.9,8.9,3.2c2.8,0.6,5.7,1,8.5,1c1.1,0,2.2,0,3.4-0.1h79.4c11.8,0,21.4-5.1,28.5-15.3c6.7-9.8,10.1-22.8,10.2-38.7
			c0,0,0,0,0,0v-57.8c0-15.1-3.7-28.4-10.9-39.5C771.9,77.3,762.6,71.3,751.8,71.3z M784.7,184.5c-0.1,15.2-3.2,27.3-9.5,36.5
			c-6.3,9-14.7,13.5-25.2,13.5h-79.6c-2.6,0.2-6.4,0.3-10.8-0.7c-1.4-0.3-4.6-1.1-7.9-2.9c-6.7-3.7-10.1-9.8-11.5-12.9l0,0
			c-1.7-3.3-3.4-7.1-4.8-11.4c-2.8-8.4-3.8-15.9-4-21.8c0.6-7.4,0.8-10.7,0.8-10.8c0,0,0-0.1,0-0.2c0,0,0,0,0-0.1
			c0.5-4.3,2.3-15.3,11.1-24.6c6.3-6.6,13.2-9.4,14.7-10c5-1.9,9.4-2.4,12.4-2.5h59c5.3,0,10.2,1.3,14.6,3.8
			c1.6,0.9,3.7-0.2,3.7-2.1v-0.1c0-6.7-1.7-12.8-5.2-18.2c-3.7-5.8-8.1-8.7-13.1-8.7h-81.9c-0.3,0-0.5,0-0.8-0.1
			c-7.9-2.6-13.4-9.7-13.8-17.7c-0.5-8.8,5.2-17,13.8-19.8c0.2-0.1,0.5-0.1,0.8-0.1h102.4c9.4,0,17.5,5.3,24.4,15.8
			c6.9,10.5,10.3,22.9,10.3,37.3V184.5z"/>
		<path class="st1" d="M748,175.2c-1.1-2.6-3.1-4.8-6.1-6.6c-3.1-1.9-6.8-2.8-11.1-2.8c0,0-0.1,0-0.1,0c-26.2-2-45.7-1.1-51.2,1.4
			c-3.9,1.8-6.1,4.6-6.1,4.6c-1.9,2.4-2.7,5-3,6.7c0,0.1,0,0.2,0,0.3c-0.1,1.3-0.1,2.6-0.2,3.9c0,0.1,0,0.1,0,0.2
			c0,1.4,0.3,3.6,1.4,6c1.8,3.9,4.9,5.8,6.5,6.8c0,0,3.5,2.1,17.8,2.7c11.6,0,23.3,0,34.9,0c1.8,0,4.3-0.1,7.2-0.8
			c3.4-0.9,6.4-1.6,8.7-4.1c3.2-3.6,2.8-8.7,2.6-13.3C748.8,177.4,748.3,176,748,175.2z M681.7,194.1
			C681.7,194.1,681.6,194.1,681.7,194.1C681.7,194.1,681.7,194.1,681.7,194.1C681.7,194.1,681.7,194.1,681.7,194.1z M745.1,192.5
			c-1.4,1.5-3.4,2.1-6.7,2.9c-2,0.5-4,0.7-6.1,0.7c0,0-0.1,0-0.1,0l-34.8,0c-11.3-0.5-15.3-2-15.9-2.2c-1.4-0.9-3.5-2.3-4.8-5
			c-0.6-1.3-1-2.8-1-4.3l0.2-3.7c0.4-1.9,1.1-3.5,2.2-4.8c0,0,1.8-2.1,4.7-3.4c3.6-1.7,19.7-3.3,49.2-1c0.2,0,0.3,0,0.5,0
			c3.6,0,6.6,0.8,9.1,2.2c2.3,1.4,3.7,2.9,4.5,4.7c0.3,0.8,0.6,2,0.6,3.6l0,0.6C746.9,186.6,747.1,190.3,745.1,192.5z"/>
		<path class="st1" d="M618.1,207.7c-6-3.7-13.1-5.5-21.3-5.5h-63.1c-6.8,0-12.7-1.4-17.4-4.2c-6-3.6-6-7.1-6-8.2V72.7l14.2-7.5
			c0.6,0.7,1.1,1.4,1.8,2.1c5.3,5.8,12.6,9.1,20.3,9.2c0.2,0,0.3,0,0.5,0c15.7,0,28.6-13.1,28.9-29.5c0.3-16.6-12.4-30.3-28.3-30.6
			c-7.7-0.1-15.1,2.9-20.6,8.5c-5.5,5.6-8.6,13-8.7,21c0,2.3,0.2,4.6,0.6,6.8l-8.6,4.5V42c0-6.1-3.4-11.2-10.2-15.3
			c-6.1-3.6-13.3-5.4-21.5-5.4H478c-8.2,0-15.4,1.8-21.5,5.4c-6.8,4.1-10.2,9.2-10.2,15.2v49.1l-29.8,15.8
			c-3.2-3.9-6.8-7.6-10.9-11.1c-18.8-16.4-41.7-24.7-68.1-24.7c-12.4,0-24,1.8-34.8,5.4l-9.6-17.6c7.3-5.9,12-14.9,12.2-25.1
			c0.2-8.8-3.1-17.2-9.3-23.5c-6.1-6.4-14.4-9.9-23.2-10.1c-18.2-0.3-33.3,14.2-33.6,32.4c-0.2,8.8,3.1,17.2,9.3,23.5
			c6.1,6.4,14.4,9.9,23.2,10.1c0.2,0,0.4,0,0.6,0c3,0,5.9-0.4,8.7-1.2l9.1,16.7c-7.4,3.7-14.3,8.4-20.7,14
			c-13,11.3-21.6,24.4-25.7,39l-33.9-4.3c-1.2-8.2-8.2-14.6-16.7-14.8c-0.1,0-0.2,0-0.3,0c-9.4,0-17,7.5-17.2,16.9
			c-0.1,4.6,1.6,9,4.8,12.3c3.2,3.3,7.5,5.2,12.1,5.3c0.1,0,0.2,0,0.3,0c4.5,0,8.7-1.7,11.9-4.8c0.5-0.5,1-1,1.4-1.5l35.1,4.4
			c-0.2,2.5-0.4,5.1-0.4,7.7c0,23.4,9.6,43.6,28.6,60.1c2.7,2.3,5.4,4.5,8.3,6.5l-11.4,14.7c-3-1.1-6.2-1.8-9.6-1.8
			c-14.4,0-26.1,11.3-26.1,25.2c0,13.9,11.7,25.2,26.1,25.2c14.4,0,26.1-11.3,26.1-25.2c0-5.8-2-11.1-5.4-15.4l12.2-15.6
			c14.3,7.3,30.4,11.1,48.1,11.1c20,0,38-4.8,53.7-14.2l9.8,11c-1.2,2.4-2,5.2-2,8.1c-0.2,10.3,8.1,18.9,18.4,19c0.1,0,0.2,0,0.3,0
			c10.2,0,18.5-8.2,18.7-18.4c0.1-5-1.8-9.7-5.2-13.3c-3.5-3.6-8.1-5.6-13.1-5.7c-2.4,0-4.7,0.4-6.8,1.2l-8.7-9.8
			c1.1-0.9,2.1-1.7,3.1-2.6c19-16.5,28.6-36.7,28.6-60.1c0-13.7-3.3-26.3-9.8-37.7l22-11.6v83.1c0,15.3,8.7,28.3,25.8,38.9
			c16.5,10.2,36.6,15.3,59.7,15.3h65c8.1,0,15.3-1.9,21.3-5.5c8.3-4.8,10-10.9,10-15.1v-0.3C628.1,216.9,624.7,211.7,618.1,207.7z
			 M527.5,25.4c5-5.1,11.6-7.8,18.5-7.8c0.2,0,0.3,0,0.5,0c14.7,0.3,26.4,12.9,26.1,28.3c-0.3,15.2-12.2,27.3-26.6,27.3
			c-0.2,0-0.3,0-0.5,0c-7.1-0.1-13.8-3.1-18.7-8.5c-4.9-5.3-7.5-12.4-7.4-19.8C519.5,37.5,522.4,30.6,527.5,25.4z M510.3,60.1
			l9.2-4.9c0.5,1.8,1.2,3.6,2.1,5.3l-11.3,6V60.1z M191.5,145.9c-0.1,0-0.2,0-0.3,0c-3.8-0.1-7.3-1.6-9.9-4.3c-2.6-2.7-4-6.3-4-10.1
			c0.1-7.7,6.4-13.9,14.1-13.9c0.1,0,0.2,0,0.3,0c7.8,0.1,14,6.6,13.9,14.4C205.5,139.7,199.1,145.9,191.5,145.9z M335.7,73.4
			c25.5,0,47.4,7.9,65.5,23.7c4.3,3.8,8.1,7.7,11.4,11.9l-34,18c-1.6-1.8-3.3-3.6-5.3-5.3c-10.4-9.1-23-13.6-37.7-13.6
			c-5.3,0-10.3,0.6-15,1.7l-17.2-31.6C313.5,75,324.2,73.4,335.7,73.4z M368.2,147.8l14.8-7.8c2.4,5,3.6,10.4,3.6,16.3
			c0,11.5-4.5,21.1-13.7,29.3l-10.2-11.4c4-5.2,6.2-11.6,6.3-18.3C369.2,153.1,368.9,150.4,368.2,147.8z M355.8,180.9
			c1.4-0.9,2.6-2,3.9-3.2c0.2-0.1,0.3-0.3,0.4-0.5l9.7,10.9l0.5,0.6c-1.5,1.2-3.1,2.2-4.7,3.2l-0.5-0.6L355.8,180.9z M361.6,193.4
			c-7.2,3.6-15.2,5.3-24.2,5.3c-7.7,0-14.7-1.3-21-3.8l8.7-11.1c3.8,1.7,8,2.7,12.3,2.8c0.2,0,0.4,0,0.6,0c5.1,0,10-1.2,14.4-3.5
			L361.6,193.4z M357,175.1c-5.5,5.3-12.6,8.2-20.2,8.2c-0.2,0-0.4,0-0.5,0c-7.8-0.1-15-3.3-20.4-8.9c-5.4-5.6-8.3-12.9-8.2-20.7
			c0.1-7.8,3.3-15,8.9-20.4c5.6-5.4,12.9-8.3,20.7-8.2c16,0.3,28.8,13.6,28.6,29.6C365.7,162.4,362.6,169.7,357,175.1z M308.2,146
			c-0.6,1.8-1,3.6-1.2,5.5l-17.6-2.2c0.4-1.9,0.8-3.7,1.5-5.5L308.2,146z M291.3,140.8c2.3-5.3,5.9-10.1,10.9-14.4
			c2.7-2.4,5.6-4.4,8.7-6.1l6.4,11.7c-0.3,0.3-0.6,0.6-1,0.9c-3.1,2.9-5.4,6.4-7,10.2L291.3,140.8z M306.8,156.5
			c0.3,7,2.8,13.6,7.4,19l-9.7,12.5c-0.8-0.6-1.5-1.2-2.2-1.8c-9.5-8.3-14.1-18.1-14.1-29.8c0-0.7,0-1.4,0.1-2.1L306.8,156.5z
			 M338.5,124.1c-3.2-0.1-6.3,0.4-9.3,1.2l-5.5-10c4.3-1,8.9-1.6,13.7-1.6c13.8,0,25.3,4.1,35,12.6c0.9,0.8,1.8,1.6,2.6,2.4
			l-12.9,6.8C356.5,128.7,348,124.3,338.5,124.1z M271.1,63.2c-0.2,0-0.4,0-0.6,0c-8.3-0.1-16-3.5-21.8-9.5
			c-5.8-6-8.9-13.8-8.7-22.1c0.3-17.1,14.5-30.8,31.6-30.5c8.3,0.1,16,3.5,21.8,9.5c5.8,6,8.9,13.8,8.7,22.1
			C301.8,49.6,288,63.2,271.1,63.2z M284.3,64c1.8-0.7,3.4-1.5,5-2.5l35.6,65.4c-1.7,0.8-3.3,1.7-4.9,2.8L284.3,64z M241.7,143.2
			l-33-4.2c0.7-1.7,1-3.6,1.1-5.5l33,4.2l0.7,0.1c-0.4,1.8-0.8,3.7-1.1,5.5L241.7,143.2z M270.2,211.2
			C252,195.4,243,176.4,243,154.1c0-22.2,9.1-41.3,27.2-57.1c6.4-5.6,13.3-10.2,20.6-13.8l17.1,31.4c-3.5,1.9-6.9,4.2-10,6.9
			c-10.3,9.1-15.4,20.1-15.4,33c0,12.8,5.1,23.7,15.4,32.8c1.4,1.2,2.9,2.4,4.4,3.4L280.3,219C276.8,216.6,273.4,214.1,270.2,211.2z
			 M279,259.4c0,12.5-10.6,22.7-23.6,22.7c-13,0-23.6-10.2-23.6-22.7c0-12.5,10.6-22.7,23.6-22.7C268.4,236.8,279,246.9,279,259.4z
			 M273.2,241.2c-1.5-1.2-3.1-2.2-4.8-3l47.4-60.9c1.3,1.3,2.8,2.6,4.3,3.6L273.2,241.2z M416.7,229c4.2,0.1,8.1,1.8,11,4.8
			c2.9,3,4.5,7,4.4,11.2c-0.2,8.6-7.2,15.4-15.7,15.4c-0.1,0-0.2,0-0.3,0c-8.7-0.2-15.6-7.3-15.4-16
			C400.9,235.8,408,228.9,416.7,229z M407.3,230.3c-1.6,1-3,2.3-4.2,3.8L395,225c1.6-1,3.1-2.1,4.6-3.2L407.3,230.3z M428.4,154.1
			c0,22.3-9.1,41.3-27.2,57.1c-18.1,15.8-40,23.7-65.5,23.7c-15.9,0-30.3-3.1-43.3-9.2l22.1-28.4c6.5,2.4,13.6,3.7,21.2,3.7
			c14.7,0,27.2-4.5,37.7-13.6c10.4-9.1,15.6-20,15.6-32.8c0-5.7-1-11.1-3.1-16.1l34.3-18.1C425.6,130.7,428.4,141.9,428.4,154.1z
			 M446.3,100.3l-79.9,42.2c-0.8-1.7-1.7-3.4-2.8-4.9l82.7-43.7V100.3z M622.3,221.5c0,4.7-2.7,8.6-8,11.7
			c-5.4,3.3-11.8,4.9-19.2,4.9h-65c-22.5,0-41.7-4.9-57.6-14.7c-15.9-9.8-23.9-21.6-23.9-35.5V40.3c0-4.6,2.7-8.5,8.2-11.8
			c5.5-3.2,12-4.8,19.4-4.8h0.7c7.5,0,13.9,1.6,19.4,4.8c5.5,3.3,8.2,7.2,8.2,11.8v147.7c0,4.6,2.7,8.5,8,11.7
			c5.3,3.2,11.8,4.8,19.4,4.8h63.1c7.4,0,13.8,1.6,19.2,4.9c5.4,3.3,8,7.2,8,11.8V221.5z"/>
	</g>
	<g>
		<path class="st2" d="M268.4,238.2c1.7,0.8,3.3,1.9,4.8,3l47-60.3c-1.5-1.1-3-2.3-4.3-3.6L268.4,238.2z"/>
		<path class="st2" d="M255.4,236.8c-13,0-23.6,10.2-23.6,22.7c0,12.5,10.6,22.7,23.6,22.7c13,0,23.6-10.2,23.6-22.7
			C279,246.9,268.4,236.8,255.4,236.8z M255.4,280.6c-12.2,0-22.1-9.5-22.1-21.2c0-11.7,9.9-21.2,22.1-21.2
			c12.2,0,22.1,9.5,22.1,21.2C277.4,271.1,267.6,280.6,255.4,280.6z"/>
		<path class="st2" d="M324.9,126.9l-35.6-65.4c-1.6,1-3.3,1.8-5,2.5l35.7,65.7C321.6,128.7,323.2,127.7,324.9,126.9z"/>
		<path class="st2" d="M270.5,63.2c0.2,0,0.4,0,0.6,0c16.9,0,30.7-13.6,31-30.5c0.1-8.3-2.9-16.2-8.7-22.1c-5.8-6-13.5-9.3-21.8-9.5
			c-17.1-0.3-31.3,13.4-31.6,30.5c-0.1,8.3,2.9,16.2,8.7,22.1C254.5,59.6,262.2,63,270.5,63.2z M271.6,3.1
			c16,0.3,28.8,13.5,28.5,29.5c-0.3,16-13.5,28.8-29.5,28.5c-16-0.3-28.8-13.5-28.5-29.5C242.4,15.6,255.6,2.8,271.6,3.1z"/>
		<path class="st2" d="M242.3,143.3c0.3-1.9,0.7-3.7,1.1-5.5l-0.7-0.1l-33-4.2c-0.1,1.9-0.4,3.8-1.1,5.5l33,4.2L242.3,143.3z"/>
		<path class="st2" d="M307,151.5c0.2-1.9,0.6-3.7,1.2-5.5l-17.3-2.2c-0.6,1.8-1.1,3.6-1.5,5.5L307,151.5z"/>
		<path class="st2" d="M360.1,177.3c-0.1,0.1-0.3,0.3-0.4,0.5c-1.2,1.2-2.5,2.2-3.9,3.2l9.4,10.5l0.5,0.6c1.6-1,3.2-2,4.7-3.2
			l-0.5-0.6L360.1,177.3z"/>
		<path class="st2" d="M407.3,230.3l-7.6-8.6c-1.5,1.1-3.1,2.2-4.6,3.2l8.1,9.1C404.3,232.6,405.7,231.3,407.3,230.3z"/>
		<path class="st2" d="M366.4,142.5l79.9-42.2v-6.4l-82.7,43.7C364.7,139.1,365.6,140.8,366.4,142.5z"/>
		<path class="st2" d="M510.3,60.1v6.4l11.3-6c-0.8-1.7-1.5-3.4-2.1-5.3L510.3,60.1z"/>
		<path class="st2" d="M365.9,154.7c0.3-16-12.5-29.3-28.6-29.6c-7.8-0.1-15.1,2.8-20.7,8.2c-5.6,5.4-8.7,12.6-8.9,20.4
			c-0.1,7.8,2.8,15.1,8.2,20.7c5.4,5.6,12.6,8.7,20.4,8.9c0.2,0,0.4,0,0.5,0c7.6,0,14.7-2.9,20.2-8.2
			C362.6,169.7,365.7,162.4,365.9,154.7z M336.3,181.3c-15-0.3-26.9-12.6-26.7-27.6c0.3-15,12.6-26.9,27.6-26.7
			c15,0.3,26.9,12.6,26.7,27.6C363.7,169.6,351.3,181.6,336.3,181.3z"/>
		<path class="st2" d="M546.5,17.6c-0.2,0-0.3,0-0.5,0c-6.9,0-13.5,2.8-18.5,7.8c-5.1,5.2-8,12.1-8.1,19.5
			c-0.1,7.4,2.5,14.4,7.4,19.8c4.9,5.4,11.6,8.4,18.7,8.5c0.2,0,0.3,0,0.5,0c14.5,0,26.4-12.2,26.6-27.3
			C572.8,30.5,561.1,17.8,546.5,17.6z M545.5,71.4c-13.7-0.2-24.6-12.1-24.3-26.5c0.3-14.4,11.6-25.8,25.3-25.6
			c13.7,0.2,24.6,12.1,24.3,26.5S559.2,71.6,545.5,71.4z"/>
		<path class="st2" d="M191.7,117.6c-0.1,0-0.2,0-0.3,0c-7.7,0-14,6.2-14.1,13.9c-0.1,3.8,1.3,7.3,4,10.1c2.6,2.7,6.1,4.2,9.9,4.3
			c0.1,0,0.2,0,0.3,0c7.7,0,14-6.2,14.1-13.9C205.7,124.2,199.5,117.8,191.7,117.6z M191.2,144.9c-7.3-0.1-13.1-6.1-13-13.4
			c0.1-7.3,6.1-13.1,13.4-13c7.3,0.1,13.1,6.1,13,13.4C204.5,139.3,198.5,145.1,191.2,144.9z"/>
		<path class="st2" d="M416.7,229c-8.7-0.2-15.8,6.8-16,15.4c-0.2,8.7,6.8,15.8,15.4,16c0.1,0,0.2,0,0.3,0c8.5,0,15.6-6.9,15.7-15.4
			c0.1-4.2-1.5-8.2-4.4-11.2C424.8,230.8,420.9,229.1,416.7,229z M416.2,259.4c-8.1-0.1-14.6-6.8-14.4-14.9
			c0.1-8.1,6.8-14.6,14.9-14.4c8.1,0.1,14.6,6.8,14.4,14.9C431,253.1,424.3,259.6,416.2,259.4z"/>
	</g>
	<g>
		<ellipse class="st3" cx="255.4" cy="259.4" rx="22.1" ry="21.2"/>
		<ellipse transform="matrix(0.8717 -0.4901 0.4901 0.8717 19.0518 136.9731)" class="st3" cx="271.1" cy="32.1" rx="29" ry="29"/>
		<circle class="st3" cx="336.8" cy="154.1" r="27.2"/>
		
			<ellipse transform="matrix(1.778108e-02 -0.9998 0.9998 1.778108e-02 490.9255 590.4492)" class="st3" cx="546" cy="45.4" rx="26" ry="24.8"/>
		
			<ellipse transform="matrix(0.1586 -0.9873 0.9873 0.1586 31.0224 299.8924)" class="st3" cx="191.5" cy="131.7" rx="13.2" ry="13.2"/>
		
			<ellipse transform="matrix(0.808 -0.5892 0.5892 0.808 -64.2561 292.3362)" class="st3" cx="416.4" cy="244.8" rx="14.7" ry="14.7"/>
	</g>
</g>
</svg>
