<?xml version="1.0" encoding="utf-8"?>
<!-- Generator: Adobe Illustrator 23.0.0, SVG Export Plug-In . SVG Version: 6.00 Build 0)  -->
<svg version="1.1" id="Capa_1" xmlns="http://www.w3.org/2000/svg" xmlns:xlink="http://www.w3.org/1999/xlink" x="0px" y="0px"
	 viewBox="0 0 1024 266" style="enable-background:new 0 0 1024 266;" xml:space="preserve">
<style type="text/css">
	.st0{fill:#FFFFFF;}
	.st1{fill:#FFA400;}
</style>
<g>
	<path class="st0" d="M61.8,0.3V238H0V0.3H61.8z"/>
	<path class="st0" d="M144.6,43.1l-1,18.5c4.6-7.4,10.1-12.9,16.4-16.5c6.4-3.7,13.6-5.5,21.7-5.5c15.9,0,28.3,7.4,37.4,22.1
		c5-7.4,10.6-12.9,16.9-16.5c6.3-3.7,13.2-5.5,20.9-5.5c10.1,0,18.4,2.4,25,7.3c6.6,4.9,10.8,10.9,12.7,18
		c1.9,7.1,2.8,18.6,2.8,34.6V238h-57.6V111c0-16.6-0.6-26.9-1.7-30.9c-1.1-4-3.7-5.9-7.9-5.9c-4.2,0-6.9,2-8.1,5.9
		c-1.2,3.9-1.8,14.2-1.8,31v127h-57.6V114.2c0-19.1-0.5-30.5-1.4-34.4c-0.9-3.8-3.5-5.7-7.7-5.7c-2.6,0-4.9,1-6.8,3
		c-1.9,2-2.9,4.5-3.1,7.3c-0.2,2.9-0.3,9-0.3,18.4V238H86V43.1H144.6z"/>
	<path class="st0" d="M380.7,43.1l-1,17.2c5.3-7,11.1-12.2,17.5-15.6c6.4-3.4,13.3-5.1,20.9-5.1c9.2,0,17.2,2.5,23.9,7.4
		c6.7,4.9,10.9,10.6,12.6,17.1c1.7,6.5,2.5,17.4,2.5,32.9v82.1c0,17.7-1.1,30.3-3.2,37.8c-2.1,7.5-6.4,13.5-12.9,17.9
		c-6.5,4.5-14.4,6.7-23.6,6.7c-7.3,0-14.1-1.7-20.4-5.1c-6.3-3.4-12-8.5-17.2-15.3v44.7h-59.3V43.1H380.7z M397.6,99.8
		c0-12-0.4-19.3-1.3-21.9c-0.9-2.5-3.3-3.8-7.3-3.8c-3.9,0-6.4,1.5-7.6,4.4c-1.1,2.9-1.7,10-1.7,21.3v80.8c0,11.7,0.6,19.1,1.8,22
		c1.2,2.9,3.7,4.4,7.6,4.4c3.8,0,6.2-1.3,7.1-4c0.9-2.7,1.4-9.2,1.4-19.6V99.8z"/>
	<path class="st0" d="M531.9,118.6h-55.7v-13.1c0-15.1,1.7-26.7,5.2-34.9c3.5-8.2,10.4-15.4,20.9-21.7c10.5-6.3,24.1-9.4,40.8-9.4
		c20.1,0,35.2,3.5,45.4,10.6c10.2,7.1,16.3,15.8,18.4,26.1c2.1,10.3,3.1,31.6,3.1,63.8V238h-57.7v-17.4c-3.6,7-8.3,12.2-14,15.7
		c-5.7,3.5-12.6,5.2-20.5,5.2c-10.4,0-19.9-2.9-28.6-8.7c-8.7-5.8-13-18.6-13-38.3v-16c0-14.6,2.3-24.5,6.9-29.8
		c4.6-5.3,16-11.5,34.2-18.5c19.5-7.6,29.9-12.8,31.3-15.4c1.4-2.6,2.1-8,2.1-16.2c0-10.2-0.8-16.8-2.3-19.9c-1.5-3.1-4-4.6-7.6-4.6
		c-4,0-6.5,1.3-7.5,3.9c-1,2.6-1.5,9.3-1.5,20.2V118.6z M550.7,145.3c-9.5,7-15,12.8-16.5,17.5c-1.5,4.7-2.3,11.5-2.3,20.3
		c0,10.1,0.7,16.6,2,19.5c1.3,2.9,3.9,4.4,7.9,4.4c3.7,0,6.1-1.1,7.3-3.5c1.1-2.3,1.7-8.3,1.7-18.1V145.3z"/>
	<path class="st0" d="M763.1,116.7h-55.9V94.2c0-7.8-0.6-13.1-1.9-15.9c-1.3-2.8-3.6-4.2-7-4.2c-3.4,0-5.7,1.2-6.9,3.7
		c-1.2,2.4-1.8,7.9-1.8,16.4v91.9c0,7,0.9,12.2,2.6,15.6c1.8,3.5,4.4,5.2,7.8,5.2c4,0,6.7-1.8,8.1-5.4c1.4-3.6,2.1-10.5,2.1-20.6
		v-23.2h52.9c-0.1,15.6-0.7,27.2-1.7,35c-1,7.8-4.3,15.8-9.8,23.9c-5.5,8.2-12.7,14.3-21.7,18.5c-8.9,4.2-19.9,6.2-33,6.2
		c-16.7,0-30-2.9-39.8-8.6c-9.8-5.7-16.7-13.8-20.8-24.1c-4.1-10.3-6.1-25-6.1-44v-55.4c0-16.5,1.7-29,5-37.4
		c3.3-8.4,10.4-15.9,21.3-22.5s24.1-9.9,39.6-9.9c15.5,0,28.7,3.3,39.6,9.8c11,6.6,18.3,14.8,21.9,24.8
		C761.3,84.3,763.1,98.4,763.1,116.7z"/>
	<path class="st0" d="M848.6,17.1v30.7h16v30.8h-16v104.3c0,12.8,0.7,20,2,21.4c1.3,1.5,6.8,2.2,16.5,2.2V238h-23.9
		c-13.5,0-23.2-0.6-28.9-1.7c-5.8-1.1-10.9-3.7-15.3-7.8c-4.4-4.1-7.1-8.7-8.2-13.9c-1.1-5.2-1.6-17.5-1.6-36.9v-99h-12.8V47.8h12.8
		V17.1H848.6z"/>
	<path class="st1" d="M1024,0.3v158.9c0,18-0.6,30.7-1.8,38c-1.2,7.3-4.7,14.8-10.4,22.5c-5.8,7.7-13.4,13.5-22.8,17.5
		c-9.4,4-20.6,5.9-33.4,5.9c-14.2,0-26.7-2.3-37.6-7c-10.9-4.7-19-10.8-24.4-18.4c-5.4-7.5-8.6-15.5-9.5-23.9
		c-1-8.4-1.5-26-1.5-52.8V0.3h61.8v178.3c0,10.4,0.6,17,1.7,19.9c1.1,2.9,3.4,4.3,6.8,4.3c3.9,0,6.4-1.6,7.6-4.8
		c1.1-3.2,1.7-10.7,1.7-22.5V0.3H1024z"/>
</g>
</svg>
