<?xml version="1.0" encoding="utf-8"?>
<!-- Generator: Adobe Illustrator 23.0.0, SVG Export Plug-In . SVG Version: 6.00 Build 0)  -->
<svg version="1.1" id="Capa_1" xmlns="http://www.w3.org/2000/svg" xmlns:xlink="http://www.w3.org/1999/xlink" x="0px" y="0px"
	 viewBox="0 0 1552 325" style="enable-background:new 0 0 1552 325;" xml:space="preserve">
<style type="text/css">
	.st0{fill:#FFFFFF;}
	.st1{fill:#FFAA00;}
	.st2{fill:#46B3B3;}
</style>
<g>
	<g>
		<g>
			<rect x="441.6" y="2.1" class="st0" width="59.9" height="275.3"/>
			<path class="st0" d="M714.7,57.1h-3.5c-13.7,0-28.3,8.7-44.5,22.6l-1.2,1l-0.6-1.3c-5.5-13.1-17.2-22.3-33.1-22.3h-3.5
				c-12.3,0-25.7,7.9-42.3,20.7l-1.7,1.3V57.5h-53.4v219.8h54.3V107.7c0,0,1.7-1.8,4.9-3.8c2.5-1.5,6.6-2.7,9.9-2.7
				c7.6,0,11.7,3.3,11.7,9.7v166.5H668V107.7c0,0,1.9-1.8,4.9-3.8c3.7-2.5,6.6-2.7,9.9-2.7c7.6,0,11.7,3.3,11.7,9.7v166.5h56.4V90.2
				C750.9,66.6,739,57.1,714.7,57.1z"/>
			<path class="st0" d="M878.8,57.1h-0.9c-13.8,0-28.2,7.9-42.7,19.6l-1.8,1.4V57.5h-53.4v267.4h54.3v-65.6l1.7,1.2
				c14.2,10.1,28.3,17.2,41.9,17.2h0.9c12.6,0,22.5-3.2,29.4-9.6c6.9-6.4,10.3-13.8,10.3-25.9V92.6c0-12.1-3.5-21.5-10.3-27.9
				C901.3,58.3,891.5,57.1,878.8,57.1z M862.2,223.2c0,4.3-2.2,9.5-12.6,9.5c-4.8,0-9.7-0.8-14.5-2.4l-0.7-0.2V108.6
				c0,0,2.2-2.3,4.7-3.7c3.2-1.8,6.9-2.7,10.5-2.7c10.4,0,12.6,5.2,12.6,9.5V223.2z"/>
			<path class="st0" d="M1026.7,55.1h-27.5c-17.6,0-31,4-39.8,11.8c-8.8,7.8-11.2,19.8-11.2,35.6v30.3h49.9v-24
				c0-6.3,4-9.7,11.7-9.7h3.5c7.1,0,12.9,3.3,12.9,9.7v29.6l-50.7,18.9c-12.1,3.6-18.6,10.5-23.2,16.5c-4.6,6-6.9,15.1-6.9,27v41.9
				c0,11.3,3.2,20.1,9.5,26.1c6.3,6,15.5,9,27.2,9h0.9c13.3,0,27.5-7.7,42.3-18.8l1.7-1.3v19.7h50.4V102.5
				c0-15.8-4.4-27.7-13.2-35.6S1044.3,55.1,1026.7,55.1z M1026.3,232.2l-0.7,0.2c-3.9,1.4-10.8,2-16.2,2c-10,0-12.1-5.2-12.1-9.7
				v-26.5c0-6.2,3-10.6,9-13.1l20-7.3V232.2z"/>
			<g>
				<path class="st0" d="M1173.9,101.2h-0.4c7.1,0,12.9,3.3,12.9,9.7v36.7h0.4v-36.7C1186.8,104.5,1180.9,101.2,1173.9,101.2z"/>
				<path class="st0" d="M1186.8,224v-36.7h-0.4V224c0,6.3-5.8,9.7-12.9,9.7h0.4C1180.9,233.7,1186.8,230.3,1186.8,224z"/>
				<path class="st0" d="M1233.1,102.5c0-18.2-17.6-47.4-50.9-47.4h-23.4c-33.2,0-52.9,29.2-52.9,47.4v127.9
					c0,20,19.7,49.4,52.9,49.4h23.4c33.3,0,50.9-28.4,50.9-49.4v-43h-46.4V224c0,6.3-5.8,9.7-12.9,9.7h-0.4h-4.4
					c-7.8,0-12.9-3.8-12.9-9.7V110.8c0-5.9,5.1-9.7,12.9-9.7h4.4h0.4c7.1,0,12.9,3.3,12.9,9.7v36.7h46.4V102.5z"/>
			</g>
			<path class="st1" d="M1484.8,1.1v214.1c0,6.6-4,13.9-11.9,13.9h-15.6c-7.9,0-11.9-7.3-11.9-13.9V1.1h-66.7v217
				c0,34.3,20.7,62.5,62,62.5h48.9c41.3,0,62-28.2,62-62.5V1.1H1484.8z"/>
			<g>
				<polygon class="st0" points="1320.1,21.5 1263.7,21.5 1263.7,57.2 1247.7,57.2 1247.7,98.9 1263.7,98.9 1263.7,277.3 
					1320.1,277.3 1320.1,98.9 1343.1,98.9 1343.1,57.2 1320.1,57.2 				"/>
			</g>
		</g>
	</g>
	<g>
		<g>
			<path class="st2" d="M275.4,157.8l-55.1,0c-6.2,0-13-3.7-13-11.1v-14.6c0-7.4,6.8-11.2,13-11.2h55.1V58.5h-56.2v1.6
				c0,32.1-19.3,58.4-58,58.4h-2.1v41.6l2.1,0c38.7,0,58,26.3,58,58.4l0,1.6l56.2,0L275.4,157.8z"/>
			<path class="st2" d="M117.5,160.2l0-41.6h-2.1c-38.7,0-58-26.3-58-58.4v-1.6l-57,0l0,62.4h55.9c6.2,0,13,3.7,13,11.1v14.6
				c0,7.4-6.8,11.1-13,11.1H0.4v62.4h57l0-1.6c0-32.1,19.3-58.4,58-58.4L117.5,160.2z"/>
		</g>
		<g>
			<path class="st2" d="M217.6,220.3c-32.1,0-58.4-19.3-58.4-58v-2.1l-41.6,0v2.1c0,38.7-26.3,58-58.4,58h-1.6v57.1l62.4,0l0-55.9
				c0-6.2,3.7-13,11.1-13h14.6c7.4,0,11.1,6.8,11.1,13v55.9h62.4v-57.1L217.6,220.3z"/>
			<path class="st2" d="M117.5,116.5l0,2.1h41.6l0-2.1c0-38.7,26.3-58,58.4-58h1.6l0-56.2h-62.4v55.1c0,6.2-3.7,13-11.1,13H131
				c-7.4,0-11.2-6.8-11.2-13V2.3H57.5l0,56.2l1.6,0C91.2,58.5,117.5,77.9,117.5,116.5z"/>
		</g>
		<g>
			<path class="st0" d="M219.2,218.6c0-32.1-19.3-58.4-58-58.4l-2.1,0v2.1c0,38.6,26.3,58,58.4,58l1.6,0L219.2,218.6z"/>
			<path class="st0" d="M57.5,218.6l0,1.6h1.6c32.1,0,58.4-19.3,58.4-58v-2.1l-2.1,0C76.8,160.2,57.5,186.5,57.5,218.6z"/>
			<path class="st0" d="M219.2,60.2v-1.6h-1.6c-32.1,0-58.4,19.3-58.4,58v2.1h2.1C199.9,118.6,219.2,92.3,219.2,60.2z"/>
			<path class="st0" d="M59.1,58.5h-1.6v1.6c0,32.1,19.3,58.4,58,58.4h2.1l0-2.1C117.5,77.9,91.2,58.5,59.1,58.5z"/>
		</g>
	</g>
</g>
</svg>
