<?xml version="1.0" encoding="utf-8"?>
<!-- Generator: Adobe Illustrator 23.0.0, SVG Export Plug-In . SVG Version: 6.00 Build 0)  -->
<svg version="1.1"
	 id="svg2" inkscape:version="0.92.1 r15371" sodipodi:docname="Scopus logo.svg" xmlns:cc="http://creativecommons.org/ns#" xmlns:dc="http://purl.org/dc/elements/1.1/" xmlns:inkscape="http://www.inkscape.org/namespaces/inkscape" xmlns:rdf="http://www.w3.org/1999/02/22-rdf-syntax-ns#" xmlns:sodipodi="http://sodipodi.sourceforge.net/DTD/sodipodi-0.dtd" xmlns:svg="http://www.w3.org/2000/svg"
	 xmlns="http://www.w3.org/2000/svg" xmlns:xlink="http://www.w3.org/1999/xlink" x="0px" y="0px" viewBox="0 0 411.7 77.4"
	 style="enable-background:new 0 0 411.7 77.4;" xml:space="preserve">
<style type="text/css">
	.st0{fill:#1D9ADA;}
</style>
<sodipodi:namedview  bordercolor="#666666" borderopacity="1" fit-margin-bottom="10" fit-margin-left="10" fit-margin-right="10" fit-margin-top="10" gridtolerance="10" guidetolerance="10" id="namedview4" inkscape:current-layer="svg2" inkscape:cx="119.80418" inkscape:cy="67.576223" inkscape:pageopacity="0" inkscape:pageshadow="2" inkscape:window-height="1224" inkscape:window-maximized="0" inkscape:window-width="1802" inkscape:window-x="0" inkscape:window-y="31" inkscape:zoom="1.0225" objecttolerance="10" pagecolor="#ffffff" showgrid="false">
	</sodipodi:namedview>
<g>
	<path class="st0" d="M61.3,77.4C48.3,67.8,26.8,51.5,0,47.9l11.4-11.2C44.3,49.4,61.3,77.4,61.3,77.4z M1.4,59.4l8.9-7.1
		c26.1,6.4,48.2,25.1,48.2,25.1C49.2,72.1,22.8,59.2,1.4,59.4z M9.6,33.5L39.4,7l6.4,3.7L31.4,27.1C46.9,40,64.2,53.6,62.7,75.9
		C47.3,54.2,29.2,38.6,9.6,33.5L9.6,33.5z M35.1,26.6L58,0C70.2,10,77,25.5,77,33.9c-1,10.7-11.5,36.6-12.4,39.5
		C63.9,66.9,69.2,55.4,35.1,26.6z"/>
	<g>
		<path d="M117.4,54.3h-3V37.1c0-1.4,0.1-3,0.3-5h-0.1c-0.3,1.2-0.5,2-0.8,2.5L105,54.3h-1.5l-8.8-19.6c-0.3-0.6-0.5-1.5-0.8-2.6
			h-0.1c0.1,1,0.1,2.7,0.1,5v17.2h-2.9V28.6h4l7.9,17.9c0.6,1.4,1,2.4,1.2,3.1h0.1c0.5-1.4,0.9-2.5,1.2-3.2l8.1-17.9h3.8V54.3z"/>
		<path d="M125.1,31.3c-0.5,0-1-0.2-1.3-0.5c-0.4-0.4-0.6-0.8-0.6-1.4s0.2-1,0.6-1.4c0.4-0.4,0.8-0.5,1.3-0.5c0.5,0,1,0.2,1.4,0.5
			c0.4,0.4,0.6,0.8,0.6,1.4c0,0.5-0.2,1-0.6,1.3C126.1,31.1,125.7,31.3,125.1,31.3z M126.6,54.3h-2.9V36h2.9V54.3z"/>
		<path d="M145,53.5c-1.4,0.8-3.1,1.3-5,1.3c-2.6,0-4.7-0.9-6.3-2.6s-2.4-3.9-2.4-6.6c0-3,0.9-5.5,2.6-7.3c1.7-1.8,4-2.8,6.9-2.8
			c1.6,0,3,0.3,4.3,0.9v3c-1.4-1-2.8-1.4-4.4-1.4c-1.9,0-3.4,0.7-4.6,2c-1.2,1.3-1.8,3.1-1.8,5.3c0,2.2,0.6,3.9,1.7,5.1
			c1.1,1.2,2.6,1.9,4.5,1.9c1.6,0,3.1-0.5,4.5-1.6V53.5z"/>
		<path d="M158.7,38.9c-0.5-0.4-1.3-0.6-2.2-0.6c-1.3,0-2.3,0.6-3.1,1.8c-0.8,1.2-1.3,2.8-1.3,4.8v9.4h-2.9V36h2.9v3.8h0.1
			c0.4-1.3,1.1-2.3,1.9-3c0.9-0.7,1.8-1.1,2.9-1.1c0.8,0,1.4,0.1,1.8,0.3V38.9z"/>
		<path d="M169.9,54.8c-2.7,0-4.9-0.9-6.5-2.6c-1.6-1.7-2.4-4-2.4-6.8c0-3.1,0.8-5.5,2.5-7.2c1.7-1.7,4-2.6,6.8-2.6
			c2.7,0,4.9,0.8,6.4,2.5c1.5,1.7,2.3,4,2.3,7c0,2.9-0.8,5.3-2.5,7C174.9,53.9,172.7,54.8,169.9,54.8z M170.1,38
			c-1.9,0-3.4,0.6-4.5,1.9c-1.1,1.3-1.6,3.1-1.6,5.3c0,2.2,0.6,3.9,1.7,5.1c1.1,1.3,2.6,1.9,4.5,1.9c1.9,0,3.4-0.6,4.4-1.8
			c1-1.2,1.5-3,1.5-5.3c0-2.3-0.5-4.1-1.5-5.3C173.5,38.6,172,38,170.1,38z"/>
		<path d="M182.7,53.7v-3.2c1.6,1.2,3.4,1.8,5.3,1.8c2.6,0,3.9-0.9,3.9-2.6c0-0.5-0.1-0.9-0.3-1.2c-0.2-0.3-0.5-0.6-0.9-0.9
			s-0.8-0.5-1.3-0.7c-0.5-0.2-1.1-0.4-1.6-0.7c-0.8-0.3-1.5-0.6-2.1-1c-0.6-0.3-1.1-0.7-1.5-1.1c-0.4-0.4-0.7-0.9-0.9-1.4
			c-0.2-0.5-0.3-1.1-0.3-1.8c0-0.9,0.2-1.6,0.6-2.3c0.4-0.7,0.9-1.2,1.6-1.7c0.7-0.4,1.4-0.8,2.3-1c0.8-0.2,1.7-0.3,2.6-0.3
			c1.6,0,3,0.3,4.3,0.8v3c-1.4-0.9-2.9-1.3-4.7-1.3c-0.5,0-1,0.1-1.5,0.2c-0.4,0.1-0.8,0.3-1.1,0.5c-0.3,0.2-0.6,0.5-0.7,0.8
			c-0.2,0.3-0.3,0.7-0.3,1c0,0.5,0.1,0.9,0.3,1.2c0.2,0.3,0.4,0.6,0.8,0.9c0.3,0.3,0.7,0.5,1.2,0.7c0.5,0.2,1,0.4,1.6,0.7
			c0.8,0.3,1.5,0.6,2.2,1c0.6,0.3,1.2,0.7,1.6,1.1c0.5,0.4,0.8,0.9,1,1.4c0.2,0.5,0.4,1.2,0.4,1.9c0,0.9-0.2,1.7-0.6,2.4
			c-0.4,0.7-0.9,1.2-1.6,1.7c-0.7,0.4-1.4,0.8-2.3,1c-0.9,0.2-1.8,0.3-2.7,0.3C185.7,54.8,184.1,54.4,182.7,53.7z"/>
		<path d="M207.3,54.8c-2.7,0-4.9-0.9-6.5-2.6c-1.6-1.7-2.4-4-2.4-6.8c0-3.1,0.8-5.5,2.5-7.2c1.7-1.7,4-2.6,6.8-2.6
			c2.7,0,4.9,0.8,6.4,2.5c1.5,1.7,2.3,4,2.3,7c0,2.9-0.8,5.3-2.5,7C212.3,53.9,210.1,54.8,207.3,54.8z M207.5,38
			c-1.9,0-3.4,0.6-4.5,1.9c-1.1,1.3-1.6,3.1-1.6,5.3c0,2.2,0.6,3.9,1.7,5.1c1.1,1.3,2.6,1.9,4.5,1.9c1.9,0,3.4-0.6,4.4-1.8
			c1-1.2,1.5-3,1.5-5.3c0-2.3-0.5-4.1-1.5-5.3C210.8,38.6,209.4,38,207.5,38z"/>
		<path d="M230,29.7c-0.6-0.3-1.2-0.5-2-0.5c-2.1,0-3.1,1.3-3.1,3.9V36h4.3v2.5H225v15.9H222V38.5h-3.1V36h3.1v-3
			c0-1.9,0.6-3.4,1.7-4.6c1.1-1.1,2.5-1.7,4.2-1.7c0.9,0,1.6,0.1,2.1,0.3V29.7z"/>
		<path d="M242.5,54.1c-0.7,0.4-1.6,0.6-2.7,0.6c-3.2,0-4.8-1.8-4.8-5.4V38.5h-3.2V36h3.2v-4.5l2.9-1V36h4.6v2.5h-4.6v10.3
			c0,1.2,0.2,2.1,0.6,2.6c0.4,0.5,1.1,0.8,2.1,0.8c0.7,0,1.4-0.2,1.9-0.6V54.1z"/>
		<path d="M277.9,54.3h-3.3l-2.7-7.2h-10.9l-2.6,7.2H255l9.9-25.7h3.1L277.9,54.3z M270.9,44.4l-4-11c-0.1-0.4-0.3-0.9-0.4-1.7h-0.1
			c-0.1,0.7-0.3,1.3-0.4,1.7l-4,11H270.9z"/>
		<path d="M293.7,53.5c-1.4,0.8-3.1,1.3-5,1.3c-2.6,0-4.7-0.9-6.3-2.6s-2.4-3.9-2.4-6.6c0-3,0.9-5.5,2.6-7.3c1.7-1.8,4-2.8,6.9-2.8
			c1.6,0,3,0.3,4.3,0.9v3c-1.4-1-2.8-1.4-4.4-1.4c-1.9,0-3.4,0.7-4.6,2c-1.2,1.3-1.8,3.1-1.8,5.3c0,2.2,0.6,3.9,1.7,5.1
			c1.1,1.2,2.6,1.9,4.5,1.9c1.6,0,3.1-0.5,4.5-1.6V53.5z"/>
		<path d="M311.7,54.3h-2.9v-2.9h-0.1c-1.3,2.2-3.2,3.3-5.6,3.3c-1.8,0-3.3-0.5-4.3-1.5c-1-1-1.6-2.3-1.6-3.9c0-3.4,2-5.4,6.1-6
			l5.5-0.8c0-3.1-1.3-4.7-3.8-4.7c-2.2,0-4.2,0.8-6,2.3v-3c1.8-1.1,3.9-1.7,6.2-1.7c4.3,0,6.5,2.3,6.5,6.9V54.3z M308.7,45l-4.4,0.6
			c-1.4,0.2-2.4,0.5-3.1,1c-0.7,0.5-1,1.3-1,2.6c0,0.9,0.3,1.6,1,2.2c0.6,0.6,1.5,0.9,2.6,0.9c1.5,0,2.7-0.5,3.6-1.5
			c1-1,1.4-2.3,1.4-3.9V45z"/>
		<path d="M333.1,54.3h-2.9v-3.1h-0.1c-1.4,2.4-3.5,3.6-6.3,3.6c-2.3,0-4.2-0.8-5.5-2.5c-1.4-1.6-2.1-3.9-2.1-6.7
			c0-3,0.8-5.5,2.3-7.3c1.5-1.8,3.6-2.7,6.1-2.7c2.5,0,4.4,1,5.5,3h0.1V27.1h2.9V54.3z M330.2,46v-2.7c0-1.5-0.5-2.7-1.5-3.8
			c-1-1-2.2-1.5-3.7-1.5c-1.8,0-3.2,0.7-4.2,2c-1,1.3-1.5,3.1-1.5,5.5c0,2.1,0.5,3.8,1.5,5c1,1.2,2.3,1.8,4,1.8c1.6,0,3-0.6,4-1.8
			C329.7,49.3,330.2,47.8,330.2,46z"/>
		<path d="M354,45.9h-13c0,2,0.6,3.6,1.6,4.7c1.1,1.1,2.5,1.7,4.3,1.7c2.1,0,4-0.7,5.7-2V53c-1.6,1.2-3.7,1.8-6.4,1.8
			c-2.6,0-4.6-0.8-6.1-2.5c-1.5-1.7-2.2-4-2.2-7c0-2.9,0.8-5.2,2.4-7c1.6-1.8,3.6-2.7,6-2.7c2.4,0,4.3,0.8,5.6,2.3
			c1.3,1.6,2,3.7,2,6.5V45.9z M350.9,43.4c0-1.7-0.4-3-1.2-4c-0.8-0.9-1.9-1.4-3.4-1.4c-1.4,0-2.6,0.5-3.5,1.5c-1,1-1.6,2.3-1.8,3.9
			H350.9z"/>
		<path d="M384.7,54.3h-2.9V43.8c0-2-0.3-3.5-0.9-4.4c-0.6-0.9-1.7-1.4-3.2-1.4c-1.3,0-2.3,0.6-3.2,1.7c-0.9,1.1-1.3,2.5-1.3,4.1
			v10.5h-2.9V43.4c0-3.6-1.4-5.4-4.2-5.4c-1.3,0-2.4,0.5-3.2,1.6c-0.8,1.1-1.3,2.5-1.3,4.2v10.5h-2.9V36h2.9v2.9h0.1
			c1.3-2.2,3.2-3.3,5.7-3.3c1.3,0,2.3,0.3,3.3,1c0.9,0.7,1.6,1.6,1.9,2.8c1.4-2.5,3.4-3.8,6.1-3.8c4,0,6.1,2.5,6.1,7.5V54.3z"/>
		<path d="M391.8,31.3c-0.5,0-1-0.2-1.3-0.5c-0.4-0.4-0.6-0.8-0.6-1.4s0.2-1,0.6-1.4c0.4-0.4,0.8-0.5,1.3-0.5c0.5,0,1,0.2,1.4,0.5
			c0.4,0.4,0.6,0.8,0.6,1.4c0,0.5-0.2,1-0.6,1.3C392.8,31.1,392.4,31.3,391.8,31.3z M393.3,54.3h-2.9V36h2.9V54.3z"/>
		<path d="M411.7,53.5c-1.4,0.8-3.1,1.3-5,1.3c-2.6,0-4.7-0.9-6.3-2.6s-2.4-3.9-2.4-6.6c0-3,0.9-5.5,2.6-7.3c1.7-1.8,4-2.8,6.9-2.8
			c1.6,0,3,0.3,4.3,0.9v3c-1.4-1-2.8-1.4-4.4-1.4c-1.9,0-3.4,0.7-4.6,2c-1.2,1.3-1.8,3.1-1.8,5.3c0,2.2,0.6,3.9,1.7,5.1
			c1.1,1.2,2.6,1.9,4.5,1.9c1.6,0,3.1-0.5,4.5-1.6V53.5z"/>
	</g>
</g>
</svg>
