<?xml version="1.0" encoding="utf-8"?>
<svg version="1.1" id="Capa_1" xmlns="http://www.w3.org/2000/svg" xmlns:xlink="http://www.w3.org/1999/xlink" x="0px" y="0px"
	 viewBox="0 0 1920 363" style="enable-background:new 0 0 1920 363;" xml:space="preserve">
<style type="text/css">
	.st0{fill:#EEEEEA;}
	.st1{fill:#F2F2EE;}
</style>
<path class="st0" d="M401.2,315.1c8.5,1.8,17-3.6,18.8-12.1c0.4-2,0.5-4,0.2-5.8l91.5-24.4c2,5.3,6.5,9.4,12.4,10.7
	c2.2,0.5,4.4,0.5,6.5,0.1l11.3,38.7c-5,2.1-8.9,6.5-10.1,12.2c-2,9.3,3.9,18.4,13.2,20.4c9.3,2,18.4-3.9,20.4-13.2
	c2-9.3-3.9-18.4-13.2-20.4c-2.5-0.5-4.9-0.5-7.2,0l-11.2-38.6c4-1.5,7.3-4.4,9.3-8.2l49.2,18.7c-1,5,2.2,9.9,7.2,10.9
	c5.1,1.1,10.1-2.1,11.2-7.2c1.1-5.1-2.1-10.1-7.2-11.2c-4.1-0.9-8.1,1-10.1,4.4l-49.2-18.6c0.1-0.4,0.2-0.8,0.3-1.2
	c1-4.8-0.1-9.6-2.7-13.4l31.2-26.3c1.8,1.6,4,2.8,6.5,3.3c7.7,1.7,15.2-3.2,16.9-10.9c1.7-7.7-3.2-15.2-10.9-16.9
	c-7.7-1.7-15.2,3.2-16.9,10.9c-0.9,4,0.1,8,2.3,11.2l-31.1,26.2c-2.2-2.2-5.1-3.8-8.4-4.5c-3.7-0.8-7.3-0.3-10.5,1.1l-18.1-32.5
	c1.9-1.5,3.2-3.5,3.8-6c1.2-5.6-2.4-11.2-8-12.4s-11.2,2.4-12.4,8c-1.2,5.6,2.4,11.2,8,12.4c2,0.4,4,0.2,5.8-0.4l18.1,32.5
	c-3.5,2.4-6.1,6.1-7.1,10.5c-0.5,2.2-0.5,4.5-0.1,6.6L419.3,294c-1.8-4.8-6-8.7-11.5-9.9c-8.5-1.8-17,3.6-18.8,12.1
	C387.2,304.8,392.6,313.3,401.2,315.1z"/>
<path class="st1" d="M352.2,210.7c-11.7-3.4-24,3.4-27.4,15.1c-0.8,2.7-1,5.5-0.8,8.1L194.1,259c-2.3-7.5-8.2-13.8-16.3-16.1
	c-3-0.9-6.1-1.1-9-0.8l-12-55c7.1-2.4,13-8.2,15.3-16c3.7-12.7-3.6-26-16.4-29.7c-12.7-3.7-26,3.6-29.7,16.4
	c-3.7,12.7,3.6,26,16.4,29.7c3.4,1,6.8,1.2,10.1,0.7l11.9,54.8c-5.7,1.7-10.6,5.4-13.8,10.6l-66.9-30.8c1.8-6.9-2.2-14-9-16
	c-7-2-14.2,2-16.2,8.9s2,14.2,8.9,16.2c5.6,1.6,11.3-0.6,14.4-5.2l66.8,30.8c-0.2,0.5-0.4,1.1-0.6,1.7c-1.9,6.6-0.8,13.4,2.4,18.9
	l-46,33.6c-2.3-2.4-5.3-4.2-8.7-5.2c-10.5-3.1-21.6,3-24.6,13.6s3,21.6,13.6,24.6c10.5,3.1,21.6-3,24.6-13.6
	c1.6-5.5,0.7-11.2-2.1-15.8l45.9-33.5c2.9,3.3,6.8,5.8,11.3,7.1c5,1.5,10.2,1.2,14.8-0.5l22.1,47.1c-2.7,1.8-4.9,4.6-5.8,8
	c-2.2,7.8,2.2,15.9,10,18.1s15.9-2.2,18.1-10c2.2-7.8-2.2-15.9-10-18.1c-2.8-0.8-5.6-0.7-8.2,0l-22.1-47.1c5.1-3,9.1-7.9,10.9-14
	c0.9-3.1,1.1-6.2,0.8-9.2l129.9-25.1c2.1,6.9,7.5,12.7,15,14.9c11.7,3.4,24-3.4,27.4-15.1C370.7,226.3,363.9,214.1,352.2,210.7z"/>
<path class="st0" d="M1818.9,21.6c-8.6-0.6-16,5.9-16.6,14.5c-0.1,2,0.1,3.9,0.7,5.7L1717,78.4c-2.7-4.9-7.7-8.3-13.6-8.7
	c-2.2-0.2-4.4,0.1-6.4,0.8l-16.4-36.2c4.6-2.8,7.8-7.6,8.2-13.3c0.6-9.3-6.4-17.4-15.7-18.1c-9.3-0.6-17.4,6.4-18.1,15.7
	c-0.6,9.3,6.4,17.4,15.7,18.1c2.5,0.2,4.9-0.2,7-1l16.4,36.1c-3.7,2-6.5,5.3-7.9,9.4l-50.7-11.3c0.2-5-3.6-9.3-8.6-9.7
	c-5.1-0.4-9.5,3.5-9.9,8.6c-0.4,5.1,3.5,9.5,8.6,9.9c4.1,0.3,7.7-2.1,9.2-5.7l50.6,11.3c-0.1,0.4-0.1,0.8-0.1,1.2
	c-0.3,4.9,1.4,9.4,4.5,12.7l-26.7,30c-2-1.3-4.3-2.1-6.8-2.3c-7.7-0.5-14.4,5.3-15,13s5.3,14.4,13,15c7.7,0.5,14.4-5.3,15-13
	c0.3-4.1-1.2-7.8-3.8-10.6l26.7-29.9c2.5,1.8,5.5,3,8.8,3.2c3.7,0.3,7.2-0.7,10.1-2.5l22.2,29.2c-1.6,1.7-2.7,3.9-2.8,6.4
	c-0.4,5.7,3.9,10.6,9.6,11s10.6-3.9,11-9.6c0.4-5.7-3.9-10.6-9.6-11c-2-0.1-4,0.3-5.6,1.2L1713.7,99c3.1-2.8,5.1-6.8,5.4-11.3
	c0.2-2.2-0.1-4.4-0.8-6.4l85.8-36.7c2.5,4.5,7.1,7.6,12.6,8c8.6,0.6,16-5.9,16.6-14.5C1833.9,29.6,1827.5,22.2,1818.9,21.6z"/>
<path class="st1" d="M1586.3,160.4c-15.2-4.4-31.1,4.3-35.5,19.5c-1,3.5-1.3,7.1-1,10.5L1381.7,223c-2.9-9.7-10.6-17.8-21.1-20.9
	c-3.9-1.1-7.9-1.5-11.7-1.1l-15.5-71.2c9.2-3.2,16.9-10.6,19.8-20.7c4.8-16.5-4.7-33.7-21.2-38.5s-33.7,4.7-38.5,21.2
	c-4.8,16.5,4.7,33.7,21.2,38.5c4.4,1.3,8.8,1.5,13,0.9l15.4,71c-7.3,2.2-13.8,7-17.8,13.7l-86.5-39.8c2.4-8.9-2.8-18.1-11.7-20.7
	c-9-2.6-18.4,2.6-21,11.6c-2.6,9,2.6,18.4,11.6,21c7.2,2.1,14.7-0.8,18.7-6.7l86.5,39.8c-0.3,0.7-0.5,1.4-0.7,2.2
	c-2.5,8.6-1.1,17.4,3.1,24.5l-59.6,43.5c-3-3.1-6.8-5.5-11.3-6.8c-13.6-4-27.9,3.9-31.8,17.5c-4,13.6,3.9,27.9,17.5,31.8
	c13.6,4,27.9-3.9,31.8-17.5c2.1-7.2,0.9-14.5-2.7-20.4l59.4-43.4c3.8,4.3,8.7,7.6,14.6,9.3c6.5,1.9,13.2,1.5,19.1-0.6L1391,322
	c-3.5,2.4-6.3,6-7.6,10.4c-2.9,10,2.9,20.5,12.9,23.4c10,2.9,20.5-2.9,23.4-12.9c2.9-10-2.9-20.5-12.9-23.4c-3.6-1-7.3-1-10.6,0
	l-28.6-60.9c6.6-3.9,11.8-10.2,14.1-18.1c1.2-4,1.5-8,1.1-11.9l168.1-32.5c2.7,9,9.8,16.4,19.4,19.2c15.2,4.4,31.1-4.3,35.5-19.5
	C1610.3,180.7,1601.5,164.8,1586.3,160.4z"/>
<path class="st0" d="M1768.6,139.8c-5.3,6.9-4.1,16.7,2.7,22.1c1.6,1.2,3.3,2.1,5.2,2.7l-17.7,92.5c-5.6-0.5-11.3,1.8-15,6.5
	c-1.4,1.8-2.3,3.7-2.9,5.8l-39.5-6.6c0.3-5.4-2-10.8-6.6-14.3c-7.4-5.8-18.2-4.5-24,3c-5.8,7.4-4.5,18.2,3,24c7.4,5.8,18.2,4.5,24-3
	c1.5-2,2.6-4.2,3.1-6.5l39.4,6.6c-0.4,4.2,0.8,8.5,3.4,11.9l-38,36.1c-4.1-3-9.8-2.3-12.9,1.8c-3.2,4.1-2.4,9.9,1.6,13.1
	c4.1,3.2,9.9,2.4,13.1-1.6c2.5-3.3,2.6-7.7,0.4-10.9l37.9-36c0.3,0.3,0.6,0.6,1,0.8c3.9,3,8.7,4.1,13.2,3.4l10.1,39.3
	c-2.2,0.9-4.2,2.4-5.8,4.4c-4.8,6.2-3.7,15,2.5,19.8s15,3.7,19.8-2.5s3.7-15-2.5-19.8c-3.2-2.5-7.2-3.4-11-2.8l-10-39.2
	c2.9-1.1,5.6-2.9,7.7-5.6c2.3-3,3.5-6.4,3.6-9.9l36.9-2.2c0.5,2.3,1.8,4.4,3.8,6c4.5,3.5,11.1,2.7,14.6-1.8
	c3.5-4.5,2.7-11.1-1.8-14.6c-4.5-3.5-11.1-2.7-14.6,1.8c-1.3,1.6-2,3.5-2.1,5.4l-36.9,2.2c-0.6-4.2-2.8-8.1-6.4-10.9
	c-1.8-1.4-3.8-2.4-5.8-3l17.7-92.5c5.1,0.4,10.4-1.6,13.8-6c5.3-6.9,4.1-16.7-2.7-22.1C1783.9,131.7,1774,132.9,1768.6,139.8z"/>
<path class="st1" d="M1189.3,3.2c-11.6,0.5-20.5,10.4-20,21.9c0.1,2.7,0.8,5.2,1.8,7.5L1061.9,95c-4.3-6.1-11.6-9.9-19.6-9.5
	c-3,0.1-5.8,0.8-8.4,2l-27.6-45.8c5.7-4.4,9.2-11.4,8.8-19.1C1014.7,10,1004,0.3,991.5,0.9c-12.6,0.6-22.3,11.2-21.7,23.8
	c0.6,12.6,11.2,22.3,23.8,21.7c3.3-0.2,6.5-1,9.3-2.4l27.5,45.7c-4.6,3.2-7.9,8.1-9.1,13.7l-69.5-7.2c-0.5-6.7-6.2-11.9-13-11.6
	c-6.9,0.3-12.2,6.1-11.9,13c0.3,6.9,6.1,12.2,13,11.9c5.5-0.3,10-4,11.4-9l69.4,7.2c0,0.6,0,1.1,0,1.7c0.3,6.6,3.3,12.3,8,16.3
	l-31.1,44.3c-2.8-1.4-6-2.2-9.4-2c-10.4,0.5-18.5,9.3-18,19.7c0.5,10.4,9.3,18.5,19.7,18s18.5-9.3,18-19.7
	c-0.3-5.5-2.8-10.3-6.7-13.6l31-44.2c3.6,2.1,7.9,3.2,12.3,3c5-0.2,9.5-2,13.1-4.9l34.2,35.6c-1.9,2.5-3,5.6-2.8,9
	c0.4,7.7,6.8,13.6,14.5,13.2c7.7-0.4,13.6-6.8,13.2-14.5c-0.4-7.7-6.8-13.6-14.5-13.2c-2.7,0.1-5.3,1.1-7.4,2.5l-34.2-35.6
	c3.7-4.3,5.8-9.8,5.5-15.9c-0.1-3-0.9-5.9-2.1-8.5l109.1-62.3c4,5.6,10.7,9.1,18,8.8c11.6-0.5,20.5-10.4,20-21.9
	C1210.7,11.6,1200.8,2.7,1189.3,3.2z"/>
<path class="st0" d="M114,1.8c-6,3.7-8,11.5-4.3,17.6c0.9,1.4,1.9,2.6,3.2,3.5L72.7,88.1c-4.1-2-9.1-1.9-13.3,0.6
	c-1.6,0.9-2.9,2.2-3.9,3.5L27.4,75.8c1.8-4,1.6-8.8-0.8-12.8c-4-6.6-12.5-8.6-19.1-4.7s-8.6,12.5-4.7,19.1c4,6.6,12.5,8.6,19.1,4.7
	c1.7-1.1,3.2-2.4,4.2-4l28.1,16.4c-1.5,3.1-1.9,6.7-0.9,10L14,121c-2.2-3.5-6.8-4.6-10.3-2.4c-3.6,2.2-4.7,6.8-2.6,10.4
	c2.2,3.6,6.8,4.7,10.4,2.6c2.9-1.7,4.2-5.1,3.5-8.2l39.3-16.4c0.2,0.3,0.3,0.6,0.5,0.9c2.1,3.4,5.4,5.6,9,6.4L60.1,147
	c-1.9,0.1-3.9,0.6-5.7,1.7c-5.4,3.3-7.2,10.4-3.9,15.8c3.3,5.4,10.4,7.2,15.8,3.9c5.4-3.3,7.2-10.4,3.9-15.8
	c-1.7-2.9-4.5-4.7-7.6-5.3l3.7-32.7c2.5,0.1,5.1-0.6,7.5-2c2.6-1.6,4.5-3.9,5.6-6.5l28.7,9c-0.3,1.9,0.1,3.9,1.1,5.6
	c2.4,4,7.6,5.3,11.6,2.8s5.3-7.6,2.8-11.6c-2.4-4-7.6-5.3-11.6-2.8c-1.4,0.9-2.5,2.1-3.2,3.5l-28.7-9c0.7-3.3,0.2-7-1.7-10.1
	c-1-1.6-2.2-2.9-3.6-3.9l40.2-65.2c3.8,1.8,8.4,1.8,12.2-0.6c6-3.7,8-11.5,4.3-17.6C128,0.1,120.1-1.9,114,1.8z"/>
<path class="st1" d="M470.3,19.1c-7,4.2-9.2,13.3-5,20.3c1,1.6,2.2,3,3.6,4.1l-46.3,75.1c-4.7-2.3-10.5-2.2-15.3,0.7
	c-1.8,1.1-3.3,2.5-4.5,4.1l-32.4-19c2-4.6,1.8-10.1-1-14.7c-4.6-7.6-14.4-10-22-5.4c-7.6,4.6-10,14.4-5.4,22c4.6,7.6,14.4,10,22,5.4
	c2-1.2,3.6-2.8,4.9-4.6l32.3,18.9c-1.7,3.5-2.1,7.7-1,11.5l-45.3,18.9c-2.6-4-7.8-5.2-11.9-2.8c-4.1,2.5-5.4,7.9-2.9,12
	c2.5,4.1,7.9,5.4,12,2.9c3.3-2,4.8-5.8,4-9.4l45.3-18.9c0.2,0.3,0.4,0.7,0.6,1c2.4,3.9,6.2,6.5,10.4,7.4l-4.3,37.8
	c-2.2,0.1-4.5,0.7-6.5,1.9c-6.3,3.8-8.2,11.9-4.5,18.2s11.9,8.2,18.2,4.5s8.2-11.9,4.5-18.2c-2-3.3-5.2-5.4-8.7-6.1l4.3-37.7
	c2.9,0.1,5.9-0.7,8.6-2.3c3-1.8,5.2-4.5,6.4-7.5l33.1,10.4c-0.3,2.2,0.1,4.5,1.3,6.5c2.8,4.6,8.8,6.1,13.4,3.3
	c4.6-2.8,6.1-8.8,3.3-13.4c-2.8-4.6-8.8-6.1-13.4-3.3c-1.7,1-2.9,2.4-3.7,4l-33.1-10.4c0.8-3.9,0.2-8-2-11.7
	c-1.1-1.8-2.5-3.3-4.1-4.5L471.6,45c4.3,2.1,9.6,2,14.1-0.7c7-4.2,9.2-13.3,5-20.3C486.4,17.1,477.3,14.9,470.3,19.1z"/>
<path class="st1" d="M892.8,326.8c-3.9-5.7-11.6-7.1-17.3-3.2c-1.3,0.9-2.4,2-3.2,3.3l-65.5-35.5c1.7-4.1,1.4-8.9-1.3-12.8
	c-1-1.5-2.2-2.7-3.6-3.6l14.5-28.2c4,1.5,8.6,1.1,12.4-1.5c6.1-4.2,7.7-12.6,3.5-18.8c-4.2-6.1-12.6-7.7-18.8-3.5
	c-6.1,4.2-7.7,12.6-3.5,18.8c1.1,1.6,2.5,2.9,4.1,3.9l-14.4,28.1c-3.1-1.3-6.6-1.4-9.8-0.3l-18.1-37.3c3.2-2.3,4.1-6.8,1.8-10.2
	c-2.3-3.4-6.9-4.2-10.3-1.9c-3.4,2.3-4.2,6.9-1.9,10.3c1.8,2.7,5.1,3.8,8.1,2.9l18,37.2c-0.3,0.2-0.6,0.3-0.8,0.5
	c-3.2,2.2-5.2,5.5-5.7,9.1l-32-1.8c-0.2-1.9-0.8-3.7-1.9-5.4c-3.5-5.1-10.4-6.4-15.5-2.9c-5.1,3.5-6.4,10.4-2.9,15.5
	c3.5,5.1,10.4,6.4,15.5,2.9c2.7-1.8,4.3-4.6,4.7-7.6l31.9,1.8c0.1,2.5,0.9,4.9,2.4,7.1c1.7,2.4,4,4.2,6.6,5.1l-7.2,28.3
	c-1.8-0.2-3.8,0.3-5.4,1.4c-3.7,2.6-4.7,7.7-2.1,11.4c2.6,3.7,7.7,4.7,11.4,2.1s4.7-7.7,2.1-11.4c-0.9-1.3-2.2-2.3-3.6-2.9l7.2-28.3
	c3.3,0.5,6.8-0.2,9.7-2.2c1.5-1,2.7-2.3,3.6-3.7l65.4,35.5c-1.6,3.8-1.3,8.2,1.2,11.8c3.9,5.7,11.6,7.1,17.3,3.2
	C895.3,340.2,896.7,332.5,892.8,326.8z"/>
<path class="st0" d="M841.2,2.2c-6.5,0.5-11.4,6.1-11,12.7c0.1,1.5,0.5,2.9,1.1,4.2l-60.6,36.7c-2.5-3.4-6.7-5.4-11.2-5.1
	c-1.7,0.1-3.3,0.6-4.7,1.3l-16.2-25.4c3.1-2.6,5-6.5,4.7-10.9c-0.5-7.1-6.7-12.4-13.7-11.9s-12.4,6.7-11.9,13.7
	c0.5,7.1,6.7,12.4,13.7,11.9c1.9-0.1,3.6-0.7,5.2-1.5l16.2,25.4c-2.5,1.9-4.3,4.7-4.9,7.9L708.5,58c-0.4-3.8-3.7-6.6-7.5-6.3
	c-3.9,0.3-6.8,3.6-6.5,7.5c0.3,3.9,3.6,6.8,7.5,6.5c3.1-0.2,5.6-2.4,6.3-5.3l39.3,3.1c0,0.3,0,0.6,0,0.9c0.3,3.7,2.1,6.9,4.7,9.1
	l-16.9,25.4c-1.6-0.8-3.4-1.2-5.4-1c-5.9,0.4-10.3,5.5-9.9,11.4c0.4,5.9,5.5,10.3,11.4,9.9c5.9-0.4,10.3-5.5,9.9-11.4
	c-0.2-3.1-1.7-5.8-4-7.6l16.9-25.4c2.1,1.1,4.5,1.7,7,1.5c2.8-0.2,5.3-1.3,7.3-3l19.8,19.6c-1,1.4-1.6,3.2-1.4,5.1
	c0.3,4.3,4.1,7.6,8.4,7.3s7.6-4.1,7.3-8.4c-0.3-4.3-4.1-7.6-8.4-7.3c-1.5,0.1-3,0.7-4.1,1.5l-19.8-19.6c2-2.5,3.1-5.6,2.9-9
	c-0.1-1.7-0.6-3.3-1.3-4.8l60.6-36.7c2.3,3.1,6.1,5,10.3,4.7c6.5-0.5,11.4-6.1,11-12.7C853.4,6.7,847.7,1.7,841.2,2.2z"/>
<path class="st0" d="M917.6,209.3c-2.3,1.4-3.1,4.4-1.7,6.7c0.3,0.5,0.7,1,1.2,1.4l-15.6,24.8c-1.6-0.8-3.5-0.8-5.1,0.2
	c-0.6,0.4-1.1,0.8-1.5,1.3l-10.7-6.4c0.7-1.5,0.6-3.4-0.3-4.9c-1.5-2.5-4.8-3.3-7.3-1.8c-2.5,1.5-3.3,4.8-1.8,7.3
	c1.5,2.5,4.8,3.3,7.3,1.8c0.7-0.4,1.2-0.9,1.6-1.5l10.7,6.4c-0.6,1.2-0.7,2.5-0.4,3.8l-15.1,6.2c-0.8-1.3-2.6-1.8-3.9-0.9
	c-1.4,0.8-1.8,2.6-1,4c0.8,1.4,2.6,1.8,4,1c1.1-0.7,1.6-1.9,1.3-3.1l15.1-6.2c0.1,0.1,0.1,0.2,0.2,0.3c0.8,1.3,2,2.2,3.4,2.5
	l-1.5,12.5c-0.7,0-1.5,0.2-2.2,0.6c-2.1,1.2-2.8,3.9-1.5,6c1.2,2.1,3.9,2.8,6,1.5c2.1-1.2,2.8-3.9,1.5-6c-0.7-1.1-1.7-1.8-2.9-2
	l1.5-12.5c1,0,2-0.2,2.9-0.7c1-0.6,1.7-1.5,2.2-2.5l11,3.5c-0.1,0.7,0,1.5,0.4,2.2c0.9,1.5,2.9,2,4.4,1.1c1.5-0.9,2-2.9,1.1-4.4
	c-0.9-1.5-2.9-2-4.4-1.1c-0.6,0.3-1,0.8-1.2,1.3l-11-3.5c0.3-1.3,0.1-2.7-0.6-3.9c-0.4-0.6-0.8-1.1-1.4-1.5l15.6-24.8
	c1.4,0.7,3.2,0.7,4.7-0.2c2.3-1.4,3.1-4.4,1.7-6.7C922.9,208.7,919.9,207.9,917.6,209.3z"/>
<path class="st0" d="M1880,218.6c1.5-3.5,0-7.5-3.5-9.1c-0.8-0.4-1.6-0.5-2.5-0.6l-2.2-41.1c2.4-0.4,4.6-1.9,5.7-4.3
	c0.4-0.9,0.6-1.8,0.6-2.7l17.5-1.3c0.4,2.3,2,4.4,4.3,5.4c3.8,1.7,8.2,0,9.8-3.8c1.7-3.8,0-8.2-3.8-9.8c-3.8-1.7-8.2,0-9.8,3.8
	c-0.4,1-0.7,2-0.6,3.1l-17.4,1.3c-0.3-1.8-1.2-3.5-2.7-4.7l12.3-19.3c2,0.9,4.4-0.1,5.3-2.1c0.9-2.1,0-4.5-2.1-5.4s-4.5,0-5.4,2.1
	c-0.7,1.6-0.3,3.5,1,4.7l-12.3,19.3c-0.2-0.1-0.3-0.2-0.5-0.2c-2-0.9-4.1-0.8-5.9-0.1l-8.4-15.6c0.8-0.6,1.5-1.4,2-2.5
	c1.4-3.1,0-6.8-3.1-8.2c-3.1-1.4-6.8,0-8.2,3.1s0,6.8,3.1,8.2c1.6,0.7,3.4,0.7,5,0l8.4,15.6c-1.1,0.8-2.1,1.8-2.7,3.2
	c-0.7,1.5-0.8,3.1-0.5,4.6l-15.4,4.8c-0.5-0.9-1.2-1.7-2.2-2.1c-2.3-1-5,0-6,2.3c-1,2.3,0,5,2.3,6c2.3,1,5,0,6-2.3
	c0.4-0.8,0.5-1.7,0.3-2.5l15.4-4.8c0.7,1.7,2,3.1,3.8,3.9c0.9,0.4,1.9,0.6,2.8,0.6l2.2,41.1c-2.2,0.4-4.2,1.8-5.2,4
	c-1.5,3.5,0,7.5,3.5,9.1C1874.4,223.6,1878.5,222,1880,218.6z"/>
<path class="st0" d="M598.5,157.4c2.8,4.6,8.8,6.1,13.4,3.3c1.1-0.6,2-1.5,2.7-2.4l49.7,30.9c-1.5,3.1-1.5,6.9,0.4,10.1
	c0.7,1.2,1.6,2.2,2.7,3l-12.7,21.4c-3.1-1.4-6.7-1.2-9.8,0.6c-5,3-6.6,9.5-3.6,14.6s9.5,6.6,14.6,3.6c5-3,6.6-9.5,3.6-14.6
	c-0.8-1.3-1.8-2.4-3-3.2l12.6-21.4c2.3,1.2,5.1,1.4,7.6,0.7l12.4,30.1c-2.7,1.7-3.5,5.2-1.9,7.9c1.7,2.7,5.2,3.6,8,2
	c2.7-1.7,3.6-5.2,2-8c-1.3-2.2-3.9-3.2-6.2-2.7l-12.4-30c0.2-0.1,0.5-0.2,0.7-0.4c2.6-1.6,4.3-4.1,4.9-6.9l25,2.9
	c0,1.5,0.4,3,1.3,4.3c2.5,4.2,7.9,5.5,12.1,3s5.5-7.9,3-12.1s-7.9-5.5-12.1-3c-2.2,1.3-3.6,3.4-4.1,5.7l-25-2.9
	c0-1.9-0.4-3.9-1.5-5.7c-1.2-2-2.9-3.4-4.9-4.3l7-21.9c1.4,0.2,3,0,4.3-0.8c3.1-1.8,4-5.8,2.2-8.9s-5.8-4-8.9-2.2
	c-3.1,1.8-4,5.8-2.2,8.9c0.7,1.1,1.6,1.9,2.7,2.5l-7,21.9c-2.6-0.6-5.3-0.2-7.7,1.3c-1.2,0.7-2.2,1.7-3,2.7l-49.7-30.9
	c1.4-2.9,1.4-6.4-0.4-9.3c-2.8-4.6-8.8-6.1-13.4-3.3C597.2,146.8,595.7,152.8,598.5,157.4z"/>
<path class="st0" d="M1568.5,301.3c-3.1-2.3-7.4-1.6-9.6,1.4c-0.5,0.7-0.9,1.5-1.1,2.3l-40.6-6.7c0.2-2.4-0.9-4.9-3-6.5
	c-0.8-0.6-1.7-1-2.5-1.2l2.5-17.3c2.3,0.1,4.7-1,6.2-3c2.5-3.3,1.8-8-1.6-10.4c-3.3-2.5-8-1.8-10.4,1.6c-2.5,3.3-1.8,8,1.6,10.4
	c0.9,0.6,1.9,1.1,2.9,1.3l-2.5,17.3c-1.8-0.1-3.7,0.4-5.2,1.6l-16.2-16.2c1.3-1.8,0.9-4.3-0.9-5.6c-1.8-1.3-4.4-1-5.7,0.9
	c-1.3,1.8-1,4.4,0.9,5.7c1.4,1.1,3.4,1,4.8,0.1l16.1,16.2c-0.1,0.1-0.2,0.3-0.3,0.4c-1.3,1.7-1.7,3.8-1.3,5.8l-17,4.8
	c-0.4-1-1.1-1.8-2-2.5c-2.7-2-6.6-1.5-8.6,1.3c-2,2.7-1.5,6.6,1.3,8.6s6.6,1.5,8.6-1.3c1.1-1.4,1.4-3.2,1.1-4.8l17-4.8
	c0.5,1.3,1.3,2.4,2.5,3.3c1.3,1,2.8,1.4,4.4,1.5l1.3,16.1c-1,0.2-1.9,0.8-2.6,1.7c-1.5,2-1.1,4.9,0.9,6.4c2,1.5,4.9,1.1,6.4-0.9
	s1.1-4.9-0.9-6.4c-0.7-0.5-1.6-0.8-2.4-0.9l-1.3-16.1c1.8-0.3,3.5-1.3,4.7-2.9c0.6-0.8,1-1.7,1.2-2.6l40.6,6.7
	c-0.1,2.2,0.8,4.5,2.8,6c3.1,2.3,7.4,1.6,9.6-1.4C1572.2,307.8,1571.6,303.5,1568.5,301.3z"/>
<path class="st0" d="M265.2,35.9c-3.3,1.9-4.3,6.2-2.4,9.4c0.5,0.8,1,1.4,1.7,1.9l-21.8,34.9c-2.2-1.1-4.9-1.1-7.1,0.3
	c-0.8,0.5-1.5,1.1-2.1,1.9l-15.1-9c1-2.1,0.9-4.7-0.4-6.9c-2.1-3.5-6.7-4.7-10.2-2.6c-3.5,2.1-4.7,6.7-2.6,10.2
	c2.1,3.5,6.7,4.7,10.2,2.6c0.9-0.6,1.7-1.3,2.3-2.1l15,8.9c-0.8,1.6-1,3.6-0.5,5.4L211,99.5c-1.2-1.9-3.6-2.5-5.5-1.3
	c-1.9,1.2-2.6,3.7-1.4,5.6s3.7,2.6,5.6,1.4c1.5-0.9,2.3-2.7,1.9-4.4l21.2-8.7c0.1,0.2,0.2,0.3,0.3,0.5c1.1,1.8,2.9,3,4.8,3.5
	l-2.1,17.6c-1,0-2.1,0.3-3,0.9c-2.9,1.7-3.9,5.5-2.1,8.5c1.7,2.9,5.5,3.9,8.5,2.1c2.9-1.7,3.9-5.5,2.1-8.5c-0.9-1.5-2.4-2.5-4-2.9
	l2.1-17.6c1.4,0,2.8-0.3,4-1.1c1.4-0.8,2.4-2.1,3-3.5l15.4,5c-0.2,1,0,2.1,0.6,3c1.3,2.2,4.1,2.9,6.2,1.6s2.9-4.1,1.6-6.2
	c-1.3-2.2-4.1-2.9-6.2-1.6c-0.8,0.5-1.4,1.1-1.7,1.9l-15.4-5c0.4-1.8,0.1-3.7-0.9-5.4c-0.5-0.9-1.2-1.6-1.9-2.1L265.7,48
	c2,1,4.5,1,6.6-0.3c3.3-1.9,4.3-6.2,2.4-9.4C272.7,35,268.5,34,265.2,35.9z"/>
<path class="st0" d="M286,197.6c-2.3-1.8-5.6-1.5-7.4,0.8c-0.4,0.5-0.7,1.1-0.9,1.7l-30.9-6.3c0.2-1.9-0.5-3.8-2.1-5
	c-0.6-0.5-1.2-0.8-1.9-1l2.4-13.2c1.8,0.1,3.6-0.6,4.8-2.1c2-2.5,1.6-6.1-0.9-8c-2.5-2-6.1-1.6-8,0.9c-2,2.5-1.6,6.1,0.9,8
	c0.7,0.5,1.4,0.9,2.1,1.1l-2.4,13.1c-1.4-0.1-2.8,0.2-4,1.1l-11.9-12.9c1-1.3,0.8-3.3-0.5-4.3c-1.3-1.1-3.3-0.9-4.4,0.5
	c-1.1,1.3-0.9,3.3,0.5,4.4c1.1,0.9,2.5,0.9,3.6,0.2l11.9,12.9c-0.1,0.1-0.2,0.2-0.3,0.3c-1,1.3-1.4,2.9-1.2,4.4l-13.2,3.2
	c-0.3-0.7-0.8-1.4-1.4-2c-2-1.6-5-1.3-6.6,0.7s-1.3,5,0.7,6.6c2,1.6,5,1.3,6.6-0.7c0.9-1.1,1.2-2.4,1-3.7l13.2-3.2
	c0.3,1,1,1.9,1.8,2.6c1,0.8,2.1,1.2,3.3,1.2l0.6,12.4c-0.8,0.2-1.5,0.6-2,1.2c-1.2,1.5-1,3.7,0.5,4.9c1.5,1.2,3.7,1,4.9-0.5
	c1.2-1.5,1-3.7-0.5-4.9c-0.5-0.4-1.2-0.7-1.8-0.7l-0.6-12.4c1.4-0.2,2.7-0.9,3.7-2.1c0.5-0.6,0.8-1.3,1-1.9l30.9,6.3
	c-0.2,1.7,0.5,3.5,1.9,4.6c2.3,1.8,5.6,1.5,7.4-0.8C288.7,202.7,288.3,199.4,286,197.6z"/>
<path class="st0" d="M537.6,128c2.1-0.5,3.5-2.6,3.1-4.7c-0.1-0.5-0.3-1-0.6-1.4l18.5-15c1,1,2.5,1.5,3.9,1.2
	c0.6-0.1,1.1-0.3,1.5-0.6l6.5,7.7c-0.9,1-1.4,2.4-1.1,3.8c0.5,2.3,2.8,3.8,5.1,3.3c2.3-0.5,3.8-2.8,3.3-5.1
	c-0.5-2.3-2.8-3.8-5.1-3.3c-0.6,0.1-1.2,0.4-1.7,0.7l-6.5-7.7c0.8-0.7,1.2-1.8,1.3-2.8l13.2-0.8c0.3,1.2,1.5,2,2.8,1.8
	c1.3-0.3,2.1-1.5,1.8-2.8s-1.5-2.1-2.8-1.8c-1,0.2-1.7,1.1-1.9,2l-13.2,0.8c0-0.1,0-0.2-0.1-0.3c-0.3-1.2-1-2.2-2-2.8l4.5-9.2
	c0.6,0.2,1.2,0.2,1.8,0.1c1.9-0.4,3.2-2.3,2.8-4.2c-0.4-1.9-2.3-3.2-4.2-2.8c-1.9,0.4-3.2,2.3-2.8,4.2c0.2,1,0.8,1.8,1.7,2.3
	l-4.4,9.2c-0.7-0.3-1.6-0.4-2.4-0.2c-0.9,0.2-1.7,0.7-2.3,1.3l-7.5-5.6c0.3-0.5,0.4-1.1,0.2-1.8c-0.3-1.4-1.7-2.3-3.1-2
	s-2.3,1.7-2,3.1c0.3,1.4,1.7,2.3,3.1,2c0.5-0.1,1-0.4,1.3-0.7l7.5,5.6c-0.6,0.9-0.8,2-0.5,3.1c0.1,0.6,0.3,1.1,0.6,1.5l-18.5,15
	c-0.9-0.9-2.3-1.4-3.6-1.1c-2.1,0.5-3.5,2.6-3.1,4.7C533.4,127.1,535.5,128.4,537.6,128z"/>
<path class="st0" d="M852.5,102.6c-0.6,2,0.6,4,2.5,4.6c0.5,0.1,0.9,0.2,1.4,0.1l4.2,21.9c-1.3,0.4-2.3,1.4-2.7,2.7
	c-0.1,0.5-0.2,1-0.1,1.5l-9.3,2c-0.4-1.2-1.4-2.2-2.7-2.6c-2.1-0.6-4.4,0.6-5,2.8s0.6,4.4,2.8,5c2.1,0.6,4.4-0.6,5-2.8
	c0.2-0.6,0.2-1.1,0.1-1.7l9.2-2c0.3,1,0.9,1.8,1.8,2.3l-5.2,11.3c-1.2-0.3-2.4,0.4-2.7,1.5c-0.3,1.2,0.3,2.4,1.5,2.7
	c1.2,0.3,2.4-0.3,2.7-1.5c0.3-0.9-0.1-1.9-0.9-2.4l5.2-11.2c0.1,0,0.2,0.1,0.3,0.1c1.1,0.3,2.3,0.1,3.2-0.4l5.7,7.8
	c-0.4,0.4-0.7,0.9-0.9,1.5c-0.5,1.8,0.5,3.6,2.3,4.1c1.8,0.5,3.6-0.5,4.1-2.3s-0.5-3.6-2.3-4.1c-0.9-0.3-1.9-0.1-2.7,0.3l-5.6-7.7
	c0.6-0.5,1-1.1,1.2-1.9c0.2-0.8,0.2-1.7-0.1-2.5l7.9-3.7c0.3,0.5,0.8,0.8,1.4,1c1.3,0.4,2.7-0.4,3.1-1.7s-0.4-2.7-1.7-3.1
	c-1.3-0.4-2.7,0.4-3.1,1.7c-0.1,0.5-0.1,0.9,0,1.4l-7.9,3.7c-0.5-0.9-1.3-1.5-2.4-1.8c-0.5-0.2-1-0.2-1.5-0.1l-4.2-21.9
	c1.2-0.4,2.1-1.3,2.5-2.5c0.6-2-0.6-4-2.5-4.6C855.2,99.5,853.1,100.6,852.5,102.6z"/>
<path class="st0" d="M1149.5,311.4c0.2-2.6-1.8-4.8-4.3-4.9c-0.6,0-1.2,0-1.7,0.2l-11-25.4c1.4-0.8,2.5-2.3,2.6-4.1
	c0-0.7,0-1.3-0.2-1.9l10.7-4.9c0.8,1.4,2.3,2.3,4,2.4c2.8,0.2,5.2-1.9,5.3-4.7c0.2-2.8-1.9-5.2-4.7-5.3c-2.8-0.2-5.2,1.9-5.3,4.7
	c0,0.7,0.1,1.4,0.3,2.1l-10.7,4.9c-0.6-1.1-1.6-1.9-2.8-2.3l3.3-15.1c1.5,0.1,2.8-1.1,2.9-2.6c0.1-1.5-1-2.8-2.6-2.9
	c-1.5-0.1-2.8,1-2.9,2.6c-0.1,1.2,0.6,2.3,1.7,2.7l-3.3,15c-0.1,0-0.2,0-0.4,0c-1.4-0.1-2.8,0.4-3.8,1.3l-8.9-7.9
	c0.4-0.6,0.6-1.3,0.7-2c0.2-2.3-1.6-4.3-3.9-4.4c-2.3-0.2-4.3,1.6-4.4,3.9c-0.2,2.3,1.6,4.3,3.9,4.4c1.2,0.1,2.3-0.4,3.1-1.1
	l8.9,7.9c-0.5,0.7-0.9,1.6-1,2.6c-0.1,1.1,0.2,2.1,0.8,3l-8.6,6.6c-0.5-0.5-1.2-0.8-1.9-0.8c-1.7-0.1-3.1,1.2-3.3,2.9
	c-0.1,1.7,1.2,3.1,2.9,3.3s3.1-1.2,3.3-2.9c0-0.6-0.1-1.2-0.4-1.7l8.6-6.6c0.8,0.9,2,1.5,3.3,1.6c0.7,0,1.3,0,1.9-0.2l11,25.4
	c-1.3,0.7-2.3,2.1-2.4,3.7c-0.2,2.6,1.8,4.8,4.3,4.9C1147.1,315.9,1149.3,313.9,1149.5,311.4z"/>
<path class="st0" d="M1461.1,7.4c-2.2,4.1-0.7,9.3,3.4,11.5c1,0.5,2,0.8,3,1l-1.3,50.9c-3,0.2-5.9,1.9-7.4,4.8
	c-0.6,1.1-0.9,2.2-1.1,3.3l-21.7-0.1c-0.3-2.9-2-5.6-4.7-7.1c-4.5-2.4-10.1-0.8-12.5,3.7c-2.4,4.5-0.8,10.1,3.7,12.5
	c4.5,2.4,10.1,0.8,12.5-3.7c0.6-1.2,1-2.5,1.1-3.7l21.6,0.1c0.2,2.3,1.2,4.4,2.8,6l-17.1,22.6c-2.4-1.3-5.4-0.3-6.7,2.1
	c-1.3,2.4-0.4,5.5,2,6.8c2.4,1.3,5.5,0.4,6.8-2c1.1-2,0.7-4.3-0.7-5.9l17.1-22.5c0.2,0.1,0.4,0.2,0.6,0.3c2.3,1.3,5,1.4,7.3,0.7
	l8.8,20.1c-1.1,0.7-2,1.6-2.7,2.8c-2,3.7-0.7,8.3,3,10.4s8.3,0.7,10.4-3c2-3.7,0.7-8.3-3-10.4c-1.9-1.1-4.2-1.2-6.1-0.5l-8.8-20
	c1.5-0.8,2.8-2.1,3.6-3.6c1-1.8,1.3-3.7,1.1-5.6l19.5-4.4c0.5,1.2,1.3,2.2,2.5,2.9c2.7,1.5,6.1,0.5,7.6-2.2s0.5-6.1-2.2-7.6
	c-2.7-1.5-6.1-0.5-7.6,2.2c-0.5,1-0.7,2-0.7,3.1l-19.5,4.4c-0.7-2.2-2.2-4.1-4.4-5.2c-1.1-0.6-2.2-0.9-3.4-1.1l1.3-50.9
	c2.8-0.2,5.4-1.8,6.8-4.4c2.2-4.1,0.7-9.3-3.4-11.5C1468.5,1.8,1463.3,3.3,1461.1,7.4z"/>
<path class="st0" d="M1233.1,81.2c-1.5-1.2-3.8-1-5,0.6c-0.3,0.4-0.5,0.7-0.6,1.2l-20.8-4.3c0.1-1.3-0.4-2.5-1.4-3.4
	c-0.4-0.3-0.8-0.5-1.3-0.7l1.6-8.9c1.2,0.1,2.4-0.4,3.3-1.4c1.3-1.7,1.1-4.1-0.6-5.4c-1.7-1.3-4.1-1.1-5.4,0.6
	c-1.3,1.7-1.1,4.1,0.6,5.4c0.4,0.4,0.9,0.6,1.4,0.7l-1.6,8.9c-0.9-0.1-1.9,0.1-2.7,0.7l-8-8.7c0.7-0.9,0.5-2.2-0.4-2.9
	c-0.9-0.7-2.2-0.6-3,0.3c-0.7,0.9-0.6,2.2,0.3,3c0.7,0.6,1.7,0.6,2.5,0.1l8,8.7c-0.1,0.1-0.1,0.1-0.2,0.2c-0.7,0.9-1,1.9-0.8,3
	l-8.9,2.1c-0.2-0.5-0.5-1-1-1.3c-1.4-1.1-3.4-0.9-4.5,0.5c-1.1,1.4-0.9,3.4,0.5,4.5c1.4,1.1,3.4,0.9,4.5-0.5
	c0.6-0.7,0.8-1.6,0.7-2.5l8.9-2.1c0.2,0.7,0.6,1.3,1.2,1.8c0.7,0.5,1.4,0.8,2.2,0.8l0.4,8.3c-0.5,0.1-1,0.4-1.4,0.8
	c-0.8,1-0.6,2.5,0.4,3.3c1,0.8,2.5,0.6,3.3-0.4c0.8-1,0.6-2.5-0.4-3.3c-0.4-0.3-0.8-0.5-1.2-0.5l-0.4-8.3c0.9-0.1,1.8-0.6,2.5-1.4
	c0.3-0.4,0.5-0.8,0.7-1.3l20.8,4.3c-0.1,1.2,0.3,2.3,1.3,3.1c1.5,1.2,3.8,1,5-0.6C1234.9,84.6,1234.6,82.4,1233.1,81.2z"/>
<path class="st0" d="M1042.8,295.2c-3.6-0.8-7.2,1.4-8,5c-0.2,0.8-0.2,1.7-0.1,2.5l-38.9,9.9c-0.8-2.2-2.7-4-5.2-4.6
	c-0.9-0.2-1.9-0.2-2.7-0.1l-4.6-16.4c2.1-0.9,3.8-2.7,4.3-5.1c0.9-3.9-1.6-7.8-5.5-8.7c-3.9-0.9-7.8,1.6-8.7,5.5
	c-0.9,3.9,1.6,7.8,5.5,8.7c1,0.2,2.1,0.2,3.1,0l4.6,16.4c-1.7,0.6-3.1,1.8-4,3.4l-20.8-8.2c0.4-2.1-0.9-4.2-3-4.7
	c-2.1-0.5-4.3,0.9-4.8,3c-0.5,2.1,0.9,4.3,3,4.8c1.7,0.4,3.4-0.4,4.3-1.8l20.7,8.1c-0.1,0.2-0.1,0.3-0.1,0.5c-0.5,2,0,4.1,1.1,5.7
	l-13.3,11c-0.7-0.7-1.7-1.2-2.7-1.4c-3.2-0.7-6.5,1.3-7.2,4.5c-0.7,3.2,1.3,6.5,4.5,7.2c3.2,0.7,6.5-1.3,7.2-4.5
	c0.4-1.7,0-3.4-0.9-4.7l13.3-10.9c0.9,0.9,2.1,1.6,3.5,2c1.6,0.4,3.1,0.2,4.5-0.4l7.5,13.9c-0.8,0.6-1.4,1.5-1.6,2.5
	c-0.5,2.4,0.9,4.8,3.3,5.3s4.8-0.9,5.3-3.3c0.5-2.4-0.9-4.8-3.3-5.3c-0.9-0.2-1.7-0.1-2.5,0.2l-7.5-13.9c1.5-1,2.6-2.5,3-4.4
	c0.2-0.9,0.2-1.9,0.1-2.8l38.9-9.9c0.8,2.1,2.5,3.7,4.8,4.2c3.6,0.8,7.2-1.4,8-5C1048.7,299.6,1046.4,296,1042.8,295.2z"/>
<path class="st0" d="M1453.6,164.5c-1.5-1.2-3.8-1-5,0.6c-0.3,0.4-0.5,0.8-0.6,1.2l-21-4.3c0.1-1.3-0.4-2.6-1.4-3.4
	c-0.4-0.3-0.8-0.5-1.3-0.7l1.6-9c1.2,0.1,2.5-0.4,3.3-1.5c1.3-1.7,1.1-4.1-0.6-5.5c-1.7-1.3-4.1-1.1-5.5,0.6
	c-1.3,1.7-1.1,4.1,0.6,5.5c0.4,0.4,0.9,0.6,1.5,0.7l-1.6,9c-1-0.1-1.9,0.2-2.7,0.7l-8.1-8.8c0.7-0.9,0.5-2.2-0.4-3
	c-0.9-0.7-2.3-0.6-3,0.3s-0.6,2.3,0.3,3c0.7,0.6,1.7,0.6,2.5,0.1l8.1,8.8c-0.1,0.1-0.1,0.1-0.2,0.2c-0.7,0.9-1,2-0.8,3l-9,2.2
	c-0.2-0.5-0.5-1-1-1.3c-1.4-1.1-3.4-0.9-4.5,0.5s-0.9,3.4,0.5,4.5s3.4,0.9,4.5-0.5c0.6-0.7,0.8-1.6,0.7-2.5l9-2.2
	c0.2,0.7,0.6,1.3,1.2,1.8c0.7,0.5,1.5,0.8,2.2,0.9l0.4,8.4c-0.5,0.1-1,0.4-1.4,0.8c-0.8,1-0.7,2.5,0.4,3.3c1,0.8,2.5,0.7,3.3-0.4
	c0.8-1,0.7-2.5-0.4-3.3c-0.4-0.3-0.8-0.5-1.2-0.5l-0.4-8.4c1-0.1,1.9-0.6,2.5-1.4c0.3-0.4,0.6-0.9,0.7-1.3l21,4.3
	c-0.1,1.2,0.3,2.4,1.3,3.2c1.5,1.2,3.8,1,5-0.6C1455.4,168,1455.1,165.7,1453.6,164.5z"/>
<path class="st0" d="M1899.8,308.3c-1.7-1.3-4.1-1.1-5.4,0.6c-0.3,0.4-0.5,0.8-0.7,1.3l-22.6-4.6c0.1-1.4-0.4-2.8-1.5-3.7
	c-0.4-0.3-0.9-0.6-1.4-0.7l1.8-9.7c1.3,0.1,2.7-0.5,3.5-1.6c1.4-1.8,1.2-4.4-0.6-5.9c-1.8-1.4-4.4-1.2-5.9,0.6
	c-1.4,1.8-1.2,4.4,0.6,5.9c0.5,0.4,1,0.6,1.6,0.8l-1.8,9.6c-1-0.1-2.1,0.2-2.9,0.8l-8.7-9.4c0.8-1,0.6-2.4-0.4-3.2
	c-1-0.8-2.4-0.6-3.2,0.4c-0.8,1-0.6,2.4,0.4,3.2c0.8,0.6,1.9,0.7,2.7,0.1l8.7,9.4c-0.1,0.1-0.1,0.2-0.2,0.2c-0.8,0.9-1,2.1-0.9,3.2
	l-9.7,2.3c-0.2-0.5-0.6-1-1.1-1.4c-1.5-1.2-3.7-1-4.9,0.5s-1,3.7,0.5,4.9c1.5,1.2,3.7,1,4.9-0.5c0.6-0.8,0.9-1.8,0.7-2.7l9.7-2.3
	c0.2,0.7,0.7,1.4,1.3,1.9c0.7,0.6,1.6,0.9,2.4,0.9l0.4,9.1c-0.6,0.1-1.1,0.4-1.5,0.9c-0.9,1.1-0.7,2.7,0.4,3.6s2.7,0.7,3.6-0.4
	c0.9-1.1,0.7-2.7-0.4-3.6c-0.4-0.3-0.9-0.5-1.3-0.5l-0.4-9.1c1-0.1,2-0.7,2.7-1.5c0.3-0.4,0.6-0.9,0.7-1.4l22.6,4.6
	c-0.1,1.3,0.4,2.6,1.4,3.4c1.7,1.3,4.1,1.1,5.4-0.6C1901.8,312,1901.5,309.6,1899.8,308.3z"/>
</svg>
