<?xml version="1.0" encoding="utf-8"?>
<!-- Generator: Adobe Illustrator 23.0.0, SVG Export Plug-In . SVG Version: 6.00 Build 0)  -->
<svg version="1.1"
	 id="svg2" inkscape:version="0.92.1 r15371" sodipodi:docname="Scopus logo.svg" xmlns:cc="http://creativecommons.org/ns#" xmlns:dc="http://purl.org/dc/elements/1.1/" xmlns:inkscape="http://www.inkscape.org/namespaces/inkscape" xmlns:rdf="http://www.w3.org/1999/02/22-rdf-syntax-ns#" xmlns:sodipodi="http://sodipodi.sourceforge.net/DTD/sodipodi-0.dtd" xmlns:svg="http://www.w3.org/2000/svg"
	 xmlns="http://www.w3.org/2000/svg" xmlns:xlink="http://www.w3.org/1999/xlink" x="0px" y="0px" viewBox="0 0 411.7 129.6"
	 style="enable-background:new 0 0 411.7 129.6;" xml:space="preserve">
<style type="text/css">
	.st0{fill:#FF8200;}
</style>
<sodipodi:namedview  bordercolor="#666666" borderopacity="1" fit-margin-bottom="10" fit-margin-left="10" fit-margin-right="10" fit-margin-top="10" gridtolerance="10" guidetolerance="10" id="namedview4" inkscape:current-layer="svg2" inkscape:cx="119.80418" inkscape:cy="67.576223" inkscape:pageopacity="0" inkscape:pageshadow="2" inkscape:window-height="1224" inkscape:window-maximized="0" inkscape:window-width="1802" inkscape:window-x="0" inkscape:window-y="31" inkscape:zoom="1.0225" objecttolerance="10" pagecolor="#ffffff" showgrid="false">
	</sodipodi:namedview>
<g>
	<g>
		<path class="st0" d="M33.8,44.8c-0.7-0.4-1.4-0.8-2.1-1.3c-1.3-0.8-2.6-1.5-3.9-2.3c-7.6-4.3-14.1-8-14.1-16.2
			c0-7.2,5.4-14.9,15.5-14.9c9.6,0,15.7,1.6,23.2,6.1c0.1,0.1,0.3,0.1,0.4,0c0.1-0.1,0.2-0.2,0.2-0.3l0.7-11.1
			c0-0.2-0.1-0.3-0.2-0.4C45.9,1.4,40.5,0,28.4,0C11.9,0,0.3,10.6,0.3,25.9c0,13.3,10.8,19.7,21.2,26c1,0.6,2,1.2,3,1.8
			c1.3,0.8,2.6,1.5,3.9,2.3c7.2,4.1,13.5,7.7,13.5,15.4c0,8.4-7.5,15-17.1,15C16,86.4,9.9,84.6,2.3,80c-0.1-0.1-0.2-0.1-0.4,0
			c-0.1,0.1-0.2,0.2-0.2,0.3L0,91.3c0,0.2,0.1,0.3,0.2,0.4c7.5,3.5,15,4.9,25.1,4.9c14.7,0,29.7-9.2,29.7-26.7
			C55,57.2,44.7,51.2,33.8,44.8z"/>
		<path class="st0" d="M116.7,79.9c-0.1-0.1-0.3,0-0.4,0.1c-4.3,3.5-12.4,6.4-17.7,6.4c-9.8,0-19.7-7.6-19.7-24.7
			c0-16.1,8.1-21,9.8-21.8c0.4-0.3,2.3-1.1,7.5-1.1c7.9,0,10.3,1.5,10.3,6.4c0,0.2,0.2,0.4,0.4,0.4H117c0.2,0,0.4-0.2,0.4-0.4
			c0-1.6,0-3.4-0.1-4.7c-0.8-7.8-8-11.7-21.5-11.7c-11.8,0-29.3,8.9-29.3,33.3c0,21.2,11.2,34.4,29.3,34.4c8.3,0,15.9-2.1,21.9-6.1
			c0.1-0.1,0.2-0.2,0.2-0.3l-0.8-9.8C116.9,80.1,116.8,80,116.7,79.9z"/>
		<path class="st0" d="M156.1,28.7c-19,0-31.4,13.3-31.4,33.9s11.7,33.9,29.8,33.9c18.8,0,31.5-13.6,31.5-33.9
			C186,42,174.3,28.7,156.1,28.7z M144.1,42.1c1.1-1.1,5.5-3.4,10.5-3.4c11.5,0,17.7,7.2,18.8,22c0.1,1,0.1,1.9,0.1,2.9
			c0,12.2-7,19.3-7,19.4c-1.4,1.4-6.5,3.4-10.7,3.4c-7,0-18.8-3.2-18.8-24.4C137.1,51.3,142.6,43.6,144.1,42.1z"/>
		<path class="st0" d="M233.6,28.7c-8.6,0-14.7,3-21.5,10.6l-1.5-8.6c0-0.2-0.2-0.3-0.4-0.3h-10c-0.1,0-0.2,0-0.3,0.1
			c-0.1,0.1-0.1,0.2-0.1,0.3c0,0.1,1.1,7.9,1.1,17.6v80.8c0,0.2,0.2,0.4,0.4,0.4h10.8c0.2,0,0.4-0.2,0.4-0.4V93.5c4,2,8.5,3,13.6,3
			c18.4,0,30.8-14.7,30.8-36.5C256.9,32.8,242.3,28.7,233.6,28.7z M222.8,40.8c0.9-0.5,5.1-1.6,8.2-1.6c8.9,0,13.4,7.4,13.4,22.1
			c0,16.2-7,25.1-19.8,25.1c-5.8,0-11.1-2.9-12.1-3.5V51.9C215.6,47.4,221.7,41.6,222.8,40.8z"/>
		<path class="st0" d="M324.6,30.8c0-0.2-0.2-0.4-0.4-0.4h-10.8c-0.2,0-0.4,0.2-0.4,0.4v42.1c-2.6,5.6-8.1,10.5-8.7,11
			c-3.7,1.7-7.1,2.5-11,2.5c-9.4,0-10.1-6.6-10.1-14.5V30.8c0-0.2-0.2-0.4-0.4-0.4h-10.8c-0.2,0-0.4,0.2-0.4,0.4v48.6
			c0,11.3,7,17.1,20.7,17.1c9.9,0,15.2-2.6,21.2-10.5l1.5,8.4c0,0.2,0.2,0.3,0.4,0.3h9.8c0.1,0,0.2,0,0.3-0.1
			c0.1-0.1,0.1-0.2,0.1-0.3c0-0.1-1.1-7.7-1.1-17.5V30.8z"/>
		<path class="st0" d="M364.5,57c-7.2-3.2-13.5-6-13.5-10.9c0-5.8,6-7.9,11.5-7.9c8.3,0,14.6,1.9,19.7,6.1c0.1,0.1,0.3,0.1,0.4,0.1
			c0.1-0.1,0.2-0.2,0.2-0.3l1.1-10.1c0-0.2-0.1-0.3-0.2-0.4c-6.3-3.2-12.9-4.8-20.4-4.8c-14.8,0-23.9,6.9-23.9,18
			c0,10.8,10.6,15.6,20,19.9c7.4,3.3,13.8,6.2,13.8,11.3c0,5.4-5.3,9-13.2,9c-8.4,0-11.8-2.1-18.4-6.4c-0.1-0.1-0.2-0.1-0.4,0
			c-0.1,0.1-0.2,0.2-0.2,0.3l-1.3,10.1c0,0.1,0,0.3,0.2,0.4c4.8,3.3,12.4,5.3,20.4,5.3c16.9,0,24.5-9.7,24.5-19.3
			C384.8,66.1,374,61.2,364.5,57z"/>
	</g>
	<g>
		<path class="st0" d="M402.6,31.1c-5.1,0-9.2-4.1-9.2-9.1c0-5,4.1-9.1,9.2-9.1c5,0,9.1,4.1,9.1,9.1C411.7,27,407.6,31.1,402.6,31.1
			z M402.6,14.8c-4.1,0-7.3,3.2-7.3,7.2c0,4,3.2,7.3,7.3,7.3c4,0,7.3-3.3,7.3-7.3C409.9,18,406.6,14.8,402.6,14.8z M404.9,26.9
			c-0.2-0.2-0.6-0.7-1.1-1.4c0,0-1.3-1.7-2-2.7h-0.8v4h-1.6v-9.8c1-0.1,2-0.2,2.9-0.2c2.1,0,3.7,0.8,3.7,2.9c0,1.4-1,2.5-2.2,2.8
			c1.2,1.7,2,2.8,3.4,4.2H404.9z M401.9,18.4h-1.1v3h1.1c1.6,0,2.1-0.6,2.1-1.6C404.1,18.8,403.4,18.4,401.9,18.4z"/>
	</g>
</g>
</svg>
