<?xml version="1.0" encoding="utf-8"?>
<!-- Generator: Adobe Illustrator 23.0.0, SVG Export Plug-In . SVG Version: 6.00 Build 0)  -->
<svg version="1.1"
	 id="svg2" inkscape:version="0.92.1 r15371" sodipodi:docname="Scopus logo.svg" xmlns:cc="http://creativecommons.org/ns#" xmlns:dc="http://purl.org/dc/elements/1.1/" xmlns:inkscape="http://www.inkscape.org/namespaces/inkscape" xmlns:rdf="http://www.w3.org/1999/02/22-rdf-syntax-ns#" xmlns:sodipodi="http://sodipodi.sourceforge.net/DTD/sodipodi-0.dtd" xmlns:svg="http://www.w3.org/2000/svg"
	 xmlns="http://www.w3.org/2000/svg" xmlns:xlink="http://www.w3.org/1999/xlink" x="0px" y="0px" viewBox="0 0 411.7 94.8"
	 style="enable-background:new 0 0 411.7 94.8;" xml:space="preserve">
<style type="text/css">
	.st0{fill:#4CAF50;}
</style>
<sodipodi:namedview  bordercolor="#666666" borderopacity="1" fit-margin-bottom="10" fit-margin-left="10" fit-margin-right="10" fit-margin-top="10" gridtolerance="10" guidetolerance="10" id="namedview4" inkscape:current-layer="svg2" inkscape:cx="119.80418" inkscape:cy="67.576223" inkscape:pageopacity="0" inkscape:pageshadow="2" inkscape:window-height="1224" inkscape:window-maximized="0" inkscape:window-width="1802" inkscape:window-x="0" inkscape:window-y="31" inkscape:zoom="1.0225" objecttolerance="10" pagecolor="#ffffff" showgrid="false">
	</sodipodi:namedview>
<g>
	<path class="st0" d="M82.6,0.2c0,31.5,0,62.9,0,94.4c-0.5,0.4-1,0.2-1.5,0.2c-10.2,0-20.4,0-30.5,0c-5.3,0-10.6-0.4-15.7-1.7
		c-4.5-1.2-8.7-3.1-12.6-5.6C10.6,80,3.4,69.6,0.9,56.1c-2.5-13.7,0.4-26.3,8.9-37.4C18.1,7.7,29.5,1.6,43.3,0.2
		C44.5,0.1,45.8,0,47,0c11.4,0,22.8,0,34.2,0C81.6,0,82-0.1,82.6,0.2z M37.6,46.6c0-0.1-0.1-0.2-0.1-0.4c0-3.6,0-7.2,0-10.7
		c0-1.7,0.6-3.2,1.6-4.6c2.7-3.7,6.2-4.2,9.9-3.2c3,0.8,5.9,4,5.9,8.1c0,1.4,0.8,2.3,2.2,2.4c0.8,0.1,1.6,0.1,2.5,0
		c1.3-0.1,2-1,2-2.3c0.1-1.9-0.3-3.8-1-5.5c-2.4-6-8.7-10.6-16.3-9.7c-4.6,0.6-8,2.8-10.8,6.4c-2,2.6-2.8,5.7-2.8,8.9
		c0,3.1,0,6.3,0,9.4c0,0.5,0.2,1-0.2,1.4c-0.2,0-0.4,0-0.6,0c-2,0-3.1,1-3.4,3c-0.1,0.6-0.1,1.1-0.1,1.7c0,5.7,0,11.5,0,17.2
		c0,0.7,0.1,1.3,0.2,1.9c0.1,0.8,0.5,1.4,1,1.9c0.9,0.8,1.9,0.9,3,0.9c10.4,0,20.8,0,31.2,0c0.5,0,1,0,1.5-0.1
		c1.1-0.2,2-0.9,2.4-1.9c0.3-0.6,0.3-1.3,0.3-2c0-5.7,0-11.4,0-17.1c0-0.7,0-1.4,0-2.1c-0.1-1.5-0.8-2.5-2.2-3.1
		c-0.6-0.2-1.2-0.2-1.8-0.2c-7.9,0-15.9,0-23.8,0C38.1,46.9,37.8,46.9,37.6,46.6z"/>
	<path class="st0" d="M328,53c1.3-4,2.5-7.7,3.7-11.5c0.2-0.6,0.4-1.2,0.6-1.7c0.4-0.9,1-1.5,2.1-1.5c2.4,0,4.8,0,7.3,0
		c1.3,0,1.8,0.7,1.5,2c-0.1,0.3-0.2,0.7-0.3,1c-3,8.7-6,17.4-9,26.2c-0.6,1.8-0.9,2-2.8,2c-1.9,0-3.8,0-5.7,0
		c-1.6,0-2.1-0.3-2.6-1.9c-1.1-3.3-2.3-6.7-3.4-10c-0.2-0.6-0.4-1.1-0.6-1.7c-0.4,0.3-0.5,0.8-0.6,1.2c-1.2,3.4-2.3,6.8-3.4,10.2
		c-0.1,0.3-0.2,0.7-0.3,1c-0.4,0.9-1,1.3-2,1.3c-2.2,0-4.4,0-6.6,0c-1.2,0-1.7-0.3-2.1-1.5c-0.5-1.5-1-2.9-1.5-4.4
		c-2.6-7.5-5.1-14.9-7.7-22.4c0-0.1-0.1-0.2-0.1-0.4c-0.6-1.7,0-2.5,1.7-2.5c2.2,0,4.3,0,6.5,0c1.6,0,2.1,0.4,2.6,1.9
		c1.3,3.9,2.6,7.9,3.9,11.8c0.1,0.3,0.2,0.6,0.3,0.9c0.3-0.3,0.4-0.6,0.5-0.9c1.3-3.9,2.5-7.7,3.8-11.6c0.6-1.9,1-2.2,3.1-2.2
		c1.5,0,2.9,0,4.4,0c1.6,0,2.1,0.4,2.7,1.9c1.2,3.8,2.5,7.5,3.7,11.3C327.5,52,327.5,52.5,328,53z"/>
	<path class="st0" d="M196,40.9c0.2,0,0.2,0,0.3-0.1c3.6-3.9,8-3.6,12.5-2.4c4.5,1.2,7.4,4.4,8.4,9c1,4.5,1,9-0.1,13.5
		c-1.3,5.1-5.5,8.6-10.7,9.1c-0.9,0.1-1.7,0.2-2.6,0.1c-2.7-0.1-5.1-1-7-3c-0.1-0.1-0.2-0.1-0.4-0.2c-0.2,0.4-0.1,0.7-0.1,1
		c0,3.6,0,7.2,0,10.7c0,0.5,0,1-0.3,1.4c-0.3,0.5-0.8,0.8-1.4,0.8c-2.5,0-5,0-7.5,0c-1,0-1.6-0.6-1.7-1.6c0-0.3,0-0.6,0-0.9
		c0-12.5,0-25,0-37.5c0-0.2,0-0.4,0-0.6c0.1-1.2,0.6-1.8,1.8-1.8c2.2,0,4.4,0,6.6,0c1.5,0,2,0.5,2.1,2C196,40.5,196,40.7,196,40.9z
		 M207,53.9c-0.1-0.7-0.1-1.5-0.2-2.3c-0.3-1.6-0.9-3-2.3-3.9c-3.5-2.1-7.8,0-8.3,4.1c-0.2,1.3-0.2,2.7,0,4c0.4,3.5,2.8,5.4,6.4,4.9
		c2.1-0.3,3.4-1.5,4-3.5C207,56.1,206.9,55,207,53.9z"/>
	<path class="st0" d="M241.1,49c0.1-1.8-0.7-2.8-2.4-3.1c-1.5-0.2-2.9,0-4.1,1c-0.6,0.5-1.3,0.7-2.1,0.7c-2.4,0-4.8,0-7.2,0
		c-1.5,0-2-0.7-1.6-2.1c0.4-1.2,1.1-2.2,2-3.1c2.2-2.2,4.9-3.5,7.9-4.2c3.6-0.8,7.1-0.7,10.6,0.4c4.8,1.4,7.8,5.2,7.9,10.2
		c0.1,6.3,0,12.6,0,18.9c0,1.3-0.6,1.8-1.8,1.8c-2.3,0-4.7,0-7,0c-1.4,0-1.9-0.5-2-2c0-0.3,0.1-0.6-0.2-0.8c-0.1,0-0.2,0-0.2,0.1
		c-3.9,3.9-8.6,4.1-13.5,2.5c-3.4-1.1-5.4-3.6-5.9-7.2c-0.5-3.8,0.8-6.8,4.1-8.9c2.3-1.5,4.9-2.2,7.5-2.7c2.5-0.5,5-0.9,7.5-1.3
		C240.7,49.2,240.9,49.2,241.1,49z M241.1,56.3c-2,0.3-3.9,0.6-5.8,0.9c-0.9,0.2-1.7,0.5-2.4,1.2c-0.7,0.6-0.8,1.4-0.6,2.2
		c0.2,0.8,0.9,1.2,1.6,1.3c2.5,0.3,4.6-0.3,6.2-2.3C240.8,58.7,241.2,57.6,241.1,56.3z"/>
	<path class="st0" d="M365.6,49c0.1-1.8-0.7-2.8-2.4-3.1c-1.5-0.2-2.9,0-4.1,1c-0.6,0.5-1.2,0.7-2,0.7c-2.5,0-5,0-7.5,0
		c-1.4,0-1.9-0.6-1.5-2c0.2-1,0.8-1.8,1.4-2.6c2-2.4,4.7-3.8,7.6-4.6c3.9-1,7.8-1,11.6,0.2c4.7,1.4,7.7,5.2,7.8,10.1
		c0.1,6.3,0,12.6,0,18.9c0,1.3-0.5,1.8-1.8,1.8c-2.3,0-4.6,0-6.9,0c-1.6,0-2-0.5-2.1-2.1c0-0.2-0.1-0.4-0.1-0.6c0,0-0.1-0.1-0.1-0.1
		c-0.1,0-0.2,0-0.3,0.1c-2.5,2.7-5.7,3.4-9.2,3.3c-1.6,0-3.3-0.3-4.8-1c-3.1-1.4-4.9-3.8-5.3-7.1c-0.4-3.6,0.7-6.5,3.7-8.5
		c2.4-1.6,5.1-2.4,7.9-3c2.5-0.5,4.9-0.9,7.4-1.3C365.2,49.2,365.5,49.2,365.6,49z M365.7,56.3c-2.1,0.3-4.1,0.6-6.1,1
		c-0.8,0.1-1.5,0.5-2.1,1c-0.7,0.6-1,1.4-0.7,2.3c0.2,0.9,0.9,1.2,1.7,1.3c0.7,0.1,1.4,0.1,2.1,0C363.5,61.6,365.7,59.2,365.7,56.3z
		"/>
	<path class="st0" d="M157.4,41.1c1.7-1.8,3.6-2.8,5.8-3.2c2.8-0.4,5.6-0.3,8.3,0.8c3.9,1.5,6.1,4.5,6.9,8.5
		c0.3,1.6,0.4,3.2,0.4,4.8c0,5,0,9.9,0,14.9c0,0.3,0,0.6,0,0.9c-0.1,1.1-0.6,1.7-1.7,1.7c-2.5,0-4.9,0-7.4,0c-1.1,0-1.6-0.6-1.7-1.7
		c0-1.3,0-2.6,0-3.9c0-3.6,0-7.2,0-10.7c0-1-0.1-2.1-0.5-3.1c-0.7-1.8-2-2.8-3.9-3c-3.9-0.4-6,1.5-6,5.4c0,4.8,0,9.6,0,14.4
		c0,0.4,0,0.8,0,1.2c-0.1,0.8-0.7,1.4-1.5,1.4c-2.6,0-5.2,0-7.8,0c-0.9,0-1.4-0.6-1.5-1.4c0-0.3,0-0.7,0-1c0-8.7,0-17.4,0-26.1
		c0-0.3,0-0.6,0-0.9c0.1-0.9,0.6-1.6,1.6-1.6c2.5,0,4.9,0,7.4,0c0.9,0,1.4,0.6,1.6,1.5C157.4,40.1,157.4,40.5,157.4,41.1z"/>
	<path class="st0" d="M129.6,66.7c-2.9,3.2-6.4,3.7-10.2,3.3c-1.1-0.1-2.1-0.3-3.2-0.7c-4-1.4-6.3-4.3-7.2-8.4
		c-0.3-1.3-0.4-2.6-0.4-4c0-5.4,0-10.9,0-16.3c0-0.3,0-0.5,0-0.8c0.1-0.9,0.6-1.4,1.5-1.5c2.5,0,5.1-0.1,7.6,0
		c1.1,0,1.6,0.7,1.6,1.9c0,3.2,0,6.5,0,9.7c0,1.6,0,3.2,0,4.8c0,0.7,0.1,1.5,0.2,2.2c0.7,3.5,4.8,5.1,7.7,3c0.9-0.7,1.4-1.6,1.6-2.7
		c0.2-0.8,0.3-1.7,0.3-2.6c0-4.7,0-9.4,0-14.1c0-1.8,0.5-2.2,2.2-2.2c2.2,0,4.3,0,6.5,0c1.6,0,2.1,0.5,2.1,2.1c0,9,0,18,0,26.9
		c0,1.6-0.5,2.1-2.1,2.1c-2,0-4,0-6,0c-1.7,0-2.1-0.4-2.2-2.2C129.7,67.2,129.7,67.1,129.6,66.7z"/>
	<path class="st0" d="M273.9,54.9c0.4-0.2,0.5-0.7,0.6-1.1c1.9-4.5,3.8-9,5.7-13.5c0.8-2,1-2.1,3.2-2.1c2.1,0,4.2,0,6.3,0
		c0.7,0,1.3,0.1,1.7,0.8c0.3,0.6,0.1,1.2-0.1,1.7c-1.2,2.9-2.4,5.7-3.6,8.6c-4.2,9.8-8.4,19.7-12.6,29.5c-0.1,0.3-0.2,0.6-0.4,0.8
		c-0.4,0.8-0.9,1.2-1.8,1.2c-2.4,0-4.8-0.1-7.2,0c-1.4,0.1-2.2-1-1.6-2.4c1.2-2.8,2.3-5.7,3.6-8.4c0.6-1.2,0.5-2.3,0-3.5
		c-3.7-8.4-7.3-16.9-10.9-25.3c-0.9-2.2-0.5-2.9,1.9-2.9c2.1,0,4.1,0.1,6.2,0c1.3-0.1,2,0.5,2.5,1.7c1.9,4.6,3.9,9.2,5.9,13.8
		C273.5,54.2,273.5,54.6,273.9,54.9z"/>
	<path class="st0" d="M383.3,48.2c0-6.2,0-12.4,0-18.6c0-0.3,0-0.6,0-0.9c0.1-1.1,0.6-1.7,1.7-1.7c2.5,0,4.9,0,7.4,0
		c1.1,0,1.6,0.6,1.7,1.7c0,0.3,0,0.6,0,0.9c0,12.5,0,24.9,0,37.4c0,0.3,0,0.6,0,0.9c-0.1,1-0.7,1.6-1.7,1.6c-2.5,0-5,0-7.5,0
		c-1,0-1.6-0.6-1.7-1.6c0-0.3,0-0.7,0-1C383.3,60.6,383.3,54.4,383.3,48.2z"/>
	<path class="st0" d="M411.7,48.3c0,6.2,0,12.3,0,18.5c0,0.4,0,0.8,0,1.2c-0.1,0.9-0.7,1.5-1.5,1.5c-2.6,0-5.2,0-7.8,0
		c-0.9,0-1.4-0.6-1.5-1.5c0-0.3,0-0.5,0-0.8c0-12.6,0-25.3,0-37.9c0-0.3,0-0.5,0-0.8c0.1-0.9,0.7-1.5,1.6-1.6c2.5,0,5.1,0,7.6,0
		c0.9,0,1.4,0.6,1.6,1.4c0.1,0.4,0,0.8,0,1.2C411.7,35.8,411.7,42.1,411.7,48.3z"/>
</g>
</svg>
