<?xml version="1.0" encoding="utf-8"?>
<!-- Generator: Adobe Illustrator 23.0.0, SVG Export Plug-In . SVG Version: 6.00 Build 0)  -->
<svg version="1.1"
	 id="svg2" inkscape:version="0.92.1 r15371" sodipodi:docname="Scopus logo.svg" xmlns:cc="http://creativecommons.org/ns#" xmlns:dc="http://purl.org/dc/elements/1.1/" xmlns:inkscape="http://www.inkscape.org/namespaces/inkscape" xmlns:rdf="http://www.w3.org/1999/02/22-rdf-syntax-ns#" xmlns:sodipodi="http://sodipodi.sourceforge.net/DTD/sodipodi-0.dtd" xmlns:svg="http://www.w3.org/2000/svg"
	 xmlns="http://www.w3.org/2000/svg" xmlns:xlink="http://www.w3.org/1999/xlink" x="0px" y="0px" viewBox="0 0 198 52.2"
	 style="enable-background:new 0 0 198 52.2;" xml:space="preserve">
<style type="text/css">
	.st0{fill-rule:evenodd;clip-rule:evenodd;fill:#5E33BF;}
	.st1{fill-rule:evenodd;clip-rule:evenodd;fill:#000100;}
</style>
<sodipodi:namedview  bordercolor="#666666" borderopacity="1" fit-margin-bottom="10" fit-margin-left="10" fit-margin-right="10" fit-margin-top="10" gridtolerance="10" guidetolerance="10" id="namedview4" inkscape:current-layer="svg2" inkscape:cx="119.80418" inkscape:cy="67.576223" inkscape:pageopacity="0" inkscape:pageshadow="2" inkscape:window-height="1224" inkscape:window-maximized="0" inkscape:window-width="1802" inkscape:window-x="0" inkscape:window-y="31" inkscape:zoom="1.0225" objecttolerance="10" pagecolor="#ffffff" showgrid="false">
	</sodipodi:namedview>
<g>
	<path class="st0" d="M42.8,33.4c-0.1-0.2-0.3-0.3-0.4-0.3l-0.8-1.3c-0.2-0.3-0.5-0.4-0.8-0.2c-0.3,0.2-0.3,0.5-0.2,0.8l0.8,1.3
		c0,0.2,0,0.4,0.1,0.5l4.4,6.9c0.1,0.2,0.4,0.4,0.6,0.4c0.1,0,0.3,0,0.4-0.1c0.4-0.2,0.5-0.7,0.2-1.1L42.8,33.4z M86.1,31.7
		c-0.3-0.2-0.6-0.1-0.8,0.2l-2,3.1c-0.2,0-0.3,0.2-0.4,0.3l-3.2,5.1c-0.2,0.4-0.1,0.8,0.2,1.1c0.1,0.1,0.3,0.1,0.4,0.1
		c0.3,0,0.5-0.1,0.6-0.4l3.2-5.1c0.1-0.2,0.1-0.4,0.1-0.5l2-3.1C86.5,32.2,86.4,31.8,86.1,31.7z M87.6,25.3l-5.2,9.2
		c0,0.2,0,0.4-0.1,0.5l-5.2,9.3c-0.1,0.3-0.4,0.4-0.7,0.4c-0.1,0-0.3,0-0.4-0.1c-0.3-0.2-0.4-0.5-0.4-0.9l-0.9,1.9
		c-0.1,0.3-0.4,0.4-0.7,0.4c-0.1,0-0.2,0-0.3-0.1c-0.2-0.1-0.4-0.3-0.4-0.5l-0.4,1c-0.1,0.3-0.4,0.5-0.7,0.5c-0.1,0-0.2,0-0.3,0
		c-0.2-0.1-0.3-0.2-0.4-0.4l-0.2,0.5c-0.1,0.2-0.3,0.4-0.5,0.5c-2.3,0.8-4.8,1.2-7.4,1.2c-2.6,0-5.1-0.4-7.5-1.2
		c-0.2-0.1-0.4-0.2-0.5-0.5l-0.2-0.5c-0.1,0.2-0.2,0.3-0.4,0.4c-0.1,0-0.2,0.1-0.3,0.1c-0.3,0-0.6-0.2-0.7-0.5l-0.4-1
		c-0.1,0.2-0.2,0.4-0.4,0.5c-0.1,0-0.2,0.1-0.3,0.1c-0.3,0-0.6-0.2-0.7-0.4l-0.9-1.9c0.1,0.3-0.1,0.7-0.4,0.9
		c-0.1,0.1-0.2,0.1-0.4,0.1c-0.3,0-0.5-0.1-0.7-0.4L45,35.9c-0.1-0.2-0.1-0.4-0.1-0.5l-5.6-10c-0.2-0.3-0.1-0.6,0.2-0.8
		c0.3-0.2,0.6-0.1,0.8,0.2l5.6,10c0.2,0.1,0.3,0.2,0.4,0.4l4.3,7.8c0,0,0,0,0,0c0,0,0,0,0,0l-3.2-6.5c-0.1-0.2-0.1-0.4-0.1-0.5
		l-4.8-9.9c-0.1-0.2-0.1-0.3,0-0.5l-2.8-5.8c-0.1-0.2,0-0.4,0.2-0.5c0.2-0.1,0.4,0,0.5,0.2l2.8,5.8c0.1,0,0.3,0.1,0.4,0.3l4.8,9.9
		c0.2,0.1,0.3,0.2,0.4,0.4l3.1,6.4c0,0,0,0,0,0c0,0,0,0,0,0l-2.4-5.8c-0.1-0.2-0.1-0.4,0-0.5l-4.1-9.8c-0.1-0.2-0.1-0.3,0-0.5
		l-3.3-7.8c-0.1-0.1,0-0.3,0-0.4l-1.1-2.5c0-0.1,0-0.2,0.1-0.2c0.1,0,0.2,0,0.2,0.1l1.1,2.5c0.1,0,0.2,0.1,0.3,0.2l3.3,7.8
		c0.1,0,0.3,0.2,0.3,0.3l4.1,9.8c0.2,0.1,0.3,0.2,0.4,0.4l2.4,5.7c0,0,0,0,0,0c0,0,0,0,0,0L51.6,36c-0.1-0.2-0.1-0.4,0-0.5l-3.5-9.7
		c-0.1-0.1,0-0.3,0-0.5l-3-8.5c0-0.1,0-0.3,0.1-0.4l-1.9-5.3c0-0.1,0-0.2,0.1-0.3c0.1,0,0.2,0,0.2,0.1l1.9,5.4
		c0.1,0,0.2,0.1,0.3,0.2l3,8.5c0.1,0.1,0.3,0.2,0.3,0.3l3.5,9.7c0.2,0.1,0.3,0.2,0.4,0.4l1.9,5.3c0,0,0,0,0,0c0,0,0,0,0,0l-1.6-5.3
		c-0.1-0.2,0-0.4,0-0.5l-2.9-9.8c0-0.2,0-0.3,0.1-0.5l-2.5-8.5c0-0.1,0-0.3,0.1-0.4l-2.3-7.9c0-0.1,0-0.2,0.1-0.2
		c0.1,0,0.2,0,0.2,0.1l2.3,7.9c0.1,0,0.2,0.1,0.3,0.3l2.5,8.6c0.1,0.1,0.3,0.2,0.3,0.4l2.9,9.8c0.1,0.1,0.3,0.2,0.3,0.4l1.5,5.3
		c0,0,0,0,0,0c0,0,0,0,0,0l-1.3-5.6c0-0.2,0-0.4,0.1-0.5l-2.3-10.1c0-0.2,0-0.3,0.1-0.5l-1.8-7.8c0-0.1,0-0.3,0.1-0.4L48.9,5.2
		c0-0.1,0-0.2,0.1-0.2c0.1,0,0.2,0,0.2,0.1l2.4,10.3c0.1,0,0.2,0.1,0.3,0.3l1.8,7.8c0.1,0.1,0.2,0.2,0.3,0.4l2.4,10.1
		c0.1,0.1,0.3,0.3,0.3,0.4l1.3,5.5c0,0,0,0,0,0c0,0,0,0,0,0l-1-6c0-0.2,0-0.4,0.1-0.5l-1.9-10.7c0-0.2,0-0.3,0.1-0.5L54.2,16
		c0-0.1,0-0.3,0.1-0.4L52.2,3.1c0-0.1,0.1-0.2,0.2-0.2c0.1,0,0.2,0.1,0.2,0.2l2.2,12.6c0.1,0,0.2,0.2,0.2,0.3l1.1,6.2
		c0.1,0.1,0.2,0.2,0.3,0.4l1.9,10.7c0.1,0.1,0.2,0.3,0.3,0.5l1,6c0,0,0,0,0,0c0,0,0,0,0,0l-0.8-6.8c0-0.2,0-0.4,0.1-0.5l-1.4-11.6
		c0-0.2,0-0.3,0.1-0.4l-0.4-3.5c0-0.1,0-0.3,0.2-0.4L55.7,1.6c0-0.1,0.1-0.2,0.2-0.2c0.1,0,0.2,0.1,0.2,0.2l1.7,14.9
		c0.1,0,0.2,0.2,0.2,0.3l0.4,3.5c0.1,0.1,0.2,0.2,0.2,0.4L60,32.1c0.1,0.1,0.2,0.3,0.2,0.5l0.8,6.7c0,0,0,0,0,0s0,0,0,0l-0.5-7.7
		c0-0.2,0.1-0.4,0.2-0.5L60,18.2c0-0.3,0.1-0.5,0.4-0.6l-1-17c0-0.1,0.1-0.2,0.2-0.2c0.1,0,0.2,0.1,0.2,0.2l1,17.1
		c0.2,0.1,0.4,0.3,0.4,0.5L62,31.1c0.1,0.1,0.2,0.3,0.2,0.5l0.4,7.7c0,0,0,0,0,0c0,0,0,0,0,0l0-8.9c0-0.2,0.1-0.4,0.2-0.5v-9.9
		c0-0.2,0.1-0.3,0.2-0.4V15c0-0.1,0.1-0.3,0.2-0.3V0.3c0-0.1,0.1-0.2,0.2-0.2c0.1,0,0.2,0.1,0.2,0.2v14.4c0.1,0.1,0.2,0.2,0.2,0.3
		v4.5c0.1,0.1,0.2,0.3,0.2,0.4v9.9c0.1,0.1,0.2,0.3,0.2,0.5l0,8.9c0,0,0,0,0,0c0,0,0,0,0,0l0.6-10.4c0-0.2,0.1-0.4,0.2-0.5l0.4-6.5
		c0-0.2,0.1-0.3,0.2-0.4l0.6-9.6c0-0.1,0.1-0.3,0.2-0.3l0.6-10.9c0-0.1,0.1-0.2,0.2-0.2c0.1,0,0.2,0.1,0.2,0.2l-0.7,10.9
		c0.1,0.1,0.2,0.2,0.2,0.3l-0.6,9.6c0.1,0.1,0.2,0.3,0.2,0.4l-0.4,6.5c0.1,0.1,0.2,0.3,0.2,0.5l-0.6,10.4c0,0,0,0,0,0c0,0,0,0,0,0
		l1.4-12c0-0.2,0.1-0.4,0.2-0.5l0.4-3.1c0-0.2,0.1-0.3,0.2-0.4l1.7-14.2c0-0.1,0.1-0.3,0.2-0.3l0.9-7.4c0-0.1,0.1-0.2,0.2-0.2
		c0.1,0,0.2,0.1,0.2,0.2l-0.9,7.4c0.1,0.1,0.2,0.2,0.1,0.4l-1.7,14.3C69,23.6,69,23.8,69,24L68.6,27c0.1,0.1,0.1,0.3,0.1,0.5
		l-1.4,12c0,0,0,0,0,0s0,0,0,0l2.2-12.6l0.2-1c0.1-0.3,0.2-0.5,0.5-0.6l3.1-18c0-0.1,0.1-0.2,0.2-0.3l0.7-4c0-0.1,0.1-0.2,0.2-0.2
		c0.1,0,0.2,0.1,0.2,0.2l-0.7,4c0.1,0.1,0.2,0.2,0.1,0.4l-3.1,18c0.2,0.2,0.3,0.4,0.3,0.7l-2.4,13.7c0,0,0,0,0,0c0,0,0,0,0,0
		l2.9-12.2c0-0.2,0.2-0.3,0.3-0.4l0.7-2.9c0-0.2,0.1-0.3,0.3-0.4l4-17c0-0.1,0.1-0.2,0.3-0.3l0.4-1.7c0-0.1,0.1-0.2,0.2-0.1
		C78,4.9,78.1,5,78,5.2l-0.4,1.7c0.1,0.1,0.1,0.2,0.1,0.4l-4,17c0.1,0.1,0.1,0.3,0.1,0.5l-0.7,2.9c0.1,0.2,0.1,0.3,0.1,0.5
		l-2.9,12.3c0,0,0,0,0,0c0,0,0,0,0,0l3.2-11.1c0.1-0.2,0.2-0.3,0.3-0.4l1.6-5.4c0-0.2,0.2-0.3,0.3-0.4l4.4-15.1
		c0.1-0.2,0.3-0.3,0.5-0.3c0.2,0.1,0.3,0.3,0.3,0.5l-4.4,15.1c0.1,0.1,0.1,0.3,0.1,0.4l-1.6,5.4c0.1,0.2,0.1,0.4,0,0.5l-3.3,11.1
		c0,0,0,0,0,0c0,0,0,0,0,0l3.6-10.1c0.1-0.2,0.2-0.3,0.4-0.4l2.6-7.5c0.1-0.2,0.2-0.3,0.3-0.3L83,11.1c0.1-0.2,0.3-0.3,0.5-0.2
		c0.2,0.1,0.3,0.3,0.2,0.5l-4.1,11.5c0.1,0.1,0.1,0.3,0,0.5L77,30.7c0.1,0.2,0.1,0.4,0,0.5l-3.6,10.2c0,0,0,0,0,0c0,0,0,0,0,0
		l3.9-9.4c0.1-0.2,0.2-0.3,0.4-0.4l3.6-8.7c0.1-0.2,0.2-0.3,0.3-0.3l3.3-7.8c0.1-0.2,0.3-0.3,0.5-0.2c0.2,0.1,0.3,0.3,0.2,0.5
		L82.4,23c0.1,0.1,0.1,0.3,0,0.5l-3.6,8.7c0.1,0.2,0.1,0.4,0,0.5l-4,9.5c0,0,0,0,0,0c0,0,0,0,0,0l4.3-8.9c0.1-0.2,0.2-0.3,0.4-0.4
		l4.5-9.2c0.1-0.1,0.2-0.3,0.4-0.3l2-4.1c0.1-0.2,0.3-0.3,0.5-0.2c0.2,0.1,0.3,0.3,0.2,0.5l-2,4.1c0.1,0.2,0.1,0.3,0,0.5l-4.5,9.2
		c0,0.2,0,0.4-0.1,0.5l-4.4,9c0,0,0,0,0,0c0,0,0,0,0,0l4.8-8.7c0.1-0.2,0.2-0.3,0.4-0.3l5.2-9.2c0.2-0.3,0.5-0.4,0.8-0.2
		C87.6,24.7,87.7,25.1,87.6,25.3z"/>
	<path class="st1" d="M158.8,27.7L158.8,27.7c0-1.1-0.1-1.9-0.4-2.6c-0.3-0.7-0.6-1.3-1.1-1.7c-0.4-0.4-1-0.8-1.6-1
		c-0.6-0.2-1.2-0.3-1.8-0.3c-0.7,0-1.3,0.1-1.9,0.4c-0.6,0.2-1.1,0.6-1.5,1c-0.4,0.4-0.8,1-1,1.6c-0.3,0.6-0.4,1.3-0.4,2
		c0,0.7,0.1,1.4,0.4,2c0.2,0.6,0.6,1.1,1,1.6c0.4,0.4,1,0.8,1.6,1c0.6,0.3,1.2,0.4,1.9,0.4c1,0,2-0.2,2.8-0.7
		c0.8-0.5,1.5-1.2,1.9-2.2l-2.8-0.3c-0.2,0.3-0.4,0.6-0.8,0.7c-0.3,0.2-0.7,0.3-1.1,0.3c-0.6,0-1.1-0.2-1.5-0.6
		c-0.4-0.4-0.6-0.8-0.7-1.3L158.8,27.7L158.8,27.7z M155.9,25.9h-4.2c0.1-0.5,0.3-0.9,0.7-1.2c0.4-0.3,0.8-0.5,1.4-0.5
		c0.6,0,1,0.2,1.4,0.5C155.6,25,155.9,25.4,155.9,25.9 M150.6,2.6c0.1,0,0.3,0,0.4,0V0.2c-0.2,0-0.5,0-0.7-0.1c-0.2,0-0.4,0-0.6,0
		c-0.2,0-0.4,0-0.6,0c-0.4,0-0.7,0-1,0.1c-0.3,0.1-0.6,0.2-0.8,0.4c-0.2,0.2-0.4,0.4-0.6,0.8c-0.1,0.3-0.2,0.7-0.2,1.2v2.7h-1.5v2.3
		h1.5v7.1h2.6V7.5h1.8V5.3h-1.8V3.3c0-0.3,0.1-0.5,0.2-0.6c0.1-0.1,0.4-0.1,0.6-0.1c0.1,0,0.2,0,0.3,0
		C150.3,2.6,150.4,2.6,150.6,2.6 M144.2,11.9c0.3-0.6,0.4-1.3,0.4-2c0-0.7-0.1-1.4-0.4-2c-0.3-0.6-0.6-1.1-1.1-1.6
		c-0.5-0.4-1-0.8-1.6-1c-0.6-0.3-1.2-0.4-2-0.4c-0.7,0-1.3,0.1-1.9,0.4c-0.6,0.2-1.1,0.6-1.6,1c-0.5,0.4-0.8,1-1.1,1.6
		c-0.3,0.6-0.4,1.3-0.4,2c0,0.7,0.1,1.4,0.4,2c0.3,0.6,0.6,1.1,1.1,1.6c0.4,0.4,1,0.8,1.6,1c0.6,0.3,1.2,0.4,1.9,0.4
		c0.7,0,1.3-0.1,2-0.4c0.6-0.2,1.1-0.6,1.6-1C143.5,13.1,143.9,12.5,144.2,11.9 M141.9,9.9c0,0.7-0.2,1.4-0.6,1.8
		c-0.4,0.5-1,0.7-1.7,0.7c-0.4,0-0.7-0.1-1-0.2c-0.3-0.1-0.5-0.3-0.7-0.5c-0.2-0.2-0.4-0.5-0.5-0.8c-0.1-0.3-0.2-0.6-0.2-1
		c0-0.7,0.2-1.4,0.7-1.8c0.4-0.5,1-0.7,1.7-0.7c0.4,0,0.7,0.1,0.9,0.2c0.3,0.1,0.5,0.3,0.7,0.5c0.2,0.2,0.4,0.5,0.5,0.8
		C141.8,9.2,141.9,9.6,141.9,9.9 M135.8,22.2c-0.4-0.2-0.9-0.2-1.4-0.2c-0.5,0-1.1,0.1-1.6,0.3c-0.5,0.2-0.9,0.6-1.3,1
		c0-0.1,0-0.2,0-0.2c0-0.1,0-0.2,0-0.2c0-0.1,0-0.2,0-0.3v-0.4H129v9.4h2.7v-6.1c0.3-0.3,0.6-0.6,0.9-0.8c0.3-0.2,0.7-0.3,1.1-0.3
		c0.4,0,0.8,0.1,1.1,0.4s0.5,0.7,0.5,1.3v5.5h2.6v-6.2c0-0.5-0.1-1-0.3-1.5c-0.2-0.4-0.4-0.8-0.7-1.1
		C136.6,22.6,136.2,22.3,135.8,22.2 M130.5,11.9c0.2-0.6,0.3-1.3,0.3-2c0-0.7-0.1-1.4-0.3-2c-0.2-0.6-0.6-1.1-1-1.6
		c-0.4-0.4-0.9-0.8-1.4-1C127.6,5.1,127,5,126.4,5c-0.7,0-1.3,0.1-1.8,0.4c-0.5,0.3-0.9,0.6-1.1,1c0-0.1,0-0.4,0-0.6
		c0-0.3,0-0.6,0-0.9V0.3h-2.7v14.4h2.7v-1.2c0.2,0.4,0.6,0.7,1.1,1c0.5,0.3,1.1,0.4,1.8,0.4c0.6,0,1.2-0.1,1.8-0.4
		c0.6-0.3,1-0.6,1.5-1C130,13.1,130.3,12.5,130.5,11.9 M128.2,9.9c0,0.4-0.1,0.7-0.2,1c-0.1,0.3-0.3,0.6-0.5,0.8
		c-0.2,0.2-0.5,0.4-0.8,0.6c-0.3,0.1-0.6,0.2-1,0.2s-0.7-0.1-1-0.2c-0.3-0.1-0.5-0.3-0.8-0.6c-0.2-0.2-0.4-0.5-0.5-0.8
		c-0.1-0.3-0.2-0.6-0.2-1c0-0.4,0.1-0.7,0.2-1c0.1-0.3,0.3-0.6,0.5-0.8c0.2-0.2,0.5-0.4,0.8-0.5c0.3-0.1,0.6-0.2,1-0.2
		s0.7,0.1,1,0.2c0.3,0.1,0.5,0.3,0.8,0.5c0.2,0.2,0.4,0.5,0.5,0.8C128.1,9.2,128.2,9.6,128.2,9.9 M112.8,10.7h7v-0.1
		c0-1-0.1-1.8-0.4-2.5c-0.3-0.7-0.6-1.3-1.1-1.7c-0.4-0.4-1-0.8-1.6-1c-0.6-0.2-1.2-0.3-1.8-0.3c-0.7,0-1.3,0.1-1.9,0.4
		c-0.6,0.2-1.1,0.6-1.5,1c-0.4,0.4-0.8,1-1,1.6c-0.2,0.6-0.4,1.3-0.4,2c0,0.7,0.1,1.4,0.4,2c0.2,0.6,0.6,1.1,1,1.6
		c0.4,0.4,1,0.8,1.6,1c0.6,0.3,1.2,0.4,1.9,0.4c1,0,2-0.2,2.8-0.7c0.8-0.5,1.4-1.2,1.9-2.2l-2.8-0.3c-0.2,0.3-0.4,0.6-0.8,0.7
		c-0.3,0.2-0.7,0.3-1.1,0.3c-0.6,0-1.1-0.2-1.5-0.6C113.1,11.7,112.9,11.2,112.8,10.7 M112.8,8.9c0.1-0.5,0.3-0.9,0.7-1.2
		c0.4-0.3,0.8-0.5,1.4-0.5c0.6,0,1,0.2,1.4,0.5c0.4,0.3,0.6,0.8,0.7,1.2L112.8,8.9L112.8,8.9z M107.6,14.6l3.5-14.4h-2.9l-2.3,10.3
		l-2.7-10.3h-3l-2.7,10.3L95.2,0.3h-3.1l3.5,14.4h3.2l2.7-10.5l2.8,10.5H107.6z M93.6,27.4l-1.5,2.2c0.2,0.2,0.5,0.5,0.8,0.8
		c0.3,0.3,0.7,0.5,1.2,0.7c0.4,0.2,0.9,0.4,1.5,0.5c0.5,0.1,1.1,0.2,1.7,0.2c0.7,0,1.4-0.1,2-0.3c0.6-0.2,1.1-0.5,1.5-0.9
		c0.4-0.4,0.7-0.8,1-1.3c0.2-0.5,0.3-1,0.3-1.6c0-0.5-0.1-0.9-0.2-1.3c-0.1-0.4-0.3-0.8-0.6-1.1c-0.3-0.3-0.6-0.7-1.1-1
		c-0.4-0.3-1-0.6-1.6-0.9l-1.8-0.9c-0.5-0.3-0.9-0.5-1-0.8c-0.2-0.3-0.2-0.5-0.2-0.8c0-0.2,0-0.3,0.1-0.5c0.1-0.1,0.2-0.3,0.3-0.4
		c0.1-0.1,0.3-0.2,0.6-0.3c0.2-0.1,0.5-0.1,0.8-0.1c0.5,0,1,0.1,1.5,0.4c0.5,0.3,1,0.7,1.4,1.2l1.7-2c-0.6-0.7-1.3-1.3-2.2-1.6
		c-0.9-0.4-1.7-0.5-2.5-0.5c-0.6,0-1.2,0.1-1.8,0.3c-0.6,0.2-1,0.5-1.5,0.8c-0.4,0.4-0.8,0.8-1,1.3c-0.2,0.5-0.4,1-0.4,1.6
		c0,0.9,0.2,1.6,0.7,2.3c0.5,0.6,1.2,1.2,2.2,1.7l1.7,0.8c0.7,0.3,1.1,0.6,1.4,0.9c0.3,0.3,0.4,0.6,0.4,1.1c0,0.5-0.2,0.8-0.5,1.1
		c-0.4,0.3-0.8,0.4-1.3,0.4c-0.4,0-0.7-0.1-1.1-0.2s-0.7-0.2-1-0.4c-0.3-0.2-0.6-0.4-0.9-0.6C94,27.9,93.8,27.7,93.6,27.4
		 M92.7,38.3c-0.4,0.9-0.6,1.9-0.6,3c0,1.1,0.2,2.1,0.6,3c0.4,0.9,0.9,1.7,1.5,2.3c0.7,0.7,1.4,1.2,2.3,1.5c0.9,0.4,1.8,0.6,2.9,0.6
		c0.7,0,1.2-0.1,1.8-0.2c0.5-0.2,0.9-0.3,1.3-0.6c0.4-0.2,0.7-0.5,0.9-0.7c0.2-0.3,0.4-0.5,0.6-0.7v2h2.3v-7.1h-6.1v2.3h3.1
		c-0.1,0.3-0.3,0.6-0.5,0.9c-0.2,0.3-0.5,0.6-0.8,0.8c-0.3,0.2-0.7,0.4-1.1,0.5c-0.4,0.1-0.9,0.2-1.4,0.2c-0.6,0-1.2-0.1-1.8-0.3
		c-0.6-0.2-1-0.5-1.4-1c-0.4-0.4-0.7-0.9-1-1.5c-0.2-0.6-0.3-1.3-0.3-2c0-0.7,0.1-1.3,0.3-1.9c0.2-0.6,0.5-1.1,0.9-1.5
		c0.4-0.4,0.9-0.8,1.4-1c0.6-0.2,1.2-0.4,1.8-0.4c1,0,1.8,0.2,2.4,0.7c0.7,0.5,1.2,1.1,1.4,2h3.1c-0.2-0.8-0.5-1.6-1-2.3
		c-0.5-0.7-1-1.2-1.6-1.7c-0.6-0.5-1.3-0.8-2.1-1.1c-0.8-0.2-1.5-0.4-2.3-0.4c-1,0-2,0.2-2.9,0.5c-0.9,0.4-1.7,0.9-2.4,1.6
		C93.6,36.7,93.1,37.4,92.7,38.3 M105.9,31.5c0.6,0.3,1.3,0.4,1.9,0.4c0.5,0,1-0.1,1.5-0.2c0.5-0.1,0.9-0.3,1.3-0.6
		c0.4-0.3,0.7-0.6,1-1c0.3-0.4,0.5-0.8,0.7-1.3l-2.5-0.8c-0.2,0.4-0.4,0.8-0.8,1.1c-0.4,0.3-0.8,0.4-1.3,0.4c-0.7,0-1.3-0.2-1.7-0.7
		c-0.4-0.5-0.7-1.1-0.7-1.8c0-0.7,0.2-1.3,0.7-1.8c0.4-0.5,1-0.7,1.7-0.7c0.5,0,0.9,0.1,1.3,0.4c0.4,0.3,0.6,0.6,0.8,1l2.5-0.8
		c-0.2-0.4-0.4-0.9-0.7-1.3c-0.3-0.4-0.7-0.7-1-1c-0.4-0.3-0.8-0.5-1.3-0.6c-0.5-0.1-1-0.2-1.5-0.2c-0.7,0-1.3,0.1-1.9,0.4
		c-0.6,0.3-1.1,0.6-1.6,1c-0.5,0.4-0.8,1-1.1,1.6c-0.3,0.6-0.4,1.3-0.4,2c0,0.7,0.1,1.4,0.4,2c0.3,0.6,0.6,1.1,1.1,1.6
		C104.8,30.9,105.3,31.2,105.9,31.5 M110.5,39.1h-2.6v9.4h2.7V44c0-0.8,0.2-1.4,0.5-1.8c0.3-0.3,0.8-0.5,1.5-0.5h1.1v-2.7
		c-0.2,0-0.5-0.1-0.7-0.1c-0.6,0-1.1,0.1-1.5,0.4c-0.4,0.3-0.7,0.7-0.9,1.2L110.5,39.1L110.5,39.1z M117,22.2h-4v2.3h1.3v7.1h2.7
		L117,22.2L117,22.2z M114.4,17.7c-0.3,0.3-0.5,0.7-0.5,1.2c0,0.5,0.2,0.9,0.5,1.2c0.3,0.3,0.7,0.5,1.2,0.5c0.5,0,0.9-0.2,1.2-0.5
		c0.3-0.3,0.5-0.7,0.5-1.2c0-0.2,0-0.4-0.1-0.7c-0.1-0.2-0.2-0.4-0.4-0.5c-0.2-0.2-0.3-0.3-0.5-0.4c-0.2-0.1-0.4-0.1-0.7-0.1
		C115.1,17.2,114.7,17.4,114.4,17.7 M114.5,41.8c-0.3,0.6-0.4,1.3-0.4,2s0.1,1.4,0.4,2c0.3,0.6,0.6,1.1,1.1,1.6c0.5,0.4,1,0.8,1.6,1
		c0.6,0.3,1.2,0.4,1.9,0.4c0.7,0,1.3-0.1,1.9-0.4c0.6-0.2,1.1-0.6,1.6-1c0.5-0.4,0.8-0.9,1.1-1.6c0.3-0.6,0.4-1.3,0.4-2
		s-0.1-1.4-0.4-2c-0.3-0.6-0.6-1.1-1.1-1.6c-0.5-0.4-1-0.8-1.6-1c-0.6-0.3-1.2-0.4-1.9-0.4c-0.7,0-1.3,0.1-1.9,0.4
		c-0.6,0.2-1.1,0.6-1.6,1C115.1,40.7,114.7,41.2,114.5,41.8 M116.7,43.8c0-0.7,0.2-1.3,0.7-1.8c0.4-0.5,1-0.7,1.7-0.7
		c0.3,0,0.7,0.1,0.9,0.2c0.3,0.1,0.5,0.3,0.7,0.5c0.2,0.2,0.4,0.5,0.5,0.8c0.1,0.3,0.2,0.6,0.2,1c0,0.7-0.2,1.3-0.6,1.8
		c-0.4,0.5-1,0.7-1.7,0.7c-0.4,0-0.7-0.1-1-0.2c-0.3-0.1-0.5-0.3-0.7-0.5c-0.2-0.2-0.4-0.5-0.5-0.8
		C116.8,44.5,116.7,44.2,116.7,43.8 M121.6,29c-0.4-0.4-0.6-0.8-0.7-1.3h7v-0.1c0-1-0.1-1.8-0.4-2.5c-0.3-0.7-0.6-1.3-1.1-1.7
		c-0.4-0.4-1-0.8-1.6-1c-0.6-0.2-1.2-0.3-1.8-0.3c-0.7,0-1.3,0.1-1.9,0.4c-0.6,0.2-1.1,0.6-1.5,1c-0.4,0.4-0.8,1-1,1.6
		s-0.4,1.3-0.4,2c0,0.7,0.1,1.4,0.4,2c0.2,0.6,0.6,1.1,1,1.6c0.4,0.4,1,0.8,1.6,1c0.6,0.3,1.2,0.4,1.9,0.4c1,0,2-0.2,2.8-0.7
		s1.4-1.2,1.9-2.2l-2.8-0.3c-0.2,0.3-0.4,0.6-0.8,0.7c-0.3,0.2-0.7,0.3-1.1,0.3C122.5,29.6,122,29.4,121.6,29 M120.9,25.9
		c0.1-0.5,0.3-0.9,0.7-1.2c0.4-0.3,0.8-0.5,1.4-0.5c0.6,0,1,0.2,1.4,0.5c0.4,0.3,0.6,0.7,0.7,1.2H120.9z M127.6,39.1h-2.7v6
		c0,0.5,0.1,1,0.3,1.4c0.2,0.4,0.5,0.8,0.9,1.2c0.4,0.3,0.8,0.6,1.4,0.8c0.6,0.2,1.2,0.3,1.9,0.3c0.7,0,1.4-0.1,1.9-0.3
		c0.6-0.2,1-0.5,1.4-0.8c0.4-0.4,0.7-0.7,0.8-1.2c0.2-0.4,0.3-0.9,0.3-1.4v-6h-2.6v5.5c0,0.6-0.2,1.1-0.5,1.4
		c-0.4,0.3-0.8,0.4-1.3,0.4c-0.5,0-0.9-0.1-1.2-0.4c-0.4-0.3-0.5-0.8-0.5-1.4L127.6,39.1L127.6,39.1z M137.7,39.1H135v13h2.7v-4.8
		c0.2,0.4,0.6,0.7,1.1,1c0.5,0.3,1.1,0.4,1.8,0.4c0.6,0,1.2-0.1,1.8-0.4c0.6-0.2,1-0.6,1.5-1c0.4-0.4,0.7-0.9,1-1.6
		c0.2-0.6,0.3-1.3,0.3-2s-0.1-1.4-0.3-2c-0.2-0.6-0.6-1.1-1-1.6c-0.4-0.4-0.9-0.8-1.4-1c-0.5-0.3-1.1-0.4-1.8-0.4
		c-0.7,0-1.3,0.1-1.8,0.4c-0.5,0.3-0.9,0.6-1.1,1c0,0,0-0.1,0-0.3c0-0.1,0-0.3,0-0.5V39.1z M137.6,43.8c0-0.4,0.1-0.7,0.2-1
		c0.1-0.3,0.3-0.6,0.5-0.8c0.2-0.2,0.5-0.4,0.8-0.5c0.3-0.1,0.6-0.2,1-0.2s0.7,0.1,1,0.2c0.3,0.1,0.5,0.3,0.8,0.5
		c0.2,0.2,0.4,0.5,0.5,0.8c0.1,0.3,0.2,0.6,0.2,1c0,0.4-0.1,0.7-0.2,1c-0.1,0.3-0.3,0.6-0.5,0.8c-0.2,0.2-0.5,0.4-0.8,0.6
		c-0.3,0.1-0.6,0.2-1,0.2s-0.7-0.1-1-0.2c-0.3-0.1-0.5-0.3-0.8-0.6c-0.2-0.2-0.4-0.5-0.5-0.8C137.7,44.5,137.6,44.2,137.6,43.8
		 M143.8,31.8c0.5,0,1-0.1,1.5-0.2c0.5-0.1,0.9-0.4,1.3-0.6c0.4-0.3,0.7-0.6,1-1c0.3-0.4,0.5-0.8,0.7-1.3l-2.5-0.8
		c-0.2,0.4-0.4,0.8-0.8,1c-0.4,0.3-0.8,0.4-1.3,0.4c-0.7,0-1.3-0.2-1.7-0.7c-0.4-0.5-0.6-1.1-0.6-1.8c0-0.7,0.2-1.4,0.6-1.8
		c0.4-0.5,1-0.7,1.7-0.7c0.5,0,0.9,0.1,1.3,0.4c0.4,0.3,0.6,0.6,0.8,1l2.5-0.8c-0.1-0.5-0.4-0.9-0.7-1.3c-0.3-0.4-0.6-0.7-1-1
		c-0.4-0.3-0.8-0.5-1.3-0.6c-0.5-0.1-1-0.2-1.5-0.2c-0.7,0-1.3,0.1-2,0.4c-0.6,0.2-1.1,0.6-1.6,1c-0.4,0.4-0.8,1-1.1,1.6
		c-0.3,0.6-0.4,1.3-0.4,2c0,0.7,0.1,1.4,0.4,2c0.3,0.6,0.6,1.1,1.1,1.6c0.4,0.4,1,0.8,1.6,1C142.5,31.7,143.1,31.8,143.8,31.8"/>
</g>
</svg>
