<?xml version="1.0" encoding="utf-8"?>
<!-- Generator: Adobe Illustrator 26.1.0, SVG Export Plug-In . SVG Version: 6.00 Build 0)  -->
<svg version="1.1" id="Capa_1" xmlns="http://www.w3.org/2000/svg" xmlns:xlink="http://www.w3.org/1999/xlink" x="0px" y="0px"
	 viewBox="0 0 1920 682.5" style="enable-background:new 0 0 1920 682.5;" xml:space="preserve">
<style type="text/css">
	.st0{fill:url(#SVGID_1_);}
	.st1{fill:url(#SVGID_00000106870304857145198800000009753763141088707732_);}
	.st2{fill:url(#SVGID_00000124850346611473224400000014903980208734984099_);}
	.st3{fill:url(#SVGID_00000067937237017447232470000009612110678406042815_);}
	.st4{fill:url(#SVGID_00000079454580662875998600000004491215711936062127_);}
	.st5{fill:url(#SVGID_00000000193610441045325220000014015835032117364865_);}
</style>
<linearGradient id="SVGID_1_" gradientUnits="userSpaceOnUse" x1="958.268" y1="1593.968" x2="961.748" y2="1623.568" gradientTransform="matrix(1 0 0 1 0 -1054)">
	<stop  offset="0" style="stop-color:#96989B"/>
	<stop  offset="0.104" style="stop-color:#999B9E"/>
	<stop  offset="0.1687" style="stop-color:#A1A3A6"/>
	<stop  offset="0.2225" style="stop-color:#B0B2B5"/>
	<stop  offset="0.2345" style="stop-color:#B4B6B9"/>
	<stop  offset="0.5075" style="stop-color:#C6C8CB"/>
	<stop  offset="1" style="stop-color:#F0F2F5"/>
</linearGradient>
<polygon class="st0" points="0,675.1 0,682.5 1920,461.8 1920,426.9 "/>
<linearGradient id="SVGID_00000103254190415960274360000012771633759567448963_" gradientUnits="userSpaceOnUse" x1="959.8529" y1="-460.3666" x2="967.0929" y2="-508.7766" gradientTransform="matrix(1 0 0 -1 0 60)">
	<stop  offset="0" style="stop-color:#00264A"/>
	<stop  offset="0.1655" style="stop-color:#052A55"/>
	<stop  offset="0.4837" style="stop-color:#052E59"/>
</linearGradient>
<polygon style="fill:url(#SVGID_00000103254190415960274360000012771633759567448963_);" points="1920,366.8 1920,430.1 0,675.9 
	0,662.7 "/>
<linearGradient id="SVGID_00000011709582880850708990000007458616264407416976_" gradientUnits="userSpaceOnUse" x1="959.6713" y1="-426.9468" x2="966.0912" y2="-464.1168" gradientTransform="matrix(1 0 0 -1 0 60)">
	<stop  offset="0" style="stop-color:#002A52"/>
	<stop  offset="0.1655" style="stop-color:#0B3463"/>
	<stop  offset="0.4837" style="stop-color:#0A3665"/>
</linearGradient>
<polygon style="fill:url(#SVGID_00000011709582880850708990000007458616264407416976_);" points="1920,314 1920,367.8 0,663.7 
	0,648.2 "/>
<linearGradient id="SVGID_00000137106168577723254850000012946650935649656233_" gradientUnits="userSpaceOnUse" x1="0" y1="-696.71" x2="1920" y2="-696.71" gradientTransform="matrix(1 0 0 -1 0 -372.11)">
	<stop  offset="0" style="stop-color:#1D3C69"/>
	<stop  offset="1" style="stop-color:#1D4E7D"/>
</linearGradient>
<path style="fill:url(#SVGID_00000137106168577723254850000012946650935649656233_);" d="M0,0h1920v315L0,649.2V0z"/>
<g>
	
		<linearGradient id="SVGID_00000103968359963812769890000006223005866909813395_" gradientUnits="userSpaceOnUse" x1="0" y1="678.69" x2="1920" y2="678.69" gradientTransform="matrix(1 0 0 -1 0 681.89)">
		<stop  offset="0" style="stop-color:#004972"/>
		<stop  offset="1" style="stop-color:#008EAC"/>
	</linearGradient>
	<polygon style="fill:url(#SVGID_00000103968359963812769890000006223005866909813395_);" points="65.1,0 0,5.2 0,6.4 80.3,0 	"/>
	
		<linearGradient id="SVGID_00000152231808054309954020000013110001905659739789_" gradientUnits="userSpaceOnUse" x1="0" y1="297.3" x2="1920.1002" y2="297.3">
		<stop  offset="0" style="stop-color:#004972"/>
		<stop  offset="1" style="stop-color:#00A8BE"/>
	</linearGradient>
	<path style="fill:url(#SVGID_00000152231808054309954020000013110001905659739789_);" d="M1920.1,215.7l-51.3,46.2
		c-1.6-1.6-3.8-2.5-6.3-2.5c-1.3,0-2.6,0.3-3.7,0.8L1798,148.5c-0.2-0.6-0.6-1.2-1-1.7l-1.8-3.3l7.8-18.7l117,29.8v-1.2l-116.6-29.7
		l3-7.2l48.7-5.2c0.8,4.4,4.6,7.8,9.3,7.8c3.4,0,6.4-1.8,8-4.5l47.5,25.2v-1.4l-46.9-24.9c0.5-1.2,0.9-2.5,0.9-3.9
		c0-0.8-0.1-1.5-0.3-2.2l46.3-14.4v-1.3l-46.7,14.5c-0.5-1.2-1.1-2.2-2-3.1L1920,51v-1.8l-49.6,53.6c-1.1-0.9-2.4-1.6-3.9-1.9
		l2.8-17.7l9.7-61.3l9.4-9.8c1.2,0.9,2.6,1.5,4.2,1.5c3.7,0,6.8-3,6.8-6.7c0-2.7-1.6-5.1-4-6.1l0.2-0.6h-1.3l-0.1,0.2
		c-0.5-0.1-1.1-0.2-1.6-0.2h-1.2v0.1c-0.8,0.1-1.6,0.4-2.3,0.9l-0.7-1h-1.5l1.2,1.7c-1.4,1.2-2.3,3.1-2.3,5.1v0.1l-4.5,0.5l1.2-7.3
		h-1.2l-1.2,7.4l-7.6,0.8l-11.6,1.2l2.3-4.2L1866,0h-1.4l-5.3,9.6l-93.7,9.7c-0.7-3.8-3.7-6.9-7.5-7.6l1.3-11.7h-1.2l-1.3,11.6
		c-0.2,0-0.3,0-0.5,0s-0.5,0-0.7,0L1754,0h-1.2l1.7,11.8c-3.8,0.8-6.7,3.9-7.3,7.7l-54.4-4.7l-91.4-7.9V6.8c0-2.5-1.1-4.7-2.9-6.1
		L1599,0h-1.5v0.1c0,0-0.1,0-0.1-0.1h-7.7c-0.8,0.5-1.6,1.1-2.2,1.8l-2.6-1.8h-2.1l4,2.8c-0.7,1.2-1.1,2.5-1.1,4c0,0.1,0,0.3,0,0.4
		l-75.8,10l-24.9,3.3c-0.6-2.7-2.9-4.7-5.7-4.9L1479.1,0h-1.2l0.2,15.7c-2.6,0.3-4.8,2.2-5.5,4.6l-22.9-4l-23.5-4.1
		c0-0.3,0-0.6,0-0.9c0-2.7-1.2-5.1-3.2-6.6l3.3-4.8h-1.5L1422,4c-0.4-0.2-0.9-0.5-1.3-0.6l1-3.4h-1.3l-0.9,3.1
		c-0.6-0.1-1.2-0.2-1.9-0.2c-4.7,0-8.5,3.8-8.5,8.5c0,3,1.5,5.6,3.9,7.1l-32.9,58.2l32-76.6h-1.3l-35.7,85.5l-11.2,19.8
		c-0.1,0-0.2,0-0.3,0c-2.4,0-4.5,0.9-6.2,2.3l-27.2-27.9L1252.6,0h-1.7l105.6,108.4c-0.8,0.9-1.5,2-1.9,3.2l-105-29.6
		c0.1-0.7,0.2-1.3,0.2-2.1c0-5.1-4.1-9.3-9.1-9.6l-0.1-25.1L1240.4,0h-1.2v10.7l0.2,59.6c-1.4,0.1-2.6,0.4-3.8,1L1193.1,0h-1.4
		l42.9,71.9c-1.7,1.1-3,2.8-3.7,4.7l-108.4-31.1l-23.9-6.9l37.7-17.6c1.5,2.6,4.2,4.3,7.4,4.3c4.7,0,8.5-3.8,8.5-8.4
		c0-3.4-2-6.3-5-7.7l3.5-9.3h-1.3l-3.3,8.8c-0.6-0.2-1.2-0.3-1.9-0.3l-0.1-8.5h-1.2l0.1,3.9l-0.4-3.9h-1.2l0.9,8.6
		c-3.2,0.6-5.7,2.9-6.6,5.9l-65.9-14.5l0.1-0.1h-6l3.7,0.8l-15.1,17.3c-1.4-1-3.1-1.6-4.9-1.6c-4.6,0-8.3,3.7-8.3,8.2
		c0,2.1,0.8,3.9,2,5.4L1018,53.1l1.5-53.2h-1.2l-1.6,54.4l-18.2,18.1L983.8,56l7.6-47c0.1,0,0.2,0,0.3,0c3.1,0,5.7-2.5,5.7-5.7
		c0-1.3-0.4-2.4-1.1-3.4h-10.9l0.4,0.2l-13.5,33.4c-0.1,0-0.2-0.1-0.4-0.1L978.1,0h-1.2l-6.2,33.4c-0.3,0-0.6,0-0.8,0
		c-3.1,0-5.7,1.7-7.1,4.3L953.1,0h-1.3L962,39.6c-0.1,0.5-0.2,1.1-0.2,1.6c0,0.6,0.1,1.2,0.2,1.8L812.2,89.7c-0.3-0.6-0.6-1.1-1-1.6
		L892.7,0h-1.6l-80.8,87.3c-0.6-0.5-1.3-0.8-2.1-1l7.3-46.1l5.7-36.3l1.7-1.7l2-2.1h-1.7l-1.7,1.8l0.3-1.8h-1.2L820,3.3L766.6,59
		c-0.2-0.1-0.3-0.2-0.5-0.3L788,18.8L818,0h-2.3l-26.5,16.6l8.6-15.7l0.5-0.9h-1.4l-9.8,17.9l-77.7,48.7c-1.2-1.5-3-2.4-5-2.5
		l-4.8-55.8c2.6-0.5,4.5-2.7,4.5-5.4l28-2.9h-11.7l-16.3,1.7c-0.1-0.6-0.4-1.2-0.7-1.7h-9.5c-0.3,0.5-0.6,1.1-0.7,1.8L672.4,0h-14
		L693,3c0,0.6,0.1,1.1,0.3,1.7l-79,36.4c-1-1.7-2.9-2.8-5-2.8c-1.7,0-3.2,0.7-4.2,1.8L605,40L551.6,0h-2l54.8,41
		c-0.2,0.4-0.4,0.8-0.5,1.2l-70.5-15L427.6,4.8c0-0.3,0.1-0.5,0.1-0.8c0-0.1,0-0.2,0-0.3l15.3-2L456,0h-9.2l-19.3,2.5
		c-0.2-0.9-0.6-1.8-1.2-2.5h-10.7c-0.5,0.7-0.9,1.4-1.1,2.3L401.4,0h-7l19.9,3.5c0,0.2,0,0.4,0,0.6c0,1.7,0.6,3.2,1.7,4.4
		l-62.5,65.9c-1.1-0.9-2.4-1.5-3.8-1.8l9.8-70.9c0.2,0,0.3,0,0.5,0c1.9,0,3.6-0.6,5-1.7h-10c0.1,0.1,0.2,0.2,0.4,0.3l-33,58.3
		L346.8,0h-1.3l-28.1,67.4L305,89.3c-1.5,0.2-2.9,0.8-4,1.7L212.3,0h-1.7l53.1,54.4l36.4,37.4c-0.6,0.7-1.1,1.5-1.4,2.3l-7.4-2.1
		L189.4,63.3c0.1-0.5,0.1-0.9,0.1-1.4c0-3.8-3-6.9-6.7-7.2L182.7,0h-1.2l0.1,53.6v1.1c-0.9,0.1-1.8,0.3-2.6,0.7L146,0h-1.4L178,56
		c-1.2,0.8-2.1,2-2.6,3.3L40.8,20.7L81.2,1.8c1,1.6,2.7,2.6,4.7,2.6c2.7,0,4.9-1.9,5.4-4.4H80.5c0,0.2,0.1,0.5,0.2,0.7L39,20.2L0,9
		v1.2L37.4,21L10.1,33.7L0,19.9v2l9,12.3l-9,4.2v1.3l9.7-4.5L106,167.6c-1.4,1.2-2.3,3-2.3,5L0,182.5v1.2l103.9-9.8
		c0.3,1.5,1.1,2.9,2.3,3.9l-69,98.1c-0.2,0-0.4,0-0.7,0c-3,0-5.4,2.3-5.7,5.2l-1.2-0.1c-2,0-3.8,0.9-5,2.3L0,265v1.5L23.9,284
		L0,272.6v1.3l23.3,11.2c-0.3,0.7-0.4,1.5-0.4,2.4c0,0.1,0,0.1,0,0.2L0,299.5v1.3L23.1,289c0.1,0.3,0.2,0.7,0.3,1L0,301.6v1.3
		l22.8-11.4L0,309.9v1.5l24.5-19.6c0.3,0.4,0.7,0.7,1.1,1L0,321.6v1.8l26.6-29.9c0.9,0.5,2,0.7,3,0.7c3.7,0,6.7-3,6.7-6.7v-0.4h0.2
		c0.1,0,0.2,0,0.3,0l5.3,31.3l5.2,30.8c-3.7,0.9-6.4,4.2-6.4,8.1c0,0.6,0.1,1.1,0.2,1.7L0,370.4v1.2l41.4-11.5
		c1.2,3.2,4.2,5.5,7.9,5.5c0.2,0,0.5,0,0.7,0l15,95c-2.6,0.6-4.8,2.4-5.9,4.8L0,444.1v1.3l58.7,21.1c-0.2,0.7-0.3,1.5-0.3,2.3
		c0,0.9,0.1,1.7,0.4,2.5L9.4,490.6c-1.1-2.1-3.2-3.5-5.7-3.5L0,488.4v6.1v0.7v1.3v2.2l3.7,1.2c3.2,0,5.9-2.4,6.3-5.5l157,4.6
		c0.2,2.6,2.4,4.6,5.1,4.6c2.2,0,4-1.3,4.8-3.2l50.3,13.1c-0.1,0.4-0.1,0.8-0.1,1.3c0,4,3.3,7.3,7.3,7.3c1.1,0,2.1-0.2,3-0.6
		l33,59.2c-0.7,0.6-1.2,1.5-1.2,2.5c0,1.8,1.5,3.3,3.3,3.3c1.3,0,2.4-0.8,3-1.9l37.6,10.2l2.8-0.5l-40.1-10.9c0-0.1,0-0.2,0-0.3
		c0-0.5-0.1-1-0.3-1.4l101.3-70.9l3.7-0.1c0.4,2.9,2.9,5.2,6,5.2c3.3,0,6-2.7,6-6c0-1.1-0.3-2.2-0.9-3.1l13.3-10
		c1.2,0.5,2.6,0.8,4,0.8c0.3,0,0.6,0,0.9,0l12.2,78.3l1.2-0.2l-0.9-6L411,497.5c2.1-0.4,3.9-1.5,5.3-3.1l7.7,6.1
		c-0.9,1.3-1.4,2.8-1.4,4.4c0,4.2,3.2,7.6,7.3,7.9v61.7l1.2-0.2v-61.5c0.9-0.1,1.7-0.3,2.4-0.6l28.8,56.6l1.2-0.2l-28.9-57
		c1.4-0.9,2.6-2.2,3.2-3.7l28.8,9.3l60.1,19.3c-0.1,0.4-0.1,0.8-0.1,1.2c0,2.1,1.1,3.9,2.7,4.9l-7.8,16l1.5-0.3l7.4-15.2
		c0.4,0.2,0.9,0.3,1.4,0.3l0.1,13.3l1.2-0.2l-0.1-13.1c2.9-0.3,5.1-2.7,5.1-5.7c0-0.1,0-0.2,0-0.2l65.5-9.8l65.6-9.8
		c0.1,0.5,0.3,1,0.5,1.4L639.3,538l3.2-0.6l27.8-17.1c1,1.3,2.4,2.2,4.1,2.5l-0.9,9.2l1.2-0.2l0.9-8.9c3.6,0,6.5-2.8,6.7-6.3
		l19.9-0.8l31.1-1.2c0.2,1.8,1.3,3.3,2.7,4.3l-1.3,2.4l2.6-0.4l0.5-1.2c0.5,0.1,1.1,0.2,1.6,0.2c3.4,0,6.2-2.7,6.2-6.1l50.3-4.9
		l6.9-0.7c0.1,0.4,0.2,0.8,0.3,1.2l14.2-2.5c0-0.1,0-0.3,0-0.4l13-1.8l36.9-6.4l-50.1,7.1c-0.3-1.4-1-2.6-2-3.5l13.4-15.7l67.2-78.6
		c1,0.9,2.2,1.4,3.6,1.4c2,0,3.8-1.2,4.7-2.8l42.6,27.8l5.6,13.3l-54.7,45.8l2.4-0.4l52.8-44.3l13.8,32.7l1.2-0.2L954,447.5l6.1-5.1
		l3.1,2l8.4,8.9l21.6,23l1.4-0.2l-15.4-16.5l-11.7-12.4l40.7,26.6l1.7-0.3l-45.9-30l-2.3-2.4l10.2-8.6l28.2,10.1l4.5,10.7l7.9,18.7
		c-0.6,0.3-1.1,0.7-1.6,1.2l7.6-1.3c-0.4-0.2-0.7-0.3-1.1-0.4l3.8-21.3l9.2,3.3l8.3,14.9l1.3-0.2l-7.8-14.1l28.9,10.4l2.4-0.4
		l-32.2-11.6l-7.9-14.2l7.4-41.2l69.4-19.3c1,2.8,3.8,4.8,7,4.8c0.2,0,0.4,0,0.6,0l11.3,71.8l1.2-0.2l-11.3-71.8
		c3.3-0.8,5.7-3.7,5.7-7.2c0-1.2-0.3-2.3-0.8-3.2l75.1-44.1c0.6,0.8,1.4,1.5,2.3,2l-7.9,18.5l-43.9,102.4l1.4-0.2l51.5-120.3
		c0.7,0.2,1.4,0.3,2.1,0.3c0.5,0,1-0.1,1.4-0.2l33.4,104.7l1.2-0.2L1197,330.2c2.4-1,4.1-3.4,4.1-6.2c0-0.2,0-0.4,0-0.5l129.4-22.5
		l11.1-1.9c0.5,1.9,1.7,3.4,3.4,4.4l-59.3,122l1.5-0.3L1346,304l-21.9,74.5l-12.5,42.4l1.3-0.2l34.2-116.4c0.5,0.1,1,0.1,1.5,0.1
		c1.3,0,2.6-0.4,3.7-1l2.1,2.9l65.7,92.7c-1.1,0.9-1.9,2-2.4,3.4l13.8-2.4c-1.3-1.4-3-2.4-5-2.7l9.2-125.3l17.7-28.3l75,84.4
		l32.8,36.9c-1.1,1.1-1.7,2.6-1.7,4.3c0,0.3,0,0.7,0.1,1l-62.5,16l-27.1,6.9l15.1-2.6l74.9-19.2c0.3,1,0.9,1.8,1.7,2.5l-3,3.9
		l1.8-0.3l2.2-2.9c0.8,0.5,1.7,0.8,2.7,0.9v1.1l1.2-0.2v-0.9c3.2-0.3,5.8-3,5.8-6.3v-0.1l72.9-8.2c0.1,0.6,0.3,1.1,0.6,1.7l12.5-2.2
		c0-0.2,0-0.3,0-0.5l3.3-0.1l8.8-1.5l-12.1,0.4c-0.2-1.7-1.1-3.2-2.3-4.3l3.8-5.5l95.3-137.1c0.6,0.4,1.3,0.6,2.1,0.8l-18.7,133.7
		l1.3-0.2l18.6-133.4c0.1,0,0.3,0,0.4,0c2.5,0,4.6-1.2,6-3l89.8,54.6c-0.7,1.2-1,2.7-1,4.2c0,1.7,0.5,3.3,1.3,4.7l-94.4,66.3
		l-5.6,3.9l2.8-0.5l55.8-39.3l42-29.5c1.4,1.7,3.5,2.9,5.9,3.2l-2.7,48l1.2-0.2l2.7-47.7c2.1,0,4-0.8,5.6-2l8.8,12.9
		c-2,1.6-3.3,4.1-3.3,6.9c0,4,2.6,7.3,6.3,8.4l-4.4,19.3l1.3-0.2l4.3-18.8c0.2,0,0.4,0.1,0.6,0.1l-0.3,18l1.2-0.2l0.3-17.7
		c1.3-0.1,2.5-0.4,3.5-0.9l9.7,16.3l1.3-0.2l-10-16.7c0.6-0.4,1.1-0.9,1.6-1.5l21.1,15.9l1.6-0.3l-22-16.6c0.9-1.4,1.4-3,1.4-4.8
		c0-1.3-0.3-2.5-0.8-3.6l29.4-15.6v-1v-0.3v-1l-30,16.8c-1.5-2.7-4.2-4.2-7.3-4.2c-1.7,0-3.2,0.5-4.6,1.3l-8.9-13
		c1.5-1.6,2.4-3.7,2.4-6.1c0-0.4,0-0.8-0.1-1.2l48.6-9.7v-1.2l-48.9,9.7c-0.3-1.2-0.9-2.3-1.6-3.2l50.5-45.5V215.7z M1794.4,142.5
		l-9-16.6c1.6-1,2.8-2.5,3.4-4.3l12.9,3.3L1794.4,142.5z M1435.7,232.3l-28.8,81.3c-0.2-0.1-0.4-0.1-0.7-0.1V148.8v-43.1
		c2.3-0.2,4.3-1.6,5.3-3.5l42.9,18.1l53.2,22.5c-0.2,0.7-0.4,1.4-0.4,2.2c0,1.8,0.7,3.5,1.9,4.8l-66.3,70.7
		c-1.2-0.9-2.6-1.5-4.2-1.5c-3.8,0-6.9,3.1-6.9,6.9C1431.7,228.9,1433.4,231.2,1435.7,232.3z M1510.1,150.8l0.1,0.1l-45.8,73.2
		l-19,1c-0.2-1.4-0.8-2.6-1.7-3.6L1510.1,150.8z M1521,142.3l140.6-76.6c0.3,0.4,0.6,0.8,1,1.2l-38,49.4l-75.1,97.7
		c-1.2-0.7-2.5-1.2-4-1.2c-0.8,0-1.5,0.1-2.3,0.3l-11.5-27.6l-14.2-34.1c2.3-1.2,3.9-3.6,3.9-6.3
		C1521.6,144.1,1521.4,143.2,1521,142.3z M1755.1,92l-125.8,76.5l-77.8,47.3c-0.3-0.4-0.6-0.8-1-1.1l113.1-147.2c1,0.6,2.2,1,3.6,1
		c2.9,0,5.3-1.8,6.2-4.3l80.9,22.5c-0.1,0.5-0.2,1-0.2,1.6C1754.2,89.7,1754.5,91,1755.1,92z M1770.1,87c-0.1-0.8-0.4-1.6-0.8-2.3
		l74.5-46.7l-21.3,38.8c-0.7-0.3-1.5-0.5-2.3-0.5c-3.3,0.1-6,2.8-6,6L1770.1,87z M1770.2,88.5c0-0.1,0-0.2,0-0.2l44.1-4.6
		c0.2,0.9,0.6,1.7,1.1,2.4l-10.3,9.7l-18.5,17.3c-1.5-1.5-3.5-2.3-5.6-2.3c-2.5,0-4.8,1.1-6.4,2.9l-8.5-18.3
		C1768.5,94,1770.2,91.4,1770.2,88.5z M1783,127.1l4.9,14.9l-6.9-14.7C1781.7,127.3,1782.3,127.2,1783,127.1z M1773.9,114.8
		c-0.7,1.2-1.2,2.7-1.2,4.2c-0.1,3.7,2.3,6.8,5.6,7.9l-7.6,29.6l-218.2,61.2c-0.1-0.3-0.2-0.5-0.3-0.7l112.2-68.3l91.4-55.6
		c1.4,2,3.8,3.3,6.5,3.3c1,0,1.9-0.2,2.8-0.5L1773.9,114.8z M1542.2,213.7c-2.3,1.2-3.9,3.6-4,6.3l-72.3,4l45.3-72.5
		c1,0.5,2.1,0.8,3.2,0.8c0.8,0,1.5-0.1,2.2-0.3L1542.2,213.7z M1445.5,226.3l18.1-1l-2.2,3.5l-16-2.3
		C1445.5,226.4,1445.5,226.4,1445.5,226.3z M1465.1,225.2l73.2-4c0.5,3.6,3.6,6.3,7.3,6.3c3,0,5.6-1.8,6.7-4.4l10.1,3.5l80,28
		c0,0.1-0.1,0.2-0.1,0.3L1462.8,229L1465.1,225.2z M1584.7,233.2l-31.9-11.2c0.2-0.6,0.2-1.2,0.2-1.9c0-0.5,0-0.9-0.1-1.4
		l130.8-36.7l86.7-24.3l-2.7,10.5l-20.9,15.6l-90.5,67.6c-1.5-1.7-3.6-2.7-6-2.7c-3.3,0-6.1,2-7.4,4.8L1584.7,233.2z M1771.7,157.5
		l13.3-3.7c0.2,0.4,0.4,0.8,0.6,1.2l-16.4,12.2L1771.7,157.5z M1784.6,151.3c0,0.4,0,0.9,0.1,1.3l-12.6,3.5l7.4-29c0,0,0,0,0.1,0
		l8.5,18.2C1786,146.5,1784.6,148.7,1784.6,151.3z M1784.1,126.7c0.1,0,0.2-0.1,0.3-0.1l9.5,17.4l-0.3,0.8c-0.7-0.2-1.3-0.3-2.1-0.3
		c-0.5,0-1,0.1-1.5,0.2l-0.4-1.3L1784.1,126.7z M1802.2,123.8l-13.1-3.3c0.1-0.5,0.1-1,0.1-1.5c0-0.1,0-0.2,0-0.3l15.8-1.7
		L1802.2,123.8z M1805.6,115.8l-16.5,1.8c-0.3-1.4-0.9-2.7-1.7-3.7l8.7-8.1l20.2-18.9c0.3,0.3,0.7,0.5,1.1,0.7l-6.8,16.4
		L1805.6,115.8z M1855,110.1c0,0.1,0,0.3,0,0.4l-14.4,1.5l-33.6,3.6l11.5-27.6c0.5,0.2,1.1,0.2,1.7,0.2c1.9,0,3.6-0.9,4.7-2.3
		l9.9,6.2l21.3,13.4C1855.4,106.9,1855,108.5,1855,110.1z M1868.8,79l-3.4,21.8c-0.3-0.1-0.6-0.1-0.9-0.1c-3.2,0-5.9,1.5-7.7,3.9
		L1825.5,85c0.4-0.8,0.6-1.7,0.6-2.6c0-1.5-0.5-2.8-1.4-3.9l52.8-55.1L1868.8,79z M1877.8,21.3L1830.2,71l-6.4,6.7
		c-0.1-0.1-0.2-0.1-0.3-0.2l22.3-40.7l32.8-20.5L1877.8,21.3z M1881.1,8.5L1886,8c0.1,0.6,0.3,1.2,0.6,1.8l-6.3,4L1881.1,8.5z
		 M1887.2,10.8c0.1,0.1,0.2,0.2,0.3,0.4l-8.2,8.6l0.7-4.4L1887.2,10.8z M1860.1,10.7l19.7-2l-0.9,6l-31.9,20L1860.1,10.7z
		 M1765.8,20.8c0-0.1,0-0.2,0-0.4l92.9-9.6l-13.7,25l-16.7,10.5l-59.6,37.3c-1.5-1.9-3.8-3.2-6.4-3.2h-0.1l-4.3-50.5
		C1762.3,29.3,1765.8,25.5,1765.8,20.8z M1756.4,30.1c0.1,0,0.1,0,0.2,0l1.9,22.1l2.4,28.3c-2.9,0.5-5.3,2.5-6.2,5.1l-81-22.5
		c0.1-0.4,0.1-0.8,0.1-1.2c0-0.8-0.1-1.5-0.4-2.2l64.1-29.6l10.6-4.9C1749.8,28.2,1752.9,30.1,1756.4,30.1z M1601.3,8.1L1747,20.6
		c0,0.1,0,0.1,0,0.2c0,1.2,0.2,2.3,0.6,3.4l-74.8,34.5c-1.2-2-3.3-3.3-5.8-3.3c-2,0-3.7,0.8-4.9,2.2l-62-46.5
		C1600.8,10.2,1601.2,9.2,1601.3,8.1z M1485,22c0.2-0.1,0.1-0.1,0.1-0.2l100.7-13.3c0.8,3.6,3.9,6.2,7.7,6.2c2.4,0,4.5-1,5.9-2.7
		l6.8,5.1l55.2,41.4c-0.3,0.5-0.5,1-0.7,1.5L1485,22.7C1485,22.5,1485,22.2,1485,22z M1484.9,23.9l175.7,37.3c0,0.3-0.1,0.5-0.1,0.8
		c0,0.9,0.2,1.8,0.6,2.6l-140.6,76.6c-1.3-1.9-3.5-3.2-6-3.2c-0.5,0-0.9,0-1.4,0.1l-17.9-61.6l-14.1-48.7
		C1482.9,27.2,1484.3,25.7,1484.9,23.9z M1478.8,28.4c0.4,0,0.8,0,1.2-0.1l32,110.3c-1.6,0.6-3,1.8-3.8,3.3l-96.1-40.6
		c0.2-0.6,0.3-1.3,0.3-2c0-1.7-0.6-3.2-1.7-4.4l11.9-12.5l52.3-55.2C1475.9,27.9,1477.3,28.4,1478.8,28.4z M1417.7,19.9
		c4,0,7.4-2.7,8.3-6.4l46.4,8.1c0,0.2,0,0.3,0,0.5c0,1.6,0.6,3.1,1.6,4.2l-64.2,67.8c-0.8-0.6-1.7-1-2.6-1.3l10-72.9
		C1417.3,19.8,1417.5,19.9,1417.7,19.9z M1376.2,86l23.5-41.5l-6.6,12.7l-23.6,45.1L1376.2,86z M1371.2,94.8l-4.6,11
		c-0.5-0.2-0.9-0.3-1.4-0.4L1371.2,94.8z M1363.5,124.2c5.2,0,9.5-4.2,9.5-9.4c0-3.4-1.9-6.4-4.6-8.1l45.9-87.5
		c0.5,0.2,1.1,0.4,1.6,0.5l-1.7,12.7l-8.3,60.1c-0.1,0-0.2,0-0.3,0c-3.7,0-6.7,3-6.7,6.7c0,1.6,0.6,3.2,1.6,4.3l-77.7,78.6
		c-0.1-0.1-0.3-0.2-0.4-0.3l36.6-58.7C1360.4,123.8,1361.9,124.2,1363.5,124.2z M1300.2,251l102.1-146c0.8,0.5,1.7,0.8,2.7,0.8v98
		v109.7c-1.6,0.2-3,1-3.9,2.3l-72.8-40.8l-26.1-14.7c0.5-1,0.7-2.1,0.7-3.3C1303,254.6,1301.9,252.5,1300.2,251z M1095.8,299.7
		l37.5-8.1l31.6-6.8l-69.2,18c0.1-0.5,0.2-1.1,0.2-1.7C1095.9,300.6,1095.9,300.1,1095.8,299.7z M1095.5,298.5
		c-0.2-0.7-0.6-1.4-1-2.1l70.7-100.4c0.9,0.5,1.9,0.8,3.1,0.8c0.4,0,0.8,0,1.1-0.1l16.9,58.7l-18.3,27.4L1095.5,298.5z
		 M1005.4,398.6c-0.5-0.1-0.9-0.2-1.4-0.2c-3.5,0-6.4,2.8-6.4,6.3c0,0.1,0,0.2,0,0.3l-10.8,3l-3.9-9.1c1.8-1,3-2.9,3-5.1
		c0-0.9-0.2-1.7-0.6-2.5l47.6-29.5c0.2,0.2,0.4,0.4,0.6,0.6l-16.3,22.7L1005.4,398.6z M1010.4,394.8l-3.3,4.6
		c-0.2-0.1-0.4-0.2-0.5-0.3L1010.4,394.8z M826.4,441.1l22.9-12l42.2-22l-142.7,99.5l69.4-59.9c0.9,0.8,2.1,1.3,3.4,1.3
		c2.8,0,5.1-2.3,5.1-5.1C826.8,442.3,826.6,441.7,826.4,441.1z M533.4,419.3l58.7-32.1l82.6-45.1c0.6,0.9,1.4,1.5,2.3,2l-28.4,73.2
		l-8.9,23c-0.7-0.2-1.4-0.3-2.2-0.3c-3.5,0-6.5,2.3-7.4,5.5l-96-21.2c0.1-0.4,0.1-0.9,0.1-1.3C534.3,421.7,534,420.4,533.4,419.3z
		 M502.3,352.3L430,370.8l-55.8,14.3c-0.8-2.3-2.9-4.1-5.4-4.5L378,254l17.7-28.3l43.7,49.2l64.4,72.5c-1,1-1.6,2.4-1.6,3.9
		C502.2,351.7,502.3,352,502.3,352.3z M232.5,499.5c0-1.2-0.4-2.4-1.1-3.4l131.1-103.9c1.3,1.3,3,2.1,5,2.1c0.1,0,0.3,0,0.4,0
		l14.8,96.7l-82.2,12.8L232.5,499.5z M373.6,509.7l-10.8,0.3l-118.7,3.8l56.4-8.8L373.6,509.7z M195.7,476.2L288.2,286l-61,207.3
		c-0.4-0.1-0.8-0.1-1.2-0.1c-2.3,0-4.3,1.1-5.4,2.9L198.3,484c0.3-0.7,0.5-1.6,0.5-2.4C198.8,479.3,197.5,477.3,195.7,476.2z
		 M70.7,461.3l26.2-61.1l37.5-87.5c0.7,0.2,1.4,0.4,2.2,0.4c0.5,0,1-0.1,1.5-0.2l51.9,163c-1.9,0.8-3.3,2.5-3.7,4.5l-111-11.2
		c0-0.1,0-0.2,0-0.3C75.4,465.5,73.5,462.7,70.7,461.3z M130.2,309.1l-52.8,31l-21.3,12.5c-0.3-0.4-0.6-0.7-0.9-1.1l75.5-85.1
		c1.4,1,3,1.6,4.9,1.6c1.2,0,2.3-0.3,3.3-0.7l-2.4,31.7c-3.9,0-7,3.2-7,7C129.5,307.1,129.7,308.1,130.2,309.1z M264.7,166.2
		l9.6-9.7L342,87.9c0.1,0.1,0.1,0.1,0.2,0.2l-20.8,29.7l-81,115.8c-0.2-0.1-0.4-0.2-0.6-0.3l18.6-56.9c0.4,0.1,0.9,0.1,1.4,0.1
		c3.5,0,6.3-2.8,6.3-6.3C266.2,168.7,265.6,167.3,264.7,166.2z M492.7,201.5l219.9-61.7l-2.7,10.5l-112.2,83.8
		c-1.3-1.4-3.1-2.3-5.2-2.3c-2.8,0-5.3,1.7-6.4,4.1l-93.4-32.6c0.1-0.3,0.1-0.7,0.1-1.1C492.8,202,492.7,201.7,492.7,201.5z
		 M982,93.2l23.4-10.9l6.5,7.3c-0.9,1-1.5,2.4-1.5,3.9c0,0.9,0.2,1.8,0.6,2.6l-37.7,24.7l3.4-20.6c0.1,0,0.2,0,0.3,0
		c3,0,5.4-2.4,5.4-5.3C982.3,94.3,982.2,93.7,982,93.2z M1006.6,81.7l9.4-4.4l-0.3,10.4c-1.1,0.1-2.1,0.5-2.9,1L1006.6,81.7z
		 M1131.7,170.2c-2.5,0-4.7,1.1-6.2,2.9l-104.3-76.8c0.5-0.9,0.8-1.8,0.8-2.9c0-2.6-1.8-4.9-4.3-5.5l7-14.6l42.8-20l48.3,66.4
		l48.3,66.3c-1.3,1.1-2.1,2.8-2.1,4.6l-71.3,6.7l33.7-15c1.4,2.6,4.1,4.3,7.3,4.3c4.6,0,8.3-3.7,8.3-8.2S1136.2,170.2,1131.7,170.2z
		 M1087,197.7l-68.7,6.5l-54.7-1.3l77.1-10.9l82.9-11.8c0.1,0.4,0.2,0.7,0.3,1L1087,197.7z M1083.5,199.2l-8,3.6
		c-0.6-1.1-1.6-2-2.7-2.6L1083.5,199.2z M959.2,199.1c-0.8-0.6-1.8-0.9-2.9-0.9c-2.1,0-3.9,1.2-4.7,3l-21.3-6.7l-13.8-4.4l0.1-9.4
		l30.4-0.2l15.3-0.1L959.2,199.1z M963.5,180.3l8.3-0.1L961.3,202h-0.1c-0.2-0.7-0.5-1.4-1-2L963.5,180.3z M951.3,204.7
		c-0.4,0.4-0.7,0.9-1,1.4l-1.2,0.7l-32.6-11.4v-4l14.3,4.5l20.4,6.5c-0.1,0.3-0.1,0.6-0.1,1L951.3,204.7z M947.6,207.5l-0.9,0.5
		l-30.3-4.9l0.1-6.5L947.6,207.5z M945,209l-25.2,14.1c-1-0.8-2.3-1.3-3.7-1.4l0.2-17.3L945,209z M933.8,216.6l-12.6,7.8
		c-0.1-0.2-0.3-0.4-0.4-0.5L933.8,216.6z M947.6,209.4l1.4,0.2c0,0.3,0,0.6,0,0.8c0,4.8,3.9,8.7,8.7,8.8l2.5,20.1l0.6,4.4
		l-38.5-18.6L947.6,209.4z M958.9,219.3c2.3-0.2,4.4-1.4,5.8-3.1l8.3,6.1l65.5,48.1l-4.2,8.9L962,244.4L958.9,219.3z M1063.4,206.4
		c0.2,2.2,1.4,4,3.2,5.1l-16,33.5l-11.6,24.2l-73.6-54c0.9-1.4,1.4-3,1.4-4.8c0-0.1,0-0.2,0-0.2l51.1-4.8h0.4L1063.4,206.4z
		 M1028.5,204.4l37.4-3.5c-1.3,1-2.3,2.6-2.5,4.3L1028.5,204.4z M1004.2,344.9l30.6-64.1l16.6,8l-7.7,35.9L1004.2,344.9z
		 M1043.3,326.2l-0.2,0.7l-39.9,19.9l0.1-0.2L1043.3,326.2z M1035.3,279.7l4.1-8.7l13.6,10l-1.4,6.6L1035.3,279.7z M966.7,209
		c-0.3-1.9-1.3-3.6-2.6-4.9l4.8,0.1l39.2,0.9L966.7,209z M1033.7,280.3l-31.3,65.5l-26.1,13.4l-14.2-113.3L1033.7,280.3z
		 M1001.6,347.6l-0.1,0.1l-7.7,3.8L1001.6,347.6z M1000.7,349.5l-18.6,39l-0.1,0.1c-0.6-0.2-1.2-0.3-1.9-0.3H980l-3.3-26.7
		L1000.7,349.5z M1002.4,348.6l40.4-20.2l-3,13.7l-55.7,44.6L1002.4,348.6z M1044.2,327.7l36.4-18.2l-39.3,31.4L1044.2,327.7z
		 M1044.6,326.3l0.2-0.7l36.5-18.7c0.2,0.3,0.5,0.5,0.8,0.8L1044.6,326.3z M1045.1,324l7.5-34.6l26.5,12.8c0.2,1.4,0.7,2.6,1.4,3.7
		L1045.1,324z M1079,300.8l-26.2-12.6l1.4-6.3l24.9,18.3C1079,300.3,1079,300.5,1079,300.8z M1053.4,279.7l-13.4-9.8l27.6-57.9
		c0.1,0,0.2,0.1,0.3,0.1L1053.4,279.7z M962.8,201.8l10.4-21.6l149.6-1.1L962.8,201.8z M972.4,179.1l-8.7,0.1l9.4-56.8l38.6-25.3
		c0,0.1,0.1,0.1,0.1,0.1L972.4,179.1z M972.5,118.4l-0.5,3.2L939.4,143l34.8-43.6c0.4,0.3,0.9,0.5,1.4,0.6L972.5,118.4z
		 M971.7,123.2l-9.2,55.9l-45.9,0.3l0.1-8.1l20.2-25.4L971.7,123.2z M916.7,169.4l0.1-10.2l16.9-11.1L916.7,169.4z M916.9,157.7
		c0-0.1,0.1-0.1,0.1-0.1L916.9,157.7z M916.4,142.8c-2.6,0-5,1.4-6.3,3.4l-3.5-1.9l15.3-24.6L964,51.9l-44.9,91.5
		C918.2,143,917.3,142.8,916.4,142.8z M909.9,219.3l-11.8-17.9l17,2.8l-0.2,17.5h-0.1L909.9,219.3z M912.9,222.1
		c-0.3,0.1-0.6,0.2-0.9,0.4l-0.8-1.2L912.9,222.1z M822.6,283.8l-25.5,112H797l7.8-139c3.2-0.1,5.7-2.7,5.7-5.9c0-0.2,0-0.4,0-0.6
		l94.3-18.8L830.7,273c-1.3-1.9-3.5-3.1-5.9-3.1c-4,0-7.2,3.2-7.2,7.1C817.6,280.2,819.7,282.9,822.6,283.8z M685.2,335.5
		l114.9-80.8c0.9,1,2.1,1.7,3.6,1.9l-7.8,139c-2.6,0.1-4.9,1.4-6.3,3.4l-45.9-25.6l-58.2-32.5c0.3-0.8,0.5-1.6,0.5-2.5
		C686,337.5,685.7,336.4,685.2,335.5z M704.6,182.6l22.3-37l3.1-5.2c1.1,0.5,2.3,0.8,3.5,0.8c3.6,0,6.6-2.4,7.6-5.6l60,110.4
		c-0.5,0.4-1,0.8-1.4,1.3l-93.3-56.8c0.4-0.8,0.7-1.8,0.7-2.8C707.3,185.6,706.2,183.7,704.6,182.6z M720,154.8L703.6,182
		c-0.2-0.1-0.4-0.2-0.6-0.2l7.9-30.7l16.8-12.5c0.4,0.5,0.9,0.9,1.4,1.2L720,154.8z M701.9,181.4c-0.3-0.1-0.7-0.1-1-0.1
		c-3.5,0-6.4,2.8-6.4,6.4c0,0.8,0.1,1.5,0.4,2.2l-81.5,38.4l-14.9,7c0-0.1-0.1-0.1-0.1-0.2l111-82.9L701.9,181.4z M599.4,238.8
		c0-0.9-0.2-1.7-0.4-2.4l60.8-28.7l35.6-16.8c0.4,0.6,0.8,1.2,1.4,1.6l-15.5,22.4l-83.1,119.6c-1.1-0.7-2.4-1.1-3.8-1.1l-0.2-17.1
		l-1-70.5C596.7,245.4,599.4,242.4,599.4,238.8z M697.7,193.2c0.5,0.3,1.1,0.5,1.6,0.6L680,332.4c-0.1,0-0.2,0-0.2,0
		c-3.3,0-6,2.6-6.2,5.8l-71.4,2.6c-0.3-2.3-1.4-4.3-3.1-5.6L697.7,193.2z M694.9,235l5.7-41c0.1,0,0.2,0,0.3,0c2.1,0,3.9-1,5.1-2.5
		l93.3,56.8c-0.4,0.8-0.6,1.6-0.6,2.6c0,1.1,0.3,2.1,0.8,2.9l-114.9,80.8c-0.8-1-2-1.7-3.2-2L694.9,235z M895.7,238l12.8-7.2
		c0.1,0.3,0.2,0.5,0.3,0.8L874,250.2L895.7,238z M908.2,228.8c0,0.3,0,0.5,0,0.8h-0.1l-97.9,19.5c-0.2-0.6-0.5-1.2-0.9-1.8
		l54.4-48.9l45.3,21.8l1.9,2.9C909.3,224.5,908.2,226.5,908.2,228.8z M863.6,197l-2.5-1.2c0-0.1,0.1-0.3,0.1-0.4l3.5,0.6L863.6,197z
		 M896.5,201.1l11.3,17.2l-43-20.7l1.5-1.4L896.5,201.1z M867.4,195.1l11.8-10.6c1.1,1.1,2.6,1.8,4.3,1.8c1,0,2-0.2,2.8-0.7l2.9,4.3
		l6.4,9.7L867.4,195.1z M897.2,200l-1.9-3l-7.9-12c0.8-0.6,1.4-1.4,1.8-2.3l12.4,3.9c-0.2,0-0.5-0.1-0.8-0.1c-2.2,0-3.9,1.8-3.9,3.9
		c0,2.2,1.8,3.9,3.9,3.9c1.5,0,2.8-0.8,3.5-2.1l11,3.9l-0.1,6.7L897.2,200z M903.6,187.8l0.3-0.4l11.3,3.6v3.9l-10.6-3.7
		c0-0.2,0.1-0.5,0.1-0.7C904.7,189.5,904.3,188.5,903.6,187.8z M903.5,186.1l-14-4.5c0-0.2,0.1-0.5,0.1-0.7l18.1-0.1L903.5,186.1z
		 M902.7,187c-0.2,0-0.3-0.1-0.4-0.1L902.7,187z M915.2,189.7l-10.5-3.3l4.5-5.7h6.1L915.2,189.7z M910.2,179.5l5.3-6.6l-0.1,6.5
		L910.2,179.5z M908.7,179.5l-19.1,0.1c-0.1-0.8-0.3-1.5-0.7-2.2l26.7-17.5l-0.1,11L908.7,179.5z M889.5,175.7l21.8-20
		c1.2,1.1,2.7,1.8,4.4,1.9v0.9L889.5,175.7z M909.5,147.3c-0.1,0.2-0.1,0.4-0.2,0.5l-4.2-1.1l0.8-1.4L909.5,147.3z M909,149
		c-0.1,0.4-0.1,0.8-0.1,1.3c0,1.7,0.6,3.3,1.6,4.5l-23.1,20.8c0,0-0.1,0-0.1-0.1l17.2-27.7L909,149z M886.2,174.9
		c-0.8-0.4-1.7-0.6-2.7-0.6c-3.4,0-6.1,2.7-6.1,6c0,1.2,0.4,2.3,1,3.3l-6.8,6.1l-5.7,5.2l-4.5-0.7c0-0.1,0-0.2,0-0.3
		c0-3.1-2.6-5.7-5.7-5.7c-3.1,0-5.7,2.5-5.7,5.7c0,3.1,2.5,5.7,5.7,5.7c2,0,3.8-1.1,4.8-2.7l2.1,1l-54,48.6c-1.1-0.9-2.5-1.5-4-1.5
		c-0.8,0-1.6,0.2-2.3,0.5l-60.8-111.8c0-0.1,0-0.2,0-0.3c0-2.9-1.5-5.3-3.8-6.7l-0.4-0.7l4.4-10.5l3.4-8.1l49.3,12.6l108.7,27.7
		L886.2,174.9z M744.4,105.8l-13.4-3.4c0.1-0.5,0.1-0.9,0.1-1.4c0-0.1,0-0.2,0-0.2l5.1-0.5l10.9-1.2L744.4,105.8z M731.1,99.6
		c-0.2-1.3-0.8-2.6-1.7-3.6l28.4-26.6c0.4,0.4,0.9,0.7,1.4,0.9l-11.4,27.4L731.1,99.6z M730.8,103.6L744,107l-0.6,1.4l-6.8,16.2
		l-9.1-16.8C729,106.8,730.2,105.3,730.8,103.6z M735.9,125.8c-0.7-0.2-1.5-0.3-2.3-0.3c-0.6,0-1.2,0.1-1.8,0.2l-5.6-17.2
		c0.1,0,0.2-0.1,0.2-0.1L735.9,125.8z M730,124l-7-15h0.1c0.6,0,1.3-0.1,1.9-0.2L730,124z M729.8,126.4c-2.4,1.3-4.1,3.9-4.1,6.9
		c0,0.5,0.1,1,0.2,1.5l-11.6,3.3l7.5-29L729.8,126.4z M726.2,136c0.2,0.5,0.5,1,0.8,1.5l-15.6,11.6l2.5-9.7L726.2,136z M585.3,341.8
		c0,0.1,0,0.2,0,0.3l-71.6,8c-0.3-1.2-0.9-2.2-1.8-3l20.8-27.8l55.8-74.6c0.9,0.6,2,0.9,3.2,1l1.2,87.6
		C588.8,333.7,585.3,337.4,585.3,341.8z M587.1,346.9l-73.8,65.9c-1.3-1.3-3.1-2.1-5-2.2l0.3-53.5c3-0.2,5.3-2.7,5.3-5.8l71.6-8
		C585.8,344.6,586.3,345.9,587.1,346.9z M525.7,216.1l59.9,20.9v0.1L404.9,211l2.3-3.7l57.8-3.2l17.9-1c0.4,2.3,2.4,4.1,4.9,4.1
		c1.9,0,3.6-1.1,4.4-2.7L525.7,216.1z M403.6,210.8l-16.8-2.4l19-1L403.6,210.8z M482.9,201.9l-74.8,4.1l8.6-13.7l37.3-59.7
		c0.8,0.4,1.7,0.6,2.7,0.6c0.6,0,1.2-0.1,1.7-0.3l27,65C483.9,198.8,483,200.2,482.9,201.9z M406.6,206.1l-20.5,1.1
		c-0.2-1-0.6-1.9-1.2-2.6l1.9-2l66-70.4L406.6,206.1z M386,209.5l16.9,2.5l-7.4,11.9l-10.7-12.1C385.4,211.1,385.8,210.3,386,209.5z
		 M394.8,224.8l-16.7,26.6l2.8-38c1.1,0,2.1-0.4,2.9-1L394.8,224.8z M376.8,253.7l-25,40c-0.2-0.1-0.4-0.2-0.6-0.3l28.3-80
		c0.1,0,0.1,0,0.2,0L376.8,253.7z M356.3,301c0-2.8-1.4-5.2-3.5-6.8l23.8-38l-9.1,124.2c-0.3,0-0.6,0-0.8,0.1L350.4,309
		C353.8,308,356.3,304.8,356.3,301z M365.5,380.8c-0.5,0.2-0.9,0.4-1.4,0.6l-36.5-51.5l-32.7-46.2c0.6-0.5,1.1-1.1,1.4-1.8
		l37.4,14.3l6.1,2.3c-0.2,0.8-0.4,1.6-0.4,2.4c0,4.6,3.8,8.4,8.4,8.4c0.4,0,0.9,0,1.3-0.1L365.5,380.8z M141.9,228.2l-1.9,25.1
		c-0.7-0.5-1.5-0.8-2.4-1L141.9,228.2z M136.5,252c-0.3,0-0.5,0-0.8,0c-0.6,0-1.1,0.1-1.6,0.2l-2.2-7.7l-2-6.8l9.6-14.4
		c0.6,0.3,1.3,0.6,2,0.8l-2,11.3L136.5,252z M151.5,215l13.5-3l29.9-6.7c0.3,0.9,0.7,1.7,1.2,2.4l-18.9,16.2l-25.7-6.2
		c0.1-0.4,0.1-0.9,0.1-1.4C151.6,215.7,151.6,215.3,151.5,215z M176,224.7l-34.7,29.6c-0.1-0.1-0.1-0.1-0.2-0.2l2.3-29.9
		c3.6,0,6.7-2.4,7.8-5.6L176,224.7z M140.2,266.6c2.1-1.4,3.5-3.9,3.5-6.6c0-1.8-0.6-3.4-1.6-4.7l28.1-24l7.2-6.2l53.6,13.1
		c0,0.3-0.1,0.6-0.1,0.9c0,1.1,0.3,2.1,0.8,3L142,301.7c-1.1-1.3-2.6-2.3-4.4-2.5L140.2,266.6z M232.5,243c1.2,1.4,2.9,2.3,4.9,2.3
		c1.8,0,3.5-0.8,4.7-2l2.2,1.6l41.5,31.1c-0.6,0.9-0.9,2-0.9,3.1c-0.1,0.2-0.1,0.4-0.1,0.5l-141.4,24.6c-0.1-0.6-0.4-1.1-0.6-1.6
		L232.5,243z M245,244l61.5,34.5l33.7,18.9l-43.6-16.7c0.1-0.5,0.2-1,0.2-1.6c0-3.3-2.7-6-6.1-6c-1.8,0-3.3,0.7-4.4,1.9L245,244z
		 M347.4,186v106.7c-2.8,0.2-5.1,1.6-6.5,3.7l-87-48.8l-10.6-6c0.4-0.8,0.5-1.6,0.5-2.6c0-1.9-0.9-3.6-2.2-4.8l67.9-97l33.9-48.4
		c1.2,0.7,2.5,1.1,4,1.2V186z M259.9,163.9c-3.5,0-6.3,2.8-6.3,6.3c0,0.6,0.1,1.2,0.3,1.8l-33,13l4.6-4.7l67.2-69.1l-30.2,53.3
		C261.6,164.1,260.8,163.9,259.9,163.9z M252.2,173.9l-43.1,24.6c-0.2-0.3-0.4-0.6-0.6-0.8l10.2-10.5L252.2,173.9z M207.7,196.8
		c-1.4-1.1-3.2-1.8-5.1-1.8c-0.2,0-0.4,0-0.5,0l-0.2-1.2l14.2-5.6L207.7,196.8z M202.5,210.9c4.4,0,8-3.6,8-8c0-1.2-0.3-2.4-0.8-3.4
		l44.9-25.6c0.7,0.9,1.6,1.7,2.6,2.1l-6.3,19.4L238.6,233c-0.4-0.1-0.9-0.2-1.4-0.2c-2.8,0-5.1,1.8-6,4.2l-52.8-12.9l18.3-15.6
		C198.3,210,200.3,210.9,202.5,210.9z M195.1,199.8l-4.7-1.6l10.3-4.1l0.1,0.9C198.2,195.7,196.1,197.5,195.1,199.8z M194.8,201
		c-0.2,0.6-0.2,1.3-0.2,1.9c0,0.4,0,0.8,0.1,1.2l-15.2,3.4l-28.1,6.3c0,0,0,0,0-0.1l37.4-14.8L194.8,201z M150.8,212.6
		c-1.3-2.7-4.1-4.6-7.4-4.6c-4.5,0-8.2,3.6-8.2,8.1c0,2.6,1.2,4.9,3.2,6.4l-9,13.6l-16.5-57.3c1.7-0.6,3-1.9,3.7-3.6l22.8,7.5
		l47.5,15.6L150.8,212.6z M132.6,251.7l0.2,0.8c-3.1,1.1-5.3,4.1-5.3,7.5c0,0.4,0,0.7,0.1,1.1l-15.8,3.4l17-25.5L132.6,251.7z
		 M128,262.6c0.4,1.1,1,2.1,1.8,3l-31.7,35.7l-43.6,49.1l15.9-23.8l39.5-59.3L128,262.6z M168.3,403.7l-29-91.1
		c2.6-1.1,4.4-3.6,4.4-6.5c0-0.2,0-0.4,0-0.6L285,280.8c0.4,1.5,1.4,2.7,2.7,3.5l-29.3,60.2l-63.8,131.2c-0.7-0.2-1.4-0.4-2.2-0.4
		c-0.4,0-0.9,0-1.3,0.1L168.3,403.7z M271.6,346.6l18.1-61.5c0.4,0.1,0.7,0.1,1.1,0.1c1.1,0,2.1-0.3,3-0.8l69.3,97.7
		c-1.5,1.3-2.5,3.2-2.5,5.3c0,1.4,0.4,2.7,1.2,3.8l-79.1,62.7l-52,41.2c-0.6-0.7-1.4-1.2-2.3-1.5L271.6,346.6z M434.2,267.3
		l-37.9-42.6l7.9-12.6l61.6,8.9l119.6,17.4c0,0.1,0,0.3,0,0.4c0,2.1,0.9,3.9,2.4,5.2l-76.7,102.4c-0.9-0.5-1.9-0.8-3-0.8
		c-1.3,0-2.4,0.4-3.4,1.1L434.2,267.3z M515.5,421.2l1.2,0.3c-0.1,0.5-0.1,1-0.1,1.5c0,2,0.7,3.8,1.8,5.3l-81.1,69.9l65.5-73.1
		c1.4,1,3.1,1.7,5,1.7C511.3,426.8,514.4,424.5,515.5,421.2z M516.9,420.3l-1.2-0.3c0.1-0.4,0.1-0.9,0.1-1.3c0-1.9-0.6-3.6-1.7-5
		l43.5-38.9l30.2-27l-8.3,9.9l-49,58.1c-1.5-1.1-3.3-1.7-5.2-1.7C521.4,414.2,518.1,416.8,516.9,420.3z M588.9,348.6
		c1.4,1,3.1,1.6,5,1.6c4.6,0,8.3-3.6,8.5-8.1l71.4-2.6c0.1,0.6,0.2,1.1,0.4,1.6l-76.9,42l-64.4,35.2c-0.4-0.6-0.8-1.1-1.3-1.6
		L588.9,348.6z M678.2,344.5c0.5,0.1,1.1,0.2,1.6,0.2c2.1,0,4-1,5.1-2.6l53.1,29.6l50.9,28.4c-0.5,1-0.7,2.1-0.7,3.3
		c0,0.5,0.1,1,0.2,1.5L644.9,445c-0.7-1.9-2.1-3.4-3.9-4.3L678.2,344.5z M788.7,406.1c1.1,3,4,5.1,7.3,5.1c1.3,0,2.6-0.3,3.7-0.9
		l18.7,28.8c-1,0.8-1.7,2.1-1.8,3.4L645.3,447c0-0.2-0.1-0.5-0.1-0.7L788.7,406.1z M821.2,437.9c-0.6,0.1-1.2,0.2-1.7,0.5
		l-18.7-28.8c1.9-1.4,3.1-3.7,3.1-6.2s-1.2-4.6-2.9-6.1l21.6-31.6L821.2,437.9z M822.5,363.4l-22.6,33.3c-0.5-0.3-1-0.5-1.6-0.7
		l1.9-8.2L823.8,284c0.1,0,0.2,0,0.2,0L822.5,363.4z M825.3,284.1c0.9-0.1,1.8-0.3,2.7-0.7l12.5,20.9L851,322l-27.2,39.7
		L825.3,284.1z M829,282.8c0.4-0.3,0.8-0.6,1.2-1l31.9,24l-10.3,15.1L829,282.8z M830.8,280.8c0.7-1.1,1.1-2.4,1.1-3.8
		c0-1-0.2-2-0.6-2.8l78-41.5c0.4,0.6,0.9,1.2,1.5,1.7l-48.2,70.5L830.8,280.8z M883.8,276l28-41c1,0.6,2.2,0.9,3.5,0.9
		c4,0,7.2-3.2,7.2-7.2c0-0.8-0.1-1.5-0.3-2.2l38.7,18.6l14.3,114.6l-23.5,12.1l-88-66.3L883.8,276z M975.5,362.1l3.3,26.3
		c-1.1,0.3-2.1,0.9-2.9,1.7l-22.5-16.9L975.5,362.1z M980.1,399.8c0.6,0,1.2-0.1,1.7-0.2l3.8,9l-38.1,10.6c-0.1-0.3-0.3-0.7-0.5-1
		l25.2-20.2l2.5-2C975.5,398.2,977.6,399.8,980.1,399.8z M986.1,409.6l1.6,3.7c-2.4,0.4-4.2,2.4-4.4,4.9l-35.5,2.1L986.1,409.6z
		 M987.2,409.3l10.5-2.9c0.1,0.2,0.1,0.4,0.2,0.6l-6.4,7.2c-0.7-0.5-1.6-0.8-2.6-0.9L987.2,409.3z M998.5,408.1
		c0.1,0.1,0.1,0.2,0.2,0.3l-1.6,1.4L998.5,408.1z M1034.5,363.3c0.3,0.2,0.6,0.3,1,0.4l-0.2,1.3l-10.4,11.7L1034.5,363.3z
		 M1031.8,358.8c0,0.8,0.2,1.5,0.5,2.2l-10.4,6.4l-37.2,23c-0.4-0.5-0.9-1-1.5-1.3l56.3-45.1l-2.1,9.6c-0.2,0-0.3,0-0.5,0
		C1034.1,353.6,1031.8,356,1031.8,358.8z M1041,342.9l42.8-34.3c0.4,0.2,0.7,0.3,1.1,0.5l-43,48.4c-0.4-1.7-1.7-3-3.3-3.5
		L1041,342.9z M1079.3,298.8l-24.9-18.3l14.7-68.1c0.2,0,0.5,0,0.8,0c3.6,0,6.5-2.9,6.5-6.4c0-0.7-0.1-1.4-0.4-2.1l11.3-5l74.8-7.1
		c0.3,1.4,1,2.6,2.1,3.5l-69.5,98.8l-0.9,1.3c-1.6-1.7-3.8-2.8-6.3-2.8C1083.6,292.6,1080.3,295.2,1079.3,298.8z M1253,219.1
		c-0.1,0.6-0.2,1.2-0.2,1.8c0,0.4,0,0.7,0.1,1.1l-20.4,4.6l-21.3,4.8c0-0.1-0.1-0.3-0.1-0.4l35.4-14L1253,219.1z M1248.2,216.3
		l10.3-4.1l0.2,1.3c-2.4,0.5-4.4,2.2-5.3,4.4L1248.2,216.3z M1210.6,229.8c-1.6-3.5-5.2-5.9-9.4-5.9c-5.7,0-10.3,4.6-10.3,10.3
		c0,3.4,1.6,6.3,4.1,8.2l-7.8,11.8l-16.6-57.7c1.5-0.6,2.8-1.8,3.4-3.3l70.7,23.2L1210.6,229.8z M1186.7,257l4.6,15.8
		c-2,0.8-3.5,2.8-3.5,5.2c0,0.2,0,0.4,0,0.6l-18.1,3.9L1186.7,257z M1187.7,255.6l8.4-12.6c0.9,0.5,1.8,0.9,2.8,1.1l-3.5,19.8
		l-1.5,8.4c-0.1,0-0.3,0-0.4,0c-0.3,0-0.6,0-1,0.1L1187.7,255.6z M1196,267l3.7-20.7l-2.1,27.4l-0.3,0.3c-0.6-0.6-1.4-1-2.3-1.3
		L1196,267z M1201.1,244.4c0.1,0,0.1,0,0.2,0c4.7,0,8.6-3.1,9.9-7.3l14.7,3.6l8.1,2l-21.8,18.6l-13.1,11.2L1201.1,244.4z
		 M1211.4,236c0.1-0.6,0.2-1.2,0.2-1.9c0-0.6-0.1-1.1-0.1-1.7l41.6-9.3c0.3,0.8,0.6,1.5,1.1,2.2l-19.2,16.4L1211.4,236z M1255,226.2
		c1.4,1.4,3.3,2.2,5.4,2.2c4.2,0,7.6-3.4,7.6-7.6c0-1.2-0.3-2.2-0.7-3.2l43.7-25c0.9,1.3,2.1,2.3,3.6,2.9l-4.6,14l-13,39.9
		c-0.6-0.1-1.2-0.2-1.8-0.2c-3.5,0-6.4,2.2-7.4,5.3l-51.4-12.5L1255,226.2z M1310,190.6l-31.3,12.4l28.7-29.5l43.1-44.3l-29.3,51.8
		c-1-0.5-2.2-0.8-3.4-0.8c-4.5,0-8.1,3.6-8.1,8C1309.6,189,1309.7,189.8,1310,190.6z M1310,191.9l-43.4,24.7
		c-0.2-0.3-0.4-0.5-0.6-0.7l10.5-10.8L1310,191.9z M1265.2,215c-1.3-1.1-3-1.7-4.8-1.7c-0.2,0-0.3,0-0.5,0l-0.2-1.6l14.2-5.6
		L1265.2,215z M1312.2,206.9l3.6-10.9c0.6,0.1,1.2,0.2,1.9,0.2c4.5,0,8.1-3.6,8.1-8c0-2-0.8-3.9-2-5.3l77.3-78.2l-101.9,145.7
		c-0.3-0.2-0.6-0.3-1-0.5L1312.2,206.9z M1357.4,121.9c0.2,0.2,0.4,0.3,0.6,0.5l-26.1,41.8l16.3-28.8l5.5-9.7L1357.4,121.9z
		 M1356.4,120.9l0.1,0.1l-0.5,0.5L1356.4,120.9z M1249.2,83.1l2.4,0.7l102.6,28.9c-0.1,0.6-0.2,1.3-0.2,2c0,1.9,0.6,3.7,1.6,5.2
		l-2.9,5l-76.9,79.1l-16.4,6.5l-4.5-31.1l-13-90C1245.4,88.7,1248.1,86.3,1249.2,83.1z M1235.3,88.3c1.4,0.8,3,1.2,4.7,1.2
		c0.3,0,0.5,0,0.8,0l2.4,17l15,104.4l-11.9,4.7l-72.1-23.7c0.1-0.4,0.2-0.9,0.2-1.4c0-2-0.9-3.7-2.4-4.9l60.7-93.6L1235.3,88.3z
		 M1230.6,77.8c-0.2,0.7-0.2,1.4-0.2,2.1c0,3.2,1.6,6,4,7.8l-63.2,97.4c-0.9-0.4-1.8-0.7-2.9-0.7s-2.2,0.3-3.1,0.8l-96.5-132.6
		l28.3-13.2L1230.6,77.8z M1135.8,20l-39,18.2l-41.3-11.9c0.1-0.5,0.2-1.1,0.2-1.7c0,0,0,0,0-0.1l79.7-6.4
		C1135.4,18.8,1135.6,19.4,1135.8,20z M1068.8,1.1l66.5,14.6c-0.1,0.4-0.1,0.8-0.1,1.2c0,0,0,0,0,0.1l-79.7,6.4
		c-0.3-1.7-1.1-3.3-2.3-4.5L1068.8,1.1z M1055.2,27.5l40,11.5l-27.3,12.8L1052.7,31C1053.8,30,1054.7,28.8,1055.2,27.5z
		 M1047.4,32.8c1.6,0,3.1-0.5,4.3-1.2l15,20.6l-41.3,19.3l18.9-39.2C1045.3,32.6,1046.4,32.8,1047.4,32.8z M1017.9,54.9l24.2-24.1
		c0.4,0.3,0.8,0.6,1.3,0.9l-19.5,40.6l-6.5,3L1017.9,54.9z M1017.2,76.7l5.7-2.7l-6,12.5L1017.2,76.7z M1020.4,97.2l104.3,76.8
		c-0.7,1.1-1.2,2.4-1.3,3.8l-9.3,0.1L973.7,179l39-81c1,0.7,2.1,1.1,3.4,1.1C1017.8,99.1,1019.3,98.4,1020.4,97.2z M1016.6,56.2
		l-0.6,19.7l-10.3,4.8l-6.5-7.3L1016.6,56.2z M1004.6,81.3l-23.1,10.8c-0.1-0.2-0.2-0.4-0.4-0.5l17.3-17.2L1004.6,81.3z M997.6,73.4
		l-17.3,17.3c-0.6-0.4-1.2-0.8-1.9-1l5.2-32.2L997.6,73.4z M986,2.9c0,0.1,0,0.3,0,0.4c0,2.6,1.8,4.8,4.2,5.5l-7.4,46.1l-7.2-8.1
		c1.4-1.4,2.3-3.4,2.3-5.5c0-3.1-1.8-5.8-4.5-7.1L986,2.9z M967,48.6c0.9,0.4,1.9,0.6,2.9,0.6c1.8,0,3.5-0.6,4.8-1.6l4.7,5.3
		l3.1,3.5l-5.3,33.1c-0.1,0-0.2,0-0.2,0c-0.3,0-0.5,0-0.7,0.1l-10.1-39.3L967,48.6z M975.1,89.9c-2,0.8-3.5,2.7-3.5,5
		c0,1.5,0.6,2.8,1.6,3.8l-37.1,46.5l-13.1,8.6c0.6-1,0.9-2.2,0.9-3.5c0-2.7-1.5-5.1-3.7-6.4L965.3,52L975.1,89.9z M812.6,90.9
		L878,70.5l84.6-26.3c0.3,0.8,0.8,1.6,1.3,2.2l0.6,2.4l-59,95l-93.2-49.5c0.3-0.7,0.5-1.5,0.5-2.3C812.7,91.7,812.6,91.3,812.6,90.9
		z M811.7,95.4l93.2,49.4l-1,1.6l-158.2-40.3l3-7.2l52.2-5.6c0.6,2.7,3,4.7,5.9,4.7C808.7,98.1,810.6,97,811.7,95.4z M819.7,5.4
		L807,86.1c-0.1,0-0.2,0-0.3,0c-1.9,0-3.6,0.9-4.7,2.3l-33.5-21c0.5-0.9,0.8-2,0.8-3.1c0-1.7-0.7-3.3-1.7-4.5L819.7,5.4z
		 M767.8,68.5l33.5,21c-0.4,0.8-0.6,1.7-0.6,2.7l-4.8,0.5l-46.7,5l11.2-26.8c0.6,0.2,1.3,0.3,2,0.3
		C764.6,71.1,766.5,70.1,767.8,68.5z M785.9,20.1l-20.8,38c-0.8-0.4-1.8-0.6-2.7-0.6c-3.8,0-6.9,3-6.9,6.8v0.1L721.2,68l-10.6,1.1
		c-0.1-0.6-0.3-1.1-0.6-1.6L785.9,20.1z M710.8,70.4l44.9-4.8c0.2,1.1,0.7,2.1,1.3,2.9l-28.4,26.6c-1.4-1.3-3.3-2.1-5.4-2.1
		c-2.5,0-4.7,1.1-6.2,2.9l-9.3-20C709.5,74.8,710.8,72.8,710.8,70.4z M704.4,76.7c0.7,0.1,1.4,0,2.1-0.3l6.4,13.8l3.2,6.9
		c-0.7,1.2-1,2.5-1,3.9c0,3.5,2.3,6.5,5.5,7.6l-7.7,29.9l-220.5,61.8c0,0,0-0.1-0.1-0.1l207-126C700.5,75.7,702.3,76.7,704.4,76.7z
		 M693.8,5.7c1,1.6,2.7,2.6,4.6,2.7l4.8,55.8c-2.2,0.4-4,1.9-4.8,4l-75.2-20.9L615,45c0.1-0.3,0.1-0.6,0.1-1c0-0.7-0.1-1.3-0.3-1.9
		L693.8,5.7z M609.4,49.8c2.5,0,4.5-1.5,5.4-3.6l83.4,23.2c-0.1,0.4-0.1,0.7-0.1,1.1c0,1,0.2,1.9,0.7,2.8l-207,126
		c-0.1-0.2-0.3-0.3-0.4-0.5L606.3,48.9C607.2,49.5,608.3,49.8,609.4,49.8z M604.6,47.3c0.2,0.3,0.5,0.6,0.8,0.9L490.3,198
		c-0.7-0.4-1.6-0.7-2.5-0.7c-0.5,0-0.9,0.1-1.3,0.2l-27-65c1.9-1,3.2-3,3.2-5.3c0-0.8-0.2-1.6-0.5-2.4l12.4-6.7L604.6,47.3z
		 M427.4,6l143.4,30.4l32.8,7c0,0.2,0,0.4,0,0.6c0,0.8,0.2,1.5,0.5,2.2l-142.3,77.5c-1.1-1.6-2.9-2.6-5-2.6c-0.4,0-0.7,0-1.1,0.1
		l-32.2-111C425.3,9.5,426.8,7.9,427.4,6z M416.8,9.3c1.1,0.9,2.6,1.4,4.1,1.4c0.4,0,0.9,0,1.3-0.1l17.4,60l14.8,51
		c-1.3,0.5-2.4,1.5-3.1,2.7l-95.1-40.2c0.3-0.9,0.5-1.9,0.5-2.9c0-2.3-0.9-4.4-2.4-6L416.8,9.3z M355.7,85.2l21.4,9l73.7,31.1
		c-0.2,0.6-0.3,1.2-0.3,1.8c0,1.5,0.6,2.9,1.5,4l-25.7,27.4L384,203.8c-0.9-0.7-2-1.1-3.2-1.1c-3,0-5.4,2.4-5.4,5.4
		c0,2.1,1.3,4,3.1,4.9l-28.3,80c-0.5-0.1-1.1-0.2-1.6-0.3L348.4,90C351.6,89.8,354.4,87.9,355.7,85.2z M318.4,68l23.5-41.5
		l-19.2,36.6l-11.1,21.1L318.4,68z M313.4,76.8l-5.3,12.8c-0.5-0.2-1.1-0.3-1.7-0.3L313.4,76.8z M305.7,104.2c4.2,0,7.6-3.4,7.6-7.5
		c0-2.7-1.4-5-3.5-6.4L356.6,1c0.5,0.2,1,0.4,1.6,0.5l-9.8,70.9c-0.2,0-0.4,0-0.6,0c-4.9,0-8.9,4-8.9,8.8c0,2.3,0.9,4.3,2.3,5.9
		l-77.4,78.3l-0.1-0.1l13.5-21.6l25.1-40.2C303.3,103.9,304.5,104.2,305.7,104.2z M300.9,102.5c0.1,0.1,0.2,0.2,0.3,0.2L274,146.2
		l21.8-38.5L300.9,102.5z M300.1,101.7l-1.8,1.9l1.4-2.4C299.8,101.3,299.9,101.5,300.1,101.7z M189.1,64.5l9.3,2.6l99.9,28.2
		c-0.1,0.5-0.1,1-0.1,1.5c0,1.2,0.3,2.2,0.7,3.2l-4,7l-76.8,79.1l-16.4,6.5L183.9,69C186.3,68.5,188.2,66.7,189.1,64.5z M178.8,68.3
		c1,0.5,2.2,0.9,3.4,0.9c0.1,0,0.3,0,0.4,0l15.5,107.6l2.3,16.2l-11.9,4.7L117,174.2c0.1-0.5,0.2-1,0.2-1.5c0-2.1-1-4-2.6-5.3
		l21.8-33.7L178.8,68.3z M10.8,34.7l28.3-13.2l136,39c-0.1,0.5-0.1,0.9-0.1,1.4c0,2.3,1.1,4.4,2.9,5.7l-20.1,31l-44.1,68
		c-0.9-0.5-2-0.8-3.1-0.8c-1.3,0-2.4,0.3-3.4,0.9L10.8,34.7z M103.2,184.1l4-5.6c1,0.6,2.1,0.9,3.3,0.9c0.4,0,0.8,0,1.3-0.1
		l16.8,58.3L110.3,265L42,279.8c-0.6-1.7-1.8-3-3.5-3.5L103.2,184.1z M42.1,280.8l65.1-14.1l-65.6,17c0.3-0.7,0.5-1.5,0.5-2.3
		C42.2,281.2,42.2,281,42.1,280.8z M49.3,349c-0.3,0-0.5,0-0.8,0l-0.8-4.9L38,286.9c1-0.3,1.9-0.8,2.6-1.6l67.7-17.6L53.4,350
		C52.2,349.4,50.8,349,49.3,349z M51.2,365.4c3.7-0.9,6.5-4.1,6.5-8.1c0-1.3-0.3-2.6-0.9-3.7l74.1-43.5c0.6,0.9,1.5,1.6,2.4,2.1
		L69.6,460.8c-0.9-0.3-1.8-0.5-2.8-0.5c-0.2,0-0.5,0-0.7,0L51.2,365.4z M59.2,472.5c1.4,2.8,4.3,4.7,7.6,4.7c4.2,0,7.7-3,8.4-7
		l109.9,11.1l-94.9,6L10,492.5L59.2,472.5z M172.1,493.4c-2.6,0-4.7,1.9-5,4.3l-150.4-4.4l169.7-10.8c0.1,0.9,0.5,1.8,1,2.5
		l-11.7,9.7C174.7,493.9,173.4,493.4,172.1,493.4z M176.4,495.7l11.8-9.7c1.1,1.1,2.7,1.8,4.4,1.8c2.2,0,4-1.1,5.2-2.7l22.3,12.1
		c-0.2,0.6-0.4,1.2-0.5,1.8l-42.4-1C177.1,497.1,176.8,496.3,176.4,495.7z M227.4,512.3l-50.2-13.1l26.7,0.6l15.5,0.4
		c0.2,3.4,3.1,6,6.5,6c0.9,0,1.8-0.2,2.6-0.5l1.7,3C229,509.5,228,510.8,227.4,512.3z M234.3,507.4c-1.1,0-2.1,0.2-3,0.6l-1.7-3
		c1.5-1,2.5-2.6,2.8-4.4l9.6,0.6l53,3.4l-53.5,8.3C240.7,509.8,237.8,507.4,234.3,507.4z M274.7,580.7c-0.6-0.6-1.4-0.9-2.3-0.9
		c-0.4,0-0.7,0.1-1,0.2l-33-59.2c1.9-1.2,3.1-3.3,3.2-5.7l132.9-4.2L274.7,580.7z M380.4,508.9l-0.9-0.1l1.1-0.8
		C380.5,508.3,380.5,508.6,380.4,508.9z M383,504.9c-0.1,0.1-0.2,0.1-0.2,0.2l-5.3,3.7l-71.5-4.6l31.8-4.9l45.2-7l1.8,11.5
		L383,504.9z M385.9,502.9l-1.7-10.9l14.8-2.3c0.1,0.7,0.4,1.3,0.6,1.9l-2.8,3.6L385.9,502.9z M389.5,504.8c-0.9-0.5-1.9-0.8-3-0.9
		l7.9-5.5L389.5,504.8z M397.7,496.1l3.3-2.3c0.1,0.1,0.2,0.3,0.3,0.4l-9,8.9L397.7,496.1z M393,504.1l2.2-2.2l7-6.9
		c0.5,0.4,1,0.8,1.5,1.1L393,504.1z M410.3,477.7c-0.5-0.1-1-0.1-1.5-0.1c-5.5,0-10,4.5-10,10c0,0.3,0,0.6,0,0.9l-14.8,2.3
		l-14.8-96.7c3-0.7,5.3-3.4,5.3-6.7c0-0.4,0-0.8-0.1-1.1l128.2-32.8c0.3,0.8,0.8,1.6,1.5,2.2l-69.9,91L410.3,477.7z M411.6,478
		l85.7-111.5l7.8-10.1c0.7,0.4,1.5,0.7,2.4,0.8l-0.3,53.5c-4.3,0.3-7.6,3.8-7.6,8.1c0,1.5,0.4,2.9,1.2,4.2l-84,58.5
		C415.4,479.8,413.6,478.6,411.6,478z M480.6,438.4L418.5,485c-0.3-0.9-0.6-1.8-1.1-2.6L480.6,438.4z M435.3,498.5
		c-1.3-1-3-1.6-4.8-1.6c-2.3,0-4.3,1-5.8,2.5l-7.7-6.1c1.2-1.6,1.8-3.6,1.8-5.7c0-0.4,0-0.9-0.1-1.3l82.8-62.2
		c0.1,0.1,0.2,0.2,0.3,0.3L435.3,498.5z M527.2,535.3l-89-28.6c0.1-0.6,0.2-1.2,0.2-1.8c0-1.8-0.6-3.4-1.6-4.7l82.2-70.9
		c1.6,1.6,3.8,2.6,6.2,2.6l6.2,100.1C529.6,532.2,528,533.5,527.2,535.3z M536.4,533.4c-1-0.9-2.3-1.5-3.7-1.6l-6.2-100.1
		c3.5-0.5,6.4-2.9,7.4-6.2l96,21.2c0,0.4-0.1,0.7-0.1,1.1c0,1.7,0.6,3.3,1.5,4.6l-24.8,21.2L536.4,533.4z M669.1,516.2
		c0,0.1,0,0.3,0,0.4L538,536.1c-0.2-0.7-0.5-1.3-0.8-1.8l94.9-81.1c1.4,1.4,3.3,2.2,5.5,2.2c1.2,0,2.2-0.3,3.2-0.7l31.3,55.9
		C670.3,511.9,669.1,513.9,669.1,516.2z M675.8,509.5c-1,0-1.9,0.2-2.7,0.6l-13.2-23.7l-18-32.2c2-1.3,3.3-3.5,3.5-6l171.3-4.5
		c0.1,0.3,0.1,0.7,0.3,1l-135.4,68C680.3,510.8,678.2,509.5,675.8,509.5z M739.7,507.6c-3.3,0-6,2.6-6.2,5.8l-33.2,1.3l-17.9,0.7
		c-0.1-0.6-0.2-1.1-0.4-1.6l135.4-68l-73.5,63.5C742.8,508.3,741.3,507.6,739.7,507.6z M814.4,501c-1.2-0.9-2.7-1.4-4.3-1.4
		c-4,0-7.3,3.3-7.3,7.3v0.1l-57.1,5.5c-0.1-0.6-0.4-1.3-0.7-1.8l150-104.5c0.1,0.1,0.1,0.2,0.2,0.3L814.4,501z M895,400.9l-4.2,2.1
		l0.5,1.1l3-1.5c-0.1,0.3-0.1,0.6-0.1,0.9s0,0.5,0.1,0.8l-68.5,35.8c-0.8-1.1-2.1-1.9-3.5-2.1l1.4-74l27.9-40.8L897,399
		C896.2,399.4,895.5,400.1,895,400.9z M899.6,398.2c-0.5,0-1,0.1-1.5,0.2L852.4,322l10.6-15.5l87.5,65.9l-50.4,25.8
		C899.9,398.3,899.8,398.2,899.6,398.2z M902,398.8l50.2-25.1l23,17.3c-0.5,0.9-0.8,1.9-0.8,3l-70,7.1
		C903.8,400.1,903,399.3,902,398.8z M904.8,404.9c0.1-0.4,0.2-0.9,0.2-1.3c0-0.4-0.1-0.8-0.2-1.2l68.8-7l-27.4,21.9
		c-1-1-2.5-1.6-4-1.6c-3.1,0-5.7,2.5-5.7,5.6c0,3.1,2.5,5.6,5.7,5.6c0.6,0,1.1-0.1,1.6-0.2l2.2,5.2L904.8,404.9z M953.5,446.3
		l-4.8-11.3l10.3,6.7L953.5,446.3z M947.8,433l-2.9-6.9c0.2-0.1,0.4-0.3,0.7-0.4l14.1,15L947.8,433z M960.8,440.1l-14.3-15.3
		c0.3-0.4,0.6-0.8,0.8-1.2l23.2,8.4L960.8,440.1z M971.6,431.1l-23.9-8.6c0.1-0.3,0.1-0.7,0.2-1.1l35.5-2c0.1,0.5,0.3,1,0.5,1.5
		L971.6,431.1z M972.9,431.6l11.6-9.7c1,1.1,2.4,1.9,4,1.9c1.2,0,2.2-0.4,3.1-1l7.8,18.4L972.9,431.6z M992.6,421.9
		c0.8-0.9,1.3-2.1,1.3-3.3c0-1.3-0.5-2.5-1.3-3.4l6.9-5.8c1.1,1.1,2.7,1.8,4.4,1.8c0.1,0,0.3,0,0.4,0l5.4,33.7l-8.8-3.2L992.6,421.9
		z M1013.6,471.6l-12-28.4l8.4,3l4,25.3C1013.8,471.5,1013.7,471.5,1013.6,471.6z M1016.2,471.3c-0.2,0-0.4,0-0.6,0
		c-0.2,0-0.3,0-0.4,0l-3.9-24.7l8.8,3.2L1016.2,471.3z M1020.2,448.6l-9.2-3.3l-2.4-14.8l-3.1-19.6c0.3-0.1,0.6-0.2,0.9-0.3l15.6,28
		L1020.2,448.6z M1029.4,451.9l-8.1-2.9l1.6-8.8L1029.4,451.9z M1022.4,436.7l-14.8-26.7c1.7-1.1,2.8-3.1,2.8-5.2
		c0-0.7-0.1-1.3-0.3-1.9l19.4-5.4L1022.4,436.7z M1029.6,396.2l-20.1,5.6c-0.4-0.7-0.9-1.3-1.4-1.8l10-13.9l16.7-18.8L1029.6,396.2z
		 M1099.7,375.3c0,0.5,0.1,1,0.1,1.4l-18,5l-50.9,14.2l5.4-30.3l1.5-1.7c2.3-0.4,4.1-2.4,4.2-4.8l44.2-49.7c0.4,0.1,0.8,0.1,1.2,0.1
		c3.1,0,5.8-1.6,7.2-4l10.6,62.7C1102,368.9,1099.7,371.8,1099.7,375.3z M1110.8,368.8c-1.2-0.6-2.4-0.9-3.7-0.9c-0.2,0-0.4,0-0.6,0
		l-10.8-63.9l70.5-18.3L1110.8,368.8z M1167.9,285.3l20.3-5.3c0.3,0.7,0.6,1.3,1.1,1.8l-76.8,86.5L1167.9,285.3z M1194.3,317.3
		c-3.7,0.1-6.7,3-6.7,6.7c0,1,0.2,2,0.7,2.9l-37.6,22.1l-37.5,22c-0.2-0.3-0.5-0.6-0.7-0.9l39.9-44.9l37.9-42.7c0.9,0.6,2,1,3.2,1
		c1.3,0,2.5-0.5,3.5-1.2L1194.3,317.3z M1195.5,317.4l2.8-36.5c0.5-0.8,0.8-1.8,0.8-2.9c0-0.8-0.2-1.5-0.4-2.1l0.1-1.6l36.5-31.2
		l52.2,12.7c-0.1,0.4-0.1,0.8-0.1,1.3c0,1.4,0.4,2.7,1,3.8l-88.8,59C1198.6,318.5,1197.2,317.7,1195.5,317.4z M1341.4,297.2
		c0,0.2,0,0.4,0,0.6l-83.9,14.6l-56.6,9.8c-0.1-0.5-0.3-1-0.6-1.5l88.8-59c1.4,1.8,3.6,2.9,6.1,2.9c2.3,0,4.4-1,5.8-2.6l15.6,11.7
		l25.8,19.4C1341.8,294.4,1341.4,295.8,1341.4,297.2z M1348.7,289.9c-2.2,0-4.1,0.9-5.4,2.4l-22.4-16.8l-18-13.5l95.4,53.5
		l-42.5-16.3c0.2-0.6,0.3-1.3,0.3-2C1356,293.2,1352.7,289.9,1348.7,289.9z M1421.2,398.4l-67.8-95.6c0.8-0.7,1.4-1.5,1.9-2.4
		l30.9,11.8l14.2,5.4c-0.1,0.5-0.2,0.9-0.2,1.4c0,3,2.5,5.5,5.6,5.5c0.2,0,0.4,0,0.6,0l6.9,30.2l9.8,42.9
		C1422.4,397.8,1421.8,398.1,1421.2,398.4z M1427.3,370.8l-1.9,26.4c-0.4,0-0.8,0-1.2,0.1l-5.5-24.2l-11.2-48.9
		c2.2-0.7,3.7-2.8,3.7-5.2c0-1.8-0.8-3.3-2.1-4.3l25.3-40.4L1427.3,370.8z M1434.6,271.7l-26.5,42.4l28.8-81.3
		c0.2,0,0.4,0.1,0.6,0.1L1434.6,271.7z M1448.9,248.8l-12.9,20.6l2.7-36.5c1.5,0,2.9-0.5,4-1.3l10,11.2L1448.9,248.8z M1453.3,241.8
		l-9.7-11c0.8-0.9,1.4-1.9,1.7-3.1l15.4,2.2L1453.3,241.8z M1565.9,363.1c-1.4,0-2.7,0.4-3.7,1.2l-108-121.6l0.2-0.3l7.7-12.3
		l43.8,6.4l136.3,19.8c0,0.2,0,0.4,0,0.6c0,2.4,1.1,4.6,2.8,6l-56.6,75.5l-19.2,25.6C1568.2,363.4,1567.1,363.1,1565.9,363.1z
		 M1645,359.8L1645,359.8l-72.9,8.3c-0.3-1.3-1-2.5-2-3.4l64.6-86.3l11.1-14.9c1.1,0.7,2.4,1.1,3.8,1.2l1.2,88.4
		C1647.6,353.5,1645,356.3,1645,359.8z M1753.7,211.8L1654.9,354c-0.8-0.5-1.8-0.8-2.8-0.8l-0.4-31.7l-0.8-56.7
		c4.1-0.4,7.3-3.8,7.3-8c0-1-0.2-2-0.5-2.9l36.6-17.2l58-27.3c0.5,0.8,1,1.5,1.7,2L1753.7,211.8z M1758.7,198.3
		c-4.1,0-7.4,3.3-7.4,7.4c0,0.9,0.2,1.8,0.5,2.6l-94.5,44.5c-0.1-0.1-0.1-0.2-0.2-0.4l110.2-82.3l-5.3,20.8l-1.9,7.5
		C1759.5,198.4,1759.1,198.3,1758.7,198.3z M1761.1,198.7l7.6-29.7l17.6-13.1c0.3,0.4,0.7,0.7,1.1,1l-25.4,42.2
		C1761.7,198.9,1761.4,198.8,1761.1,198.7z M1855,263.7l-66.9-40.7l-22.8-13.9c0.5-1,0.8-2.1,0.8-3.3c0-2.5-1.2-4.7-3.1-6l25.5-42.2
		c0.9,0.4,1.9,0.7,3,0.7c3.5-0.2,6.4-2.8,6.8-6.1l59.3,109.1C1856.6,261.9,1855.7,262.7,1855,263.7z"/>
</g>
</svg>
