<?xml version="1.0" encoding="utf-8"?>
<!-- Generator: Adobe Illustrator 26.1.0, SVG Export Plug-In . SVG Version: 6.00 Build 0)  -->
<svg version="1.1" id="Capa_1" xmlns="http://www.w3.org/2000/svg" xmlns:xlink="http://www.w3.org/1999/xlink" x="0px" y="0px"
	 viewBox="0 0 200 71.3" style="enable-background:new 0 0 200 71.3;" xml:space="preserve">
<style type="text/css">
	.st0{fill:#FFFFFF;}
	.st1{fill:#AAB2AB;}
</style>
<g>
	<path class="st0" d="M136.9,32.3c-0.9,0.7-2.1,1.2-3.3,1.3v2.9h-2.2v-2.9c-2.1,0-3.9-0.8-5.6-2.2l2.6-2.6c1.2,1.1,2.6,1.7,4.1,1.7
		c0.6,0,1.2-0.1,1.6-0.4c0.5-0.3,0.7-0.8,0.7-1.4c0-0.5-0.2-0.8-0.5-1.1l-1.8-0.8l-2.2-1l-3-1.3l-9.5-4.2c-0.6,1.5-0.8,3.2-0.8,5
		c0,4.1,1.5,7.7,4.5,10.7c3,3,6.6,4.5,10.7,4.5c4.2,0,7.8-1.5,10.8-4.5c1.1-1,1.9-2.1,2.6-3.3l-7-3.1
		C138.4,30.7,137.8,31.6,136.9,32.3z"/>
	<path class="st0" d="M91.6,10c-4.2,0-7.8,1.5-10.7,4.4c-3,3.1-4.5,6.7-4.5,10.8c0,4.1,1.5,7.7,4.5,10.7c3,3,6.6,4.5,10.7,4.5
		c4.1,0,7.7-1.5,10.8-4.5c2.9-2.8,4.4-6.4,4.4-10.6c0-4.2-1.5-7.8-4.4-10.8C99.4,11.5,95.8,10,91.6,10z M91.6,13.2
		c1.7,0,2.6,0.9,2.6,2.6c0,1.7-0.9,2.6-2.6,2.6c-1.7,0-2.6-0.9-2.6-2.6C89,14.1,89.9,13.2,91.6,13.2z M96.6,28.2h-2.1v9h-5.8v-9
		h-2.1v-7.6c0-0.3,0.1-0.6,0.3-0.8c0.2-0.2,0.5-0.4,0.8-0.3h7.6c0.3,0,0.6,0.1,0.8,0.3c0.2,0.2,0.4,0.5,0.4,0.8V28.2z"/>
	<path class="st0" d="M50.1,19.7c-4.3-4.3-9.5-6.5-15.6-6.5c-6.1,0-11.3,2.1-15.5,6.4c-2.1,2.1-3.7,4.5-4.9,7.2
		c-1.1,2.7-1.7,5.5-1.7,8.4c0,2.9,0.6,5.7,1.7,8.3c1.2,2.7,2.8,5.1,4.9,7.2c2.1,2.1,4.4,3.7,7.2,4.8c2.7,1.1,5.4,1.7,8.4,1.7
		c2.9,0,5.7-0.6,8.4-1.7c2.8-1.1,5.2-2.8,7.3-4.8c4.2-4.1,6.3-9.2,6.3-15.4c0-3-0.5-5.8-1.6-8.4C53.7,24.1,52.1,21.8,50.1,19.7z
		 M31.2,42.5c-1.2,0.8-2.6,1.1-4.1,1.1c-2.4,0-4.3-0.7-5.8-2.2c-1.5-1.5-2.2-3.5-2.2-6.1c0-2.6,0.7-4.6,2.2-6.1
		c1.5-1.5,3.4-2.3,5.6-2.3c3.3,0,5.7,1.3,7.2,3.9l-3.6,1.9c-0.4-0.8-0.9-1.4-1.4-1.7c-0.6-0.3-1.1-0.5-1.6-0.5
		c-2.4,0-3.6,1.6-3.6,4.8c0,1.4,0.3,2.6,0.9,3.5c0.6,0.9,1.5,1.3,2.7,1.3c1.6,0,2.7-0.8,3.3-2.3l3.3,1.7
		C33.5,40.7,32.5,41.7,31.2,42.5z M46.7,42.5c-1.2,0.8-2.6,1.1-4.1,1.1c-2.4,0-4.4-0.7-5.8-2.2c-1.5-1.5-2.2-3.5-2.2-6.1
		c0-2.6,0.7-4.6,2.2-6.1c1.5-1.5,3.4-2.3,5.6-2.3c3.3,0,5.7,1.3,7.1,3.9l0,0v0c0,0,0,0,0,0l-3.6,1.9c-0.4-0.8-0.9-1.4-1.4-1.7
		c-0.6-0.3-1.1-0.5-1.6-0.5c-2.4,0-3.6,1.6-3.6,4.8c0,1.4,0.3,2.6,0.9,3.5C41,39.6,41.9,40,43,40c1.6,0,2.7-0.8,3.3-2.3l3.4,1.7
		C49,40.7,48,41.7,46.7,42.5z"/>
	<path class="st1" d="M195.8,1.8H4.2c-1.4,0-2.5,1.1-2.5,2.5v46.7h5c0.3,0.6,0.7,1.2,1.1,1.8c1.2,1.8,2.5,3.4,4.1,5
		c3,3,6.4,5.3,10.3,7c3.8,1.6,7.9,2.4,12.1,2.4c0,0,0,0,0,0c4.2,0,8.3-0.8,12.2-2.4c4-1.6,7.5-4,10.5-7c1.6-1.5,2.9-3.2,4.1-4.9
		c0.4-0.6,0.7-1.2,1.1-1.8h136V4.2C198.2,2.9,197.1,1.8,195.8,1.8z M61,39.3c-0.1,0.9-0.3,1.7-0.5,2.6c-0.2,0.8-0.4,1.7-0.7,2.5
		c-0.1,0.4-0.3,0.8-0.5,1.2c-1.3,3.2-3.2,6.1-5.7,8.5c-2.6,2.6-5.6,4.6-8.9,6c-3.3,1.4-6.7,2.1-10.3,2.1c-2.7,0-5.2-0.4-7.7-1.1
		c-0.4-0.1-0.8-0.3-1.2-0.4c-0.4-0.1-0.8-0.3-1.2-0.5c-3.3-1.4-6.2-3.4-8.7-5.9c-2.6-2.6-4.5-5.5-5.9-8.7c-1.4-3.3-2-6.7-2-10.2
		c0-3.6,0.7-7,2-10.2c1.4-3.3,3.4-6.3,5.9-8.8c1-1,2-1.9,3-2.7c0.3-0.3,0.7-0.5,1.1-0.8c0.7-0.5,1.4-0.9,2.2-1.3
		c3.7-2,8-3.1,12.6-3.1c1.4,0,2.8,0.1,4.1,0.3c0.4,0.1,0.9,0.1,1.3,0.2c0.9,0.2,1.7,0.4,2.6,0.6c0.4,0.1,0.8,0.3,1.2,0.4
		c2,0.7,4,1.7,5.8,2.9c1.5,1,2.9,2.1,4.2,3.4c0.6,0.6,1.2,1.3,1.8,1.9c1.7,2,3,4.3,4,6.7c1.3,3.2,2,6.7,2,10.3
		C61.3,36.6,61.2,38,61,39.3z M104.9,38.3c-3.8,3.7-8.2,5.5-13.3,5.5c-5,0-9.4-1.8-13.1-5.5c-3.6-3.6-5.5-8-5.5-13.1
		s1.8-9.5,5.5-13.2c3.6-3.6,7.9-5.4,13.1-5.4c5.2,0,9.6,1.8,13.2,5.4c3.6,3.6,5.4,8,5.4,13.2C110.2,30.4,108.4,34.8,104.9,38.3z
		 M145.5,38.3c-3.8,3.7-8.2,5.5-13.3,5.5c-5,0-9.4-1.8-13.1-5.5c-3.6-3.6-5.5-8-5.5-13.1c0-5.1,1.8-9.5,5.5-13.2
		c3.6-3.6,7.9-5.4,13.1-5.4c5.2,0,9.6,1.8,13.2,5.4c3.6,3.6,5.4,8,5.4,13.2C150.8,30.4,149.1,34.8,145.5,38.3z M186.2,38.3
		c-3.7,3.7-8.2,5.5-13.3,5.5c-5,0-9.4-1.8-13.1-5.5c-3.6-3.6-5.5-8-5.5-13.1c0-5.1,1.8-9.5,5.5-13.2c3.6-3.6,8-5.4,13.1-5.4
		c5.2,0,9.6,1.8,13.2,5.4c3.6,3.6,5.4,8,5.4,13.2C191.5,30.4,189.7,34.8,186.2,38.3z"/>
	<path class="st0" d="M132.3,10L132.3,10c-4.2,0-7.8,1.5-10.7,4.5c-0.7,0.7-1.4,1.6-2.1,2.5l7.1,3.2c0.3-1,0.9-1.8,1.8-2.3
		c0.9-0.6,1.9-0.9,3-1V14h2.2v2.9c1.7,0.1,3.3,0.7,4.6,1.7l-2.4,2.5c-1-0.7-2.1-1.1-3.2-1.1c-0.6,0-1.1,0.1-1.5,0.3
		c-0.5,0.2-0.7,0.6-0.7,1.1c0,0.2,0.1,0.3,0.2,0.5l2.4,1.1l1.6,0.7l3,1.3l9.5,4.2c0.3-1.3,0.5-2.6,0.5-4c0-4.3-1.5-7.9-4.4-10.8
		C140.1,11.5,136.5,10,132.3,10z"/>
	<path class="st0" d="M172.9,10c-4.2,0-7.8,1.5-10.7,4.5c-3,3.1-4.5,6.7-4.5,10.7c0,4.1,1.5,7.7,4.5,10.7c3,3,6.6,4.5,10.7,4.5
		c4.1,0,7.7-1.5,10.8-4.5c2.9-2.8,4.4-6.4,4.4-10.6c0-4.2-1.5-7.8-4.4-10.7C180.7,11.5,177.2,10,172.9,10z M179.9,30h-13.5v-3.2
		h13.5V30z M179.9,24h-13.5v-3.2h13.5V24z"/>
	<path d="M195.8,0H4.2C1.9,0,0,1.9,0,4.2v46.7V67c0,2.3,1.9,4.2,4.2,4.2h191.5c2.3,0,4.2-1.9,4.2-4.2V50.9V4.2
		C200,1.9,198.1,0,195.8,0z M90,64.8c-0.2,0.5-0.6,0.9-1,1.2c-0.4,0.3-1,0.5-1.6,0.6c-0.4,0-1.4,0.1-2.9,0.1h-4V54.8h4.7
		c0.9,0,1.6,0,2.1,0.1c0.5,0.1,0.9,0.2,1.2,0.5c0.4,0.2,0.7,0.6,0.9,1c0.2,0.4,0.4,0.9,0.4,1.4c0,0.6-0.1,1.1-0.4,1.5
		c-0.3,0.5-0.7,0.8-1.2,1c0.7,0.2,1.3,0.6,1.7,1.1c0.4,0.5,0.6,1.1,0.6,1.8C90.4,63.7,90.3,64.2,90,64.8z M97.5,61.7v4.9h-2.4v-5
		l-4.3-6.8h2.8l2.8,4.7l2.7-4.7h2.7L97.5,61.7z M131.3,66.6h-2.4l-4.8-7.7v7.7h-2.2V54.8h2.3l4.8,7.9v-7.9h2.2V66.6z M142,65.9
		c-0.8,0.6-1.9,0.9-3.1,0.9c-1.6,0-2.9-0.5-3.9-1.6c-1-1.1-1.5-2.5-1.5-4.4c0-2,0.5-3.5,1.5-4.6c1-1.1,2.3-1.6,4-1.6
		c1.4,0,2.6,0.4,3.5,1.3c0.5,0.5,0.9,1.2,1.2,2.2l-2.4,0.6c-0.1-0.6-0.4-1.1-0.9-1.4c-0.4-0.4-1-0.5-1.6-0.5c-0.9,0-1.6,0.3-2.1,0.9
		c-0.5,0.6-0.8,1.6-0.8,3c0,1.5,0.3,2.6,0.8,3.2c0.5,0.6,1.2,0.9,2.1,0.9c0.6,0,1.2-0.2,1.6-0.6c0.5-0.4,0.8-1,1-1.9l2.3,0.7
		C143.4,64.3,142.8,65.3,142,65.9z M171.7,66.6h-2.4l-4.8-7.7v7.7h-2.2V54.8h2.3l4.8,7.9v-7.9h2.2V66.6z M183.9,63.3
		c-0.3,0.9-0.7,1.6-1.3,2.1c-0.4,0.4-1,0.7-1.7,0.9c-0.5,0.2-1.2,0.2-2.1,0.2h-4.5V54.8h4.4c1,0,1.7,0.1,2.2,0.2
		c0.7,0.2,1.3,0.6,1.8,1.1c0.5,0.5,0.9,1.2,1.1,1.9c0.3,0.8,0.4,1.7,0.4,2.8C184.3,61.8,184.2,62.6,183.9,63.3z M198.2,50.9h-136
		c-0.3,0.6-0.7,1.2-1.1,1.8c-1.2,1.8-2.5,3.4-4.1,4.9c-3,3-6.6,5.4-10.5,7c-3.9,1.6-8,2.4-12.2,2.4c0,0,0,0,0,0
		c-4.2,0-8.3-0.8-12.1-2.4c-3.9-1.6-7.4-4-10.3-7c-1.5-1.5-2.9-3.2-4.1-5c-0.4-0.6-0.7-1.2-1.1-1.8h-5V4.2c0-1.4,1.1-2.5,2.5-2.5
		h191.5c1.4,0,2.5,1.1,2.5,2.5V50.9z"/>
	<path d="M86.2,59.5c0.4,0,0.7-0.2,1-0.4c0.2-0.2,0.4-0.5,0.4-0.9c0-0.4-0.1-0.7-0.3-0.9c-0.2-0.2-0.5-0.4-0.9-0.4c-0.2,0-0.9,0-2,0
		h-1.4v2.7h1.6C85.4,59.5,86,59.5,86.2,59.5z"/>
	<path d="M86.9,61.6c-0.3-0.1-1-0.2-2.1-0.2h-1.9v3.2h2.2c0.9,0,1.4,0,1.6-0.1c0.4-0.1,0.6-0.2,0.9-0.5c0.2-0.2,0.3-0.6,0.3-1
		c0-0.4-0.1-0.7-0.3-0.9C87.5,61.9,87.3,61.8,86.9,61.6z"/>
	<path d="M180.9,57.5c-0.3-0.3-0.7-0.5-1.1-0.6c-0.3-0.1-1-0.1-2-0.1h-1.1v7.8h1.8c0.7,0,1.1,0,1.4-0.1c0.4-0.1,0.7-0.3,1-0.5
		c0.3-0.2,0.5-0.6,0.6-1.1c0.2-0.5,0.2-1.2,0.2-2.2c0-0.9-0.1-1.6-0.2-2.1C181.4,58.1,181.2,57.8,180.9,57.5z"/>
	<path d="M55.3,18.2c-0.6-0.7-1.1-1.3-1.8-1.9c-1.3-1.3-2.7-2.5-4.2-3.4c-1.8-1.2-3.8-2.2-5.8-2.9c-0.4-0.1-0.8-0.3-1.2-0.4
		c-0.8-0.2-1.7-0.5-2.6-0.6c-0.4-0.1-0.9-0.2-1.3-0.2c-1.3-0.2-2.7-0.3-4.1-0.3c-4.7,0-8.9,1-12.6,3.1c-0.7,0.4-1.5,0.9-2.2,1.3
		c-0.4,0.2-0.7,0.5-1.1,0.8c-1,0.8-2,1.7-3,2.7c-2.6,2.5-4.5,5.5-5.9,8.8c-1.4,3.3-2,6.7-2,10.2c0,3.5,0.7,7,2,10.2
		c1.3,3.2,3.3,6.1,5.9,8.7c2.5,2.5,5.4,4.5,8.7,5.9c0.4,0.2,0.8,0.3,1.2,0.5c0.4,0.1,0.8,0.3,1.2,0.4c2.5,0.8,5.1,1.1,7.7,1.1
		c3.6,0,7-0.7,10.3-2.1c3.4-1.4,6.3-3.4,8.9-6c2.5-2.4,4.4-5.3,5.7-8.5c0.2-0.4,0.3-0.8,0.5-1.2c0.3-0.8,0.5-1.7,0.7-2.5
		c0.2-0.8,0.4-1.7,0.5-2.6c0.2-1.3,0.3-2.7,0.3-4c0-3.6-0.7-7.1-2-10.3C58.3,22.4,57,20.2,55.3,18.2z M50.2,50.7
		c-2.1,2.1-4.6,3.7-7.3,4.8c-2.7,1.1-5.5,1.7-8.4,1.7c-2.9,0-5.7-0.6-8.4-1.7c-2.7-1.1-5.1-2.7-7.2-4.8c-2.1-2.1-3.7-4.4-4.9-7.2
		c-1.1-2.7-1.7-5.4-1.7-8.3c0-2.9,0.6-5.7,1.7-8.4c1.2-2.7,2.8-5.1,4.9-7.2c4.2-4.3,9.4-6.4,15.5-6.4c6.1,0,11.3,2.2,15.6,6.5
		c2.1,2,3.6,4.4,4.8,7.1c1.1,2.7,1.6,5.5,1.6,8.4C56.4,41.4,54.3,46.6,50.2,50.7z"/>
	<path d="M27.5,40c-1.2,0-2.1-0.4-2.7-1.3c-0.6-0.9-0.9-2-0.9-3.5c0-3.2,1.2-4.8,3.6-4.8c0.5,0,1,0.2,1.6,0.5c0.6,0.3,1,0.9,1.4,1.7
		l3.6-1.9c-1.4-2.6-3.8-3.9-7.2-3.9c-2.3,0-4.2,0.8-5.6,2.3c-1.5,1.5-2.2,3.5-2.2,6.1c0,2.6,0.7,4.7,2.2,6.1
		c1.5,1.5,3.4,2.2,5.8,2.2c1.5,0,2.9-0.4,4.1-1.1c1.3-0.8,2.2-1.8,2.9-3.1l-3.3-1.7C30.2,39.2,29.1,40,27.5,40z"/>
	<path d="M43,40c-1.2,0-2.1-0.4-2.7-1.3c-0.6-0.9-0.9-2-0.9-3.5c0-3.2,1.2-4.8,3.6-4.8c0.5,0,1,0.2,1.6,0.5c0.6,0.3,1,0.9,1.4,1.7
		l3.6-1.9c-1.4-2.6-3.8-3.9-7.1-3.9c-2.3,0-4.2,0.8-5.6,2.3c-1.5,1.5-2.2,3.5-2.2,6.1c0,2.6,0.7,4.7,2.2,6.1
		c1.5,1.5,3.4,2.2,5.8,2.2c1.5,0,2.8-0.4,4.1-1.1c1.3-0.8,2.3-1.8,3-3.1l-3.4-1.7C45.7,39.2,44.6,40,43,40z"/>
	<polygon points="49.6,30.8 49.6,30.8 49.6,30.8 	"/>
	<path d="M95.4,19.4h-7.6c-0.3,0-0.6,0.1-0.8,0.3c-0.2,0.2-0.4,0.5-0.3,0.8v7.6h2.1v9h5.8v-9h2.1v-7.6c0-0.3-0.1-0.6-0.4-0.8
		C96,19.5,95.7,19.4,95.4,19.4z"/>
	<path d="M91.6,6.7c-5.1,0-9.5,1.8-13.1,5.4c-3.6,3.7-5.5,8.1-5.5,13.2s1.8,9.5,5.5,13.1c3.7,3.6,8,5.5,13.1,5.5
		c5.1,0,9.5-1.8,13.3-5.5c3.5-3.5,5.3-7.8,5.3-13c0-5.2-1.8-9.6-5.4-13.2C101.2,8.4,96.8,6.7,91.6,6.7z M102.5,35.9
		c-3.1,3-6.7,4.5-10.8,4.5c-4.2,0-7.7-1.5-10.7-4.5c-3-3-4.5-6.6-4.5-10.7c0-4.1,1.5-7.7,4.5-10.8c2.9-3,6.5-4.4,10.7-4.4
		c4.2,0,7.8,1.5,10.7,4.4c3,3,4.4,6.6,4.4,10.8C106.8,29.5,105.4,33.1,102.5,35.9z"/>
	<path d="M91.6,18.4c1.7,0,2.6-0.9,2.6-2.6c0-1.7-0.9-2.6-2.6-2.6c-1.7,0-2.6,0.9-2.6,2.6C89,17.6,89.9,18.4,91.6,18.4z"/>
	<path d="M132.2,6.7c-5.1,0-9.5,1.8-13.1,5.4c-3.6,3.7-5.5,8.1-5.5,13.2c0,5.1,1.8,9.4,5.5,13.1c3.7,3.7,8,5.5,13.1,5.5
		c5.1,0,9.5-1.8,13.3-5.5c3.5-3.5,5.3-7.8,5.3-13c0-5.2-1.8-9.6-5.4-13.2C141.8,8.4,137.4,6.7,132.2,6.7z M143.1,35.8
		c-3,3-6.6,4.5-10.8,4.5c-4.1,0-7.7-1.5-10.7-4.5c-3-3-4.5-6.6-4.5-10.7c0-1.8,0.3-3.5,0.8-5l9.5,4.2l3,1.3l2.2,1l1.8,0.8
		c0.3,0.3,0.5,0.7,0.5,1.1c0,0.7-0.2,1.1-0.7,1.4c-0.5,0.3-1,0.4-1.6,0.4c-1.5,0-2.9-0.6-4.1-1.7l-2.6,2.6c1.7,1.5,3.6,2.2,5.6,2.2
		v2.9h2.2v-2.9c1.3-0.1,2.4-0.5,3.3-1.3c1-0.7,1.5-1.7,1.8-2.9l7,3.1C145,33.7,144.2,34.8,143.1,35.8z M147,29.2l-9.5-4.2l-3-1.3
		l-1.6-0.7l-2.4-1.1c-0.1-0.2-0.2-0.3-0.2-0.5c0-0.5,0.2-0.9,0.7-1.1c0.5-0.2,1-0.3,1.5-0.3c1.1,0,2.1,0.4,3.2,1.1l2.4-2.5
		c-1.4-1.1-2.9-1.6-4.6-1.7V14h-2.2v2.9c-1.2,0.1-2.2,0.4-3,1c-0.9,0.6-1.5,1.3-1.8,2.3l-7.1-3.2c0.6-0.9,1.3-1.8,2.1-2.5
		c2.9-3,6.5-4.5,10.7-4.5l0,0c4.2,0,7.8,1.5,10.7,4.5c3,2.9,4.4,6.5,4.4,10.8C147.5,26.6,147.3,27.9,147,29.2z"/>
	<path d="M172.9,6.7c-5.1,0-9.5,1.8-13.1,5.4c-3.6,3.7-5.5,8.1-5.5,13.2c0,5.1,1.8,9.5,5.5,13.1c3.7,3.6,8,5.5,13.1,5.5
		c5.1,0,9.6-1.8,13.3-5.5c3.5-3.5,5.3-7.9,5.3-13.1c0-5.2-1.8-9.6-5.4-13.2C182.5,8.5,178.1,6.7,172.9,6.7z M183.7,35.9
		c-3.1,3-6.7,4.5-10.8,4.5c-4.2,0-7.7-1.5-10.7-4.5c-3-3-4.5-6.5-4.5-10.7c0-4.1,1.5-7.7,4.5-10.7c2.9-3,6.5-4.5,10.7-4.5
		c4.2,0,7.8,1.5,10.7,4.5c3,2.9,4.4,6.5,4.4,10.7C188.1,29.5,186.7,33,183.7,35.9z"/>
	<rect x="166.4" y="26.8" width="13.5" height="3.2"/>
	<rect x="166.4" y="20.9" width="13.5" height="3.2"/>
	<g>
		<polygon class="st0" points="169.3,62.1 164.8,54.7 164.8,54.6 162.2,54.6 162.2,66.8 164.7,66.8 164.7,59.5 169.2,66.7 
			169.2,66.8 171.9,66.8 171.9,54.6 169.3,54.6 		"/>
		<path class="st0" d="M88.6,60.3c0.4-0.2,0.7-0.5,0.9-0.9c0.3-0.5,0.5-1,0.5-1.6c0-0.5-0.1-1-0.4-1.5c-0.3-0.4-0.6-0.8-1-1
			c-0.4-0.3-0.8-0.4-1.3-0.5c-0.5-0.1-1.2-0.1-2.1-0.1h-4.9v12.1h4.2c1.5,0,2.5,0,2.9-0.1c0.7-0.1,1.2-0.3,1.7-0.6
			c0.5-0.3,0.8-0.8,1.1-1.3c0.3-0.5,0.4-1.1,0.4-1.6c0-0.7-0.2-1.3-0.6-1.9C89.6,60.9,89.2,60.5,88.6,60.3z M83.1,61.6h1.8
			c1.1,0,1.8,0.1,2.1,0.2c0.3,0.1,0.5,0.3,0.7,0.5c0.2,0.2,0.2,0.5,0.2,0.8c0,0.4-0.1,0.7-0.3,0.9c-0.2,0.2-0.4,0.4-0.8,0.4
			c-0.2,0-0.6,0.1-1.6,0.1h-2V61.6z M87,58.9c-0.2,0.2-0.5,0.3-0.9,0.4c-0.2,0-0.8,0-1.7,0h-1.4v-2.4h1.2c1.4,0,1.9,0,2,0
			c0.4,0,0.6,0.2,0.8,0.4c0.2,0.2,0.3,0.5,0.3,0.8C87.3,58.5,87.2,58.7,87,58.9z"/>
		<path class="st0" d="M184.1,58c-0.3-0.8-0.7-1.4-1.2-2c-0.5-0.5-1.1-0.9-1.9-1.1c-0.5-0.2-1.3-0.2-2.3-0.2h-4.5v12.1h4.7
			c0.9,0,1.6-0.1,2.2-0.3c0.7-0.2,1.3-0.6,1.7-1c0.6-0.5,1-1.3,1.3-2.1c0.2-0.7,0.4-1.6,0.4-2.6C184.5,59.7,184.3,58.8,184.1,58z
			 M181.7,60.7c0,0.9-0.1,1.6-0.2,2.1c-0.2,0.5-0.3,0.9-0.6,1.1c-0.2,0.2-0.5,0.4-0.9,0.5c-0.3,0.1-0.8,0.1-1.4,0.1h-1.6V57h0.9
			c1,0,1.6,0,1.9,0.1c0.4,0.1,0.8,0.3,1,0.5c0.3,0.3,0.5,0.6,0.6,1.1C181.6,59.1,181.7,59.8,181.7,60.7z"/>
		<path class="st0" d="M141.3,62.2c-0.2,0.8-0.5,1.4-0.9,1.8c-0.4,0.4-0.9,0.6-1.5,0.6c-0.8,0-1.5-0.3-2-0.9
			c-0.5-0.6-0.8-1.6-0.8-3.1c0-1.4,0.3-2.3,0.8-2.9c0.5-0.6,1.2-0.9,2-0.9c0.6,0,1.1,0.2,1.5,0.5s0.7,0.8,0.8,1.4l0,0.2l2.7-0.6
			l0-0.2c-0.3-1-0.7-1.7-1.3-2.2c-0.9-0.9-2.2-1.3-3.6-1.3c-1.7,0-3.1,0.6-4.1,1.7c-1,1.1-1.6,2.7-1.6,4.7c0,1.9,0.5,3.4,1.6,4.5
			c1,1.1,2.4,1.7,4,1.7c1.3,0,2.4-0.3,3.2-1c0.9-0.6,1.5-1.6,1.8-3l0-0.2l-2.6-0.8L141.3,62.2z"/>
		<polygon class="st0" points="128.9,62.1 124.4,54.7 124.3,54.6 121.8,54.6 121.8,66.8 124.3,66.8 124.3,59.5 128.7,66.7 
			128.8,66.8 131.5,66.8 131.5,54.6 128.9,54.6 		"/>
		<polygon class="st0" points="96.4,59.1 93.7,54.6 90.5,54.6 94.9,61.7 94.9,66.8 97.7,66.8 97.7,61.7 102.1,54.6 99,54.6 		"/>
	</g>
</g>
</svg>
