<?xml version="1.0" encoding="UTF-8"?>
<svg enable-background="new 0 0 864 174.2" version="1.1" viewBox="0 0 864 174.2" xml:space="preserve" xmlns="http://www.w3.org/2000/svg">
<style type="text/css">
	.st0{fill:#282624;}
</style>
<path class="st0" d="m182 1.4h60.4c23.4 0.2 40.9 9.9 52.6 29.2 4.2 6.5 6.8 13.3 7.9 20.4 0.9 7.1 1.3 19.4 1.3 36.9 0 18.6-0.7 31.5-2 38.9-0.6 3.7-1.6 7-2.8 10-1.3 2.8-3 5.8-4.9 8.9-5.1 8.1-12.1 14.9-21.1 20.2-8.9 5.7-19.9 8.5-32.8 8.5h-58.6v-173zm26.2 148.1h31.3c14.7 0 25.4-5 32-15.1 2.9-3.7 4.8-8.4 5.6-14.1 0.7-5.6 1.1-16.1 1.1-31.5 0-15-0.4-25.8-1.1-32.2-0.9-6.5-3.2-11.7-6.8-15.8-7.3-10-17.5-14.9-30.8-14.6h-31.3v123.3z"/>
<path class="st0" d="m315.5 87.8c0-20.1 0.6-33.5 1.8-40.3 1.3-6.8 3.2-12.3 5.8-16.5 4.2-8 10.9-15.1 20.1-21.3 9.1-6.3 20.4-9.6 34-9.7 13.8 0.2 25.2 3.4 34.4 9.7 9.1 6.2 15.6 13.4 19.7 21.3 2.9 4.2 4.9 9.7 6 16.5 1 6.8 1.5 20.2 1.5 40.3 0 19.8-0.5 33.1-1.5 40.1-1.1 7-3.1 12.5-6 16.7-4 8-10.6 15-19.7 21.1-9.2 6.3-20.6 9.6-34.4 10-13.6-0.3-24.9-3.6-34-10-9.2-6.1-16-13.1-20.1-21.1-1.3-2.6-2.4-5.1-3.4-7.5-0.9-2.4-1.7-5.5-2.4-9.2-1.2-7-1.8-20.3-1.8-40.1zm26.3 0c0 17 0.6 28.5 1.9 34.5 1.1 6 3.4 10.9 6.8 14.6 2.8 3.6 6.4 6.4 10.9 8.7 4.4 2.6 9.7 3.9 15.9 3.9s11.7-1.3 16.2-3.9c4.3-2.2 7.8-5.1 10.4-8.7 3.4-3.7 5.7-8.6 7-14.6 1.2-6 1.8-17.5 1.8-34.5s-0.6-28.6-1.8-34.7c-1.3-5.8-3.6-10.6-7-14.3-2.6-3.6-6.1-6.5-10.4-8.9-4.6-2.3-10-3.5-16.2-3.7-6.2 0.2-11.5 1.4-15.9 3.7-4.5 2.4-8.1 5.3-10.9 8.9-3.4 3.7-5.6 8.5-6.8 14.3-1.3 6.2-1.9 17.7-1.9 34.7z"/>
<path class="st0" d="m532.7 112.4l-25-75.5h-0.5l-25 75.5h50.5zm7.4 23.2h-65.5l-13.3 38.6h-27.7l62.8-172.8h21.9l62.8 172.8h-27.6l-13.4-38.6z"/>
<path class="st0" d="m602.8 137.8c2.4 3.2 5.6 5.9 9.5 7.9 3.9 2.5 8.4 3.7 13.6 3.7 7 0.2 13.6-2.3 19.9-7.2 3.1-2.4 5.5-5.7 7.2-9.7 1.8-3.9 2.7-8.7 2.7-14.6v-116.5h26.3v119.1c-0.3 17.4-6 30.8-17.1 40.3-11 9.7-23.7 14.7-38.3 14.8-20.1-0.5-35-8-44.9-22.5l21.1-15.3z"/>
</svg>
