<?xml version="1.0" encoding="UTF-8"?>
<svg enable-background="new 0 0 411.7 52.2" version="1.1" viewBox="0 0 411.7 52.2" xml:space="preserve" xmlns="http://www.w3.org/2000/svg">
<style type="text/css">
	.st0{fill:#EA4335;}
	.st1{fill:#FBBC05;}
	.st2{fill:#4285F4;}
	.st3{fill:#34A853;}
	.st4{fill:#767676;}
</style>
		<path class="st0" d="m68.6 27.5c0 7.5-5.9 13-13.1 13s-13.1-5.5-13.1-13c0-7.6 5.9-13 13.1-13s13.1 5.4 13.1 13zm-5.8 0c0-4.7-3.4-7.9-7.4-7.9s-7.4 3.2-7.4 7.9c0 4.6 3.4 7.9 7.4 7.9s7.4-3.3 7.4-7.9z"/>
		<path class="st1" d="m96.8 27.5c0 7.5-5.9 13-13.1 13s-13.1-5.5-13.1-13c0-7.6 5.9-13 13.1-13s13.1 5.4 13.1 13zm-5.7 0c0-4.7-3.4-7.9-7.4-7.9s-7.4 3.2-7.4 7.9c0 4.6 3.4 7.9 7.4 7.9s7.4-3.3 7.4-7.9z"/>
		<path class="st2" d="m123.8 15.2v23.4c0 9.6-5.7 13.6-12.4 13.6-6.3 0-10.1-4.2-11.6-7.7l5-2.1c0.9 2.1 3.1 4.6 6.6 4.6 4.3 0 7-2.7 7-7.6v-1.9h-0.2c-1.3 1.6-3.8 3-6.9 3-6.5 0-12.5-5.7-12.5-13 0-7.4 6-13.1 12.5-13.1 3.1 0 5.6 1.4 6.9 2.9h0.2v-2.1h5.4zm-5 12.3c0-4.6-3.1-7.9-7-7.9-4 0-7.3 3.4-7.3 7.9s3.3 7.9 7.3 7.9c3.9 0 7-3.3 7-7.9z"/>
		<path class="st3" d="m132.8 1.5v38.2h-5.6v-38.2h5.6z"/>
		<path class="st0" d="m154.6 31.8l4.4 3c-1.4 2.1-4.9 5.8-10.9 5.8-7.4 0-12.9-5.7-12.9-13 0-7.8 5.6-13 12.3-13 6.8 0 10.1 5.4 11.2 8.3l0.6 1.5-17.4 7.2c1.3 2.6 3.4 4 6.3 4 2.9-0.2 4.9-1.7 6.4-3.8zm-13.7-4.7l11.7-4.8c-0.6-1.6-2.6-2.8-4.8-2.8-3 0-7.1 2.5-6.9 7.6z"/>
		<path class="st2" d="m21.3 24.1v-5.5h18.6c0.2 1 0.3 2.1 0.3 3.3 0 4.2-1.1 9.3-4.8 12.9-3.6 3.7-8.1 5.7-14.1 5.7-11.2 0-20.5-9.1-20.5-20.2s9.3-20.3 20.5-20.3c6.2 0 10.6 2.4 13.9 5.6l-3.9 3.9c-2.4-2.2-5.6-4-10-4-8.1 0-14.5 6.6-14.5 14.7s6.3 14.8 14.5 14.8c5.3 0 8.3-2.1 10.2-4.1 1.6-1.6 2.6-3.8 3-6.8h-13.2z"/>
		<path class="st4" d="m176.7 39.7h-5l13.1-34.9h5.1l13.1 34.9h-5l-3.4-9.4h-14.7l-3.2 9.4zm10.6-29.3l-5.7 15.7h11.6l-5.7-15.7h-0.2z"/>
		<path class="st4" d="m216.8 40.5c-3.5 0-6.5-1.2-8.8-3.6-2.3-2.5-3.5-5.5-3.5-9.1 0-3.7 1.2-6.7 3.5-9.1s5.3-3.6 8.8-3.6c2.4 0 4.6 0.6 6.4 1.8s3.2 2.9 4.1 5l-4.1 1.7c-1.3-3-3.5-4.5-6.7-4.5-2 0-3.8 0.8-5.3 2.5s-2.2 3.7-2.2 6.1 0.7 4.5 2.2 6.1c1.5 1.7 3.3 2.5 5.3 2.5 3.3 0 5.6-1.5 6.9-4.5l4 1.7c-0.9 2.1-2.2 3.8-4.1 5-1.8 1.4-4 2-6.5 2z"/>
		<path class="st4" d="m240.8 15.1c3.3 0 5.9 0.9 7.8 2.7s2.9 4.2 2.9 7.3v14.7h-4.3v-3.3h-0.2c-1.9 2.7-4.3 4.1-7.4 4.1-2.6 0-4.8-0.8-6.6-2.3-1.8-1.6-2.7-3.5-2.7-5.8 0-2.5 0.9-4.4 2.8-5.9s4.4-2.2 7.5-2.2c2.7 0 4.9 0.5 6.6 1.5v-1c0-1.6-0.6-2.9-1.9-4-1.2-1.1-2.7-1.6-4.3-1.6-2.5 0-4.5 1.1-5.9 3.2l-3.9-2.5c2.1-3.3 5.3-4.9 9.6-4.9zm-5.8 17.3c0 1.2 0.5 2.1 1.5 2.9s2.2 1.2 3.5 1.2c1.9 0 3.6-0.7 5-2.1 1.5-1.4 2.2-3 2.2-4.9-1.4-1.1-3.3-1.7-5.8-1.7-1.8 0-3.3 0.4-4.6 1.3-1.2 1-1.8 2-1.8 3.3z"/>
		<path class="st4" d="m266.8 40.5c-3.1 0-5.8-1.2-8-3.7s-3.3-5.5-3.3-9 1.1-6.5 3.3-9 4.9-3.7 8-3.7c1.8 0 3.4 0.4 4.8 1.1s2.6 1.7 3.3 3h0.2l-0.2-3.3v-11h4.5v34.9h-4.3v-3.3h-0.2c-0.8 1.2-1.9 2.2-3.3 3-1.5 0.6-3.1 1-4.8 1zm0.7-4.1c2.2 0 4-0.8 5.4-2.4 1.5-1.6 2.2-3.7 2.2-6.2s-0.7-4.6-2.2-6.2c-1.4-1.6-3.2-2.4-5.4-2.4-2.1 0-3.9 0.8-5.4 2.4s-2.2 3.7-2.2 6.2 0.7 4.6 2.2 6.2 3.3 2.4 5.4 2.4z"/>
		<path class="st4" d="m295.8 40.5c-3.5 0-6.4-1.2-8.7-3.6s-3.4-5.4-3.4-9.1c0-3.6 1.1-6.7 3.3-9.1s5-3.6 8.5-3.6 6.4 1.1 8.4 3.4c2.1 2.3 3.1 5.5 3.1 9.6v0.5h-18.7c0.1 2.3 0.8 4.2 2.3 5.6s3.3 2.1 5.4 2.1c2.9 0 5.1-1.4 6.7-4.3l4 1.9c-1.1 2-2.6 3.6-4.5 4.7-1.9 1.4-4 1.9-6.4 1.9zm-7.2-15.6h13.7c-0.1-1.7-0.8-3-2-4.1s-2.8-1.6-4.9-1.6c-1.7 0-3.1 0.5-4.4 1.6-1.2 1-2 2.4-2.4 4.1zm11.9-20l-3.5 6.2h-3.9l2.5-6.2h4.9z"/>
		<path class="st4" d="m315.8 39.7h-4.5v-23.8h4.3v3.3h0.2c0.7-1.2 1.7-2.1 3.1-2.9s2.8-1.2 4.2-1.2c1.8 0 3.3 0.4 4.6 1.2s2.3 1.9 2.9 3.4c2-3.1 4.7-4.6 8.2-4.6 2.8 0 4.9 0.8 6.4 2.5s2.2 4.1 2.2 7.2v14.9h-4.5v-14.2c0-2.2-0.4-3.9-1.2-4.8-0.8-1-2.2-1.5-4.1-1.5-1.7 0-3.2 0.7-4.3 2.2-1.2 1.5-1.8 3.2-1.8 5.2v13.2h-4.5v-14.3c0-2.2-0.4-3.9-1.2-4.8-0.8-1-2.2-1.5-4.1-1.5-1.7 0-3.2 0.7-4.3 2.2-1.2 1.5-1.8 3.2-1.8 5.2v13.1z"/>
		<path class="st4" d="m358.5 7.6c0 0.9-0.3 1.6-0.9 2.2s-1.4 0.9-2.2 0.9c-0.9 0-1.6-0.3-2.2-0.9s-0.9-1.4-0.9-2.2 0.3-1.6 0.9-2.2 1.4-0.9 2.2-0.9c0.9 0 1.6 0.3 2.2 0.9 0.5 0.6 0.9 1.4 0.9 2.2zm-1 8.3v23.9h-4.5v-23.9h4.5z"/>
		<path class="st4" d="m374.1 40.5c-3.5 0-6.5-1.2-8.8-3.6-2.3-2.5-3.5-5.5-3.5-9.1 0-3.7 1.2-6.7 3.5-9.1s5.3-3.6 8.8-3.6c2.4 0 4.6 0.6 6.4 1.8s3.2 2.9 4.1 5l-4.1 1.7c-1.3-3-3.5-4.5-6.7-4.5-2 0-3.8 0.8-5.3 2.5s-2.2 3.7-2.2 6.1 0.7 4.5 2.2 6.1c1.5 1.7 3.3 2.5 5.3 2.5 3.3 0 5.6-1.5 6.9-4.5l4 1.7c-0.9 2.1-2.2 3.8-4.1 5-1.9 1.4-4 2-6.5 2z"/>
		<path class="st4" d="m387.2 27.8c0-3.7 1.2-6.7 3.5-9.1s5.3-3.6 8.8-3.6 6.5 1.2 8.8 3.6 3.5 5.4 3.5 9.1-1.2 6.7-3.5 9.1-5.2 3.6-8.8 3.6c-3.5 0-6.5-1.2-8.8-3.6-2.4-2.4-3.5-5.4-3.5-9.1zm4.5 0c0 2.6 0.7 4.6 2.2 6.2s3.3 2.4 5.6 2.4c2.2 0 4.1-0.8 5.6-2.4s2.2-3.7 2.2-6.2-0.7-4.6-2.2-6.2-3.4-2.4-5.6-2.4-4 0.8-5.6 2.4c-1.5 1.6-2.2 3.7-2.2 6.2z"/>
</svg>
