<?xml version="1.0" encoding="utf-8"?>
<svg version="1.1" id="Capa_1" xmlns="http://www.w3.org/2000/svg" xmlns:xlink="http://www.w3.org/1999/xlink" x="0px" y="0px"
	 viewBox="0 0 1920 260" style="enable-background:new 0 0 1920 260;" xml:space="preserve">
<style type="text/css">
	.st0{fill:url(#SVGID_1_);}
	.st1{fill:url(#SVGID_2_);}
</style>
<g>
	<linearGradient id="SVGID_1_" gradientUnits="userSpaceOnUse" x1="1883.8209" y1="9.7706" x2="1922.0968" y2="9.6165">
		<stop  offset="0" style="stop-color:#FDFFF0"/>
		<stop  offset="6.913787e-02" style="stop-color:#E7FFE0"/>
		<stop  offset="0.3375" style="stop-color:#DAF5CC"/>
		<stop  offset="0.5899" style="stop-color:#D7E6BA"/>
		<stop  offset="0.8179" style="stop-color:#C0E6A3"/>
		<stop  offset="1" style="stop-color:#A7E6FF"/>
	</linearGradient>
	<path class="st0" d="M1920,18.1c-11.3-6-22.5-12-33.8-18.1h-2.5c12,6.5,24.2,13,36.3,19.4V18.1z"/>
	<linearGradient id="SVGID_2_" gradientUnits="userSpaceOnUse" x1="3.6836" y1="133.8947" x2="2033.3925" y2="125.7268">
		<stop  offset="0" style="stop-color:#E9FFF5"/>
		<stop  offset="6.913787e-02" style="stop-color:#DAEEF5"/>
		<stop  offset="0.3375" style="stop-color:#F0F2D2"/>
		<stop  offset="0.5899" style="stop-color:#CDEEF5"/>
		<stop  offset="0.8179" style="stop-color:#F0F2F5"/>
		<stop  offset="1" style="stop-color:#91BCFF"/>
	</linearGradient>
	<path class="st1" d="M1904.5,214.2c1.1-0.9,1.8-2.2,1.7-3.6c-0.1-2.4-2.3-4.3-5.1-4c-0.6,0-1.1,0.2-1.6,0.4
		c-9.2-15.2-18.3-30.3-27.3-45.6c1.3-0.9,2.1-2.3,2.1-3.8c0-1.1-0.5-2.1-1.3-2.8c15.8-18,31.5-36.1,47-54.4v-3.3
		c-18,17.3-36.1,34.5-54.4,51.4c-16.1-33.6-32.1-67.3-47.9-101c0.6-0.3,1.1-0.8,1.5-1.4c33.4,14.6,67,28.7,100.8,42.2V87
		c-33.6-13.5-67.1-27.4-100.3-41.9c0.2-0.4,0.3-0.9,0.3-1.4c23.6-3.2,47.2-6.6,70.7-10.2c9.7,15.5,19.5,31,29.3,46.5v-2.3
		c-9.4-14.8-18.7-29.6-28-44.4c9.3-1.4,18.6-2.9,28-4.5v-1.2c-9.5,1.6-19.1,3.1-28.6,4.6c-7.1-10.6-13.8-21.4-20.4-32.2h-1.4
		c6.7,10.9,13.4,21.7,20.1,32.6c-23.1,3.5-46.2,6.9-69.3,10c11.3-14.1,22.5-28.3,33.6-42.5h-1.5c-11,14.1-22,28.1-33.2,42
		c-0.7-1.6-2.5-2.7-4.5-2.6c-2,0.1-3.6,1.3-4.3,3c-31.1-6.1-62-12.6-92.9-19.6c0-0.1,0-0.2,0-0.3c0-0.2,0-0.4-0.1-0.5
		c32.7-6.9,65.3-14.2,97.8-22h-4.9c-31,7.4-62,14.3-93.2,20.9c-0.7-1.7-2.3-2.9-4.2-2.9c-2.5,0-4.5,2-4.5,4.5c0,1,0.3,1.9,0.9,2.7
		c-18.6,20.3-37.5,40.4-56.6,60.2c-0.7-0.5-1.6-0.7-2.6-0.7c-2,0-3.7,1.2-4.5,2.8c-22.4-5.2-44.7-10.6-67-16.2c0-0.2,0-0.3,0.1-0.5
		c0.1-2.4-1.9-4.4-4.5-4.5c-2.3,0-4.4,1.5-4.8,3.7c-35.9-22.6-71.4-46-106.4-70h-2c34.8,23.9,70.1,47.2,105.9,69.8
		c-37.6-4.3-75.2-9.1-112.6-14.6c-8.2-18.4-16.4-36.7-24.4-55.2h-1.3c8,18.3,16.1,36.7,24.3,55c-15-2.2-30.1-4.6-45.1-7
		c0.1-2.1-1.3-3.9-3.3-4.4c2.2-14.5,4.3-29,6.3-43.5h-1.2c-2.1,14.5-4.2,28.9-6.3,43.3c-2.4,0-4.4,1.8-4.6,4.1c0,0.1,0,0.2,0,0.3
		c-36.3,4.2-72.6,8-109,11.1c-0.1-0.4-0.2-0.8-0.4-1.1c27.6-18.8,54.9-38.1,82-57.7h-1.9c-26.6,19.3-53.5,38.3-80.7,56.8
		c-0.7-0.7-1.7-1.3-2.8-1.4c-1-0.1-2,0.1-2.9,0.6c-13.1-16.3-26.1-32.7-39-49.1c0.7-0.7,1.2-1.5,1.3-2.6c0.2-1.8-0.6-3.4-2.1-4.3
		h-4.7c-0.5,0.3-1,0.7-1.3,1.2c-0.8-0.4-1.6-0.8-2.4-1.2h-2.5c1.4,0.7,2.9,1.5,4.3,2.2c-0.1,0.3-0.2,0.6-0.2,0.9c0,0.3,0,0.6,0,0.8
		c-8.2,1.5-12.3,2.3-20.4,3.7c-2.5-2.6-4.9-5.1-7.4-7.7h-1.6c2.5,2.7,5.1,5.3,7.6,8c-35.3,6.2-70.7,11.9-106.1,17.1
		c-0.1-0.3-0.2-0.5-0.3-0.8c12.1-8,24.1-16.1,36.1-24.3h-2c-11.5,7.8-23.1,15.6-34.7,23.3c-0.7-0.7-1.6-1.2-2.6-1.4
		c-1.1-0.2-2.1,0-3,0.5c-3.1-4-4.6-5.9-7.7-9.9c9.7-4.1,19.4-8.3,29.1-12.5h-2.8c-9,3.9-17.9,7.8-27,11.6c-3-3.9-5.9-7.7-8.9-11.6
		h-1.4c3.1,4,6.1,8.1,9.2,12.1c-19.1,8-38.2,15.9-57.4,23.6c-0.2-0.5-0.5-0.9-0.9-1.3c8.4-11.4,16.6-22.9,24.9-34.3h-1.4
		c-8.1,11.3-16.2,22.5-24.4,33.6c-0.4-0.3-0.9-0.4-1.4-0.5c-2.3-0.4-4.5,0.8-5.2,2.9c-20.1-5.8-40.2-11.7-60.2-17.8
		c0-0.1,0.1-0.2,0.1-0.3c0.6-2.3-1-4.7-3.4-5.2c-1.6-0.3-3.2,0.2-4.2,1.2c-0.8,0.7-1.3,1.8-1.5,2.8c-25.5,0.8-51.1,1.3-76.6,1.6
		c-0.1-0.4-0.2-0.9-0.4-1.3c-1.1-2.2-3.8-3.1-6-2.1c-1.7,0.8-2.6,2.4-2.6,4.1c-5,1.2-7.5,1.8-12.6,3.1
		c-23.3,5.6-46.7,10.9-70.2,16.1c-1.1-2.2-3.7-3.1-6-2.1c-2.3,1-3.3,3.6-2.3,5.8c0.3,0.6,0.7,1.2,1.3,1.6
		c-13.3,19.6-26.7,39.2-40.3,58.6c-1.2-0.5-2.6-0.6-3.8-0.1c-6.5-10.2-12.9-20.5-19.2-30.8c0.6-0.8,1-1.7,1-2.7c0-2.5-2-4.5-4.5-4.5
		c-2.5,0-4.5,2-4.5,4.5c0,0.5,0.1,0.9,0.2,1.4c-27.9,15.4-56,30.4-84.3,45c-1.2-1.6-3.5-2.3-5.5-1.5c-1.1,0.4-1.9,1.1-2.4,2
		c-18.4-7-36.7-14.1-55-21.4c0.2-0.9,0.2-1.8-0.1-2.7c-0.9-2.3-3.6-3.5-6-2.7c-1.1,0.4-2,1.1-2.5,2.1c-30.1-10.9-60-22.1-89.8-33.7
		c0.2-0.8,0.2-1.7-0.1-2.5c-0.8-2.3-3.5-3.6-5.9-2.8c-2.4,0.8-3.7,3.3-2.9,5.6c0.3,0.9,0.9,1.7,1.7,2.2
		c-10,17.6-20.2,35.2-30.4,52.8c-1-0.4-2.1-0.4-3.2-0.1c-2.2,0.6-3.5,2.6-3.2,4.7c-50.4,11-101,20.8-151.8,29.5
		c0.1,0.2,0.1,0.3,0.1,0.6c-0.5-1.5-1.7-2.6-3.2-3.1c3.6-18.6,7.1-37.2,10.7-55.8c0.5,0,1,0,1.5-0.1c2.5-0.6,3.9-3,3.2-5.4
		c-0.7-2.4-3.3-3.8-5.8-3.2c-1.5,0.4-2.6,1.4-3.1,2.6c-42.5-10.9-84.9-22.5-127-35c0.1-0.5,0-1.1-0.1-1.6c-0.5-1.8-2-3.1-3.8-3.4
		c1-13.9,2-27.8,3.1-41.7h-1.2c-1,13.9-2.1,27.8-3.1,41.7c-0.2,0-0.5,0-0.7,0.1c-0.9,0.2-1.6,0.6-2.2,1.1
		c-16.4-12-32.6-24-48.8-36.2c6.1-2.8,12.2-5,18.3-7.2h-3.4c-5.3,1.9-10.7,3.9-16,5.8C86,3.9,83.5,1.9,81,0h-1.9
		c2.7,2.1,5.4,4.2,8.1,6.2c-28.9,10.2-58,20-87.2,29.4v1.2C29.6,27.3,59,17.3,88.3,7c16.4,12.4,32.8,24.6,49.4,36.7
		c-0.3,0.5-0.5,1-0.6,1.5C91.4,44.3,45.7,42.5,0,39.8V41c44.9,2.6,89.9,4.4,134.9,5.4c-19.7,2.9-39.4,5.7-59.1,8.3
		c-0.7-2.2-3.2-3.6-5.6-3.2c-1.7,0.3-3,1.5-3.5,3C44.4,50.4,22.2,46,0,41.5v1.1c22.1,4.5,44.3,8.8,66.5,12.9c0,0.4,0,0.7,0.1,1.1
		c0.2,0.7,0.5,1.3,1,1.9c-9.7,9.3-19.5,18.6-29.3,27.9C25.5,74.2,12.7,61.9,0,49.5v1.6c12.4,12.1,24.9,24.1,37.5,36
		C25.1,98.8,12.6,110.4,0,121.9v1.7C12.9,111.8,25.7,99.9,38.4,88c6.4,6,12.7,12,19.1,17.9c-0.8,1-1.1,2.3-0.8,3.6
		c0.1,0.2,0.2,0.5,0.3,0.7c-18.9,9.3-37.9,18.4-57,27.4v1.3c19.3-9.1,38.5-18.3,57.6-27.7c0.6,0.7,1.3,1.2,2.1,1.5
		c-4.7,18.4-9.3,36.7-14,55.1c-15.3-2.5-30.5-5-45.7-7.7v1.2c15.1,2.6,30.3,5.2,45.5,7.7c-3.9,15.3-7.8,30.7-11.6,46
		c-0.5-0.1-1.1-0.1-1.6,0c-0.7,0.1-1.4,0.4-1.9,0.7C20.1,206.3,10,196.9,0,187.4v1.6c9.7,9.2,19.5,18.4,29.4,27.5
		c-0.9,1-1.2,2.3-0.8,3.7c0.6,2.4,3.3,4,6,3.6c0.6-0.1,1.1-0.3,1.5-0.5c11.1,12.3,22.4,24.5,33.7,36.7h1.6
		c-11.5-12.4-22.9-24.9-34.3-37.4c0.6-0.5,1-1.2,1.2-2c14.6,1.9,29.3,3.8,44,5.5c-1,11.3-2,22.6-3,33.9h1.3c1-11.3,2-22.5,3-33.7
		c10.7,1.2,21.3,2.4,32,3.6c0,0.3,0.1,0.6,0.2,0.9c0.2,0.7,0.6,1.3,1.1,1.8c-9.6,9.2-19.3,18.3-28.9,27.4h1.8
		c8.7-8.2,17.4-16.4,26-24.7c-6.1,8.3-12.2,16.5-18.3,24.7H99c6.5-8.7,13-17.5,19.4-26.2c0.9,0.4,1.8,0.6,2.8,0.5
		c2.7,8.6,5.4,17.2,8.1,25.7h1.3c-2.7-8.7-5.5-17.3-8.1-26c0.4-0.1,0.8-0.3,1.1-0.5c9.7,8.9,19.5,17.7,29.3,26.5h1.8
		c-10.1-9.1-20.1-18.1-30.1-27.3c0.3-0.4,0.6-0.8,0.8-1.3c31.1,6.4,62.3,12.3,93.5,18c0,0.4,0.1,0.9,0.2,1.3
		c0.4,1.2,1.3,2.2,2.4,2.8c-0.9,2.2-1.9,4.4-2.9,6.5h1.4c0.9-2,1.8-4,2.7-6.1c0.2,0,0.3,0.1,0.5,0.1c0,2,0,4,0,6h1.3
		c0-2,0-3.9,0-5.9c0.3,0,0.5-0.1,0.8-0.1c1.2-0.3,2.2-0.9,2.8-1.8c5.2,2.6,10.4,5.2,15.6,7.8h2.6c-5.9-2.9-11.8-5.9-17.6-8.9
		c0.3-0.8,0.3-1.7,0-2.5c-0.2-0.5-0.4-0.9-0.7-1.3c19.3-15.1,38.6-30.3,57.6-45.8c0.2,0.1,0.3,0.2,0.5,0.4
		c-10,19.4-20.2,38.8-30.4,58.1h1.4c10.1-19.2,20.2-38.4,30.1-57.6c0.7,0.2,1.5,0.3,2.3,0.2c6.4,19.2,13,38.3,19.7,57.4h1.3
		c-6.7-19.2-13.3-38.4-19.8-57.7c0.4-0.2,0.8-0.4,1.2-0.6c21.6,18.4,43.4,36.5,65.5,54.4c-1.1,1.3-2.2,2.6-3.2,3.9h1.6
		c0.9-1,1.7-2.1,2.6-3.1c1.3,1,2.6,2.1,3.9,3.1h1.9c-1.7-1.3-3.4-2.7-5-4c16.5-20.1,32.8-40.3,48.9-60.6c0.4,0.2,0.9,0.3,1.3,0.4
		c-0.2,6.9-0.4,10.4-0.6,17.3c-0.5,15.7-1,31.3-1.5,47h1.3c0.5-15.4,0.9-30.8,1.4-46.2c0.2-7.2,0.4-10.9,0.6-18.1
		c0.3,0,0.6-0.1,0.9-0.2c0.9-0.2,1.6-0.7,2.2-1.3c12.4,6.6,24.9,13.1,37.4,19.5c-8.4,15.5-16.9,30.9-25.4,46.2h1.4
		c8.4-15.2,16.8-30.4,25.1-45.7c10.8,5.5,21.6,11,32.4,16.4c-0.4,1-0.5,2.1,0,3.1c0.1,0.3,0.3,0.6,0.5,0.9
		c-10.9,8.5-21.8,16.9-32.8,25.3h2c10.6-8.1,21.2-16.2,31.7-24.4c1.3,1.1,3.2,1.5,4.9,1c0.6-0.2,1-0.4,1.5-0.7
		c9.5,8.1,19.1,16.1,28.6,24.1h1.8c-9.9-8.3-19.8-16.6-29.6-25c0.2-0.3,0.4-0.6,0.6-0.9c28.6,7.5,57.3,14.6,86,21.4
		c0,0.4,0,0.8,0,1.1c-4.6,1.1-9.3,2.2-13.9,3.3h5c3.1-0.7,6.2-1.5,9.3-2.2c0.5,1,1.3,1.7,2.3,2.2h4.6c2.1-1,3.1-3.3,2.2-5.4
		c0-0.1-0.1-0.2-0.1-0.3c32.2-18.6,64.1-37.6,95.8-57.2c0.3,0.3,0.6,0.6,1,0.8c-10.7,20.8-21.5,41.5-32.4,62.1h1.4
		c10.8-20.5,21.5-41,32.1-61.6c1.1,0.3,2.2,0.3,3.3-0.1c1-0.4,1.8-1,2.3-1.9c21,8.1,42,16,63.1,23.7c-0.2,0.9-0.2,1.9,0.3,2.9
		c1.1,2.2,3.9,3.3,6.4,2.3c1.7-0.7,2.7-2.2,2.8-3.7c20.6-1.2,41.2-2.5,61.7-4.1c0.1,0.3,0.2,0.6,0.3,0.9c1.1,2.2,4,3.2,6.4,2.2
		c2.4-1,3.4-3.7,2.3-5.9c-0.1-0.2-0.2-0.3-0.3-0.5c28.3-21.6,56.2-43.6,83.9-66c1.4,1.2,3.5,1.5,5.2,0.6c2.3-1.1,3.3-3.7,2.1-5.9
		c-0.8-1.4-2.2-2.3-3.8-2.4c-0.8-19.5-1.6-39.1-2.5-58.6c0.5-0.1,1-0.2,1.5-0.4c2.1-1,3-3.3,2.3-5.4c11.6-4.4,23.1-8.8,34.7-13.4
		c1.4,0.2,2.8-0.3,3.8-1.2c20.5,15.2,41.1,30.3,61.9,45.1c-0.2,0.4-0.4,0.8-0.5,1.3c-0.5,2.4,1.1,4.7,3.6,5.2
		c1.9,0.4,3.7-0.4,4.7-1.8c4.9,1.9,7.3,2.9,12.2,4.8c22.8,8.9,45.6,17.6,68.6,26c-0.4,2.3,1.3,4.6,3.8,5s5-1.2,5.4-3.6
		c0.1-0.7,0.1-1.4-0.1-2c22.8-9.2,45.6-18.7,68.2-28.3c0.7,1,2.3,1.6,3.2,2c-0.3,11.7-0.5,23.3-0.8,35c-2,0.4-3.5,2.2-3.5,4.4
		c0,2.5,2,4.5,4.5,4.5c2.1,0,3.8-1.4,4.3-3.3c33.1,0.4,66.1,0.4,99.2,0c0.3,1.9,1.9,3.5,4.1,3.7c1.1,0.1,2.2-0.2,3.1-0.7
		c12.9,14.1,25.8,28,38.9,41.9c-0.6,0.7-1.1,1.5-1.2,2.5c-0.3,2.4,1.6,4.6,4.2,4.8c1.2,0.1,2.4-0.2,3.3-0.9
		c18.4,17.8,37,35.5,55.8,52.9h1.8c-19.1-17.7-37.9-35.6-56.6-53.7c0.6-0.6,1-1.4,1.1-2.3c0.1-0.5,0-0.9-0.1-1.4
		c14.2-4.7,28.5-9.4,42.6-14.2c7.4,23.9,15,47.8,22.6,71.6h1.3c-7.6-24-15.2-48-22.7-72c22.6-7.8,45.1-15.7,67.6-23.9
		c0.5,0.8,1.2,1.4,2,1.8c-12.1,31.5-24.7,62.9-37.5,94.1h1.3c12.8-31.1,25.3-62.4,37.4-93.8c0.2,0,0.4,0.1,0.6,0.1
		c0.3,0,0.5,0,0.7,0c3.9,17.2,7.8,34.4,11.7,51.7c-14.1,14.1-28.4,28.1-42.8,42.1h1.7c13.9-13.5,27.7-27,41.4-40.7
		c0.7,2.9,1,4.4,1.7,7.3c-1.8,0.6-3.1,2.1-3.3,3.9c-0.1,1,0.2,1.9,0.7,2.6c-12.3,9-24.6,18-37,26.9h2c12-8.6,23.9-17.3,35.8-26
		c0.8,0.7,1.8,1.1,3,1.2c2.3,0.1,4.4-1.3,5.1-3.3c52.8,5.8,105.7,10.5,158.7,14c0-0.2,0-0.3,0.1-0.6c-0.1,1.5,0.7,2.9,2,3.7
		c-2.2,3.7-4.5,7.4-6.7,11h1.4c2.1-3.5,4.3-7,6.4-10.5c0.5,0.2,1,0.2,1.6,0.2c2.7,0,5-2,5.1-4.4c0-0.6-0.1-1.1-0.3-1.6
		c15.3-8.2,30.6-16.5,45.8-24.8c0,0,0,0,0.1,0.1c-13.7,13.8-27.5,27.5-41.5,41.1h1.7c13.7-13.3,27.2-26.8,40.7-40.3
		c0.8,0.5,1.7,0.7,2.7,0.7c0.2,0,0.4,0,0.5,0c3.2,13.2,6.4,26.4,9.6,39.6h1.3c-3.2-13.3-6.4-26.6-9.7-39.9c0.7-0.3,1.4-0.7,1.9-1.2
		c16.5,10.3,33.1,20.4,49.8,30.5c-0.4,0.6-0.6,1.3-0.6,2.1c0,0.4,0,0.7,0.1,1.1c-6.7,2.5-13.3,5-20,7.5h3.2
		c5.8-2.2,11.5-4.3,17.2-6.5c0.6,1,1.7,1.8,3,2c-0.2,1.5-0.5,3-0.8,4.4h1.3c0.2-1.4,0.5-2.9,0.7-4.3c0.5,0,0.9-0.1,1.4-0.2
		c0.7,1.5,1.5,3,2.2,4.6h1.4c-0.8-1.7-1.6-3.4-2.4-5.1c0.2-0.1,0.4-0.2,0.6-0.4c2.2,1.8,4.4,3.6,6.5,5.4h1.9
		c-2.5-2.1-5.1-4.2-7.6-6.3c0.6-0.8,1-1.7,1-2.7c0-1.1-0.4-2.1-1.2-2.9c16.6-17.4,33.1-35,49.5-52.7c0.8,0.4,1.7,0.7,2.7,0.6
		c0.1,0,0.2,0,0.3,0c4.4,21.3,8.8,42.6,13.1,63.9h1.3c-0.5-2.5-1-5-1.5-7.6c0.9,1,2.2,1.6,3.7,1.6c0.3,2,0.5,4,0.8,6h1.3
		c-0.3-2-0.5-4.1-0.8-6.1c1.5-0.4,2.7-1.3,3.4-2.5c10.8,2.9,21.5,5.8,32.3,8.6h4.7c-0.3-0.1-0.5-0.1-0.8-0.2
		c7.8-14.8,15.5-29.5,23.2-44.4c0.5,0.1,1,0.2,1.6,0.1c0.7-0.1,1.4-0.3,2.1-0.6c5.5,7.1,11,14.2,16.5,21.3v-2.1
		C1914.8,227.5,1909.7,220.8,1904.5,214.2z M1898.1,207.6c-0.7,0.5-1.3,1.1-1.7,1.9c-13.9-3.1-27.8-6.3-41.7-9.6
		c4.5-12.5,9-25,13.5-37.5c0.3,0,0.7,0,1,0c0.6,0,1.1-0.2,1.6-0.4C1879.8,177.3,1888.9,192.5,1898.1,207.6z M1822.8,189.5
		c14.3-9.4,28.5-18.8,42.6-28.3c0.4,0.4,0.9,0.7,1.5,1c-4.5,12.5-8.9,25-13.5,37.5c-10.1-2.4-20.1-4.9-30.2-7.3
		c0.1-0.3,0.1-0.6,0.1-0.9C1823.3,190.7,1823.1,190.1,1822.8,189.5z M1919.3,99.1c-15.7,18.5-31.5,36.9-47.6,55.1
		c-0.8-0.4-1.7-0.6-2.7-0.6c-0.4,0-0.8,0.1-1.2,0.2c-0.8-1.7-1.2-2.5-2-4.2C1883.7,132.9,1901.6,116.1,1919.3,99.1z M1866.6,154.3
		c-1.5,0.9-2.4,2.4-2.4,4c0,0.7,0.2,1.4,0.5,1.9c-13.3,9-26.7,17.9-40.1,26.7c13.5-12.1,26.8-24.2,40.1-36.4
		C1865.5,152,1865.8,152.8,1866.6,154.3z M1811.6,47.1c-15.9,20.8-31.9,41.4-48.2,61.8c-4.8-7.3-7.2-10.9-11.9-18.2
		c1.1-0.8,1.8-2.1,1.8-3.5c0-0.7-0.2-1.3-0.5-1.9c6.6-4.2,9.9-6.4,16.5-10.6c14.1-9.2,28.1-18.4,42.1-27.8
		C1811.4,46.9,1811.5,47,1811.6,47.1z M1727.7,152c6.8-20,13.5-40.1,20-60.3c0.3,0,0.5,0,0.8,0c0.7,0,1.3-0.2,1.9-0.4
		c4.9,7.4,7.3,11.1,12.2,18.5c-11.4,14.2-22.9,28.3-34.5,42.3C1727.9,152.1,1727.8,152,1727.7,152z M1729.6,158.3
		c27.9,11.1,55.9,21.9,84.1,32.3c-0.1,0.4-0.2,0.9-0.2,1.3c0,0.1,0,0.2,0,0.3c-22.5,5.1-45,10.1-67.6,14.8
		c-6.1-15.7-12.1-31.4-18.2-47.1C1728.5,159.5,1729.1,159,1729.6,158.3z M1743.8,88.1c0.1,0.9,0.5,1.7,1.1,2.3
		c-14.1,15-28.3,30-42.7,44.8c-16.2-14.4-32.3-28.8-48.3-43.4c0.5-0.6,0.8-1.3,0.9-2.1C1684.5,89.5,1714.2,88.9,1743.8,88.1z
		 M1655,88.5c26.3-6.6,52.6-13.5,78.8-20.7c3.6,7.6,5.5,11.5,9.1,19.1C1713.5,87.8,1684.2,88.3,1655,88.5z M1721.6,153.8
		c-0.5,0.7-0.8,1.5-0.8,2.4c0,0.5,0.1,1,0.2,1.4c-23.4,10.8-46.8,21.5-70.4,31.9c-0.1-0.2-0.2-0.3-0.4-0.5
		c17.6-17.3,34.9-34.7,52-52.2C1709.9,143.6,1713.8,147,1721.6,153.8z M1651.3,190.5c23.6-10.3,47.1-20.9,70.5-31.7
		c0.2,0.2,0.3,0.4,0.5,0.6c-12.9,15.9-26,31.8-39.2,47.5c-10.7-4.5-21.3-9-32-13.6c0.2-0.4,0.3-0.9,0.3-1.3
		C1651.5,191.4,1651.4,190.9,1651.3,190.5z M1703.1,135.9c14.4-14.8,28.6-29.8,42.7-44.8c0.2,0.1,0.5,0.3,0.7,0.4
		c-6.6,20.1-13.2,40.2-20.1,60.3c-0.3,0-0.5-0.1-0.8,0c-1.2,0-2.4,0.5-3.3,1.2C1714.7,146.1,1710.8,142.7,1703.1,135.9z
		 M1810.6,45.7c0,0.1,0.1,0.1,0.1,0.2c-19.4,13-38.9,25.8-58.6,38.4c-0.9-0.9-2.2-1.5-3.6-1.4c-2.2,0.1-4.1,1.5-4.6,3.5
		c-3.6-7.5-5.4-11.3-9-18.9C1760.2,60.5,1785.4,53.2,1810.6,45.7z M1717.4,24c30.8,6.9,61.8,13.4,92.8,19.5c0,0.2,0,0.4,0,0.6
		c0,0.2,0,0.4,0.1,0.6c-25.2,7.5-50.5,14.8-75.8,21.9c-6.4-13.4-12.7-26.8-19-40.2C1716.4,25.9,1717.1,25,1717.4,24z M1710.3,26
		c0.8,0.6,1.7,1,2.8,1c0.4,0,0.8-0.1,1.2-0.2c6.3,13.3,12.6,26.7,18.9,40c-26.1,7.1-52.3,14-78.6,20.6c-0.2-0.5-0.5-0.9-0.8-1.2
		C1673,66.3,1691.7,46.3,1710.3,26z M1650.8,93.5c0.9-0.1,1.7-0.4,2.4-0.9c16,14.6,32.1,29.1,48.3,43.5c-17.2,17.6-34.5,35-52,52.2
		c-0.6-0.4-1.3-0.6-2.1-0.7C1648.7,156.2,1649.8,124.8,1650.8,93.5z M1646.8,92.1c0.7,0.7,1.7,1.2,2.8,1.3c-1,31.3-2.1,62.7-3.4,94
		c-0.5,0.1-0.9,0.2-1.3,0.3c-13.8-22.5-27.4-45-40.8-67.7C1618.3,110.9,1632.6,101.6,1646.8,92.1z M1643.8,188.4
		c-0.7,0.5-1.3,1.2-1.6,2c-19.8-4.1-39.5-8.4-59.2-12.8c-6.9-1.6-10.4-2.3-17.3-3.9c-10.3-2.4-20.6-4.8-30.9-7.3
		c0-0.9-0.2-1.8-0.6-2.5c23.1-14.1,46-28.5,68.8-43.1C1616.4,143.4,1630,165.9,1643.8,188.4z M1578.6,72.4
		c22.3,5.6,44.7,11,67.1,16.2c0,0.2,0,0.3,0,0.5c0,0.8,0.2,1.5,0.5,2.1c-14.2,9.4-28.4,18.7-42.7,28c-8.9-15-17.7-30-26.4-45
		C1577.7,73.7,1578.2,73.1,1578.6,72.4z M1574.1,75.1c0.7,0,1.3-0.1,1.9-0.3c8.8,15.1,17.6,30.1,26.4,45.1
		c-22.8,14.6-45.8,29-69,43.2c-0.3-0.3-0.7-0.5-1.1-0.8c3.1-6.4,4.6-9.6,7.6-15.9c11.2-23.7,22.3-47.5,33-71.4
		C1573.4,75,1573.7,75.1,1574.1,75.1z M1571.3,74.1c0.2,0.2,0.4,0.3,0.7,0.4c-10.7,23.7-21.6,47.2-32.7,70.7c-3.2,6.7-4.8,10-8,16.7
		c-0.3-0.1-0.6-0.1-0.9-0.1c-0.9,0-1.8,0.2-2.5,0.6c-8.7-9.8-17.4-19.7-26-29.6C1525.2,113.4,1548.3,93.9,1571.3,74.1z M1526.7,163
		c-0.6,0.5-1.1,1.2-1.3,2c-18-1-36-2-54-3.2c0-1.3-0.6-2.5-1.7-3.3c10.4-8.3,20.7-16.7,31-25.1
		C1509.4,143.3,1518.1,153.2,1526.7,163z M1570.5,73.3c-22.9,19.8-46.1,39.3-69.5,58.5c-7.4-8.5-14.7-17-22-25.6
		c0.8-0.7,1.3-1.7,1.4-2.8c0-0.3,0-0.7,0-1c30.1-9.5,60-19.4,89.8-29.6C1570.2,72.9,1570.3,73.1,1570.5,73.3z M1569.7,71.2
		c0,0.2,0,0.3,0.1,0.5c-29.8,10.2-59.7,20.1-89.7,29.6c-0.7-1.4-2.2-2.4-3.9-2.5c-0.6,0-1.1,0-1.6,0.2
		c-6.5-14.2-12.9-28.3-19.3-42.5C1493.2,61.9,1531.4,66.9,1569.7,71.2z M1407.9,49c15.3,2.5,30.5,4.9,45.8,7.1
		c6.5,14.4,13,28.8,19.6,43.2c-0.3,0.2-0.6,0.4-0.9,0.7c-21.9-16.4-43.5-33.1-65-50C1407.6,49.8,1407.8,49.4,1407.9,49z
		 M1406.6,50.9c21.5,16.9,43.2,33.6,65.1,50c-0.4,0.6-0.6,1.2-0.7,1.9c0,0.3,0,0.6,0,0.9c-11,2.7-22,5.4-33,8.1
		c-10.8-20.1-21.5-40.3-32-60.5C1406.2,51.2,1406.4,51.1,1406.6,50.9z M1403.1,52.1c0.7,0.1,1.3,0,1.9-0.2
		c10.5,20.2,21.1,40.3,31.9,60.3c-19,4.5-38,8.9-57,13.1c-0.4-1.1-1.2-1.9-2.3-2.4c3.6-9.8,7.1-19.6,10.6-29.4
		c4.9-13.8,9.7-27.5,14.5-41.3C1402.8,52.1,1402.9,52.1,1403.1,52.1z M1400.9,51.4c0.2,0.1,0.4,0.2,0.6,0.3
		c-4.8,14-9.7,28-14.7,41.9c-3.5,9.6-6.9,19.3-10.4,28.9c-0.2,0-0.3,0-0.5-0.1c-1.4-0.1-2.8,0.4-3.8,1.3
		c-7.7-5.6-15.5-11.2-23.2-16.8C1366.5,88.6,1383.8,70.1,1400.9,51.4z M1370.9,128c-21.7,8.5-43.5,16.7-65.4,24.8
		c-0.2-0.3-0.4-0.5-0.6-0.8c14.6-14.6,29-29.4,43.3-44.2c7.7,5.7,15.5,11.3,23.2,16.9c-0.3,0.5-0.6,1.1-0.6,1.8
		C1370.7,127,1370.8,127.5,1370.9,128z M1290,60.3c0-0.1,0-0.2,0-0.3c36.4-3.2,72.7-6.9,109-11.1c0.2,0.7,0.5,1.3,1,1.8
		c-17.1,18.7-34.5,37.2-52,55.6c-19.7-14.5-39.3-29.3-58.7-44.2C1289.7,61.5,1289.9,60.9,1290,60.3z M1239,7.7
		c0.4,0.2,0.8,0.3,1.3,0.4c1,0.1,2-0.1,2.8-0.6c12.9,16.5,25.9,32.9,39,49.2c-0.1,0.1-0.1,0.1-0.2,0.2
		c-16.4-10.8-32.8-21.8-49.1-32.9c0.2-0.4,0.4-0.9,0.5-1.5c0.2-1.5-0.4-3-1.6-4C1234.8,14.2,1236.2,12.1,1239,7.7z M1281.2,61.6
		c-7.8,4.5-15.7,9-23.5,13.4c-8.8-16.4-17.6-32.9-26.2-49.4c0.3-0.2,0.5-0.4,0.8-0.6c16.3,11.1,32.6,22.1,49.1,32.9
		c-0.2,0.4-0.4,0.9-0.5,1.5C1280.8,60.1,1280.9,60.9,1281.2,61.6z M1256.7,75.6c-19.6,11.1-39.3,21.9-59.2,32.6
		c-0.4-0.5-0.9-1-1.5-1.3c7.2-17.6,14.3-35.3,21.2-53c3.6-9.2,7.2-18.4,10.7-27.6c0.1,0,0.3,0.1,0.4,0.1c0.7,0.1,1.5,0,2.1-0.2
		C1239.1,42.6,1247.9,59.1,1256.7,75.6z M1236.7,5.1c0.3,0.8,0.7,1.5,1.4,2c-2.8,4.3-4.3,6.5-7.1,10.8c-0.4-0.2-0.8-0.3-1.3-0.4
		c-1.2-0.2-2.4,0.2-3.3,0.8c-3.8-3.9-5.6-5.8-9.4-9.7C1224.8,7.3,1228.8,6.6,1236.7,5.1z M1215.6,8.9c3.9,4.1,5.9,6.1,9.9,10.2
		c-0.5,0.6-0.9,1.4-1,2.2c0,0.1,0,0.2,0,0.3c-37.1,1.9-74.2,3.2-111.4,3.9C1147.5,20.5,1181.6,15,1215.6,8.9z M1108.7,27
		c0-0.1,0-0.2,0-0.3c13.4-0.2,26.8-0.5,40.3-0.9c25.2-0.8,50.4-1.8,75.6-3.1c0.1,0.8,0.5,1.6,1.1,2.1c-18.7,21-37.6,41.8-56.7,62.4
		c-20.6-19.2-41-38.7-61.2-58.4C1108.3,28.4,1108.6,27.7,1108.7,27z M1093.3,13c3.1,4,4.7,6.1,7.8,10.1c-0.6,0.6-1.1,1.4-1.3,2.4
		c-0.1,0.3-0.1,0.6-0.1,1c-21.3,3.6-42.7,7-64.1,10.2C1054.9,28.9,1074.1,21,1093.3,13z M1035.5,38.3c0-0.2,0.1-0.3,0.1-0.5
		c21.5-3.2,43-6.7,64.4-10.3c0.2,0.6,0.5,1.1,0.9,1.6c-13.5,15-27.1,29.8-40.8,44.6c-8.8-10.9-17.5-21.9-26.2-32.9
		C1034.7,40.2,1035.2,39.3,1035.5,38.3z M965.7,19.8c0.1-0.2,0.3-0.3,0.4-0.5c20.1,6.1,40.1,12,60.3,17.8c0.1-0.2,0.1-0.3,0.2-0.5
		c-0.1,0.6-0.1,1.1,0,1.6c-11.9,3.6-23.9,7.1-35.8,10.6c-1.3-1.8-3.8-2.5-5.9-1.5c-0.1,0.1-0.3,0.1-0.4,0.2c-2.7-3.7-4-5.5-6.6-9.2
		c-5-7.2-7.6-10.8-12.6-18C965.4,20.2,965.6,20,965.7,19.8z M962.9,21.6c0.4-0.1,0.9-0.2,1.3-0.4c5.2,7.3,7.8,10.9,13,18.2
		c2.5,3.6,3.8,5.4,6.3,9c-0.3,0.3-0.5,0.7-0.7,1.1c-8.8-2.4-13.2-3.6-21.9-6.1C961.6,34.7,962,30.3,962.9,21.6z M881,19.5
		c25.5-0.3,51.1-0.8,76.6-1.6c0.1,0.4,0.2,0.9,0.4,1.3c0.3,0.5,0.6,0.9,1,1.3c-5.2,7.5-7.8,11.2-13.1,18.6
		c-21.7-6.3-43.4-12.7-65.1-19.4C881,19.7,881,19.6,881,19.5z M876.9,23.4c0.5,0,1.1-0.2,1.6-0.4c0.2-0.1,0.4-0.2,0.5-0.3
		c12.3,17.3,24.7,34.5,37.2,51.6c-0.4,0.4-0.8,0.8-1,1.3c-14.1-3.6-28.1-7.4-42.2-11.2C874.3,50.7,875.6,37,876.9,23.4z M915.1,79.5
		c0.1,0.1,0.2,0.3,0.2,0.4c-15.4,15.4-30.9,30.6-46.5,45.7c-0.5-0.4-1.1-0.6-1.8-0.8c2-19.8,3.9-39.6,5.8-59.4
		c13.9,3.8,27.9,7.5,41.9,11.2C914.5,77.5,914.6,78.6,915.1,79.5z M868.1,133.1c1-0.5,1.8-1.2,2.2-2.1c5.1,1.5,7.6,2.2,12.7,3.7
		c-16.2,25.6-32.6,51-49.2,76.3c10.5-25.8,21-51.6,31.2-77.6C866,133.6,867.1,133.5,868.1,133.1z M870.7,129.9
		c0.1-0.9,0-1.8-0.5-2.7c-0.2-0.3-0.3-0.6-0.5-0.8c15.6-15,31-30.2,46.3-45.5c-10.7,17.6-21.5,35.2-32.4,52.7
		C878.4,132.1,875.8,131.4,870.7,129.9z M809.1,35c21.1-4.8,42.1-9.7,63.1-14.8c0.1,0.2,0.2,0.4,0.3,0.7c0.7,1.3,1.9,2.2,3.3,2.4
		c-1.3,13.5-2.6,27.1-3.9,40.6c-27.5-7.6-54.8-15.5-82.1-23.7c0-0.3,0-0.6-0.1-0.9C797.4,37.6,801.3,36.7,809.1,35z M789.5,41.4
		c27.3,8.2,54.7,16.1,82.2,23.7c-1.9,19.9-3.9,39.7-5.9,59.6c-0.6,0-1.3,0.2-1.9,0.4c-0.2,0.1-0.4,0.2-0.6,0.3
		c-25.3-27.2-50.1-54.9-74.5-82.9C789.2,42.2,789.4,41.8,789.5,41.4z M785.4,44.5c0.5,0,1.1-0.1,1.6-0.4c0.4-0.2,0.8-0.4,1.2-0.7
		c24.3,28,49.1,55.6,74.3,82.8c-0.4,0.5-0.8,1-0.9,1.6c-29-4.8-57.9-10-86.8-15.5C778.3,89.7,781.9,67.1,785.4,44.5z M828.1,154.3
		c-21.4,14.3-43,28.5-64.7,42.3c-0.6-0.6-1.4-1.1-2.2-1.3c4.5-27.3,8.9-54.6,13.3-81.9c28.9,5.5,57.8,10.7,86.8,15.5
		c0,0.7,0.1,1.4,0.5,2.1c0,0.1,0.1,0.2,0.1,0.2C850.7,139,839.4,146.7,828.1,154.3z M859,134.8c-26.1,23.4-52.6,46.5-79.4,69.1
		c-5.9-1.5-8.9-2.2-14.9-3.7c0-0.8-0.1-1.6-0.4-2.4c0-0.1-0.1-0.2-0.1-0.2C796.1,177.2,827.7,156.2,859,134.8z M783.2,44.1
		c0.3,0.1,0.7,0.2,1,0.3c-3.5,22.6-7.1,45.1-10.7,67.7c-9.7-1.9-19.3-3.8-29-5.7c0-0.7-0.1-1.4-0.4-2c-0.3-0.6-0.7-1.2-1.3-1.6
		C756.5,83.3,770,63.8,783.2,44.1z M740.2,110.5c3.9,18.6,7.8,37.3,11.8,55.9c2.1,9.7,4.2,19.4,6.3,29c-0.1,0-0.3,0.1-0.4,0.1
		c-0.7,0.3-1.3,0.7-1.8,1.3c-17.2-9.8-34.3-19.8-51.3-29.9c11.3-18.8,22.4-37.7,33.4-56.7C738.8,110.5,739.5,110.6,740.2,110.5z
		 M704,166.3c-25.7-15.4-51.2-31.1-76.5-47.1c0.2-0.5,0.3-1,0.3-1.6c36-3,71.9-6.5,107.7-10.5c0.1,0.2,0.1,0.5,0.3,0.7
		c0.3,0.7,0.8,1.3,1.5,1.8C726.2,128.6,715.2,147.5,704,166.3z M711.6,70.9c0.8,1.3,2.2,2.1,3.8,2.1c1,0,1.9-0.3,2.7-0.9
		c6.3,10.2,12.7,20.4,19.1,30.5c-1.1,0.8-1.7,2-1.8,3.3c-35.9,4-71.8,7.5-107.7,10.5c0-0.2-0.1-0.4-0.2-0.6
		C655.7,101.3,683.8,86.3,711.6,70.9z M620.7,121.2c0.3,0.2,0.6,0.3,0.9,0.4c-5.3,19.2-10.7,38.5-16.1,57.7
		c-9.9-1.9-19.8-3.7-29.6-5.7c0-0.6,0-1.3-0.3-1.9c-0.2-0.5-0.5-1-0.9-1.3C590.2,154.1,605.5,137.7,620.7,121.2z M561.2,96.9
		c1.1-0.4,1.9-1.1,2.4-1.9c18.3,7.3,36.6,14.4,55,21.4c-0.2,0.9-0.2,1.8,0.2,2.7c0.2,0.6,0.6,1,1,1.4c-15.2,16.5-30.5,32.9-46,49.2
		c-0.8-0.5-1.7-0.8-2.7-0.8c-3.5-23.9-7-47.9-10.3-71.9C560.9,97,561,97,561.2,96.9z M556.7,96.2c0.8,0.6,1.8,0.9,2.8,0.9
		c3.3,24,6.8,47.9,10.3,71.9c-0.2,0-0.3,0.1-0.5,0.1c-0.4,0.1-0.7,0.3-1,0.5c-14.3-14.6-28.5-29.3-42.6-44.2
		C536.1,115.8,546.5,106.1,556.7,96.2z M475.3,174.9c30.3,0.1,60.6-0.2,90.9-0.8c0.1,0.3,0.1,0.6,0.2,0.8c0.3,0.2,0.5,0.5,0.6,0.7
		c-15.5,11.4-31.1,22.7-46.8,33.8c-15.1-11.1-30-22.4-44.9-33.7C475.3,175.4,475.4,175.1,475.3,174.9z M566.3,172.9
		c-20.1,0.4-40.3,0.7-60.4,0.8c-10.2,0-20.5,0-30.7,0c0-0.1,0-0.1,0-0.2c-0.2-0.4-0.4-0.8-0.7-1.2c17-15.2,33.8-30.5,50.4-46
		c14.1,14.8,28.2,29.5,42.5,44.1C566.8,171.1,566.4,172,566.3,172.9z M465.2,58C495,69.6,524.9,80.9,555,91.7
		c-0.2,0.8-0.1,1.7,0.2,2.5c0.2,0.4,0.4,0.8,0.7,1.2c-10.3,9.8-20.6,19.5-30.9,29.2c-20.4-21.7-40.5-43.6-60.4-65.8
		C464.8,58.6,465,58.3,465.2,58z M462.6,60c0.4-0.1,0.7-0.3,1-0.5c19.9,22.2,40,44.2,60.4,65.9c-16.7,15.5-33.5,30.9-50.5,46.1
		c-0.8-0.6-1.7-0.9-2.7-1c-3.2-36.8-6.1-73.6-8.8-110.4C462.2,60.1,462.4,60.1,462.6,60z M460.1,60.1c0.2,0,0.5,0.1,0.7,0.1
		c2.7,36.8,5.6,73.6,8.8,110.4c-0.2,0-0.4,0.1-0.6,0.1c-0.2,0.1-0.5,0.2-0.7,0.3c-11.2-14.6-22.4-29.3-33.3-44
		C443.5,104.7,451.9,82.4,460.1,60.1z M458,62.5c-7.9,21.1-15.8,42.2-23.8,63.3c-1.9-2.5-2.8-3.7-4.6-6.2c1.3-1.1,1.9-2.9,1.3-4.7
		c-0.3-0.9-0.9-1.7-1.7-2.2C438.8,96,448.4,79.3,458,62.5z M426,120.6c0.6,0.1,1.2,0,1.9-0.2c0.2-0.1,0.5-0.2,0.7-0.3
		c2,2.8,3.1,4.2,5.1,6.9c-7.2,18.8-14.4,37.6-21.7,56.3C416.7,162.5,421.3,141.6,426,120.6z M265.7,143.4c-0.5,0-1.1,0-1.6,0.1
		c-2.5,0.6-4,3-3.3,5.4c0.2,0.5,0.4,1,0.8,1.5c-11.6,11.2-23.3,22.4-35,33.5c0,0-0.1,0-0.1-0.1c16.8-31.9,33.5-64,49.9-96.2
		C272.8,106.2,269.2,124.8,265.7,143.4z M262.9,151.5c-5.2,13-10.5,26.1-15.8,39.1c-7.4-1.3-11.1-2-18.4-3.3c0-0.3-0.1-0.6-0.2-0.9
		c-0.2-0.6-0.6-1.2-1-1.7c11.7-11.1,23.4-22.2,35-33.4C262.6,151.3,262.7,151.4,262.9,151.5z M275.2,87
		c-16.4,32.2-33,64.3-49.9,96.2c-0.9-0.3-1.9-0.4-2.8-0.1c-0.2,0-0.3,0.1-0.5,0.1c-8.9-14.6-17.7-29.2-26.4-43.8
		c26.5-17.3,52.8-34.9,78.8-53C274.6,86.6,274.9,86.8,275.2,87z M219.2,188.5c0,0.1,0.1,0.2,0.1,0.3c-10.6,4.5-21.2,9-31.9,13.5
		c-9-11.8-17.9-23.6-26.8-35.5c0.4-0.3,0.8-0.7,1-1.2c19.1,7.1,38.3,14,57.5,20.9C219,187.1,219,187.8,219.2,188.5z M162.1,164.5
		c0.2-0.7,0.2-1.4,0-2.1c-0.1-0.4-0.3-0.7-0.5-1c11.1-7,22.1-14.1,33.1-21.2c8.7,14.6,17.4,29.2,26.3,43.7c-0.6,0.4-1.1,0.9-1.4,1.5
		C200.4,178.5,181.2,171.6,162.1,164.5z M146.2,47.8c42.1,12.4,84.5,24.1,127,35c-0.1,0.6,0,1.1,0.2,1.7c0.1,0.4,0.3,0.7,0.5,1
		c-26,18-52.3,35.6-78.7,52.9c-17.3-29.3-34.1-58.9-50.6-88.7C145.3,49.3,145.9,48.6,146.2,47.8z M143.4,50.3
		c16.5,29.8,33.4,59.4,50.6,88.8c-11,7.1-22.1,14.2-33.2,21.3c-0.9-0.9-2.2-1.5-3.5-1.5c-5.1-36.1-10-72.3-14.4-108.5
		C143.1,50.4,143.2,50.3,143.4,50.3z M138.6,49.2c0.8,0.8,1.9,1.2,3.1,1.3c4.5,36.2,9.3,72.4,14.5,108.5c-0.4,0.1-0.9,0.2-1.2,0.4
		c-20.6-24.8-40.8-49.8-60.8-75.1C109,72.7,123.8,61,138.6,49.2z M66.1,107.9c-0.1-0.5-0.4-1-0.7-1.5C74.7,99.3,84,92.2,93.2,85
		c19.9,25.3,40.1,50.3,60.7,75c-0.2,0.1-0.3,0.3-0.4,0.5c-29.5-16.2-58.7-32.8-87.7-49.7C66.2,109.9,66.4,108.9,66.1,107.9z
		 M76,55.8c20.4-2.7,40.9-5.6,61.3-8.6c0.1,0.4,0.3,0.8,0.5,1.1c-14.7,11.8-29.5,23.5-44.4,35.1c-6.3-8.1-12.6-16.2-18.8-24.3
		C75.5,58.3,76.1,57.1,76,55.8z M71,60.2c0.4,0,0.9,0,1.3-0.1c0.4-0.1,0.9-0.2,1.2-0.4c6.3,8.1,12.6,16.2,18.9,24.3
		c-9.3,7.2-18.6,14.3-27.9,21.4c-0.5-0.5-1.2-0.8-1.9-1C65.5,89.7,68.2,75,71,60.2z M58.4,105.1C52,99.2,45.6,93.2,39.2,87.2
		c9.8-9.3,19.6-18.6,29.3-27.9c0.4,0.3,0.9,0.5,1.3,0.7c-2.8,14.8-5.6,29.5-8.4,44.3c-0.4,0-0.8,0-1.2,0.1
		C59.6,104.5,58.9,104.7,58.4,105.1z M60.9,113.1c0.4,0.1,0.9,0.1,1.3,0c7.6,19.3,15.3,38.5,23.1,57.7c-1.3,0.5-2.3,1.6-2.6,2.8
		c-11.9-1.8-23.8-3.6-35.7-5.5C51.6,149.8,56.3,131.4,60.9,113.1z M86.6,170.5c-6.1-14.8-12-29.7-17.9-44.6
		c7.2,15.3,14.6,30.5,22,45.7C89.5,170.8,88,170.3,86.6,170.5z M92.4,175.3c6.6,13.3,13.2,26.6,19.9,39.9
		c-7.3-12.2-14.6-24.4-21.7-36.6C91.6,177.8,92.3,176.6,92.4,175.3z M36.5,216.1c-0.4-0.3-0.9-0.6-1.4-0.8
		c3.9-15.4,7.8-30.7,11.7-46.1c11.9,1.9,23.9,3.8,35.9,5.6c0,0.3,0,0.7,0.1,1c0.2,0.6,0.5,1.2,0.8,1.6
		C67.9,190.4,52.3,203.3,36.5,216.1z M82.3,225c-14.7-1.7-29.3-3.6-44-5.5c0-0.3-0.1-0.6-0.1-0.9c-0.2-0.6-0.5-1.2-0.8-1.6
		c15.8-12.8,31.5-25.7,47.1-38.7c0.6,0.5,1.3,0.8,2.1,1C85.1,194.5,83.7,209.7,82.3,225z M115.6,228.7c-10.7-1.2-21.3-2.4-32-3.6
		c1.4-15.3,2.8-30.5,4.3-45.8c0.3,0,0.6,0,0.8-0.1c0.3,0,0.5-0.1,0.8-0.2c9.2,15.8,18.6,31.4,28,47
		C116.5,226.7,115.8,227.7,115.6,228.7z M122,225.7c-0.9-0.3-1.9-0.4-2.9-0.2c-0.1,0-0.2,0-0.2,0.1c-19-37.3-37.4-74.9-55.2-112.8
		c0.5-0.2,1-0.6,1.4-1c29,17,58.3,33.6,87.8,49.8c-0.4,0.8-0.5,1.8-0.2,2.8c0.3,1.1,1.1,2,2,2.6C143.9,186.5,133,206.1,122,225.7z
		 M123.2,226.3c11-19.6,21.8-39.2,32.6-58.8c0.9,0.3,1.9,0.4,2.8,0.2c0.3-0.1,0.7-0.2,1-0.3c8.8,11.9,17.7,23.7,26.7,35.4
		c-20.5,8.5-41.1,16.8-61.7,24.9C124.2,227.1,123.7,226.6,123.2,226.3z M218.9,248.1c-31.2-5.6-62.4-11.6-93.5-18
		c0-0.4,0-0.9-0.2-1.4c0-0.1-0.1-0.2-0.1-0.3c20.7-8.1,41.4-16.4,61.9-24.9c11,14.3,22,28.5,33.2,42.6
		C219.6,246.7,219.2,247.4,218.9,248.1z M222.5,245.2c-0.1,0-0.1,0-0.2,0c-0.4,0.1-0.7,0.2-1,0.3c-11.1-14.1-22.1-28.2-33.1-42.5
		c10.6-4.4,21.2-8.9,31.7-13.4c0.8,1.1,2.1,1.9,3.6,2C223.1,209.7,222.8,227.5,222.5,245.2z M224.8,245.3c-0.3-0.1-0.7-0.1-1-0.2
		c0.3-17.8,0.6-35.6,1-53.4c0.2,0,0.4,0,0.5-0.1c1.8-0.4,3.1-1.8,3.4-3.3c7.2,1.3,10.8,2,18.1,3.2
		C239.5,209.6,232.1,227.5,224.8,245.3z M226.7,246.2c-0.2-0.2-0.5-0.3-0.7-0.4c7.4-18,14.8-35.9,22.1-53.9
		c11.8,2.1,23.7,4.1,35.5,6.1c0,0.4,0.1,0.9,0.2,1.4c0.2,0.5,0.4,0.9,0.7,1.3C265.3,216,246,231.2,226.7,246.2z M283.7,196.9
		c-11.8-2-23.5-4-35.3-6c5.2-12.9,10.5-25.9,15.7-38.8c0.7,0.2,1.5,0.3,2.3,0.2c6.4,14.1,12.9,28.1,19.6,42.1
		C284.8,194.9,284,195.8,283.7,196.9z M287,193.9c-6.6-14-13.1-28-19.5-42c0.9-0.4,1.7-1,2.2-1.9c44.8,14.5,89.8,28.1,135.1,40.9
		c0,0.2,0,0.4,0,0.6c-27.3,1.9-54.5,3.5-81.8,4.8c-9.9,0.5-19.9,0.9-29.8,1.2c0-0.1-0.1-0.3-0.1-0.4
		C292.2,194.7,289.6,193.3,287,193.9z M357.7,255.1c-22-17.9-43.8-36-65.4-54.3c0.5-0.7,0.8-1.4,0.9-2.3c20.5-0.8,41-1.7,61.5-2.8
		c7.2-0.4,10.8-0.6,18-1c10.8-0.7,21.5-1.4,32.3-2.1c0.3,0.8,0.9,1.5,1.6,2.1C390.4,215,374.2,235.2,357.7,255.1z M409.9,186.9
		c-0.6-0.1-1.3,0-1.9,0.2c-1.5,0.4-2.6,1.4-3,2.7c-45.2-12.8-90.2-26.4-134.9-40.8c0.1-0.5,0.2-1.1,0.1-1.7
		c50.8-8.7,101.4-18.5,151.8-29.5c0.5,1.2,1.6,2.2,2.8,2.6C419.9,142.6,414.9,164.8,409.9,186.9z M411.7,187.5
		c7.7-19.7,15.3-39.4,22.8-59.2c10.8,14.5,21.8,29,32.8,43.4c-1.1,1-1.7,2.4-1.4,3.9c-17.2,4.9-34.5,9.7-51.8,14.4
		C413.6,188.8,412.8,188,411.7,187.5z M451.2,212.7c-12.4-6.4-24.9-12.9-37.3-19.4c0.3-0.7,0.5-1.5,0.4-2.3
		c17.3-4.7,34.6-9.5,51.9-14.4c0.6,1.2,1.7,2.1,3,2.5C463.3,190.4,457.3,201.6,451.2,212.7z M484.7,229.7
		c-10.8-5.4-21.6-10.9-32.4-16.4c6.1-11.3,12.2-22.6,18.3-34c0.6,0,1.1-0.1,1.7-0.2c0.3-0.1,0.6-0.2,0.9-0.4
		c4.5,16.5,9.1,33,13.7,49.5C486,228.6,485.2,229.1,484.7,229.7z M492,229.3c-1-0.9-2.5-1.4-3.9-1.3c-4.7-16.7-9.3-33.3-13.9-50
		c0.3-0.3,0.6-0.7,0.8-1.1c14.6,11.2,29.4,22.3,44.2,33.3C510.2,216.6,501.1,222.9,492,229.3z M579.5,254.4
		c-28.8-6.8-57.4-14-86-21.4c0.1-0.7,0-1.3-0.3-2c-0.1-0.3-0.3-0.6-0.4-0.8c9.2-6.4,18.3-12.8,27.5-19.3
		c19.7,14.5,39.6,28.8,59.6,43C579.7,253.9,579.6,254.1,579.5,254.4z M582.3,251.9c-0.7,0.2-1.2,0.6-1.7,1
		c-19.9-14.1-39.7-28.3-59.3-42.8c15.6-11.1,31.1-22.3,46.5-33.7c0.9,0.8,2.1,1.3,3.3,1.3c1.6,10.3,3.1,20.6,4.7,30.8
		c2.3,14.4,4.5,28.8,6.9,43.2C582.6,251.8,582.4,251.8,582.3,251.9z M584,251.6c-2.4-14.6-4.7-29.2-7-43.8
		c-1.6-10.1-3.1-20.2-4.7-30.3c0.2,0,0.3-0.1,0.5-0.1c1.4-0.5,2.4-1.5,2.8-2.7c9.8,1.9,19.7,3.8,29.6,5.6
		c-6.7,23.8-13.6,47.6-20.5,71.3C584.5,251.6,584.2,251.6,584,251.6z M587.8,253.2c-0.5-0.6-1.2-1-1.9-1.3
		c6.9-23.8,13.7-47.6,20.5-71.4c25.5,4.7,51,9.1,76.6,13.3c0,0.6,0.1,1.3,0.4,1.9c0,0.1,0.1,0.2,0.2,0.3
		C651.9,215.7,620,234.8,587.8,253.2z M683.2,192.9c-25.6-4.2-51.1-8.6-76.5-13.3c5.4-19.2,10.8-38.4,16.1-57.7
		c0.7,0.1,1.4,0,2.1-0.3c0.3-0.1,0.6-0.3,0.9-0.4c19.2,23.6,38.8,46.9,58.6,69.9C683.8,191.6,683.4,192.2,683.2,192.9z M689.6,190.1
		c-1.1-0.4-2.4-0.5-3.6,0c-0.2,0.1-0.4,0.2-0.6,0.3c-19.8-23.1-39.4-46.4-58.6-70c0.1-0.1,0.1-0.1,0.2-0.2
		c25.3,16,50.8,31.7,76.5,47.1C698.8,174.9,694.2,182.5,689.6,190.1z M690.6,190.7c4.6-7.6,9.2-15.2,13.7-22.8
		c17,10.1,34.1,20,51.3,29.9c-0.1,0.3-0.3,0.6-0.3,0.9c-20.9-1.4-41.8-3-62.7-4.7c0-0.5-0.1-1-0.4-1.5
		C691.8,191.8,691.3,191.1,690.6,190.7z M759,216.9c-0.5,0-1,0.2-1.4,0.3c-1,0.4-1.8,1.1-2.3,1.9c-21.1-7.7-42.1-15.6-63-23.7
		c0-0.1,0-0.1,0.1-0.2c20.9,1.7,41.8,3.3,62.8,4.7c0,0.5,0.2,1,0.4,1.5c0.7,1.4,2.1,2.4,3.7,2.6C759.1,209.1,759.1,211.7,759,216.9z
		 M759.6,195.2c-2.2-9.8-4.3-19.6-6.4-29.4c-4-18.5-7.9-37-11.7-55.5c0.1,0,0.3-0.1,0.4-0.1c1.3-0.5,2.2-1.5,2.6-2.7
		c9.7,2,19.3,3.9,29,5.7c-4.4,27.3-8.8,54.7-13.4,82C759.9,195.2,759.7,195.2,759.6,195.2z M760.3,216.9c0.1-5.2,0.1-7.7,0.2-12.9
		c0.5,0,0.9-0.2,1.4-0.3c1.2-0.5,2-1.3,2.5-2.3c5.6,1.4,8.4,2.1,14.1,3.5c-6.4,5.2-9.5,7.8-15.8,13C762,217.4,761.2,217,760.3,216.9
		z M826,216.4c-20.6,1.5-41.1,2.9-61.7,4.1c-0.1-0.3-0.2-0.6-0.3-0.9s-0.3-0.5-0.4-0.7c6.5-5.4,9.8-8.2,16.3-13.6
		c15.4,3.8,30.8,7.4,46.2,10.9C826,216.2,826,216.3,826,216.4z M831.9,212.3c-1-0.2-2.1-0.2-3.1,0.3c-1.2,0.5-2,1.4-2.4,2.4
		c-15.2-3.5-30.3-7.1-45.4-10.7c27.8-23.5,55.2-47.3,82.2-71.6c0.2,0.2,0.5,0.3,0.8,0.5C853.4,159.5,842.7,186,831.9,212.3z
		 M834.1,213.4c-0.1-0.1-0.2-0.1-0.3-0.2c17.1-25.9,33.8-51.9,50.3-78.2c11,3.1,22,6.2,33,9.3c-0.1,0.9,0,1.8,0.4,2.6
		c0.1,0.2,0.2,0.3,0.3,0.5C890.3,169.8,862.3,191.8,834.1,213.4z M921,140.6c-0.4,0.1-0.9,0.2-1.3,0.4c-1,0.5-1.8,1.3-2.2,2.2
		c-10.9-3-21.8-6.1-32.7-9.2c10.9-17.4,21.6-34.9,32.3-52.5c0.5,0.2,1,0.4,1.5,0.5C919.4,101.5,920.2,121,921,140.6z M921.3,73.6
		c-1.2-0.6-3-0.2-4.1,0c-12.6-17.1-25-34.4-37.3-51.7c0.3-0.3,0.5-0.7,0.7-1.1c21.5,6.6,43.1,13.1,64.7,19.3
		C937.4,51.3,929.4,62.5,921.3,73.6z M958.6,54c-2,0.1-3.8,1.4-4.3,3.4c-0.4,1.9,0.5,3.8,2.2,4.8c-11.1,4.4-22.2,8.6-33.4,12.9
		c0.1,0.2,0.1,0.3,0.2,0.5c-0.3-0.5-0.6-0.9-1-1.3c8.1-11.2,16.2-22.5,24.2-33.8c5.2,1.5,7.8,2.2,13.1,3.7
		C959.2,48.1,959,50.1,958.6,54z M947.2,39.5c5.2-7.3,7.7-11,12.8-18.3c0.5,0.3,1.1,0.4,1.6,0.4c-0.8,8.6-1.2,12.9-2,21.4
		C954.7,41.7,952.2,40.9,947.2,39.5z M959.8,54.1c0.4-3.8,0.5-5.8,0.9-9.6c8.7,2.4,13,3.6,21.7,6c0,0.2,0,0.4,0,0.6
		c-7.7,2.2-11.6,3.3-19.4,5.5C962.4,55.4,961.3,54.4,959.8,54.1z M963.3,57.7c6.2-1.7,9.3-2.6,15.5-4.4c-6.2,2.5-9.4,3.7-15.6,6.2
		c0-0.1,0.1-0.1,0.1-0.2C963.4,58.8,963.4,58.3,963.3,57.7z M1024.7,105.7C1004,91,983.4,76,963.1,60.9c7.9-3.1,11.8-4.7,19.7-7.9
		c0,0.1,0.1,0.2,0.1,0.3c1,2,3.5,2.8,5.6,2.1c12,16.8,24.2,33.5,36.4,50.1C1024.8,105.6,1024.8,105.6,1024.7,105.7z M1027.1,104.4
		c-0.4,0.1-0.9,0.2-1.3,0.4c-12.2-16.6-24.4-33.2-36.3-50c1.7-1.1,2.4-3.2,1.7-5c11.9-3.4,23.8-7,35.7-10.5c0.6,1.2,1.9,2.4,3.2,2.5
		C1029.2,62.6,1028.2,83.5,1027.1,104.4z M1029,104.4c-0.2,0-0.4-0.1-0.6-0.1c1-20.8,2-41.7,3-62.5c0.6,0,1.1-0.2,1.6-0.4
		c8.7,11.1,17.5,22.2,26.4,33.2c-9.7,10.2-19.3,20.3-28.9,30.4C1030,104.7,1029.5,104.5,1029,104.4z M1112.9,141
		c-7.6-2.8-11.5-4.2-19.1-7.1c-20.6-7.7-41.1-15.6-61.5-23.7c0.1-0.2,0.2-0.4,0.2-0.7c0.3-1.4-0.2-2.9-1.2-3.9
		c9.6-10,19.1-20.1,28.6-30.2c17.6,21.8,35.4,43.3,53.4,64.7C1113.2,140.5,1113.1,140.7,1112.9,141z M1114.2,139.4
		c-18.1-21.4-35.9-42.9-53.5-64.7c13.8-14.8,27.4-29.7,41-44.8c0.5,0.3,1.1,0.6,1.7,0.7c0.2,0,0.4,0.1,0.7,0.1
		c3.7,36,7.5,72.1,11.3,108.1C1115,138.9,1114.6,139.1,1114.2,139.4z M1118,138.4c-0.5-0.1-0.9-0.1-1.4,0
		c-3.8-36-7.6-71.9-11.3-107.9c0.6-0.1,1.2-0.4,1.7-0.8c20.2,19.7,40.6,39.2,61.2,58.4c-16,17.1-32.3,34-48.6,50.8
		C1119.1,138.7,1118.6,138.5,1118,138.4z M1189.5,112.1c-22.7,9.7-45.4,19.1-68.2,28.3c-0.2-0.3-0.4-0.6-0.7-0.8
		c16.3-16.8,32.5-33.7,48.5-50.7c7,6.5,14,12.9,21,19.3c-0.4,0.6-0.7,1.2-0.8,1.9C1189.2,110.8,1189.3,111.5,1189.5,112.1z
		 M1190.9,107.4c-7-6.4-14.1-12.9-21-19.3c19.2-20.6,38.1-41.4,56.7-62.4c0.1,0.1,0.2,0.1,0.4,0.2c-3.6,9.3-7.2,18.7-10.9,28
		c-6.9,17.6-14,35.2-21.1,52.7c-0.1,0-0.3-0.1-0.4-0.1C1193.2,106.2,1191.9,106.6,1190.9,107.4z M1296.7,154.5c-33,0.4-66,0.4-99,0
		c0,0,0,0,0-0.1c0-2.4-1.9-4.3-4.3-4.5c0.3-11.6,0.6-23.3,0.8-34.9c1.4-0.2,2.6-0.9,3.4-2c32.9,14.1,65.9,27.7,99.2,40.8
		C1296.8,154.2,1296.7,154.3,1296.7,154.5z M1297.3,152.9c-33.3-13.1-66.3-26.7-99.1-40.8c0.1-0.2,0.2-0.5,0.2-0.7
		c0.1-0.8,0-1.5-0.3-2.2c19.8-10.7,39.5-21.5,59.1-32.6c13.6,25.1,27.3,50.1,41.3,75C1298,152,1297.6,152.4,1297.3,152.9z
		 M1299.5,151c-14-24.9-27.7-49.9-41.3-75c7.9-4.5,15.7-9,23.6-13.5c0.7,0.9,1.8,1.5,3,1.6c0.2,0,0.5,0,0.7,0
		c4.7,28.9,9.4,57.8,14.2,86.8C1299.7,151,1299.6,151,1299.5,151z M1304,151.3c-0.6-0.3-1.3-0.6-2-0.6c-0.3,0-0.7,0-1,0
		c-4.8-28.9-9.5-57.8-14.2-86.7c0.7-0.2,1.3-0.6,1.9-1c19.4,14.9,38.9,29.6,58.6,44.1C1333,122,1318.6,136.7,1304,151.3z
		 M1346.9,199.2c-1.1-0.1-2.3,0.2-3.2,0.7c-13.1-13.9-26-27.9-38.9-41.9c0.6-0.7,1.1-1.5,1.2-2.5c0.1-0.6,0-1.2-0.1-1.7
		c21.9-8.1,43.7-16.3,65.4-24.8c0.5,0.8,1.2,1.4,2,1.8c-8.5,22.9-17.1,45.7-25.9,68.4C1347.3,199.2,1347.1,199.2,1346.9,199.2z
		 M1350.7,201.5c-0.5-0.8-1.2-1.5-2.1-1.9c8.8-22.7,17.5-45.6,25.9-68.4c0.2,0,0.3,0,0.5,0.1c0.4,0,0.8,0,1.2,0
		c5.7,18.7,11.5,37.4,17.2,56.1C1379.2,192.1,1365,196.9,1350.7,201.5z M1394.6,186.9c-5.8-18.7-11.5-37.3-17.2-56
		c0.9-0.4,1.6-1,2.1-1.8c18.1,7.4,36.3,14.6,54.6,21.7c9.3,3.6,18.6,7.2,27.9,10.7c0,0.1,0,0.1,0,0.2c0,0.5,0,0.9,0.1,1.4
		C1439.6,171.2,1417.1,179.1,1394.6,186.9z M1462.2,160.4c-27.6-10.4-55-21.2-82.3-32.3c0.1-0.3,0.2-0.6,0.2-0.8c0-0.3,0-0.6,0-0.8
		c19.1-4.3,38.2-8.6,57.3-13.2c8.4,15.5,16.8,31,25.2,46.4C1462.5,159.8,1462.3,160.1,1462.2,160.4z M1464.8,157.9
		c-0.4,0.2-0.9,0.4-1.2,0.7c-8.4-15.2-16.7-30.5-24.9-45.7c10.9-2.6,21.8-5.3,32.7-8c0.5,1.2,1.6,2.1,3,2.5
		C1471.2,124.2,1468,141.1,1464.8,157.9z M1467,157.5c-0.3,0-0.6,0-0.9,0c3.2-16.7,6.4-33.3,9.4-50c0.9,0,1.8-0.2,2.5-0.6
		c7.3,8.6,14.6,17.1,22,25.7c-10.4,8.5-20.9,16.9-31.4,25.3C1468.1,157.7,1467.5,157.6,1467,157.5z M1468.2,166
		c1.5-0.5,2.6-1.7,3.1-3.1c18,1.2,35.9,2.3,53.9,3.2c-0.1,1.2,0.4,2.2,1.1,3c-15.4,16.1-30.9,32-46.6,47.8
		C1475.9,199.9,1472,183,1468.2,166z M1482.6,226.3c-0.3,0-0.5,0-0.8,0c-0.7-3.2-1.1-4.9-1.8-8.1c14.9-15,29.7-30.2,44.4-45.5
		c-13.2,18.1-26.5,36.1-40,54C1483.9,226.5,1483.3,226.4,1482.6,226.3z M1645.8,244.6c-53-3.5-105.9-8.2-158.7-14
		c0-1.3-0.6-2.5-1.6-3.3c14.3-18.9,28.4-38,42.3-57.2c0.6,0.2,1.2,0.4,1.8,0.4c1.5,0.1,3-0.6,3.9-1.6
		c37.2,25.4,74.8,50.2,112.9,74.2C1646.1,243.5,1645.9,244.1,1645.8,244.6z M1647.3,242.1c-38.1-24-75.8-48.7-113-74.2
		c0.1-0.2,0.2-0.4,0.2-0.5c26.1,6.3,52.3,12.3,78.6,18c9.6,2.1,19.2,4.1,28.7,6.1c0,0.1,0,0.3,0,0.4c-0.1,2.4,1.9,4.4,4.6,4.4
		c1.3,14.9,2.5,29.8,3.7,44.6C1649,241,1648,241.4,1647.3,242.1z M1651.3,240.8c-1.2-14.9-2.5-29.8-3.7-44.7c1.2-0.3,2.3-1,3-1.9
		c10.6,4.6,21.1,9.1,31.7,13.5c-9.5,11.3-19.1,22.6-28.8,33.8C1652.9,241.1,1652.1,240.9,1651.3,240.8z M1654.7,242.6
		c-0.1-0.1-0.2-0.3-0.3-0.4c9.8-11.3,19.5-22.6,29.1-34.1c6.7,2.8,10,4.2,16.7,6.9c-0.1,0.3-0.1,0.6-0.1,0.9c0,0.7,0.1,1.3,0.4,1.9
		C1685.2,226.3,1670,234.5,1654.7,242.6z M1705.5,211.6c-0.2,0-0.4,0-0.5,0c-1.9,0-3.6,1.1-4.5,2.5c-6.6-2.7-9.8-4.1-16.4-6.8
		c13.1-15.7,26.1-31.4,39-47.3c0.3,0.1,0.6,0.3,0.9,0.3C1718,177.4,1711.9,194.5,1705.5,211.6z M1706.8,211.8
		c6.3-17.1,12.5-34.2,18.6-51.3c0.1,0,0.1,0,0.2,0c0.4,0,0.7-0.1,1.1-0.1c6,15.7,12,31.3,18.1,47c-11.7,2.4-23.4,4.8-35.1,7.1
		C1709.1,213.2,1708.1,212.3,1706.8,211.8z M1758.9,248.3c-16.7-10-33.2-20.2-49.8-30.4c0.4-0.6,0.6-1.3,0.6-2.1c0-0.1,0-0.2,0-0.3
		c11.8-2.3,23.6-4.7,35.3-7.2c5,13,10.1,26,15.2,39C1759.8,247.5,1759.3,247.9,1758.9,248.3z M1765.3,247.3
		c-0.8-0.4-1.7-0.7-2.7-0.6c-0.4,0-0.7,0.1-1.1,0.1c-5.1-12.9-10.1-25.9-15.1-38.8c22.5-4.7,45-9.7,67.4-14.8c0.2,0.6,0.6,1.1,1,1.5
		C1798.4,212.5,1782,230,1765.3,247.3z M1814.3,189.5c-28.2-10.4-56.2-21.2-84.1-32.3c0.2-0.4,0.2-0.9,0.2-1.3
		c0-1.2-0.5-2.3-1.4-3.1c11.5-13.9,22.9-27.9,34.2-41.9c17.2,26,34.6,51.8,52.1,77.5C1815,188.7,1814.6,189.1,1814.3,189.5z
		 M1816.5,187.7c-17.7-25.8-35.1-51.7-52.4-77.8c16.4-20.5,32.6-41.3,48.5-62.1c0.5,0.3,1.1,0.4,1.8,0.5
		c1.5,46.4,2.6,92.7,3.4,139.1C1817.3,187.4,1816.9,187.5,1816.5,187.7z M1818.9,187.2c-0.8-46.3-1.9-92.5-3.4-138.8
		c0.1-0.1,0.2-0.2,0.3-0.3c0.1,0,0.2-0.1,0.3-0.1c15.9,33.9,31.9,67.7,48.1,101.4c-14.1,13-28.3,25.9-42.7,38.7
		C1820.8,187.6,1819.9,187.3,1818.9,187.2z M1830.8,248.5c-2.8-13.8-5.7-27.7-8.5-41.5c3.8,12.9,7.5,25.7,11.3,38.6
		C1832.2,246.2,1831.2,247.2,1830.8,248.5z M1836.4,245.1c-0.3,0-0.6,0-0.9,0c-0.3,0-0.6,0.1-0.8,0.1c-4.8-16.5-9.7-33-14.5-49.6
		c1.1-0.5,2.1-1.3,2.6-2.3c10.1,2.5,20.1,4.9,30.2,7.3C1847.6,215.6,1842.1,230.4,1836.4,245.1z M1839.5,246.5
		c-0.5-0.5-1.1-1-1.9-1.2c5.6-14.8,11.2-29.6,16.6-44.4c13.9,3.3,27.8,6.5,41.8,9.6c-0.1,0.3-0.1,0.6-0.1,0.9c0,0.6,0.2,1.2,0.4,1.7
		C1877.5,224.5,1858.6,235.6,1839.5,246.5z M1875,259.4c-11.5-3-23-6.1-34.5-9.2c0.1-0.3,0.1-0.7,0.1-1c0-0.6-0.1-1.2-0.4-1.7
		c19-11,38-22.2,56.8-33.5c0.3,0.4,0.7,0.7,1.2,0.9C1890.6,229.9,1882.8,244.6,1875,259.4z"/>
</g>
</svg>
