<?xml version="1.0" encoding="utf-8"?>
<!-- Generator: Adobe Illustrator 26.1.0, SVG Export Plug-In . SVG Version: 6.00 Build 0)  -->
<svg version="1.1" id="Capa_1" xmlns="http://www.w3.org/2000/svg" xmlns:xlink="http://www.w3.org/1999/xlink" x="0px" y="0px"
	 viewBox="0 0 411.7 94.8" style="enable-background:new 0 0 411.7 94.8;" xml:space="preserve">
<style type="text/css">
	.st0{enable-background:new    ;}
	.st1{fill:#E77642;}
	.st2{fill:#FFFFFF;}
</style>
<image style="overflow:visible;enable-background:new    ;" width="400" height="124" xlink:href="998F0AA2.jpg"  transform="matrix(0.9993 0 0 0.9993 63.1409 -367.1584)">
</image>
<g>
	<g class="st0">
		<path class="st1" d="M194.9,9.5l-0.2,0.2c-0.2,0.2-0.3,0.3-0.4,0.4l-0.1,0.1l-0.1,0.2l-0.1,0.1c-0.1,0.2-0.3,0.3-0.5,0.4
			c-0.2,0.2-0.4,0.4-0.6,0.5c-0.1,0.1-0.2,0.2-0.3,0.3c-1.3-1.7-3-2.5-4.9-2.3c-1.5,0.1-2.5,0.7-2.9,2c0,0.9,0.3,1.6,0.8,2.2
			l0.3,0.2l0.1,0.1l0.5,0.3h0.2l0.2,0.1l0.2,0.1c0.2,0.1,0.3,0.1,0.5,0.2l0.2,0.1l0.2,0.1h0.1l0.4,0.1l1.2,0.3h0.1l0.1,0.1h0.1
			l0.1,0.1l0.7,0.2l0.1,0.1l0.2,0.1l0.4,0.2c0.4,0.1,0.8,0.3,1,0.4l0.1,0.1l0.1,0.1l0.1,0.2c0.1,0.1,0.2,0.1,0.3,0.2
			c0.1,0,0.1,0.1,0.1,0.1l0.6,0.6c1.1,1.6,1.3,3.3,0.7,4.9c-0.5,1.9-1.6,3.2-3.2,3.9c-0.2,0.1-0.4,0.2-0.6,0.3
			c-4.4,0.9-7.9-0.2-10.5-3.4l0-0.1l0.1-0.1c0,0,0.1-0.1,0.1-0.1c0.2-0.2,0.4-0.4,0.6-0.5l0.1-0.2l0.6-0.5l0.1-0.1
			c0,0,0.1-0.1,0.1-0.1c0.3-0.3,0.5-0.5,0.7-0.7h0.1c2.1,2.8,4.7,3.5,7.7,2.1c0.2-0.2,0.4-0.4,0.5-0.5l0-0.2
			c0.2-0.3,0.3-0.5,0.4-0.8c0.1-1.1-0.3-2-1.1-2.6l-0.1-0.1c-0.2-0.1-0.4-0.1-0.5-0.2l-0.1-0.1h-0.1l-0.2-0.1l-0.1-0.1h-0.1
			l-0.1-0.1c-0.3-0.1-0.6-0.1-0.8-0.2h-0.1l-0.4-0.1H188l-0.2-0.1l-0.1-0.1c-0.3-0.1-0.6-0.1-0.8-0.2c-3.3-0.4-5.1-2.1-5.5-5.2
			c0.1-3.7,2-5.7,5.9-6C190.7,6,193.3,7.1,194.9,9.5z"/>
		<path class="st1" d="M210.5,15.6l-0.5,0.2c-0.1,0.1-0.3,0.2-0.4,0.3l-0.1,0.1l-0.3,0.1c-0.1,0.1-0.3,0.2-0.4,0.2l-0.8,0.5
			c-0.8-1.7-2.1-2.4-3.8-2.1l-0.1,0.1l-0.1,0.1l-0.5,0.3c-0.3,0.3-0.5,0.6-0.7,0.8c-1.1,2.2-1,4.3,0.1,6.2c0.7,0.9,1.5,1.3,2.5,1.2
			c1.3-0.2,2.3-0.9,2.8-2.1l0.5,0.3l0.2,0.1c0.2,0.1,0.3,0.1,0.4,0.2l0.2,0.1l0.1,0.1l1.1,0.5c-1.5,2.7-3.7,3.9-6.6,3.5
			c-3-0.6-4.7-2.5-5.1-5.7c-0.2-2,0.1-3.8,0.9-5.3c1-1.9,2.6-2.9,4.8-3C207.3,12.1,209.3,13.3,210.5,15.6z"/>
		<path class="st1" d="M216.7,8.2c0,0.8-0.2,1.4-0.6,1.9c-1.3,0.6-2.2,0.4-2.8-0.8c-0.3-1.3,0.1-2.1,1.3-2.5
			C215.7,6.8,216.4,7.2,216.7,8.2z M213.6,12.3h0.6h0.2h0.2h0.2h0.8h0.4h0.3V26h-0.2h-0.6h-0.2h-0.2H215h-0.8H214h-0.6v-0.2v-0.3
			v-0.2v-0.2v-0.2v-1v-0.4v-0.2v-0.3v-0.2v-0.3v-0.7V22v-0.9V21v-0.6V20v-0.4v-0.3V19v-0.3v-0.4v-0.3v-0.9v-0.3v-0.3v-0.3v-0.2v-0.9
			v-0.6v-0.2v-0.2v-0.2v-0.2V13v-0.2v-0.6H213.6z"/>
		<path class="st1" d="M229.8,13.7c1.7-1.7,3.6-2.1,5.6-1.3c1,0.4,1.7,1,2.2,1.8l0,0.1l0.1,0.3l0,0.1l0.3,1c0,0.4,0,0.7,0,1v9.3
			h-0.7h-0.5h-0.2h-0.1h-0.2h-0.1h-1v-0.4v-0.4V25v-0.9V24v-0.6v-0.2v-0.7v-0.7v-0.3V21v-0.2v-0.3v-0.2v-0.5v-0.2V19v-0.2v-0.2v-0.2
			v-0.2v-0.2V18v-0.2v-0.5l0-0.5l0-0.4c-0.1-0.2-0.2-0.4-0.2-0.6c-0.8-1.3-1.8-1.5-3.1-0.8c-0.5,0.4-0.8,0.8-1,1.3l-0.1,0.6v8.9
			h-0.2h-0.6h-0.2h-0.2h-0.2h-0.8h-0.1h-0.6v-0.2v-0.3v-0.2V25v-0.7v-0.2v-0.9v-0.2v-0.6v-0.3V22v-0.3v-0.3v-0.2v-0.2v-1v-0.2v-0.5
			v-0.2v-0.6v-0.2v-0.2v-0.2V18v-0.2v-0.2v-0.2V17l0-0.5l-0.1-0.2v-0.2c-0.2-0.3-0.3-0.5-0.3-0.7c-0.5-0.4-1-0.7-1.5-0.7
			c-1.1,0.2-1.9,0.7-2.3,1.6l-0.1,0.4l0,0.6c0.1,0.2,0.1,0.4,0,0.5v8.2H223h-0.2h-0.2h-0.6h-0.2h-0.8h-0.1h-0.6v-0.2v-0.3v-0.2v-0.2
			V25v-1v-0.4v-0.2v-0.3V23v-0.3v-0.7v-0.2V21v-0.2v-0.6v-0.4v-0.4v-0.3v-0.4v-0.3v-0.4V18v-0.9v-0.3v-0.3v-0.3v-0.2v-0.9v-0.6v-0.2
			v-0.2V14v-0.2v-0.9v-0.2v-0.6h0.2h0.2h0.2h0.6h0.2h0.8h0.1h0.6v1c0.9-0.7,1.9-1.1,2.9-1.2C227.7,11.9,229,12.5,229.8,13.7z"/>
		<path class="st1" d="M251.6,13.4l0.1,0.3c0.4,0.5,0.6,1,0.7,1.5c0.1,0.4,0.1,0.8,0.1,1.1V23c0.3,0.6,0.8,1,1.3,1.1l-0.1,0.2
			c0,0.1-0.1,0.1-0.1,0.1l0,0.2l-0.1,0.1c-0.1,0.2-0.2,0.3-0.3,0.5c-0.1,0.3-0.3,0.5-0.4,0.7c-0.1,0.3-0.3,0.6-0.4,0.8
			c-1-0.3-1.7-0.7-2.3-1.4H250c-1.6,1.2-3.3,1.5-5.1,0.9c-1.8-0.6-2.9-1.8-3.2-3.5c0-3.3,1.9-5,5.7-4.9c0.1,0,0.2-0.1,0.2-0.1
			l0.1-0.1h0.1h0.2l0.1-0.1h0.1l1.2-0.2c0.3-2.8-1.8-3.4-6.4-1.6l-0.2-0.5l0-0.2l0-0.2l-0.1-0.1l0-0.1l-0.1-0.3
			c-0.1-0.2-0.2-0.3-0.2-0.5c-0.2-0.2-0.3-0.5-0.3-0.7l0.1-0.1l0.1-0.1l0.1-0.1l0.1-0.1h0.1c0,0,0.1-0.1,0.1-0.1
			c0.3-0.2,0.6-0.3,0.8-0.4l0.2-0.1c0.2-0.1,0.4-0.1,0.5-0.2l0.2-0.1l0.2-0.1c0.3-0.1,0.6-0.2,0.8-0.2l1.1-0.2
			C248.8,11.7,250.4,12.2,251.6,13.4z M248.4,19.8h-0.1h-0.1c-0.2,0-0.4,0.1-0.5,0.1l-0.2,0.1h-0.1c0,0-0.1,0.1-0.1,0.1h-0.1
			l-0.4,0.1l-0.4,0.1H246c-0.2,0.1-0.4,0.2-0.6,0.3c-1,1-1.1,1.9-0.1,2.8c1.4,0.9,2.8,0.8,4.1-0.4c0.1-0.2,0.1-0.3,0.2-0.4l0-0.2
			l0-0.2v-0.6v-0.2v-0.9v-0.2v-0.6h-1C248.5,19.8,248.4,19.8,248.4,19.8z"/>
		<path class="st1" d="M265.9,13.2v-0.2v-0.2v-0.7h0.7h0.5h0.2h0.1h0.2h0.1h1v14l0,0.6l0,0.1l0,0.3l-0.2,0.6l0,0.1l-0.1,0.1l0,0.1
			l-0.2,0.3c-0.2,0.4-0.5,0.8-0.8,1l-0.2,0.3l-0.1,0.1l-0.9,0.5c-3.1,0.8-5.9,0.5-8.3-1l0.1-0.2l0.2-0.6l0.2-0.5l0-0.2l0.1-0.2
			c0.1-0.3,0.2-0.5,0.3-0.6l0.1-0.4c2.5,1.3,4.7,1.4,6.6,0.2l0-0.2c0.2-0.3,0.3-0.6,0.4-0.9v-0.2v-0.2v-0.3v-0.2v-0.2v-0.2v-1
			c-1.6,1.2-3.2,1.5-4.9,1c-1.8-0.7-3-2-3.5-3.7c-0.7-2.2-0.5-4.2,0.4-6c0.9-1.8,2.3-2.8,4.1-3C263.5,11.9,264.8,12.4,265.9,13.2z
			 M262.7,15h-0.2l-1.1,0.4c-1,1.1-1.4,2.3-1.2,3.6c0.2,1.9,1.2,2.9,3,3c1.9-0.2,2.8-1.5,2.6-3.7C265.8,16.1,264.8,15,262.7,15
			C262.8,15,262.7,15,262.7,15z"/>
		<path class="st1" d="M284.2,14.9c0.9,2.2,1.1,4.4,0.5,6.5c-0.6,2.5-2,4.1-4.3,4.7c-2,0.5-3.8,0.3-5.3-0.8c-1.9-1.3-2.9-3.1-3-5.4
			c-0.2-4.6,1.7-7.4,5.7-8.3C280.7,11.6,282.8,12.7,284.2,14.9z M275.2,19.7c0.3,2.3,1.4,3.5,3.4,3.7c2-0.2,3.2-1.3,3.4-3.2
			c0.5-3.5-0.7-5.3-3.6-5.5C276,15.3,275,17,275.2,19.7z"/>
		<path class="st1" d="M185.6,37.8h0.2h0.2h0.2h0.6h0.2h0.8h0.4h0.3v15.3l0,0.4c-0.1,0.5-0.2,0.9-0.3,1.3c-1.1,1.8-2.6,2.6-4.6,2.5
			c0,0-0.1,0.1-0.1,0.1c-0.4,0-0.7,0-1-0.1h-0.3l-0.6-0.1c-0.2-0.1-0.4-0.1-0.5-0.1l-0.4-0.1l-0.4-0.1c-0.4-0.1-0.7-0.2-1-0.4l0-0.2
			c0.1-0.2,0.2-0.4,0.2-0.6l0-0.2l0-0.2l0-0.2l0.1-0.4l0-0.2l0-0.1l0.3-0.8L181,54l0.1,0.1l0.6,0.1l0.5,0.2l0.1-0.1h0.1
			c0.1,0,0.3,0.1,0.4,0.1h0.4l1-0.1l0.1-0.1c0.3-0.2,0.5-0.3,0.7-0.5l0-0.2c0.1-0.2,0.2-0.4,0.3-0.6l0-0.4v-0.2v-1V51v-0.2v-0.9
			v-0.2v-0.2v-0.2v-0.9v-0.2v-0.6v-0.2v-0.2v-1V46v-0.4v-0.2v-0.2v-1.6v-0.4v-0.3v-0.4v-0.3v-0.3v-0.3v-0.2v-0.9v-0.6V40v-0.2v-0.2
			v-0.2v-0.9v-0.2v-0.6H185.6z"/>
		<path class="st1" d="M205,45.9c0.9,2.2,1.1,4.4,0.5,6.5c-0.6,2.5-2,4.1-4.3,4.7c-2,0.5-3.8,0.3-5.3-0.8c-1.9-1.3-2.9-3.1-3-5.4
			c-0.2-4.6,1.7-7.4,5.7-8.3C201.5,42.6,203.6,43.7,205,45.9z M196,50.7c0.3,2.3,1.4,3.5,3.4,3.7c2-0.2,3.2-1.3,3.4-3.2
			c0.5-3.5-0.7-5.3-3.6-5.5C196.8,46.3,195.8,48,196,50.7z"/>
		<path class="st1" d="M210,43.2h0.5h0.2h0.1h0.2h0.1h1v8.7c0,0.1,0,0.1,0,0.2c0,0,0.1,0.1,0,0.1c0.1,0.4,0.1,0.7,0.2,1
			c0.6,0.8,1.3,1.2,2.2,1.2c1.1-0.3,1.9-0.9,2.3-1.9v-0.2l0.2-0.6v-0.2v-0.2v-1.6v-0.9v-0.2v-0.6v-0.2V48v-1v-0.2v-0.2v-0.9V45v-0.2
			V44v-0.2v-0.6h0.2h0.6h0.2h0.2h0.2h0.8h0.1h0.6V57h-0.2h-0.6h-0.2h-0.2H219h-0.8H218h-0.6v-0.2v-0.9c-2.1,1.8-4.2,2-6.4,0.6
			c-0.8-0.6-1.3-1.3-1.6-2.1l0-0.4c-0.1-0.3-0.1-0.6-0.1-1v-0.4v-0.5v-0.4v-0.2v-0.2v-1.6v-0.9v-0.2v-0.6v-0.2V48v-1v-0.2v-0.2v-0.9
			V45v-0.2V44v-0.2v-0.6H210z"/>
		<path class="st1" d="M232.1,42.9v3.2c-1.9-0.1-3.2,0.6-4,2.1L228,49l0,0.4v7.6h-0.2h-0.6h-0.2h-0.2h-0.2h-0.8h-0.1h-0.6v-0.2v-0.3
			v-0.2v-0.2V56v-1v-0.4v-1v-0.4v-0.4v-0.4V52v-1v-0.2v-0.2v-1.6v-0.4v-0.3v-0.4v-0.3v-0.3v-0.3v-0.2v-0.9v-0.6v-0.2v-0.2V45v-0.2
			V44v-0.2v-0.6h0.2h0.6h0.2h0.2h0.2h0.8h0.1h0.6v0.6c0,0.3,0,0.6,0,0.8c1-1.1,2.1-1.7,3.5-1.7H232.1z"/>
		<path class="st1" d="M246.6,45.6v0.2c0.1,0.2,0.2,0.4,0.2,0.6v10.5h-0.2h-0.6h-0.2h-0.2h-0.2h-0.8h-0.1h-0.6v-0.4v-1v-0.2v-0.2
			v-1.6v-0.4v-0.2v-0.2v-1v-0.2v-0.3v-0.2v-0.2v-0.5v-0.2v-0.6v-0.2v-0.2v-0.2v-0.2v-0.4v-0.2v-0.2v-0.2V48l0-0.3
			c-0.5-1.7-1.6-2.2-3.1-1.7c-0.8,0.4-1.4,0.9-1.8,1.7l-0.2,0.9v8.4h-0.2h-0.2h-0.6h-0.2h-0.8h-0.1h-0.6h-0.1h0.1h-0.1v-0.2v-0.3
			v-0.2v-0.2V56v-1v-0.4v-0.2v-0.3V54v-0.3v-0.7v-0.2V52v-0.2v-0.6v-0.4v-0.4v-0.3v-0.4v-0.3v-0.4V49v-0.9v-0.3v-0.3v-0.3V47v-0.9
			v-0.6v-0.2v-0.2V45v-0.2v-0.9v-0.2v-0.6h0.7h0.5h0.2h0.1h0.2h0.1h1v1.2c0.9-0.8,1.9-1.4,3-1.5C244,42.8,245.6,43.7,246.6,45.6z"/>
		<path class="st1" d="M259.7,44.4l0.1,0.3c0.4,0.5,0.6,1,0.7,1.5c0.1,0.4,0.1,0.8,0.1,1.1V54c0.3,0.6,0.8,1,1.3,1.1l-0.1,0.2
			c0,0.1-0.1,0.1-0.1,0.1l0,0.2l-0.1,0.1c-0.1,0.2-0.2,0.3-0.3,0.5c-0.1,0.3-0.3,0.5-0.4,0.7c-0.1,0.3-0.3,0.6-0.4,0.8
			c-1-0.3-1.7-0.7-2.3-1.4h-0.1c-1.6,1.2-3.3,1.5-5.1,0.9c-1.8-0.6-2.9-1.8-3.2-3.5c0-3.3,1.9-5,5.7-4.9c0.1,0,0.2-0.1,0.2-0.1
			l0.1-0.1h0.1h0.2l0.1-0.1h0.1l1.2-0.2c0.3-2.8-1.8-3.4-6.4-1.6l-0.2-0.5l0-0.2l0-0.2l-0.1-0.1l0-0.1l-0.1-0.3
			c-0.1-0.2-0.2-0.3-0.2-0.5c-0.2-0.2-0.3-0.5-0.3-0.7l0.1-0.1l0.1-0.1l0.1-0.1l0.1-0.1h0.1c0,0,0.1-0.1,0.1-0.1
			c0.3-0.2,0.6-0.3,0.8-0.4l0.2-0.1c0.2-0.1,0.4-0.1,0.5-0.2l0.2-0.1l0.2-0.1c0.3-0.1,0.6-0.2,0.8-0.2l1.1-0.2
			C256.9,42.7,258.5,43.2,259.7,44.4z M256.6,50.8h-0.1h-0.1c-0.2,0-0.4,0.1-0.5,0.1l-0.2,0.1h-0.1c0,0-0.1,0.1-0.1,0.1h-0.1
			l-0.4,0.1l-0.4,0.1h-0.1c-0.2,0.1-0.4,0.2-0.6,0.3c-1,1-1.1,1.9-0.1,2.8c1.4,0.9,2.8,0.8,4.1-0.4c0.1-0.2,0.1-0.3,0.2-0.4l0-0.2
			l0-0.2v-0.6v-0.2v-0.9v-0.2v-0.6h-1C256.7,50.8,256.6,50.8,256.6,50.8z"/>
		<path class="st1" d="M265.6,37.7h0.6h0.2h0.2h0.2h0.8h0.4h0.3v14c0,0.8,0,1.5,0.1,2.1c0.5,0.7,1.4,0.9,2.7,0.6v0.3l0,0.2l0,0.4
			l0,0.4v0.3l0,0.1v0.3l0.1,0.9c-3.4,0.8-5.4,0.1-6.2-2.1c0-0.2,0-0.3,0-0.4v-0.2v-1v-0.2v-0.3v-0.2v-0.3v-0.7v-0.2v-0.9v-0.2V50
			v-0.2v-0.3v-0.7v-0.2v-0.9v-0.2V47v-0.4v-0.4v-0.4v-0.4v-0.2v-0.2v-1.6v-0.4V43v-0.4v-0.3v-0.3v-0.3v-0.2v-0.9v-0.6v-0.2v-0.2
			v-0.2v-0.2v-0.9v-0.2v-0.6H265.6z"/>
		<path class="st1" d="M292.2,41.1c0.4,2.7-0.7,4.5-3.2,5.5l0,0.2c0.2,0.2,0.3,0.4,0.4,0.6l0.1,0.2l0.2,0.3l0.1,0.2l0.1,0.2
			c0.2,0.2,0.3,0.4,0.3,0.5c0,0,0.1,0.1,0.1,0.2l0.1,0.2l0.1,0.1l0,0.1c0.1,0.2,0.2,0.3,0.3,0.4l0.1,0.2l0,0.2
			c0.4,0.4,0.6,0.7,0.7,1.1c0.5-0.8,0.8-1.7,0.8-2.6h0.2h0.2h0.2h0.6h0.2h0.8h0.1h0.6c-0.2,2-0.9,3.8-2,5.2c0.8,0.4,1.6,0.5,2.4,0.2
			l0,0.2c0.1,0.3,0.1,0.5,0.1,0.8c0.1,0.2,0.1,0.5,0.1,0.7l0,0.2c0,0.3,0,0.5,0,0.7c0.1,0.2,0.1,0.4,0.1,0.6
			c-1.9,0.6-3.5,0.2-4.8-1.1c-2.6,1.5-4.9,1.7-6.8,0.6c-1.9-1.1-3-2.6-3.4-4.6c-0.2-2.7,0.8-4.7,3-5.9c-1.2-2.1-1.3-4-0.3-5.8
			c0.8-1.3,1.9-2,3.2-2.3C289.9,37.6,291.5,38.8,292.2,41.1z M285,52.5c1.4,1.7,3,1.9,4.8,0.6l-0.1-0.2c-0.2-0.3-0.3-0.5-0.4-0.7
			c-0.1-0.1-0.1-0.1-0.2-0.2l-0.1-0.2l-0.5-0.6l-0.1-0.2l-0.1-0.2l0-0.2c-0.3-0.4-0.6-0.7-0.7-1l-0.1-0.1l-0.2-0.4
			c-0.2-0.2-0.4-0.4-0.4-0.7c-0.2-0.2-0.4-0.5-0.5-0.7H286C284.3,49.2,283.9,50.8,285,52.5z M286.4,41.6c-0.2,1,0,1.9,0.6,2.6
			l0.3-0.1c1.2-0.5,1.9-1.3,1.9-2.5c-0.4-0.8-1-1.2-1.8-1.1C287,40.8,286.7,41.2,286.4,41.6z"/>
		<path class="st1" d="M324.1,43c0,0.1-0.1,0.1-0.1,0.2l-0.2,0.1l-0.2,0.1h-0.2c-0.1,0-0.2,0.1-0.2,0.1c-0.2,0.1-0.4,0.1-0.5,0.1
			c0,0-0.1,0.1-0.1,0.1l-0.2,0.1l-0.3,0.1l-0.1,0.1l-0.8,0.2c-1.1-3-3.2-4.1-6.3-3.4c0,0-0.1,0.1-0.1,0.1l-0.3,0.2
			c-0.2,0.1-0.3,0.2-0.5,0.2c0,0.1-0.1,0.1-0.1,0.1l-0.1,0.1l-0.1,0.1l-0.1,0.1l-0.1,0.1c-0.3,0.3-0.6,0.6-0.8,0.7l0,0.2l-0.2,0.3
			l0,0.2l-0.1,0.1c-0.1,0.3-0.3,0.6-0.4,0.8c-0.8,2.6-0.8,5-0.2,7.3c0.7,2.5,2.2,3.9,4.6,4.1c2.7,0,4.4-1.2,5.2-3.6l0.2,0.1
			c0.2,0.1,0.4,0.1,0.5,0.1l0.1,0.1l0.8,0.2l0.2,0.1l0.3,0.1l0.9,0.2c-1.2,3.6-3.5,5.6-6.9,5.9c-3.7,0.3-6.4-1.1-8.2-4.1
			c-1.7-3.5-1.9-6.9-0.8-10.3c1.3-3.6,3.6-5.6,7.1-6C319.8,37,322.7,38.9,324.1,43z"/>
		<path class="st1" d="M338.1,45.9c0.9,2.2,1.1,4.4,0.5,6.5c-0.6,2.5-2,4.1-4.3,4.7c-2,0.5-3.8,0.3-5.3-0.8c-1.9-1.3-2.9-3.1-3-5.4
			c-0.2-4.6,1.7-7.4,5.7-8.3C334.5,42.6,336.7,43.7,338.1,45.9z M329,50.7c0.3,2.3,1.4,3.5,3.4,3.7c2-0.2,3.2-1.3,3.4-3.2
			c0.5-3.5-0.7-5.3-3.6-5.5C329.8,46.3,328.8,48,329,50.7z"/>
		<path class="st1" d="M343.1,43.2h0.5h0.2h0.1h0.2h0.1h1v8.7c0,0.1,0,0.1,0,0.2c0,0,0.1,0.1,0,0.1c0.1,0.4,0.1,0.7,0.2,1
			c0.6,0.8,1.3,1.2,2.2,1.2c1.1-0.3,1.9-0.9,2.3-1.9v-0.2l0.2-0.6v-0.2v-0.2v-1.6v-0.9v-0.2v-0.6v-0.2V48v-1v-0.2v-0.2v-0.9V45v-0.2
			V44v-0.2v-0.6h0.2h0.6h0.2h0.2h0.2h0.8h0.1h0.6V57h-0.2h-0.6h-0.2h-0.2h-0.2h-0.8h-0.1h-0.6v-0.2v-0.9c-2.1,1.8-4.2,2-6.4,0.6
			c-0.8-0.6-1.3-1.3-1.6-2.1l0-0.4c-0.1-0.3-0.1-0.6-0.1-1v-0.4v-0.5v-0.4v-0.2v-0.2v-1.6v-0.9v-0.2v-0.6v-0.2V48v-1v-0.2v-0.2v-0.9
			V45v-0.2V44v-0.2v-0.6H343.1z"/>
		<path class="st1" d="M368.8,45.6v0.2c0.1,0.2,0.2,0.4,0.2,0.6v10.5h-0.2h-0.6H368h-0.2h-0.2h-0.8h-0.1H366v-0.4v-1v-0.2v-0.2v-1.6
			v-0.4v-0.2v-0.2v-1v-0.2v-0.3v-0.2v-0.2v-0.5v-0.2v-0.6v-0.2v-0.2v-0.2v-0.2v-0.4v-0.2v-0.2v-0.2V48l0-0.3
			c-0.5-1.7-1.6-2.2-3.1-1.7c-0.8,0.4-1.4,0.9-1.8,1.7l-0.2,0.9v8.4h-0.2h-0.2h-0.6h-0.2h-0.8h-0.1H358h-0.1h0.1h-0.1v-0.2v-0.3
			v-0.2v-0.2V56v-1v-0.4v-0.2v-0.3V54v-0.3v-0.7v-0.2V52v-0.2v-0.6v-0.4v-0.4v-0.3v-0.4v-0.3v-0.4V49v-0.9v-0.3v-0.3v-0.3V47v-0.9
			v-0.6v-0.2v-0.2V45v-0.2v-0.9v-0.2v-0.6h0.7h0.5h0.2h0.1h0.2h0.1h1v1.2c0.9-0.8,1.9-1.4,3-1.5C366.3,42.8,367.9,43.7,368.8,45.6z"
			/>
		<path class="st1" d="M377.2,38v5.2h0.2h0.2h0.2h0.2h0.2h0.6h0.2h0.8h0.4h0.3v2.6h-0.2h-0.2h-0.2h-0.2h-0.2H379h-0.2h-0.8h-0.1
			h-0.6v6.8c0,0.4,0,0.8,0,1.1c0.8,0.7,1.8,0.8,3.2,0.4l0,0.2v0.3c0,0.2,0.1,0.4,0,0.6c0.1,0.2,0.1,0.4,0.1,0.5l0.1,1.3
			c-3.1,0.8-5.1,0.4-6.2-1.2l0-0.1l-0.1-0.3c-0.1-0.2-0.2-0.4-0.2-0.6v-0.2c0-0.5-0.1-0.8,0-1.1v-1V52v-0.2v-0.2v-0.2v-0.3v-0.2
			v-0.2v-0.2v-1v-0.2v-0.2v-0.2v-0.9v-0.7v-0.2v-0.9v-0.2v-0.6H374h-0.2h-0.2h-0.2h-0.8h-0.1h-0.6v-0.7V45v-0.3v-0.2v-0.2v-0.2v-1
			h0.2h0.2h0.2h0.2h0.8h0.4h0.3v-0.3v-0.2v-0.9v-0.6V41v-0.2v-0.2v-0.2v-0.9v-0.2v-0.6l0.2-0.1l0.2-0.1l0.2-0.1l0.1-0.1l0.2-0.1
			c0,0,0.1-0.1,0.1-0.1c0,0,0.1-0.1,0.1-0.1c0,0,0.1-0.1,0.1-0.1l0.1-0.1l0.4-0.1c0,0,0.1-0.1,0.1-0.1c0,0,0.1-0.1,0.1-0.1l0.7-0.3
			C377.1,37.8,377.2,37.9,377.2,38z"/>
		<path class="st1" d="M391.1,42.9v3.2c-1.9-0.1-3.2,0.6-4,2.1L387,49l0,0.4v7.6h-0.2h-0.6h-0.2h-0.2h-0.2h-0.8h-0.1h-0.6v-0.2v-0.3
			v-0.2v-0.2V56v-1v-0.4v-1v-0.4v-0.4v-0.4V52v-1v-0.2v-0.2v-1.6v-0.4v-0.3v-0.4v-0.3v-0.3v-0.3v-0.2v-0.9v-0.6v-0.2v-0.2V45v-0.2
			V44v-0.2v-0.6h0.2h0.6h0.2h0.2h0.2h0.8h0.1h0.6v0.6c0,0.3,0,0.6,0,0.8c1-1.1,2.1-1.7,3.5-1.7H391.1z"/>
		<path class="st1" d="M393.7,43.3h0.5h0.2h0.8h0.4h0.3l0.1,0.4l0.1,0.4l0.1,0.4c0.1,0.3,0.2,0.5,0.2,0.8l0.1,0.3l0,0.3
			c0.2,0.4,0.3,0.7,0.3,1.1c0,0.1,0.1,0.2,0.1,0.3c0.1,0.3,0.2,0.5,0.2,0.7l0.1,0.4c0,0.1,0.1,0.2,0.1,0.3l0.1,0.2l0,0.2l0,0.1
			l0.1,0.5l0.1,0.2l0.1,0.3l0,0.2l0,0.2l0.1,0.3c0,0.2,0.1,0.3,0.1,0.4V51c0,0.1,0,0.1,0,0.2c0.1,0.1,0.1,0.3,0.1,0.4l0.3,0.8
			l0.1-0.4l0.1-0.4v-0.2l0-0.2l0-0.2l0.2-0.7l0.1-0.4l0.1-0.3l0.1-0.3l0-0.3l0-0.2l0.1-0.4l0.1-0.6c0.1-0.2,0.2-0.5,0.2-0.7
			c0.1-0.2,0.2-0.4,0.2-0.6l0.3-0.9l0-0.2l0-0.2l0.1-0.4l0-0.2l0-0.2l0-0.2l0.1-0.2v-0.2c0.1-0.2,0.2-0.4,0.2-0.6l0.2-0.9h0.5h0.2
			h0.6h0.2h0.8h0.1h0.6l0,0.3l-0.1,0.2c0,0.1,0,0.2,0,0.2l-0.4,1.3c-0.1,0.2-0.1,0.4-0.2,0.6v0.2c-0.1,0.2-0.2,0.4-0.2,0.6l-0.1,0.2
			l0,0.3l0,0.2l0,0.2l0,0.2l0,0.2c-0.1,0.2-0.1,0.3-0.1,0.4l-0.1,0.4c-0.1,0.4-0.2,0.7-0.3,0.9l-0.1,0.3l-0.1,0.3l-0.1,0.3l0,0.4
			l-0.1,0.2l0,0.3l0,0.2l0,0.2l-0.2,0.7l-0.1,0.3l0,0.2l0,0.2l0,0.2l0,0.2l0,0.1c-0.1,0.4-0.2,0.7-0.3,0.9l0,0.3l0,0.2
			c-0.2,0.4-0.3,0.7-0.3,1l-0.1,0.3l-0.1,0.3L401,56l-0.1,0.3l-0.1,0.6l-0.1,0.2c-0.1,0.4-0.2,0.6-0.3,0.9l0,0.3l-0.1,0.4l-0.1,0.6
			l-0.2,0.6l0,0.2l0,0.1c-0.3,0.4-0.5,0.7-0.8,1c-1.8,0.8-3.5,0.9-5.2,0.3l0.1-0.9l0-0.2v-0.2c0.1-0.2,0.1-0.4,0.1-0.6l0-0.2
			l0.1-0.7c1.7,0.6,2.8,0.4,3.3-0.7v-0.4l-0.1-0.4c-0.2-0.4-0.3-0.7-0.3-1.1l-0.1-0.4l-0.1-0.4c-0.1-0.2-0.2-0.4-0.2-0.6l-0.1-0.4
			l-0.1-0.3l0-0.3l-0.1-0.3l-0.1-0.4l-0.1-0.4l-0.1-0.4l-0.1-0.5l0-0.1l-0.4-1.3l0-0.2c0-0.2-0.1-0.3-0.1-0.4v-0.2
			c0,0-0.1-0.1,0-0.1l-0.3-0.8l0-0.3c-0.2-0.5-0.3-0.9-0.4-1.2c0-0.1-0.1-0.2-0.1-0.3l0-0.2c-0.1-0.3-0.2-0.6-0.3-0.9l0-0.1
			l-0.1-0.5l-0.1-0.2l0-0.2l-0.2-0.7l0-0.1l-0.4-1.3H393.7z"/>
		<path class="st1" d="M182.6,68.7h0.9h0.5h0.2h0.2h0.2h0.2h0.8h0.1h0.6h0.1h1.5c3.6-0.3,6,1.1,7.2,4.1c0.5,1.6,0.4,3.1-0.1,4.5
			c-0.6,1.4-1.6,2.4-2.9,2.8l0.1,0.1l0,0.2l0.4,0.8l0.1,0.3l0.1,0.3l0.4,0.8l0.2,0.5l0.1,0.2l0,0.2l0.1,0.4c0.1,0.2,0.2,0.4,0.2,0.5
			c0.1,0.2,0.2,0.4,0.3,0.5l0.1,0.3l0.1,0.3c0.1,0.2,0.2,0.5,0.3,0.7c0.2,0.3,0.4,0.6,0.4,0.9l0.1,0.1l0,0.1l0,0.1l0.2,0.5
			c0.1,0.2,0.2,0.3,0.2,0.5h-0.1H195h-0.6h-0.2h-0.8h-0.1h-0.6l-0.1-0.3c-0.2-0.4-0.4-0.7-0.4-1l-0.1-0.3l-0.1-0.3l0-0.2
			c-0.1-0.2-0.2-0.4-0.3-0.6l0-0.1l-0.1-0.2l0-0.2c0,0-0.1-0.1,0-0.1l-0.1-0.1l0-0.1l0-0.2l-0.3-0.6l-0.3-0.6l-0.1-0.2l0-0.2
			l-0.1-0.1l0-0.2l-0.1-0.2l0-0.1c-0.1-0.3-0.2-0.5-0.3-0.6l-0.6-1.4h-0.2h-0.8h-0.1h-0.6H187h-0.2h-0.1h-1V88h-0.2h-0.9h-0.2h-0.2
			H184h-0.8H183h-0.6v-0.2v-0.9v-0.4v-0.4v-0.2v-0.2v-0.9v-0.2v-1v-0.4V83v-0.9V82v-0.2v-1.6v-0.4v-0.2v-0.2v-0.9v-0.7v-0.2v-0.3
			v-0.2v-0.2V77v-1v-0.9V75v-0.6v-0.7v-0.2v-0.9v-0.2v-0.6v-0.6v-0.3v-0.7v-0.2v-0.9v-0.2v-0.6H182.6z M185.6,77.5h0.1h0.1h1h0.2
			h0.2h0.2h0.5h0.2h0.5h0.1h0.1h0.2h0.1h0.3c0.4,0,0.8,0,1.1-0.1c1.4-1,1.9-2.3,1.3-3.9c-0.3-0.8-0.8-1.3-1.5-1.7l-0.2-0.1l-0.2-0.1
			c-0.3-0.1-0.5-0.1-0.7-0.1h-0.6h-0.2h-0.9h-0.2h-0.2h-0.2h-0.8h-0.1h-0.6V77.5z"/>
		<path class="st1" d="M209,75.4l0.1,0.3c0.4,0.5,0.6,1,0.7,1.5c0.1,0.4,0.1,0.8,0.1,1.1V85c0.3,0.6,0.8,1,1.3,1.1l-0.1,0.2
			c0,0.1-0.1,0.1-0.1,0.1l0,0.2l-0.1,0.1c-0.1,0.2-0.2,0.3-0.3,0.5c-0.1,0.3-0.3,0.5-0.4,0.7c-0.1,0.3-0.3,0.6-0.4,0.8
			c-1-0.3-1.7-0.7-2.3-1.4h-0.1c-1.6,1.2-3.3,1.5-5.1,0.9c-1.8-0.6-2.9-1.8-3.2-3.5c0-3.3,1.9-5,5.7-4.9c0.1,0,0.2-0.1,0.2-0.1
			l0.1-0.1h0.1h0.2l0.1-0.1h0.1l1.2-0.2c0.3-2.8-1.8-3.4-6.4-1.6l-0.2-0.5l0-0.2l0-0.2l-0.1-0.1l0-0.1l-0.1-0.3
			c-0.1-0.2-0.2-0.3-0.2-0.5c-0.2-0.2-0.3-0.5-0.3-0.7l0.1-0.1l0.1-0.1l0.1-0.1l0.1-0.1h0.1c0,0,0.1-0.1,0.1-0.1
			c0.3-0.2,0.6-0.3,0.8-0.4l0.2-0.1c0.2-0.1,0.4-0.1,0.5-0.2l0.2-0.1l0.2-0.1c0.3-0.1,0.6-0.2,0.8-0.2l1.1-0.2
			C206.2,73.7,207.8,74.2,209,75.4z M205.9,81.8h-0.1h-0.1c-0.2,0-0.4,0.1-0.5,0.1l-0.2,0.1h-0.1c0,0-0.1,0.1-0.1,0.1h-0.1l-0.4,0.1
			l-0.4,0.1h-0.1c-0.2,0.1-0.4,0.2-0.6,0.3c-1,1-1.1,1.9-0.1,2.8c1.4,0.9,2.8,0.8,4.1-0.4c0.1-0.2,0.1-0.3,0.2-0.4l0-0.2l0-0.2v-0.6
			v-0.2v-0.9v-0.2v-0.6h-1C206,81.8,205.9,81.8,205.9,81.8z"/>
		<path class="st1" d="M225.8,76.6v0.2c0.1,0.2,0.2,0.4,0.2,0.6v10.5h-0.2h-0.6h-0.2h-0.2h-0.2h-0.8h-0.1H223v-0.4v-1v-0.2v-0.2
			v-1.6v-0.4v-0.2v-0.2v-1v-0.2v-0.3v-0.2v-0.2v-0.5v-0.2v-0.6v-0.2v-0.2v-0.2v-0.2v-0.4v-0.2v-0.2v-0.2V79l0-0.3
			c-0.5-1.7-1.6-2.2-3.1-1.7c-0.8,0.4-1.4,0.9-1.8,1.7l-0.2,0.9v8.4h-0.2h-0.2h-0.6h-0.2h-0.8h-0.1H215h-0.1h0.1h-0.1v-0.2v-0.3
			v-0.2v-0.2V87v-1v-0.4v-0.2v-0.3V85v-0.3v-0.7v-0.2V83v-0.2v-0.6v-0.4v-0.4v-0.3v-0.4v-0.3v-0.4V80v-0.9v-0.3v-0.3v-0.3V78v-0.9
			v-0.6v-0.2v-0.2V76v-0.2v-0.9v-0.2v-0.6h0.7h0.5h0.2h0.1h0.2h0.1h1v1.2c0.9-0.8,1.9-1.4,3-1.5C223.2,73.7,224.9,74.7,225.8,76.6z"
			/>
		<path class="st1" d="M229.8,68.7h0.6h0.2h0.2h0.2h0.8h0.1h0.6v10.8l0.2-0.2l0.2-0.3l0.1-0.1l0.1-0.1l0.1-0.1l0.1-0.1
			c0-0.1,0.1-0.1,0.1-0.1l0.5-0.6l0.1-0.2l0.5-0.5c0.2-0.2,0.3-0.4,0.5-0.5l0.1-0.2l0.1-0.2c0.1-0.2,0.2-0.3,0.3-0.4l0.1-0.2
			l0.1-0.2l0.1-0.2l0.1-0.1l0.1-0.2l0.1-0.1l0.1-0.1l0-0.1c0.2-0.2,0.3-0.4,0.4-0.5l0.1-0.1c0.1-0.2,0.2-0.3,0.3-0.4h0.1h0.6h0.8
			h0.5h0.2h0.8h0.1h0.6l0,0.1l-0.1,0.1l-0.1,0.1l0,0.1l-0.1,0.1c-0.1,0.2-0.2,0.3-0.3,0.4l-0.2,0.2l-0.1,0.3l-0.1,0.1
			c0,0.1-0.1,0.1-0.1,0.1c-0.3,0.3-0.5,0.6-0.7,0.8c0,0.1-0.1,0.1-0.1,0.1c-0.2,0.3-0.5,0.5-0.7,0.7l-0.1,0.2l-0.3,0.3l-0.1,0.2
			L238,78l-0.1,0.1l-0.2,0.2l-0.1,0.2l-0.1,0.1l0,0.1l-0.1,0.1L237,79l0,0.1l-0.1,0.1c-0.2,0.2-0.3,0.4-0.5,0.5l0.1,0.4l0.2,0.3
			l0.1,0.2l0,0.1c0.1,0.2,0.2,0.3,0.2,0.4l0.1,0.2l0,0.2c0,0,0.1,0.1,0,0.1c0.2,0.3,0.4,0.5,0.5,0.8c0.2,0.3,0.4,0.5,0.5,0.8
			l0.2,0.2l0.1,0.3l0.2,0.2c0.1,0.3,0.3,0.5,0.4,0.6l0.1,0.2l0.1,0.3l0.1,0.2l0.1,0.2l0.1,0.2l0.1,0.2l0.1,0.2l0.1,0.2l0.4,0.6
			l0.1,0.2l0,0.2l0.1,0.1l0.1,0.2c0.3,0.5,0.5,0.9,0.7,1.2h-0.2h-0.9h-0.2h-0.2h-0.2h-0.8h-0.1h-0.6l-0.1-0.3c0,0-0.1-0.1,0-0.1
			c-0.2-0.3-0.4-0.5-0.5-0.8l-0.1-0.2l-0.1-0.3c-0.2-0.2-0.3-0.4-0.3-0.6l-0.1-0.2l-0.1-0.2l-0.1-0.2l-0.1-0.2l-0.1-0.3
			c-0.2-0.3-0.4-0.5-0.4-0.7l-0.1-0.2c-0.1-0.1-0.2-0.3-0.2-0.4l-0.1-0.2l-0.2-0.4l-0.1-0.2l-0.2-0.3l-0.1-0.2c0,0-0.1-0.1,0-0.1
			c-0.2-0.2-0.3-0.4-0.4-0.5c0,0.1-0.1,0.1-0.1,0.1l-0.1,0.2l-0.4,0.4c0,0.1-0.1,0.1-0.1,0.1l0,0.1l-0.3,0.3
			c-0.2,0.3-0.4,0.5-0.6,0.7V88h-0.2h-0.6h-0.2h-0.2h-0.2h-0.8h-0.1h-0.6v-0.2v-0.2v-0.2v-0.2v-0.9V86v-0.4v-0.2v-1v-0.2v-0.3v-0.2
			v-0.3v-0.7v-0.2v-0.9v-0.2V81v-0.2v-0.3v-0.7v-0.2v-0.9v-0.2v-0.6v-0.4v-0.4v-0.4v-0.4v-0.2v-0.2v-1.6v-0.4V74v-0.4v-0.3v-0.3
			v-0.3v-0.2v-0.9v-0.6v-0.2v-0.2v-0.2v-0.2v-0.9v-0.2v-0.6H229.8z"/>
	</g>
</g>
<rect x="0.3" class="st1" width="171.9" height="94.8"/>
<g class="st0">
	<path class="st2" d="M58.8,23.8l-0.9,0.5c-0.6,0.6-1.1,1.1-1.6,1.4L56,26.1l-0.5,0.5L55,26.8c-0.5,0.7-1.1,1.1-1.8,1.4
		c-0.6,0.8-1.3,1.4-2.1,1.8c-0.4,0.5-0.7,0.8-1.1,1.1c-4.7-6.1-10.5-8.8-17.4-8.1c-5.4,0.2-8.8,2.5-10.4,7c0,3.1,0.9,5.7,2.8,7.7
		l1.2,0.7l0.5,0.2l1.9,0.9h0.9l0.7,0.2l0.9,0.2c0.6,0.3,1.2,0.4,1.8,0.5l0.7,0.2l0.7,0.2h0.5l1.4,0.4l4.4,1.1h0.5l0.5,0.2h0.5
		l0.5,0.2l2.5,0.5l0.5,0.2l0.7,0.2l1.4,0.5c1.6,0.4,2.8,0.9,3.7,1.4l0.4,0.4l0.5,0.2l0.4,0.5c0.4,0.2,0.8,0.4,1.1,0.7
		c0.2,0.1,0.3,0.2,0.4,0.4l2.1,1.9c3.8,5.6,4.7,11.3,2.6,17.2c-1.9,6.6-5.7,11.2-11.2,13.7c-0.8,0.5-1.5,0.8-2.1,1.1
		C30,84.4,17.6,80.5,8.4,69.5l0.2-0.4L8.9,69c0.1-0.1,0.2-0.2,0.4-0.2c0.7-0.8,1.4-1.4,2.1-1.8l0.5-0.5l2.1-1.8l0.4-0.2
		c0.1-0.1,0.2-0.2,0.4-0.2c0.9-1,1.8-1.8,2.6-2.3h0.5c7.5,9.9,16.6,12.3,27.2,7.2c0.6-0.7,1.3-1.3,1.9-1.8l0.2-0.5
		c0.7-0.9,1.1-1.9,1.4-2.8c0.3-3.9-1-6.9-3.9-9l-0.5-0.2c-0.7-0.3-1.3-0.4-1.8-0.5l-0.4-0.4h-0.5l-0.7-0.2l-0.4-0.2H40l-0.4-0.2
		c-1.1-0.2-2-0.4-2.8-0.7h-0.5l-1.4-0.4h-0.5l-0.7-0.2l-0.4-0.2c-1.1-0.2-2-0.4-2.8-0.7C18.8,50.2,12.3,44.2,11,33.5
		c0.3-12.8,7.2-19.7,20.9-20.9C44,11.5,52.9,15.3,58.8,23.8z"/>
	<path class="st2" d="M86.3,14.2h0.9h0.7h0.9h2.3h0.7h3h1.4h1.2v53.4L97.2,69c-0.4,1.8-0.8,3.3-1.2,4.4c-3.8,6.3-9.2,9.2-16.2,8.8
		c-0.1,0.1-0.2,0.2-0.4,0.2c-1.4,0.1-2.5,0-3.5-0.2h-1.2L72.4,82c-0.7-0.2-1.3-0.3-1.9-0.4l-1.4-0.4L67.7,81
		c-1.4-0.4-2.6-0.8-3.5-1.2l0.2-0.7c0.3-0.8,0.6-1.4,0.9-1.9l0.2-0.5l0.2-0.5l0.2-0.7l0.5-1.4l0.2-0.5l0.2-0.4l1.1-2.6l2.1,0.4
		l0.4,0.2l2.1,0.4l1.8,0.5l0.5-0.2h0.5c0.4,0.1,0.9,0.2,1.4,0.2h1.4l3.5-0.4l0.4-0.4c1-0.5,1.8-1.1,2.5-1.8l0.2-0.5
		c0.5-0.8,0.8-1.5,1.1-2.1l0.2-1.4v-0.5v-3.5v-0.9v-0.7v-3.2v-0.7v-0.7v-0.7v-3v-0.5v-2.1v-0.5v-0.5v-3.5v-1.4v-1.4v-0.5v-0.5v-5.5
		v-1.2v-1.1v-1.2v-1.1v-0.9v-1.1v-0.7v-3.2v-1.9v-0.7v-0.7v-0.7v-0.7v-3v-0.5v-2.1H86.3z"/>
	<path class="st2" d="M126.7,54.9v26.2h-0.7h-3.2h-0.7h-0.7h-0.7h-3h-0.5h-2.1v-0.7v-3.2v-1.4v-1.4v-0.5v-0.7v-3.2v-0.5V66v-1.4
		v-0.7v-3.2v-0.5v-0.5v-5.4V53v-0.5v-0.7v-3.2v-2.5v-0.5v-0.9v-0.5v-0.7V43v-3.5v-3V36v-2.1v-2.3v-0.7v-3v-0.5v-2.1v-1.9v-0.9v-2.3
		v-0.7v-3v-0.5v-2.1h0.7h3.2h1.9h0.7h0.7h0.7h0.7h3h0.5h2.1h0.5h5.4c12.7-0.9,21.2,3.9,25.5,14.4c1.8,5.6,1.1,10.7-0.5,15.6
		c-1.8,5.4-8.5,9-13.9,9.6l17.8,27.7H151L134,54.9L126.7,54.9z M126.7,44.6h0.5h0.5h3.5h0.9h0.7h0.9h1.8h0.7h-0.1h0.5h0.5h0.7h0.5
		h1.2c1.6,0,2.9,0,3.9-0.2c5-3.6,6.6-8.1,4.7-13.7c-1.2-2.7-3-4.6-5.5-5.8l-0.9-0.2l-0.9-0.2c-0.9-0.2-1.8-0.2-2.5-0.2h-0.3h-0.7
		h-3.2h-0.7H133h-0.7h-3h-0.5h-2.1V44.6z"/>
</g>
</svg>
