<?xml version="1.0" encoding="UTF-8"?>
<svg enable-background="new 0 0 1920 647.6" version="1.1" viewBox="0 0 1920 647.6" xml:space="preserve" xmlns="http://www.w3.org/2000/svg">
<style type="text/css">
	.st0{fill:url(#d);}
	.st1{fill:url(#c);}
	.st2{fill:url(#b);}
	.st3{fill:url(#a);}
	.st4{fill:#235887;}
</style>
<linearGradient id="d" x1="958.27" x2="961.75" y1="1365" y2="1394.6" gradientTransform="translate(0 -860)" gradientUnits="userSpaceOnUse">
	<stop stop-color="#96989B" offset="0"/>
	<stop stop-color="#999B9E" offset=".104"/>
	<stop stop-color="#A1A3A6" offset=".1687"/>
	<stop stop-color="#B0B2B5" offset=".2225"/>
	<stop stop-color="#B4B6B9" offset=".2345"/>
	<stop stop-color="#C6C8CB" offset=".5075"/>
	<stop stop-color="#F0F2F5" offset="1"/>
</linearGradient>
<polygon class="st0" points="0 640.1 0 647.5 1920 426.8 1920 391.9"/>
<linearGradient id="c" x1="959.85" x2="967.09" y1="-265.36" y2="-313.77" gradientTransform="matrix(1 0 0 -1 0 220)" gradientUnits="userSpaceOnUse">
	<stop stop-color="#00264A" offset="0"/>
	<stop stop-color="#052A55" offset=".1655"/>
	<stop stop-color="#052E59" offset=".4837"/>
</linearGradient>
<polygon class="st1" points="1920 331.8 1920 395.1 0 640.9 0 627.7"/>
<linearGradient id="b" x1="959.67" x2="966.09" y1="-231.94" y2="-269.11" gradientTransform="matrix(1 0 0 -1 0 220)" gradientUnits="userSpaceOnUse">
	<stop stop-color="#002A52" offset="0"/>
	<stop stop-color="#0B3463" offset=".1655"/>
	<stop stop-color="#0A3665" offset=".4837"/>
</linearGradient>
<polygon class="st2" points="1920 279 1920 332.8 0 628.7 0 613.2"/>
<linearGradient id="a" x2="1920" y1="-519.36" y2="-519.36" gradientTransform="matrix(1 0 0 -1 0 -212.11)" gradientUnits="userSpaceOnUse">
	<stop stop-color="#1D3C69" offset="0"/>
	<stop stop-color="#1D4E7D" offset="1"/>
</linearGradient>
<path class="st3" d="M0,0.3h1920V280L0,614.2V0.3z"/>
<path class="st4" d="m49.5 1v-0.7h-1.1v0.7c0.4 0 0.8-0.1 1.1 0z"/>
<path class="st4" d="m402.9 476.9-22.7 17.6-10 7.7c0.3 0.4 0.5 0.7 0.7 1l32.7-25.4c-0.3-0.3-0.5-0.6-0.7-0.9z"/>
<path class="st4" d="m1605.5 239"/>
<polygon class="st4" points="1605.4 237 1680.6 186.4 1679.8 186.8 1605 237.2"/>
<polygon class="st4" points="1674.2 203 1674 203.1 1661 227.5 1661.2 227.5 1665.2 219.9"/>
<path class="st4" d="M921.4,309.8c-0.4,0-0.8,0-1.1-0.1L909,456l1.1-0.2l8.1-104.6L921.4,309.8z"/>
<path class="st4" d="m934.9 26.9-3.7-26.6h-0.8l3.7 26.3c0.3 0.1 0.5 0.2 0.8 0.3z"/>
<path class="st4" d="m648.1 4.1-0.1-3.8h-0.8l0.1 3.8h0.8z"/>
<path class="st4" d="m376.4 119.4c-0.2-0.1-0.4-0.3-0.6-0.5l-58.6 71.8c0.2 0.1 0.4 0.3 0.6 0.5 0 0 58.6-71.8 58.6-71.8z"/>
<path class="st4" d="m362 49.1c0.1-0.1 0.3-0.2 0.4-0.3l-46.5-48.5h-1.1l47 49 0.2-0.2z"/>
<path class="st4" d="m1834.8 28.3-8.2-28h-0.6l8.2 28.2c0.2-0.1 0.4-0.1 0.6-0.2z"/>
<path class="st4" d="m1839 29.5c0.1 0.1 0.1 0.1 0 0l0.4 0.4 31.7-29.6h-0.8l-9.2 8.6-22.1 20.6z"/>
<path class="st4" d="m1226.1 242.7c0 0.2-0.1 0.4-0.1 0.6l81.8 16.8c0-0.2 0.1-0.4 0.1-0.6l-81.8-16.8z"/>
<path class="st4" d="m861.6 4.3 1.9-4h-0.9l-2.1 4.6c0.3-0.2 0.7-0.4 1.1-0.6z"/>
<path class="st4" d="m1142.5 3c2.1 1.8 5.1 2.6 8 1.8 1.3-0.4 2.5-1 3.4-1.9 0.3-0.3 0.6-0.5 0.8-0.8l0.1-0.1c0.2-0.3 0.5-0.6 0.7-0.9 0.2-0.2 0.3-0.5 0.5-0.8h-15.5c0.3 0.7 0.7 1.3 1.2 1.9 0.3 0.3 0.5 0.6 0.8 0.8z"/>
<path class="st4" d="m825.2 1.7c0.1 1.2 0.6 2.3 1.5 3.2 2 2 5.2 2.1 7.3 0.3 0.1-0.1 0.2-0.2 0.4-0.3 0.1-0.1 0.1-0.2 0.2-0.2 0.3-0.3 0.5-0.7 0.7-1 0.1-0.2 0.2-0.5 0.3-0.7 0.3-0.8 0.4-1.7 0.3-2.7h-10.8v0.6c0 0.3 0 0.5 0.1 0.8z"/>
<path class="st4" d="m1831.4 192.4c-0.8-0.8-1.9-1.2-2.9-1.1-0.2 0-0.4 0-0.6 0.1-0.5 0.1-0.9 0.3-1.3 0.6-0.2 0.1-0.3 0.2-0.4 0.4l-0.4 0.4c-0.7 0.8-0.9 1.8-0.8 2.8 0 0.2 0.1 0.4 0.1 0.6 0.2 0.6 0.5 1.1 0.8 1.6l-21.1 24.2c0.2 0.1 0.3 0.2 0.4 0.4l21.1-24.2 0.1 0.1c1.5 1.1 3.6 1 5-0.3 0.9-0.8 1.2-2 1.1-3.1 0-0.5-0.1-0.6-0.1-0.8-0.2-0.6-0.5-1.2-1-1.7z"/>
<path class="st4" d="m1384.8 347.6-34.3 31.5 1.1-0.2 33.6-30.9c-0.1-0.1-0.2-0.3-0.4-0.4z"/>
<path class="st4" d="m1633.1 287.1 55.7 33.1 0.9-0.2-14.9-8.9 15.2 8.8 0.8-0.1-57.4-33.3c-0.1 0.3-0.2 0.4-0.3 0.6z"/>
<path class="st4" d="m1840.5 32.5c-0.1-1-0.5-1.8-1.1-2.5l-0.4-0.4c-1.2-1.1-2.8-1.5-4.2-1.2-0.2 0-0.4 0.1-0.6 0.2-0.6 0.2-1.2 0.6-1.7 1.1-0.2 0.2-0.5 0.5-0.6 0.8-0.2 0.3-0.4 0.6-0.5 1-0.6 1.6-0.2 3.5 1.1 4.8 0.2 0.2 0.4 0.3 0.5 0.4l-20 30.5-5.7-45.8 24 10.1c0.1-0.3 0.3-0.7 0.5-1l-21.1-11.9c0.8-1.7 0.6-3.9-0.9-5.3-1.8-1.9-4.8-1.9-6.6-0.1-0.4 0.4-0.7 0.9-1 1.4v0.1l-38.5-14.4h-1.7l33.8 12.6 6.2 2.3c-0.3 0.8-0.3 1.6 0 2.5 0 0.2 0.1 0.4 0.2 0.5 0 0.1 0.1 0.2 0.2 0.3 0.1 0.3 0.3 0.6 0.5 0.8 0.1 0.1 0.2 0.3 0.3 0.4 0.5 0.5 1 0.8 1.6 1.1 0.2 0.1 0.4 0.1 0.6 0.2 0.1 0 0.2 0.1 0.2 0.1 0.2 0 0.4 0 0.6 0.1h0.8c0.3 0 0.7-0.1 1-0.2 0.7-0.2 1.3-0.6 1.8-1.1 0.2-0.2 0.5-0.5 0.6-0.8l10.6 6 10.1 5.7-23.3-9.7c-0.3 0.1-0.7 0.2-1 0.2h-0.2l5.8 46.7-4.5 6.8-2.2 3.4-6.3-9.5 0.3-2.1 6.3-45.3c-0.2 0-0.4 0-0.6-0.1l-1.7 12.4-4.8 34.4-6-9 12.3-37.9c-0.2 0-0.4-0.1-0.6-0.2l-12.1 37.5-20.1-30.1 28.5-9.6 1.8 0.8c-0.2-0.3-0.4-0.5-0.5-0.8l-0.5-0.2 0.3-0.1c-0.1-0.2-0.1-0.4-0.2-0.5l-0.8 0.1-42.2-17.7h-1.5l42.9 18-28 9.4-18.4-27.4h-1.4l18.6 27.8-93.2 31.4c-0.3-0.8-0.8-1.4-1.3-2.1-0.3-0.3-0.6-0.5-0.9-0.8l5.6-9.1 29.1-47.2h-0.7l-21.6 35.1-12.9 20.9c-2.4-1.3-5.5-1-7.5 1l-0.3 0.3-52.1-38.6 25.5-18.7h-1.9l-24.6 18-24.1-18h-1l24.6 18.4-9.9 7.3-49.1-25.7h-1.2l42.8 22.4 7 3.7-55.6 40.8-4-26.9c-0.1-0.1-0.1-0.2-0.2-0.3l0.2 0.2c0.2 0.3 0.5 0.7 0.8 1 2.1 2.1 5.6 2.1 7.7 0s2.2-5.6 0-7.7c-1-1-2.4-1.6-3.7-1.6l-0.9-31.6h-0.6l0.9 31.6h-0.4l-6.8-31.6h-0.6l6.8 31.7c-0.2 0.1-0.4 0.1-0.7 0.2l-5.3-11-3.2-20.9h-0.6l2.9 19.1-9-19.1h-0.6l10 21 1.4 9.4 0.1 0.4-21.2-18.9 2.9-11.9h-1.2l-0.1 0.6-2.5 10.4-12.6-11h-0.9l13.1 11.8-6.3 25.9-107.3 2.4 38.1-40.1h-1.6l-38.1 40.1-4.1 0.1c-0.1-0.9-0.5-1.8-1.2-2.5-0.9-0.9-2.1-1.3-3.2-1.2l-1-7.3v-0.1c0.7-1.3 0.9-2.8 0.4-4.3-0.3-0.9-0.7-1.8-1.4-2.5v-0.1l-3.2-22.2h-0.6l3 21.4c-1.2-0.8-2.7-1.3-4.3-1.1h-0.3 0.2l-4.4-20.3h-1.5l4.8 20.6c0.1 0 0.1-0.1 0.2-0.1s0.2-0.1 0.4-0.1c-0.1 0-0.2 0.1-0.3 0.1s-0.1 0-0.2 0.1h-0.1c-1.1 0.4-2 1-2.7 1.8-0.2 0.2-0.3 0.3-0.4 0.5 0.1-0.2 0.2-0.3 0.3-0.5l-31.2-22.4h-2l32.6 23.3c-0.3 0.5-0.5 1.1-0.7 1.6-0.1 0.4-0.1 0.7-0.1 1.1 0 0.5 0 1 0.1 1.4 0 0.3 0 0.4 0.1 0.5 0.9 3.2 4.2 5.1 7.5 4.2 1.3-0.4 2.4-1.1 3.2-2.2l0.9 6.6c-0.7 0.2-1.5 0.5-2 1.1-1.1 1.1-1.4 2.6-1.1 4l-96.4 32.4-7.1 2.4v-0.1c-0.3-0.8-0.7-1.5-1.3-2.1-0.5-0.5-1-0.8-1.6-1.1l16.4-36.1 81.3-9.5c-0.1-0.5-0.2-1-0.1-1.4 0-0.4 0.1-0.8 0.1-1.1l-71.7-9 7.3-16.1h-0.6l-7.3 16-48.3-6.1-2.9-9.9h-0.6l2.9 9.9-32.2-4 2.4-5.9h-0.6l-2.4 5.8-20.8-2.6-0.6-3.2h-0.8l0.6 3.1-14.3-1.8 0.1-1.3h-0.6l-0.1 1.3-9.1-1.3h-9.1l18.4 2.3-0.4 12-18.2-14.3h-0.7l19 15v0.8l-34-15.7h-1.9l35.8 16.6-0.4 11-36.5-26.7c-0.2 0.3-0.4 0.6-0.7 0.9l37.1 27.2v0.6l-8.9 0.2-28.3-27.9c-0.2 0.3-0.5 0.6-0.8 0.8l27.5 27.1-33.2 0.6-12.3-21.1 6.5-6.6c-0.3-0.2-0.6-0.5-0.8-0.8l-6.3 6.4-4.8-8.3h-0.7l5 8.7-22.1 22.3-86.5 1.6 23-32.6h-0.7l-23 32.6-8.4 0.2 18.7-32.8h-0.7l-18.7 32.8h-2.7l3.6-32.8h-0.8l-3.6 32.8-51.2 1c-0.1-0.8-0.2-1.6-0.4-2.4-0.7-2.6-2.3-4.8-4.2-6.3l-13.7 17.6 2.9 3.4c2.1 0.6 4.4 0.7 6.6 0.1 4.3-1.2 7.4-4.6 8.4-8.6v-0.1l46.7 9.7-21.2 37.1-6.4 1.5-34.3-39.8-2.9-3.4 13.6-17.6 4-5.1 50.6-19.9h-1.5l-48.2 19.1 14.7-19.1h-1l-15.1 19.6-4.6 1.8 17.6-21.4h-1l-18.1 22-0.5 0.2 6.1-22.2h-1.2l-6.2 22.8-0.2 0.1c-1.8-0.4-3.7-0.3-5.7 0.2-2.8 0.8-5.1 2.5-6.6 4.7l-1.8 0.7 0.1-28.5h-0.8l-0.1 16.6v12.1h-0.1l-0.2-0.1c0 0.1 0.1 0.1 0.1 0.2 0.1 0.2 0.1 0.3 0.2 0.5v0.2c0.2 0.9 0.2 1.8 0 2.6v0.4h-0.1c-0.2 0.4-0.4 0.7-0.6 1.1l0.7 0.1v1.8l-1.2-1.4c0.1-0.1 0.2-0.3 0.3-0.4 0.3-0.3 0.5-0.7 0.6-1.1 0.1-0.1 0.1-0.3 0.1-0.4 0.3-0.9 0.3-1.8 0-2.6v-0.2c-0.1-0.2-0.1-0.3-0.2-0.5 0-0.1-0.1-0.1-0.1-0.2-0.2-0.4-0.5-0.8-0.8-1.2-0.4-0.4-0.9-0.7-1.3-0.9-0.3-0.1-0.5-0.2-0.8-0.3-0.7-0.2-1.3-0.2-2-0.1l-7.2-26.2h-0.6l7.2 26.3-63.6-26.3h-2.8v0.1l20.8 8.6 44.3 18.4c-0.2 0.1-0.4 0.3-0.5 0.4-1.1 1.1-1.5 2.6-1.3 4 0.1 0.3 0.1 0.6 0.3 0.9 0.1 0.2 0.2 0.4 0.2 0.5 0.2 0.4 0.5 0.8 0.8 1.2 0.3 0.3 0.7 0.6 1.1 0.8 0.2 0.1 0.3 0.2 0.5 0.3 1.3 0.5 2.8 0.4 4-0.3 0.1 0 0.1-0.1 0.1-0.1l0.1 0.1 1.1 7.9c0.2 0 0.5-0.1 0.8-0.1l-0.9-6.3 1.1 1.7v4.5l-0.1 0.2h-0.3c-0.3 0-0.5 0.1-0.8 0.1-1.3 0.2-2.5 0.9-3.5 1.8-0.5 0.5-0.9 1.1-1.2 1.7 0 0 0 0.1-0.1 0.2l-4.7-2.2 4.3-9.1c-0.2-0.1-0.3-0.2-0.5-0.3l-4.3 9.1-11.2-5.1 13.6-5.9c-0.1-0.2-0.2-0.3-0.2-0.5-0.1-0.3-0.2-0.6-0.2-0.9l-39.3-4.8-21.1-9.6-9.9-4.5 4.6-9.5 0.1-0.2c1-0.9 1.7-1.8 2.3-3v-0.1h-1.4l-2 4.1-4.1 8.5-0.6-0.3 3.5-7.7 2.1-4.6h-0.5l-2.3 5-3.3 7.1-13.7-6.3 4.2-2.8 1.7-1.2c2.3 2.9 6.4 4.4 10.2 3.3 0.3 0 0.6-0.1 0.8-0.1l2.3-5h-14.4c0.1 0.3 0.3 0.6 0.4 0.8l0.1 0.1-6.5 4.4-5.8-2.7c-0.1 0.2-0.2 0.5-0.3 0.7l5.4 2.5-2.9 2-3.3-3.4c-0.1 0.1-0.1 0.2-0.2 0.2-0.1 0.1-0.2 0.2-0.4 0.3l3.2 3.3-7 4.7 0.6 0.9 7.1-4.8 13 13.5-18.5-2.2c0.1-1.2 0-2.5-0.4-3.8-0.2-0.9-0.7-1.9-1.2-2.7l-0.6-0.9c-2-2.6-4.9-4.2-8.2-4.5h-1.1c-0.9 0-1.8 0.1-2.7 0.4-6 1.7-9.5 7.9-7.9 13.9 0.3 1.1 0.8 2.1 1.3 3 0.2 0.3 0.4 0.6 0.7 0.9 0.6 0.7 1.3 1.4 2 2l0.9 0.6c2.6 1.6 5.8 2.2 9 1.3 1.7-0.5 3.2-1.3 4.3-2.4l1.3 1.4 12.4 12.9-7.1 15.5-33.9-8.8 13.8-19.9-0.9-0.6-12.1 17.4-2 2.9-14.3-3.7 26.4-18.5c-0.2-0.3-0.5-0.6-0.7-0.9l-27 18.9-28.1-7.3 10.9-33.2 53.8-2.7-0.2 6.8h1.1l0.2-6.9 3-0.1c0-0.3-0.1-0.5-0.1-0.8l-2.8 0.2v-0.7h-1.1v0.8l-53.6 2.7 1.1-3.5h-1.2l-1.1 3.6-56.6 2.8 32-6.4h-3l-33.2 6.5-15 0.8c-0.1 0-0.2-0.1-0.2-0.1-0.6-0.2-1.3-0.2-1.9 0.1-0.1 0-0.1 0.1-0.2 0.1l-34.4 1.7v0.2-0.1c-0.1-1.3-0.7-2.5-1.7-3.5-1.1-1.1-2.5-1.7-4-1.7h-0.8c-1.3 0.1-2.7 0.7-3.7 1.7-0.8 0.8-1.4 1.9-1.6 3l-32.8-3.7-2.8-5h-1.3l2.7 4.9-43-4.9h-6.8l50.3 5.7 15.8 27.8-40.2 41-48.1 49.1c0.1 0.1 0.3 0.2 0.4 0.3s0.1 0.2 0.2 0.2l5.5-5.6 82.6-84.3 1.6 2.8 48.3 85.1-3.1 2.2-44.4 1.1-89 2.2v0.8l6.8-0.2 125.5-3.2-17.4 12.2c0.2 0.3 0.5 0.6 0.7 0.9l18.8-13.2 3.7-0.1 7.3 12.8-28.3 4.3c0.1 0.4 0.1 0.7 0.2 1.1l28.7-4.4 20.6 36.4c0.3-0.2 0.6-0.4 1-0.6l-20.4-36 39-5.9-13.5 41.4c0.4 0.1 0.7 0.2 1.1 0.4l13.7-42 18.7-2.8-27.8 40-4.5 4.8-0.9 0.9-7.9 8.4-0.9 0.9-49.5 52.4-2.7-31.8 51.7-20.4c0 0.1 0.1 0.1 0.1 0.2l0.6-0.6 0.4-0.5 7.9-8.4 0.9-0.9h-0.1c-0.4-0.1-0.7-0.3-1.1-0.4-1.2-0.3-2.5-0.3-3.8 0.1-0.4 0.1-0.8 0.3-1.2 0.5-0.3 0.2-0.7 0.3-1 0.6-0.5 0.4-1 0.8-1.5 1.3l-48.8-27.3c-0.2 0.3-0.4 0.7-0.6 1 0 0 0 0.1-0.1 0.1l16.7 9.6 31.7 18.2-0.1 0.1c-0.4 0.6-0.5 1.3-0.7 2.1l-53.4-2.2-1.9-23c0.4-0.1 0.8-0.2 1.2-0.2 2.8-0.8 5-2.5 6.4-4.7 0 0 0-0.1 0.1-0.1 0.2-0.3 0.4-0.7 0.6-1 0.9-1.9 1.4-4 1.1-6.1 0-0.4-0.1-0.7-0.2-1.1-0.1-0.3-0.1-0.5-0.2-0.8-0.3-1.1-0.8-2.1-1.3-3-0.2-0.3-0.4-0.6-0.7-0.9-2.7-3.5-7.3-5.1-11.8-3.9-5.4 1.5-8.8 6.7-8.1 12.1l-49.7 8.2-32.4 5.4-15.2-26c-0.2 0.1-0.4 0.3-0.7 0.4l15.1 25.8-25.7 4.3 6.9-29.4c1.2 0.1 2.4-0.1 3.4-0.6 0.2-0.1 0.5-0.2 0.7-0.4 0.3-0.2 0.6-0.5 0.9-0.7 1.1-1.1 1.7-2.6 1.8-4.1v-0.8c-0.1-1.3-0.6-2.5-1.5-3.5-0.1-0.1-0.1-0.2-0.2-0.2-0.1-0.1-0.2-0.2-0.4-0.3-2.2-1.9-5.4-2-7.7-0.2-0.2 0.2-0.4 0.3-0.6 0.5-0.3 0.3-0.5 0.6-0.8 1l-65.9-35.4 10.6-30 56.2 64.2c0.2-0.2 0.4-0.3 0.6-0.5l-56.5-64.6 20.7-58.6h-1.2l-20.4 57.8-48.1-55-2.4-2.8h-1l45 51.5 6.2 7.1-10.7 30.4-64.1-34.3c0.8-2.1 0.5-4.5-1.1-6.2-0.8-0.9-1.6-1.4-2.6-1.7l5.8-29.4 15.2-17.4h-1l-13.9 15.9 3-15.9h-0.8l-3.3 17-27.5 31.4v-0.1l-0.1-0.1 30.8-48.2h-0.9l-27.7 43.4 12.1-22.3 11.4-21.1h-0.9l-25.8 47.6c-1.9-0.8-4.2-0.5-5.8 0.9-0.1 0.1-0.3 0.2-0.4 0.3l-0.2 0.2c-0.4 0.5-0.8 1-1 1.6-0.1 0.2-0.2 0.5-0.2 0.7-0.1 0.2-0.1 0.4-0.1 0.7s-0.1 0.5-0.1 0.8c0 1.4 0.5 2.9 1.6 4 2 2.2 5.6 2.2 7.8 0.1 1.1-1 1.6-2.4 1.7-3.8l13-0.3c0.1-0.1 0.1-0.3 0.1-0.4v-0.8l-13.3-0.6c-0.3-0.8-0.7-1.5-1.3-2.1h-0.1l26.7-30.3-5 25.5-0.5 2.6h-0.1c-1.7-0.2-3.4 0.3-4.7 1.6-1 0.9-1.5 2.1-1.6 3.4 0 0.3-0.1 0.5 0 0.8v0.4c0.1 1.3 0.6 2.5 1.6 3.5 0.8 0.8 1.7 1.3 2.7 1.5l-3.1 17.9-5.7 32.9c0.2 0 0.4 0.1 0.7 0.1l3.3-19.2 5.5-31.6c1.1 0.1 2.2-0.1 3.2-0.6 0 0 0.1 0 0.1-0.1l49.8 79.2-10.1 28.6-48.7-47c1.9-2.2 1.8-5.6-0.3-7.7-0.8-0.8-1.7-1.3-2.7-1.5-0.3-0.1-0.5-0.1-0.8-0.1-1.6-0.2-3.3 0.3-4.6 1.6v0.1c-0.2 0.2-0.3 0.4-0.5 0.6-1.5 1.9-1.5 4.4-0.3 6.5l-63.9 50.4-6.6-108-0.3-5h0.2c1.2-0.1 2.5-0.7 3.7-1.8l17.7 15.2 49.4 42.6c0.2-0.2 0.3-0.4 0.5-0.6l-67.1-57.8c0.7-0.9 1.1-2 1.3-3.1l50.5 3.3c0-0.3 0-0.5 0.1-0.8l-26.3-1.8 26.4 1.1c0.1-0.3 0.1-0.5 0.2-0.7l-50.8-2.1c0-1.6-0.6-3.2-1.9-4.5-2.1-2.1-5.2-2.5-7.7-1.1l-0.1 0.1-26.6-43h-0.9l23.7 38.1-27.1-38.1h-0.9l30.9 43.6c-0.1 0.1-0.2 0.3-0.4 0.4-2.5 2.5-2.6 6.6 0 9.2 1.3 1.3 2.8 1.9 4.5 1.9h-0.1l0.7 11.9 6.2 101.6-6.7 5.3-69.7-173.9h-0.8l69.9 174.4-3.9 3.1-108.2-171.3c2-1.5 3.5-3.7 4-6.1h-20.1c0 0.1 0.1 0.3 0.1 0.4 0.4 1.6 1.3 3 2.3 4.2l-49.1 50.1-3.7-2.8c0-0.1 0.1-0.1 0.1-0.2 1-1.6 0.9-3.8-0.6-5.3-0.5-0.2-0.8-0.5-1.2-0.7l18.5-45.8h-0.8l-18.3 45.5c-1.4-0.4-3.1-0.1-4.2 1-0.2 0.2-0.5 0.5-0.6 0.8-0.1 0.2-0.3 0.4-0.3 0.7-0.3 0.7-0.3 1.4-0.2 2.1 0 0.3 0.1 0.5 0.2 0.7 0.2 0.6 0.5 1.1 1 1.6s1.1 0.8 1.7 1c0.2 0.1 0.5 0.1 0.7 0.2 0.5 0.1 1 0.1 1.5 0 0.2-0.1 0.5-0.1 0.7-0.2 0.5-0.2 1-0.5 1.4-0.9l3.7 2.9-3.5 3.6-1.7-5.4c-0.2 0.1-0.5 0.2-0.7 0.2l1.8 5.8-6.3 6.4 2.9-12.2c-0.3 0-0.5-0.1-0.7-0.2l-3.2 13.4-25.9 26.3c-1.5-1.3-3.3-2-5.1-2.2h-1.9 0.2l-4.5-31 5.6-1.4-0.8 32.4h1.1l0.8-32.7 30.8-7.5c-0.1-0.2-0.1-0.5-0.2-0.7l-30.6 7.4 0.7-22.9 1.2-1 29.1 14.3c0.1-0.2 0.2-0.5 0.3-0.7l-28.8-14.1 40.1-33.2h-1.2l-39.6 32.8-1-0.5 0.4-17 11.8-15.3h-1l-10.8 14.1 0.3-14.1h-1.1l-0.4 15.6-9.2 11.9-2.3-1.1-3.8-26.4h-1.1l3.7 25.8-12.8-6.3c1.6-2.8 2.1-6.2 1.1-9.5-1.5-5.6-6.4-9.2-11.8-9.3h-1.1c-0.9 0.1-1.7 0.2-2.6 0.4-2.6 0.7-4.8 2.2-6.4 4.1l-0.1 0.1-6.1-4.6-0.1-0.7h-2.5l2.1 1.6 0.9 4.8-12.9-6.4h-1.7l14.8 7.3 2.1 10.9-12.8 5.4-12.4-23.6h-0.8l12.6 23.9-8.7 3.6-13.8-16.9v1.2l13.1 16-12.6 5.3-0.5-1v2.5l0.3-0.1 5.6 11.2-5.9 4.5v1.4l6.5-4.9 4.1 8.2-10.6 11.6v1.7l11.1-12.2 31.2 62.2-42.3 18.7v1.2l42.9-18.9 30.4 60.7-46.5 1.1-26.8-9.3v0.8l24.5 8.4-15.3 0.3-9.2-2.3v0.8l6.4 1.7-6.4 0.1v1.1l10.5-0.2 68.4 17.7 0.3-1.2-49.4-17 44-1 7.7 15.4c0.2-0.1 0.4-0.3 0.7-0.3l-7.5-15 14.2-0.3-3.6 14.9c-1-0.2-2.1-0.1-3 0.4-0.2 0.1-0.5 0.2-0.7 0.3-0.4 0.2-0.8 0.5-1.1 0.8-0.5 0.5-0.9 1.1-1.2 1.8-0.2 0.4-0.3 0.8-0.3 1.2-0.3 1.7 0.2 3.6 1.5 5 1.5 1.6 3.9 2 5.9 1.2 0.2-0.1 0.5-0.2 0.7-0.3 0.4-0.2 0.8-0.5 1.2-0.9 2-1.9 2.2-4.9 0.7-7.1v-0.1l22.4-17.7 34.1-0.8-10.9 61.7c-1.5-0.2-3 0.3-4.2 1.5-2 2-2 5.3 0 7.3 0.7 0.7 1.5 1.1 2.3 1.3h0.1l-6.9 36.1-38.7-81.2c-0.2 0.1-0.4 0.3-0.7 0.3l33.9 71.2 5.2 11-6 31.2-119.6-106.8v1l119.4 106.5-6.5 33.7-70.4 1.6-42.5-49.1v1.7l41 47.4-27.6 0.6-13.4-19.2v2l12 17.4-12 0.3v0.8l12.6-0.3 1.1 1.7-13.7-0.4v0.8l14.3 0.3 34.6 50-4.2 3.3-44.7-21.5v1.3l43.7 20.9-34.7 26.9-9 4.2v1.2l4.9-2.3-4.9 3.9v1l8.1-6.3 40.8-19.2c-0.2-0.3-0.4-0.7-0.5-1l-36.2 17.1 32.3-25.1 3.9 1.9c-0.6 1.6-0.8 3.4-0.3 5.2 0.1 0.3 0.2 0.5 0.3 0.8 0.1 0.4 0.3 0.7 0.5 1 1.8 3.1 5.3 4.8 8.9 4.1l48.2 168.2 1.2-0.2-45.3-157.8-2.6-8.9 53.4 128.9 5.3 35.9 1.1-0.2-4.6-31.3 12.4 30 1.5-0.3-3.7-50.9-8.2-117.4 15.8 5.5 47.7 153.8 0.7-0.1-47.5-153.4 28.8 10.1 21.1 142.9 0.8-0.1-21-142.4 102.4 35.7-64.8 103.8 1.1-0.2 64.5-103.5 87.1 30.3c0 0.1 0 0.1-0.1 0.2-0.5 1.7-0.5 3.5 0 5.4 0.3 1.1 0.8 2 1.3 2.9 0.2 0.3 0.4 0.6 0.7 0.9 0.7 0.8 1.5 1.5 2.5 2.1 0.3 0.2 0.7 0.4 1 0.5 1.8 0.8 3.8 1.1 5.8 0.7 0.3-0.1 0.6-0.1 0.8-0.2 0.1 0 0.2-0.1 0.3-0.1 5.1-1.6 8-6.9 6.6-12.1-0.2-1.1-0.6-2.1-1.3-3-0.2-0.3-0.5-0.6-0.7-0.9-0.4-0.5-0.9-1-1.5-1.4l-0.9-0.6c-2.2-1.3-5-1.8-7.7-1-2.9 0.8-5.3 2.9-6.4 5.6l-86.8-30.4 50.4-80.8c3.2 1.8 7.3 1.3 9.9-1.4 0.3-0.3 0.5-0.6 0.7-0.9l0.1-0.1 72.3 50.3 4.5 3.2-37.2 55.1 0.9 0.6 37.1-55.1 7.8 5.5-3 13.5c0.4 0.1 0.8 0.1 1.1 0.3l2.9-13 4.1 2.9-6 10.5c-0.2-0.1-0.4-0.1-0.6-0.2-0.4-0.1-0.7-0.2-1.1-0.3-1.1-0.2-2.2-0.1-3.3 0.2-4.2 1.2-6.7 5.5-5.5 9.7 0.2 0.8 0.6 1.6 1 2.3 0.2 0.3 0.4 0.6 0.7 0.9 1.3 1.4 3 2.3 4.9 2.6 0.4 0 0.8 0.1 1.1 0.1 0.6 0 1.3-0.1 2-0.3 1.9-0.5 3.3-1.6 4.3-3.1l42 24.1-22.5 8.4-27.9 10.4 2-39.4c-0.4 0-0.8 0-1.1-0.1l-2 39.9-36.8 13.7-3.9-15.7c-0.1 0-0.2 0.1-0.3 0.1-0.3 0.1-0.6 0.1-0.8 0.2l3.9 15.9-22.5 8.4 12.8-24.9c-0.3-0.2-0.7-0.3-1-0.5l-13.4 26-3.3 1.2-0.2-0.2c-1.9-1.9-5-1.9-6.9 0-0.9 0.9-1.4 2-1.4 3.2v0.1l-38.6 14.4 61.2-46.8c-0.2-0.3-0.5-0.6-0.7-0.9l-64.2 49.1-0.2 0.1 4-0.7 38.5-14.4v-0.1c0 0.2 0.1 0.5 0.1 0.7v0.1l-36.8 13.3 4.2-0.7 22.2-8-17.3 7.2 3.4-0.6 20.9-8.7-14.7 7.6 2.6-0.4 14.6-7.6-10 6.8 1.8-0.3 10.1-6.8c0.1 0.1 0.1 0.2 0.2 0.3 0.3 0.3 0.5 0.5 0.8 0.7 0.2 0.1 0.4 0.3 0.7 0.4 1.4 0.6 3 0.5 4.3-0.2 0.4-0.2 0.7-0.5 1.1-0.8 1.1-1.1 1.5-2.6 1.4-4 0.1-0.2 0-0.4 0-0.6l0.7-0.3-0.6 1.1c0.2 1.4-0.3 2.9-1.4 4-0.3 0.3-0.7 0.6-1.1 0.8l-1.5 2.9 1.3-0.2 4.8-9.4 24.5-9.4 2.9 11.5-4.9 2.5 2.4-0.4 2.7-1.4 0.2 0.9 1.1-0.2-0.3-1.1 32.8-16.8-0.6 12.3 1-0.2 0.6-12.7 54.1-27.7 9.4 5.4 21.3 20.1 1.1-0.2-19.2-18.4 25.9 14.9 1.6 2.1 0.8-0.1-0.7-0.9 1.4 0.8 2-0.3-5.2-3-9.2-12 22.9 13.5 1.1-0.2-26-15.2-7.1-9.1 0.1-0.1c0.1-0.1 0.3-0.2 0.4-0.4 2.9-2.8 2.9-7.5 0-10.4-0.9-1.1-2.3-1.8-3.7-2-0.3 0-0.5-0.1-0.8-0.1-2.1-0.2-4.2 0.5-5.8 2.1-0.2 0.2-0.4 0.5-0.6 0.7s-0.3 0.4-0.4 0.6c-1.1 1.8-1.4 4.1-0.8 6.1 0.1 0.3 0.2 0.5 0.3 0.8 0.1 0.2 0.2 0.5 0.3 0.7 0.3 0.4 0.5 0.8 0.8 1.2l-0.4-0.4-1.6-0.9 0.7-0.3c-0.1-0.2-0.2-0.4-0.3-0.7l-1.1 0.6-0.2-0.1 1.3-0.5c-0.1-0.3-0.2-0.5-0.3-0.8l-1.9 0.7-15.2-8.9c0.4-0.9 0.5-2 0.1-3.1-0.1-0.1-0.1-0.3-0.2-0.4l6.3-2.7 11.8 8.3c0.1-0.2 0.3-0.4 0.4-0.6l-11.4-8 19.7-8.4-1.7 12.1-0.2 1.5c0.3 0 0.5 0.1 0.8 0.1l1.9-14.1 26.7-11.4 9.7-1.1 7.8 62.5 1.3-0.2-7.7-62 141.3-16.3v0.1c0.1 0.4 0.1 0.7 0.2 1.1 1.6 5.8 7.6 9.2 13.4 7.6 0.9-0.2 1.7-0.6 2.4-1l25.6 40 1.3-0.2-25.9-40.4c0.9-0.6 1.7-1.4 2.3-2.2 0-0.1 0.1-0.1 0.1-0.2l54.3 37.4 1.5-0.3-55.3-38.1c1.4-2.5 2-5.5 1.1-8.4-0.1-0.9-0.3-1.6-0.6-2.2l78-44.1 156.4-88.5c-0.2-0.3-0.4-0.7-0.6-1l-234.3 132.6c-2.1-3.2-5.7-5.2-9.5-5l-3.2-37.7 50-21.3c0.1 0.2 0.2 0.4 0.4 0.5 1.1 1.1 2.9 1.1 4 0 0.8-0.8 1-1.9 0.7-2.9l3-1.5c-0.1-0.2-0.2-0.5-0.2-0.7l-3.2 1.6c-0.1-0.1-0.2-0.3-0.3-0.4-1.1-1.1-2.9-1.1-4 0-0.7 0.7-1 1.8-0.7 2.7l-49.8 21.2-0.2-2.2 58-25.6c0.1-0.3 0.2-0.6 0.3-1l-58.4 25.8-2.3-26.9-1.7-20.3 36.2-1.6 26.7 22c0.1-0.2 0.3-0.4 0.5-0.6l-26.1-21.5 12.5-0.5 14.2 21.5c0.2-0.2 0.4-0.3 0.6-0.4l-14-21.1 19.8-0.9-2.9 21.2c-0.9 0-1.9 0.2-2.7 0.7-0.2 0.1-0.4 0.3-0.6 0.4s-0.4 0.3-0.5 0.4l-0.1 0.1c-0.2 0.2-0.3 0.4-0.5 0.6-0.2 0.3-0.4 0.7-0.6 1.1-0.1 0.3-0.2 0.6-0.3 1-0.2 0.9-0.1 1.8 0.1 2.7 0.1 0.2 0.2 0.5 0.3 0.7 0.3 0.5 0.6 1.1 1 1.5 2.1 2.1 5.5 2.1 7.7 0 1.6-1.6 2-4 1.2-5.9l44.7-22.7 3.8-2c0.2 0.3 0.4 0.6 0.7 0.9 1.9 2 5.1 2 7.1 0 2-1.9 2-5.1 0-7.1-1.8-1.9-4.9-1.9-6.9 0-0.4 0.4-0.8 0.9-1 1.4l-23.4-8.6 52.4-71.8 33.3 2.5 68.4 38.2s0 0.1-0.1 0.1c-1 2.1-1.3 4.6-0.6 7 0.2 0.6 0.4 1.2 0.7 1.7 0.2 0.3 0.4 0.7 0.6 1 1.6 2.5 4.2 4.1 7.1 4.5 0.4 0.1 0.8 0.1 1.1 0.1 0.9 0 1.9-0.1 2.9-0.4 2.1-0.6 3.7-1.8 5-3.3l165.2 117.6 1.6-0.3-143.6-102.1-22.5-16.1 0.1-0.1c0.3-0.5 0.5-1 0.7-1.5l118.4 39.3 12 45.4c-0.5 0.2-1 0.5-1.4 0.9-1.5 1.5-1.5 3.9 0 5.4s3.9 1.5 5.4 0c1.5-1.4 1.5-3.7 0.2-5.2 0-0.1 0-0.1-0.1-0.1h0.1s0.1 0.1 0.1 0.2l30.2-31.2 66.9 22.2 28.1 26.5 0.9-0.1-27.7-26.1 35.9 11.9 5.7 11.8 0.6-0.1-4.2-8.8-1.2-2.4 24.1 8 2.6-0.5-27.5-9.1-2.2-4.7-23.5-48.9 21.2 18.2 34.2 44.1 0.6-0.1-32.6-42 46.3 39.6 1.8-0.3-31-31.7-50.3-51.5-0.2 0.2c-0.2 0.2-0.4 0.3-0.6 0.5l6.6 8.5 22.1 28.6-19-16.3-10-20.8c-0.2 0.1-0.3 0.2-0.5 0.3l9.1 19.2-20.4-17.4 6.4-3.6c0.1 0.2 0.3 0.3 0.4 0.5 1.1 1.1 2.7 1.4 4.1 0.9 0.2-0.1 0.3-0.2 0.5-0.3 0.1 0 0.1-0.1 0.2-0.1 0.2-0.1 0.4-0.3 0.6-0.5l0.2-0.2c0.6-0.7 0.9-1.5 0.9-2.3v-0.6c0-0.8-0.3-1.6-1-2.3l17.5-20.2 10.5-12.1 17.5 34.1-44.5 0.6v0.6l44.8-0.6 43.7 85.2 1.2-0.2-43.6-84.9 17.7-0.3 75.4-1.1c0.1 0.7 0.4 1.4 1 2 0.5 0.5 1.1 0.8 1.7 0.9 0.2 0 0.4 0.1 0.6 0.1 1 0.1 2.1-0.2 2.8-1l0.1-0.1c0.2-0.2 0.4-0.5 0.5-0.8 0.1-0.2 0.2-0.3 0.2-0.5 0.1-0.2 0.1-0.4 0.1-0.6s0-0.4 0-0.6c0.3-0.1 0.2-0.3 0.2-0.5-0.1-0.7-0.5-1.3-1-1.9-0.5-0.5-1.2-0.9-1.9-1l3.8-40.1h0.2c1.2 0 2.4-0.4 3.3-1.3 0.2-0.4 0.4-0.7 0.6-1 0.1-0.2 0.2-0.3 0.3-0.5 0.7-1.7 0.4-3.7-0.9-5.1-0.7-0.7-1.6-1.1-2.5-1.2l2.2-62.2h-0.6l-2.2 62-8.3-97.8v-0.3c0.3 0 0.5-0.1 0.8-0.1 0.1 0 0.3-0.1 0.4-0.1l-0.4-1.3-0.9-3-0.5-1.6-0.1-1.7 1 3.5 0.9 3 0.4 1.3 7.6 26.2c-0.1 0-0.3 0.1-0.3 0.1-0.7 0.2-1.3 0.6-1.9 1.2-2 1.8-2 5 0 7 0.9 0.9 2 1.3 3.1 1.5h0.6c0.8 0 1.7-0.3 2.4-0.7 0.2-0.1 0.3-0.2 0.5-0.3s0.4-0.3 0.5-0.4c1.6-1.6 1.9-3.9 1-5.8-0.1-0.2-0.2-0.3-0.3-0.5-0.2-0.3-0.4-0.6-0.7-0.8-0.3-0.3-0.6-0.5-0.9-0.7-0.2-0.1-0.3-0.2-0.5-0.3-0.8-0.4-1.7-0.5-2.5-0.4l-5.7-27.2 14.2 17.5-5.6 10.2c0.2 0.1 0.3 0.2 0.5 0.3l5.5-10 5.2 6.4-9.1 5.2c0.1 0.2 0.2 0.3 0.3 0.5l9.2-5.2 27.6 33.9-9.8 20.6-24-36.2-4.5-6.8c-0.2 0.1-0.3 0.2-0.5 0.3l28.7 43.3-15.8 33.2-13.8-7.2c-0.1 0.2-0.2 0.3-0.3 0.5l13.8 7.2-3.2 6.7-14.9 31.3-0.6 0.1c0 0.2 0.1 0.4 0.1 0.6h0.2l-0.3 0.6c0 0.2-0.1 0.4-0.1 0.6-0.1 0.2-0.1 0.4-0.2 0.5-0.1 0.3-0.3 0.5-0.5 0.8l-4.2 8.9 1.3-7.7c-0.2 0-0.4 0-0.6-0.1l-1.6 9.7-33.5 70.1 1.3-0.2 31.3-65.8-10.4 62.1h0.2l10.7-64.1 6.4-13.4 34.2 14.4-11.9 56.2 1-0.2 11.8-55.9 36.8 15.5c0.1-0.2 0.1-0.4 0.2-0.5l-5-2.1-31.9-13.4 4.3-20.3 12.6-1.2 20.7-2c0-0.2 0-0.4-0.1-0.6l-33.1 3.3 4.3-20.5 29.2 15.3c0.1-0.2 0.2-0.3 0.3-0.5l-29.3-15.4 5.1-24 25.3 38.2-0.3 0.3c-0.3 0.2-0.5 0.5-0.6 0.8-0.1 0.2-0.2 0.3-0.3 0.5-0.3 0.6-0.4 1.2-0.4 1.9 0 0.2 0 0.4 0.1 0.6 0.1 0.9 0.5 1.7 1.2 2.3 0.8 0.8 1.7 1.2 2.8 1.3l0.5 31.9h0.1c-1.5 0.1-2.9 0.7-4 1.8-0.5 0.5-1 1.1-1.3 1.8-0.1 0.2-0.2 0.3-0.2 0.5-0.8 2.1-0.4 4.4 1.1 6.2 0.1 0.1 0.2 0.3 0.4 0.4 2.5 2.4 6.4 2.4 8.9 0 0.5-0.5 0.9-1.1 1.2-1.7l41.3 17.7 0.5-0.1-15.3-6.6-26.3-11.6c0.8-2.2 0.3-4.7-1.4-6.5l33-36.1 30.6 37.5-5.3 20.6 0.6-0.1 5.2-20.3 13.8 17 1.3-0.2-14.4-17.7 6.9-27.3 24.8 42 0.9-0.2-25.7-43.8 6.4-25.2 3.8 3c0.1 1.4 0.7 2.7 1.7 3.8 1.4 1.4 3.3 2 5.1 1.7 0.5-0.1 0.9-0.2 1.4-0.4 0.1 0 0.2-0.1 0.2-0.1 0.2-0.1 0.3-0.2 0.5-0.3 0.4-0.3 0.8-0.5 1.2-0.9 1.1-1.1 1.7-2.6 1.8-4.1v-0.6c0-0.7-0.2-1.3-0.5-2 0 0 0 0.1 0.1 0.1l3.4-1.8 0.7 3.8-3.6 0.1v0.6l3.7-0.1 2.5 13.5-8.3-6.7-0.9-1.7c-0.2 0.1-0.3 0.2-0.5 0.3l0.3 0.6-0.5-0.4c-0.4 0.2-0.9 0.3-1.4 0.4l3.2 2.6 11.3 21.9 6.3 33.6 0.9-0.2-5.9-31.5 15.5 29.9 0.5-0.1-16.7-32.3-2.7-14.3 17 13.6 12.1 31.3 0.7-0.1-11.5-29.9 32.7 26.2 1.6-0.3-35.6-28.5-10.8-28.3 56.2-1.1 45.4-0.9 14.1 24-12.2 24.9 0.9-0.1 1.6-3.2 10.3-20.9 11.8 20 1.4-0.2-12.1-20.6 10.2-20.7c-0.2-0.1-0.3-0.2-0.5-0.3l-10 20.3-13.4-22.8 21-0.4c0.1 0.7 0.4 1.3 0.9 1.9 0.2 0.2 0.5 0.4 0.8 0.6 0.2 0.1 0.3 0.2 0.5 0.3 1.3 0.5 2.9 0.3 4-0.8 0.2-0.2 0.3-0.3 0.4-0.5s0.2-0.3 0.3-0.5c0.7-1.4 0.4-3.1-0.7-4.3 0-0.1 0-0.2-0.1-0.2h0.1l6.3-11.9 60.1 48.1 0.7-0.1-60.5-48.4 17.8-33.4 140.7-9.8c0.2 0.8 0.5 1.6 1.2 2.2 1.8 1.8 4.7 1.8 6.5 0 1.7-1.8 1.8-4.7-0.1-6.5l-0.4-0.4c-1.8-1.4-4.4-1.3-6 0.4-0.9 0.9-1.4 2.1-1.4 3.3v0.4l-140.2 9.8 3.9-7.2 163.7-32.8c-0.1-0.2-0.1-0.4-0.1-0.6l-68.6 13.4-95.1 18.7-0.3 0.5-55.4 10.9v0.1l7.3-1.4 47.2-9.2-3.8 7.1-50.7 3.5c0.1 0.2 0.1 0.3 0.1 0.5v0.5l50.7-3.5-17.6 33-33.9-27.1c-0.1 0.2-0.2 0.3-0.4 0.4l34 27.2-6.4 11.9c-0.2-0.1-0.3-0.2-0.5-0.3-1.1-0.5-2.3-0.4-3.3 0.1l-4.5-7.1-20.2-31.5c0.2-0.1 0.3-0.2 0.5-0.4l0.5-0.5c0.5-0.7 0.7-1.5 0.7-2.4v-0.5c-0.2-0.3-0.3-0.5-0.3-0.7-0.1-0.2-0.1-0.4-0.2-0.5-0.1-0.2-0.1-0.3-0.2-0.4-0.1-0.2-0.2-0.3-0.3-0.5-0.1-0.1-0.2-0.3-0.3-0.4-1.6-1.6-4.2-1.6-5.8 0s-1.6 4.2 0 5.9c1.3 1.3 3.3 1.6 4.9 0.7l24.8 38.6c-0.1 0.1-0.3 0.2-0.4 0.3-0.7 0.7-1 1.6-1.1 2.5v0.4l-21.2 0.4-27.1-46.1 42-21.7 59.9-31 1.5-1 0.3 0.3c0.2 0.2 0.4 0.4 0.6 0.5s0.3 0.2 0.5 0.3c1.3 0.6 2.9 0.3 4-0.7 1-1 1.3-2.4 1-3.7-0.1-0.2-0.1-0.4-0.2-0.5s-0.1-0.2-0.2-0.3l1.8-0.7 41.8-15.5h0.1l-43.4 16.7c0.1 0.2 0.1 0.4 0.2 0.5l44.2-16.9 8.7 2.2-65.5 33.6 7.7-14.5c-0.2-0.1-0.3-0.2-0.5-0.3l-8.3 15-68.7 35.2-0.6 0.4c0.1 0.2 0.2 0.3 0.3 0.5 0.1 0.1 0.2 0.3 0.2 0.4l68.7-35.2 0.5-0.9 66.9-34.3 80.1 20.6 4.3 4 0.4-0.4-3.5-3.3 1.2 0.3 2.3 3 0.4-0.4-1.8-2.4 3 0.8 0.1 1c0.2 0 0.4-0.1 0.6-0.1l-0.1-0.8 10 2.6-6 1.1c0 0.2 0.1 0.4 0.1 0.6l7.2-1.3 25.3 6.5-50.6 98.6 1.4-0.2 50.3-98.2 16.9 4.3c0 0.1 0 0.1-0.1 0.2-0.2 1.1-0.2 2.3 0.2 3.5 1.2 4.2 5.5 6.6 9.7 5.5 4.2-1.2 6.7-5.5 5.5-9.7-0.2-0.7-0.5-1.4-0.9-2l22.6-16.4v-2.8l-23.4 18.1c-0.9-1-2.1-1.8-3.4-2.2l26.7-108.2v-4.7l-27.9 112.6c-0.6-0.1-1.3-0.1-2-0.1l-4.4-28.5h0.2c3.2-0.9 5.2-4.3 4.2-7.5-0.9-3.2-4.3-5.2-7.5-4.2-2.1 0.6-3.6 2.1-4.2 4.1l-18.1-2.7-32-47.7 91.7-39.1v-0.6l-92 39.3-0.1-0.2 92.1-40.7v-0.6l-92.5 40.8-11.1-16.6-3.2-25.8 20.3-31c1.8 1 4.1 0.8 5.6-0.7 0.9-0.9 1.4-2.1 1.4-3.2v-0.1l79.5-3.5v-0.6l-79.5 3.6zm-903.1 4.9-1.3-2v-0.2l1.3 1.5v0.7zm-559.1 15-6.7 0.2v-0.5l6.7 0.3zm-291.9-18.9 0.4 0.2-0.4 0.3v-0.5zm-11.4 165.1-61.7-16 14.4-0.3 47.3 16.3zm268.4 346.9-1.4 0.6c0-0.1 0-0.1-0.1-0.2-0.1-0.2-0.2-0.3-0.3-0.5l2.3-0.9-0.5 1zm1.6-0.8 0.5-0.9 23.2-8.6 0.1 0.4-23.8 9.1zm61-14.3-33.1 16.9-2.8-11.4 36.3-13.9-0.4 8.4zm-36.1 4.7-0.1-0.4 7.1-2.6 29.5-11-36.5 14zm794.5-220.2 77.6 79.4-47.9-41-29.7-38.4zm634.9-244.6 5.9 8.8-9 13.8 3.1-22.6zm-6.7-10 6.2 9.3-3.4 24.4-24.1 36.8-1.2-0.9s22.5-69.6 22.5-69.6zm2.6 35-4.3 31.3-15.7 6.9-3.4-2.4 23.4-35.8zm-117.7-30c1-1.5 1.2-3.4 0.7-5.1-0.1-0.1-0.1-0.2-0.1-0.2l93.2-31.5 20.8 31.1-22.6 69.9-83-57.9-9-6.3zm-0.9 1.1 0.6-0.6 92.2 64.3-1.3 4.1c0.2 0 0.4 0.1 0.6 0.2l1.3-3.9 1.1 0.8-2.1 3.2c0.2 0.1 0.3 0.2 0.5 0.3l2.1-3.2 3.1 2.2-4.5 2c0.1 0.2 0.2 0.3 0.2 0.5l4.9-2.1 8.9 6.2c0.1-0.2 0.2-0.3 0.3-0.5l-8.6-6 14.9-6.3-1.4 10.3c0.2 0 0.4 0 0.6 0.1l1.5-10.6 27.2-11.6 4.7 37.9-29.5-4.5-1.3-1.6c-0.1 0.1-0.3 0.2-0.4 0.4l0.9 1.2-2.6-0.4c-0.7 0.2-1.4 0.2-2.2 0.1 0.6 0.1 1.2 0 1.9-0.1 0.6-0.2 1.2-0.4 1.7-0.8 0.2-0.1 0.3-0.2 0.4-0.4l0.3-0.3c2.2-2.1 2.2-5.6 0-7.8-0.6-0.8-1.6-1.3-2.7-1.5-0.2 0-0.4 0-0.6-0.1-1.6-0.1-3.2 0.4-4.4 1.6-0.2 0.2-0.3 0.4-0.4 0.5-0.1 0.2-0.2 0.3-0.3 0.5-0.9 1.4-1 3-0.6 4.6l-1.1 0.4-11.9-6.9c-0.1 0.2-0.2 0.3-0.3 0.5l11.5 6.7-2.9 1.1-0.7-0.1-1.1-1-6.9-6.5c-0.1 0.1-0.2 0.2-0.2 0.3l-0.1 0.1 7.4 7-143.8-21.9 10.6-17 25.1-40.3c2.4 1.3 5.4 0.8 7.4-1.1zm134.4 52 7.5-3.3v0.1l-7.5 3.2zm-16.3 32.1 28.7 4.4 2 15.9-27.3-15.9-3.4-4.4zm2.1 3.6-7.6-4.4 4.7 0.7 2.9 3.7zm-13.7-7.4 1.9 1.2-3.2-0.5 1.3-0.7zm-2.4 0.5-0.8-0.1 2.2-0.9 0.3 0.2-1.7 0.8zm2.5-1.2 0.6-0.3v0.1l-0.6 0.2zm0.7 0.5 0.3-0.2c0.1 0.2 0.2 0.4 0.4 0.5l-0.7-0.3zm-168.6-127.1 13 9.7 38.7 29c0 0.1-0.1 0.1-0.1 0.2l-0.2 0.2-61.2-31.9 9.8-7.2zm-10.4 7.5 61.6 32.1s-0.1 0.1-0.1 0.2c-1.1 2.3-0.7 5.2 1.2 7.1 0.3 0.3 0.6 0.5 0.9 0.8 0.1 0 0.2 0.1 0.2 0.1l-31.3 50.2-4.5 7.3-78.1-11.9-6.5-44.4 56.6-41.5zm-83.1 118.1-2.4-34 17.1 4.4 32.7 105.3c-0.5 0.2-1 0.5-1.4 0.9-0.2 0.2-0.3 0.4-0.5 0.6l-45.5-77.2zm12.1 101.3 37.1-15.4 4.9 8.4-77.5 40.1-1.4-3.6 27.5-23.7c-0.1-0.1-0.2-0.3-0.4-0.4l-22.3 19.2-5.1 4.4-9.9-25.6 36.1-0.9v-0.2c0.1 1.1 0.5 2.1 1.2 3 0.1 0.1 0.2 0.3 0.4 0.4 0 0 0 0.1 0.1 0.1 2.2 2.2 5.8 2.2 8 0 1.6-1.6 2-3.8 1.3-5.8zm-49.4 2.8h-1.1l0.1-2.7h-0.6l-0.1 2.7h-1.2l0.7-2.8c-0.2 0-0.4-0.1-0.5-0.2l-0.8 3-4.6 0.1 3.7-4c-0.1-0.1-0.3-0.2-0.4-0.3l-4 4.4-45.2 1.2-0.1-0.1-0.1-0.2 48-7.9c0-0.2-0.1-0.4-0.1-0.6l-15.1 2.5-33.1 5.4-41.3-69.9 134.7 66.2c-0.3 0.7-0.4 1.4-0.5 2.1v0.2l-36.3 0.9-1.2-3c-0.2 0.1-0.4 0.1-0.5 0.2l1.1 2.8h-0.9l-0.5-2.8c-0.2 0-0.4 0.1-0.6 0.1l0.5 2.7zm-33 19.5 3.7 3-7.4 8.1-12.8-21.7 16.5 10.6zm-17.1-11.6-2.3-3.9 15.1 12.1-12.8-8.2zm-3.2-6.1 43.9-1.1-19.2 21-24.7-19.9zm44.7-1.1 5-0.1-8.1 32-16.4-10.5 19.5-21.4zm-61.5-12.2-38.2-50 2.7-12.6 7.9 3.9 39.9 67.6c-0.5-0.3-1-0.5-1.5-0.7-0.2 0-0.4 0-0.7-0.1l-10.1-8.1zm8.5 8.3c-0.4 0.1-0.9 0.4-1.3 0.6-0.1 0.1-0.2 0.1-0.3 0.2l-4-5.3 5.6 4.5zm-68.6-79.6-16.4 9.3-0.6 0.4-10.5-8.4 6.2-11.3 2.7 0.6 19.6 4.5c-1.2 1.3-1.5 3.1-0.7 4.7 0.1 0.2 0.2 0.3 0.3 0.5 0.2 0.2 0.3 0.4 0.5 0.6 1 1 2.3 1.4 3.6 1.2 0.2 0 0.4-0.1 0.6-0.1 0.4-0.1 0.8-0.3 1.1-0.5l-0.2 0.2 11.2 14.7-6.2 13-6.1-27.2c-0.2 0.1-0.4 0.1-0.6 0.1l6.3 27.9-0.6 1.2-26.7-21.4 2.7-1.5 14.1-8c-0.1-0.2-0.2-0.3-0.3-0.5zm21.7 7.3-4.1 8.5-11-14.5 0.4-0.4c0.2-0.2 0.4-0.5 0.6-0.7 0 0 0 0.1-0.1 0.1l14.2 7zm1.2 0.4 0.7 0.4-2.5 11.9-2.5-3.3 4.3-9zm-15.7-12.4c-0.1 0-0.1 0 0 0-0.1-0.1-0.2-0.1-0.2-0.2-0.4-0.4-0.9-0.7-1.5-0.9h-0.1l0.1-0.4 2.5 0.9-0.8 0.6zm-27.9-6.3 2-3.7 23.7 8.3-0.1 0.4c-0.8-0.2-1.5-0.1-2.2 0.1-0.1 0-0.2 0.1-0.3 0.2l-23.1-5.3zm-21.5-8.4v-0.1l6.3-1.5 16.6 5.8-2 3.7-20.9-4.8c0.2-1 0.2-2 0-3.1zm8.6-2 20.5-4.6-5.4 9.8-15.1-5.2zm15.6 5.4 5.6-10.2 1.2-0.3 18.3 13.4-1.6 5.3-23.5-8.2zm25.4 1.8-17.1-12.6 22.5-5-5.4 17.6zm0.2 1.6 5 3.6-3.3 2.6-3.3-1.1 1.6-5.1zm1.2 7.2 7.2 2.5-8-1.8 0.8-0.7zm1-0.7 3.2-2.5 6.5 4.7c-0.2 0.3-0.4 0.6-0.5 0.8 0 0.1 0 0.1-0.1 0.2l-9.1-3.2zm-1.9-7.7 5.5-18.1 40.3-9-16 12.4-24.2 18.8-5.6-4.1zm5.3-19.2-24.1 5.4-0.5-0.3 41.1-75 7.1-7.5-23.6 77.4zm-10.7-21.5-14.4 26.2-17.3-12.7 57.4-60.3-25.7 46.8zm-15 27.1-23.2 5.2-8.6-3 14.3-15 17.5 12.8zm-25.4 5.7-4.5 1.1c-0.3-1.1-0.9-2.2-1.6-3.2l6.1 2.1zm-6 9.6c0.6-0.9 1.1-1.9 1.4-3v-0.1l20.6 4.8-6.1 11.1-15.9-12.8zm54.6 45.1 1 0.8 3.3 14.7-2.5 11.9-9.4-11.5 7.6-15.9zm5 18.2 4 18-6.2-7.6 2.2-10.4zm-0.3-4.1-2.9-12.7 4.8 3.8-1.9 8.9zm-3.3-14.4-0.4-1.6 6.6-13.8 2.6 3.5-3.4 16.2-5.4-4.3zm9.8-10.8 3.2 4.2 33.2 43.6-39.8-31.9 3.4-15.9zm110.1 61.3 10 26-5.3 4.6-5.7-30.6h1zm41.6-7c-1.2 0.1-2.4 0.7-3.3 1.6-0.4 0.4-0.7 0.8-0.9 1.3l-60.1-29.5-75.5-37.1-3.7-6.3c-0.3 0.2-0.6 0.4-1 0.6l2.8 4.8-7.2-3.5 0.1-0.6c-0.4 0-0.7-0.1-1.1-0.2l-0.1 0.3-0.6-0.3 0.1-0.2c-0.4-0.1-0.7-0.3-1-0.5l-0.1 0.2-14.2-7c0.1-0.1 0.1-0.2 0.2-0.3 0.3-0.8 0.3-1.8 0-2.8l10.4 2.3c-0.2 0.9-0.1 2 0.2 2.9 0.5 2 1.8 3.5 3.5 4.5 0.3 0.2 0.7 0.3 1 0.5 0.2 0.1 0.4 0.1 0.6 0.2 0.4 0.1 0.7 0.2 1.1 0.2 1 0.1 2 0.1 3-0.2 0.5 0 1-0.2 1.4-0.4 0.3-0.2 0.7-0.4 1-0.6 2.5-1.8 3.8-5 2.9-8.1-1.1-4-5.2-6.3-9.2-5.2-1.5 0.4-2.7 1.2-3.7 2.3v0.1l-6.2-4.5 41.1-31.9 80.4-18c1.2 4.1 5.5 6.5 9.7 5.4 0.5-0.1 1-0.3 1.4-0.5l20.4 34.5 3.8 54 2.8 42c0.1 0 0 0 0 0zm8.1-128.4-16.8-4.3-0.1-1.1 15.9 2.4 0.4 1.3 0.6 1.7zm-0.3-3 18.2 2.8 0.7 5-17.9-4.7-1-3.1zm-16.6-3.7-1.2-17.1 8.8-6.4 8 25.9-15.6-2.4zm-0.4 2.2-10.2-2.6 10.1 1.5 0.1 1.1zm-0.8-20.5-3-43.1 11.5 36.9-8.5 6.2zm0.7 18.3-13.3-2c0.1-0.9 0-1.7-0.3-2.6-0.2-1-0.5-1.7-0.9-2.3l13.3-9.7 1.2 16.6zm-13.7 0 13.9 3.5 2.3 33-19.2-32.5c1.4-1 2.5-2.4 3-4zm32.2 8.2 17.8 4.6 14.8 100.3-32.6-104.9zm19.8 14.5-1.4-9.7 68.8 17.7-51.6 82.9c-0.1 0-0.1-0.1-0.2-0.1-0.7-0.4-1.5-0.5-2.2-0.5l-13.4-90.3zm-1.7-11.1-0.7-5 77.3 11.7-7 11.2-69.6-17.9zm-1.5-6.4-18.4-2.7-8.2-26.4 20.1-14.8 6.5 43.9zm-10.6-76.8-0.5-3.1 1.4 1.3c-0.4 0.5-0.7 1.2-0.9 1.8zm0 3-0.1-0.3v0.1c0 0.1 0 0.2 0.1 0.2zm-1.9-15.6 4.5 9.3c-0.4 0.2-0.9 0.5-1.2 0.9 0 0-0.1 0.1-0.1 0.2l-1.9-1.7-1.3-8.7zm-20.8-10.2 21.4 19.1 0.8 5.2-27 0.6 0.4-2.1 4.4-22.8zm22.2 25v0.2l-4.3 0.7-21.2 3.6v-0.2c-0.1-0.4-0.3-0.9-0.7-1.2-0.3-0.3-0.7-0.6-1.2-0.7h-0.2l0.4-1.8 27.2-0.6zm-24.8-14.4-2.7 14.3h-0.7l3.4-14.3zm-3.8 15h0.8l-0.4 1.7c-0.2 0-0.5 0-0.7 0.1h-0.2l0.5-1.8zm-109.2 2.8 106.7 2v-0.6l-25.9-0.5-75.9-1.4 35.1-0.8 68-1.5-0.7 2.6h0.1c0.2-0.2 0.5-0.4 0.7-0.5-0.2 0.1-0.4 0.2-0.5 0.4 0 0 0 0.1-0.1 0.1-0.4 0.4-0.6 1-0.7 1.5v0.6c0 0.2 0 0.4 0.1 0.5 0.1 0.3 0.2 0.5 0.3 0.7s0.2 0.3 0.4 0.5c0 0 0.1 0.1 0.2 0.1 0.5 0.4 1.1 0.7 1.7 0.7h0.7c0.2 0 0.4-0.1 0.5-0.2 0.3-0.1 0.6-0.3 0.9-0.6 0.6-0.6 0.8-1.3 0.8-1.9l8.3-1.4 17.3-2.9 4.3 28.9-20.3 14.9-11.4-36.8c-0.2 0.1-0.4 0.1-0.5 0.2v-0.1h-0.6l3 43.5-13.9 10.2c-1-1.1-2.2-2-3.6-2.4-0.4-0.1-0.7-0.2-1.1-0.3-1.1-0.2-2.3-0.2-3.5 0.2-3.9 1.1-6.3 4.9-5.7 8.8l-59.9 13.4-18.1 4.1 99.7-77.4-12.5 50.9c0.4 0.1 0.8 0.2 1.1 0.3l12.7-52c-0.1 0-0.1-0.1-0.2-0.1-0.1-0.1-0.3-0.3-0.4-0.5s-0.2-0.5-0.3-0.7l-0.3 1.2-101.2 78.6-42 9.4 22.7-74.4 1.1-3.7 12.9-13.6zm-5.9 2.5c0.7-0.7 1.1-1.6 1.2-2.6l3.3 0.1-10.6 11.2 2.3-7.6c1.3 0.3 2.8 0 3.8-1.1zm-3.8 1.1c-0.2 0-0.4-0.1-0.6-0.2 0.2 0.1 0.4 0.1 0.6 0.2zm-108 38.3c1.6-1.6 2.1-3.9 1.6-5.9l14.2-4.8 89.3-30.1c0.2 0.5 0.5 0.9 0.9 1.3 0.2 0.2 0.5 0.4 0.7 0.6 0.2 0.1 0.3 0.2 0.5 0.3 0.1 0 0.2 0.1 0.2 0.1l-2.7 8.7-5.7 6 8.1-14.8c-0.2-0.1-0.3-0.2-0.5-0.3l-9.2 16.7-60.4 63.5-31.3-22.9-7.5-17.2c-0.2 0.1-0.3 0.1-0.4 0.2l0.1-0.1c0.2-0.1 0.3-0.2 0.5-0.2 0.6-0.3 1.1-0.6 1.6-1.1zm-150.5 84.7 6.9 13.4-36.9-28.6c-0.1 0.2-0.2 0.3-0.4 0.5l37.8 29.4 21.9 42.7-110-33c0 0.2-0.1 0.4-0.2 0.6l76.6 22.9 34 10.2 22.9 44.6-44.7 40.3-55.7-47.7-8.1-7-27.4-60.6c-0.2 0.1-0.3 0.2-0.5 0.3l26.9 59.4-25.9-22.2-2.2-36.9c-0.2-0.1-0.3-0.1-0.4-0.1 0.1 0 0.1 0 0.2-0.1 0.4 0 0.8-0.1 1.3-0.3 0.2-0.1 0.3-0.2 0.5-0.3 0.4-0.2 0.9-0.5 1.2-0.9 0.6-0.6 1-1.2 1.2-1.9 0.1-0.2 0.1-0.4 0.2-0.6 0.3-1.3 0-2.9-0.9-4.1 0-0.1-0.1-0.2-0.2-0.2 0 0 0.1 0.1 0.2 0.1l41.1-34.6 0.2 0.2c2.6 2.6 6.8 2.6 9.3 0l0.4-0.4c0.1-0.1 0.2-0.3 0.4-0.5 0.1-0.2 0.2-0.3 0.3-0.5s0.2-0.3 0.3-0.5c0.6-1.1 0.8-2.3 0.7-3.5 0-0.2 0-0.4-0.1-0.6-0.1-0.5-0.3-1-0.5-1.4-0.1-0.2-0.2-0.3-0.3-0.5-0.3-0.5-0.6-1-1.1-1.4-1.5-1.5-3.7-2.1-5.7-1.8l-3.1-12.6-9.8-40.9 8.4-0.9 26 50.6-14.5 7.2c0.1 0.2 0.2 0.3 0.3 0.5l14.5-7.2 3.2 6.1-17.2 2.5c0 0.2 0.1 0.4 0.1 0.6l17.4-2.6 11 21.4-29-15.3c-0.1 0.2-0.2 0.3-0.3 0.5l29.7 15.7zm80.3 77.2-24.1 21.8-2.8 2.6-22.2-43.3 48.1 14.5c-0.4 1.4 0 3.1 1 4.4zm-0.8-5-21.4-6.3-27.3-8.2-21.3-41.5 37.1 28.8 33.5 26c-0.3 0.4-0.5 0.8-0.6 1.2zm-72.2 71.7 6.1 5.2-28.6 16.1-1.2 0.7c-0.1-0.1-0.2-0.2-0.2-0.3v-0.1l23.9-21.6zm-24.3 21.2c-1.3-1.2-3-1.5-4.6-1-0.1 0-0.1 0.1-0.2 0.1l-4.2-9.3-29-64.1 61.8 52.9-23.8 21.4zm-203.7-101.3-1.4-14.6 95.2-20.3 5.2 4.5-73.9 45.5-22 13.6c0-0.1-0.1-0.1-0.1-0.2l-0.4-0.4-2.6-28.1zm-66.1-31.7-26.4 36.1-10.4 2.2-34-19 4.3-12.5 49.8-88.5 17.7 76.7c0.1 0 0.2-0.1 0.3-0.1-0.1 0-0.1 0.1-0.2 0.1-0.4 0.1-0.7 0.4-1.1 0.7-1.2 1.2-1.2 3.1 0 4.3 0-0.1 0.1-0.1 0 0 0.3 0.2 0.5 0.3 0.7 0.4 1.1 0.6 2.6 0.5 3.5-0.5 1.2-1.2 1.2-3.1 0-4.2-0.7-0.7-1.6-1-2.4-0.9h-0.2 0.1l-17.9-77.5 0.6-1.1 2-0.3 10 29.3c0.2-0.1 0.5-0.2 0.7-0.2l-9.9-29.1 2.7-0.4 13.2 29.3-0.7 1h-0.1c-1.6-1-3.5-1.2-5.2-0.8-0.2 0.1-0.5 0.1-0.7 0.2-0.8 0.3-1.5 0.8-2.1 1.4-2.6 2.5-2.6 6.7 0 9.2 2.5 2.6 6.7 2.6 9.2 0 0.2-0.2 0.3-0.3 0.4-0.5l2.9 2.2c-0.9 1.5-0.7 3.5 0.6 4.8 1.5 1.6 4 1.6 5.6 0 1.6-1.5 1.6-4 0-5.6-1.1-1.1-2.7-1.4-4-0.9-0.1 0-0.2 0.1-0.2 0.1l-3-6.5 9.9-3.4 5.2 9.2-0.2 0.2c-1.3 1.3-1.3 3.4 0 4.8 1.3 1.3 3.4 1.3 4.8 0 0.3-0.3 0.6-0.7 0.7-1.1l32.5 6.8 4.8 51-88.8 19 25.9-35.5c-0.2-0.1-0.4-0.3-0.6-0.4zm-27 36.7-3.6 5.1-5.5-3.1 9.1-2zm-80.4 88.3-4.7 13.8-4.9 0.2 2.1-16.1 7.5 2.1zm-7.4-2.9 0.5-3.5 8 3-0.9 2.6-7.6-2.1zm8 3 12.7 3.6-7 9.6-10.3 0.4 4.6-13.6zm0.4-0.6 0.8-2.6 13.1 4.8-1 1.4-12.9-3.6zm0.3-3.6-8.2-3 15.2-113.1 25.1 14-15.1 26.8c-1.9-0.9-4.3-0.7-5.9 0.9-2 2-2 5.3 0 7.3s5.3 2.1 7.3 0c0.8-0.8 1.3-1.8 1.5-2.9l3.7 0.3-23.6 69.7zm11.1-278.4 19.5 9.6-29.4 20.7 9.9-30.3zm-1-1.1-15.6-7.6 16.7 4.3-1.1 3.3zm21.6 11.3 16.6 8.1-37.7 54.2-17.6-17.4 7.5-23 31.2-21.9zm-39.6 44-9.6-9.5 16.5-11.5-6.9 21zm0.6 1.7 17.4 17.2-4.8 6.9-20.6 0.5 8-24.6zm18.3 18.2 2.3 2.2c-0.9 1-1.4 2.3-1.4 3.5v0.2l-5.1 0.1s4.2-6 4.2-6zm0.5-0.6 37.8-54.7 29.5 14.5h-0.1c-0.8 0.3-1.5 0.8-2.2 1.5-2.2 2.2-2.6 5.6-1.2 8.2l-34.5 21.9-18.5 11.8c0.2 0.2 0.3 0.4 0.4 0.6l19.8-12.6 33.2-21.1v0.1c0.2 0.3 0.4 0.6 0.7 0.8 0.7 0.7 1.5 1.2 2.3 1.5 0.1 0 0.1 0.1 0.2 0.1l-5 14.8-37.9 12.5-12.9 4.3c0.1 0.2 0.2 0.5 0.2 0.7l50.2-16.6-4.7 13.8-46 7s0 0.1-0.1 0.1c0.7-1.3 0.9-2.8 0.5-4.1 0-0.2-0.1-0.5-0.2-0.7s-0.2-0.4-0.3-0.6-0.3-0.4-0.4-0.6c-0.2-0.2-0.3-0.5-0.5-0.7-2.2-2.2-5.6-2.3-7.9-0.2l-2.4-2.3zm74.6-32-1.6-2.7c0.2-0.1 0.3-0.2 0.5-0.3v0.1c-0.1 0-0.1 0.1-0.2 0.1l1.6 2.7 1 1.7 6.5 11.2-4.5 1.5-4.6-10.3c-0.1 0.1-0.3 0.1-0.4 0.2 0.6-0.3 1.2-0.7 1.7-1.2 0.4-0.4 0.7-0.8 1-1.3l-1-1.7zm22.7-59.6 28.1 29.2-18.4 8-18.4-19.1 8.7-18.1zm-9.2 17.6 8.3-18.1h0.4l-8.1 16.8-0.6 1.3zm21.3 23.7-6.5-1.7 3.4-1.5 3.1 3.2zm-2-3.6 18.4-8 16 16.6c-0.8 0.9-1.4 1.8-1.7 2.9v0.1l-28.7-7.4-4-4.2zm32.5 12.3c-0.1 0.6-0.2 1-0.1 1.6v0.1l-17.5 1.4-9.9-10.2 27.5 7.1zm-0.1 2.5c0-0.1 0-0.2 0.1-0.3v0.2c0 0.3 0.1 0.7 0.2 1s0.2 0.6 0.2 0.8c0.4 0.9 0.9 1.8 1.7 2.6 0.2 0.2 0.4 0.4 0.7 0.6l-6.9 9.6-8.3-8.6 12.8-4.2c-0.1-0.2-0.2-0.5-0.2-0.7l-13.2 4.4-3.9-4 16.8-1.4zm13.9-5.1 6.9-5.1-2.8 6-2.9 3.6c0 0.5-0.1 0.9-0.2 1.4l1.8-2.1-3.7 7.8-12 13.3-1.1-1.1 10.5-12.7s0.1 0 0.1-0.1c0.8-0.4 1.6-0.9 2.3-1.6 1.1-1.1 1.8-2.4 2.1-3.8 0.1-0.5 0.2-0.9 0.2-1.4 0-1.4-0.4-2.9-1.2-4.2zm7.9-6 4.4-3.2-6.7 8.1 2.3-4.9zm138.5 103.3c-0.1 0-0.2 0-0.3 0.1-0.7 0.1-1.3 0.4-1.9 0.8l-58.7-68.1 8.5-2.9c0.2 0.3 0.4 0.6 0.7 0.9 1.5 1.5 4 1.6 5.5 0 0.7-0.7 1.1-1.6 1.2-2.5h0.1l63.1-7.1-18.2 78.8zm12.4-50.2-11 50.3h-0.5l11.5-50.3zm-73.8-17.6-1.7-1.9 10.4-1.2v0.1l-8.7 3zm58 68.4-68.1-64.3 9.8-3.4 58.3 67.7zm0.3 1.1c-0.6 0.7-0.9 1.4-1 2.3l-65.1-5.7-25.3-13.9-33.6-28.7 56.1-19.2 68.9 65.2zm-55.2 13.7-20.3-17.4 9.1 0.8 40.1 22.1c-0.1 0.3-0.2 0.5-0.3 0.8v0.1-0.2l-28.6-6.2zm28.5 8.3-14.8 3.2-12.7-10.7 27.5 6v0.1c-0.1 0.5-0.1 1 0 1.4zm-30.8-8.7-17.8-3.9-67.3-14.7-0.4-4.3 40.1 3.5 25.5 2.3 19.9 17.1zm-31.8-28.8 21.7 12-8.6-0.8-13.1-11.2zm-7.1-4.6-40.1-22.1 10.2-3.5 29.9 25.6zm2.1 1.8 16.1 13.8-7.9-0.7-57-5-2.7-28.9 8.5-2.9 43 23.7zm-49.4 12.7-31.1-6.8 30.8 2.7 0.3 4.1zm-2.1-34.2-0.7-7.2 8.3 4.6-7.6 2.6zm1.5 29.9-31.6-2.8v-0.3c-0.1-0.9-0.4-1.7-1-2.4-0.2-0.2-0.5-0.4-0.7-0.5l6.7-14.2 23.9-8.2 2.7 28.4zm-53.7-6.2c0.9-1.4 1.2-3 1-4.5l2.7 6.1c-0.2 0.1-0.4 0.3-0.6 0.4l-0.2 0.2-2.9-2.2zm2.9 2.2c-0.2 0.2-0.3 0.4-0.5 0.6 0.1-0.2 0.3-0.4 0.5-0.6zm-2.9-11.4 6.8-7.8 4.3 7.4-9.8 3.3-1.3-2.9zm-0.8-1.6-12.9-28.7 6.9-1 12.2 21.1-6.2 8.6zm0.5 3.5c-0.2-0.3-0.4-0.5-0.6-0.8l0.2-0.3 0.4 1.1zm-20.7-32.2-3.4-14.8 1.1-0.4 4.5 13.2-1 1.9-1.2 0.1zm0.4 1.1-0.1 0.2 0.1-0.2zm-0.9 0.1 0.2 1-48.7 86.4 28.7-84.4 19.8-3zm-19.4 1.8 4.7-14 11-3.6 3.4 14.7-19.1 2.9zm22.3-4.3 0.3 0.9-0.9 0.1 0.6-1zm0.2-1.6-4.3-12.5 1-0.3 4.7 10.3-1.4 2.5zm1.7-1.8 1.7 3.8-2.6 0.4-0.5-1.7 1.4-2.5zm0.5-0.9 3.4-6 5.5 9.5-6.9 1-2-4.5zm44.3 1.3 0.8 0.4-18.9 21.6 18.1-22zm-0.3-0.8-1.7-0.9 2.8-0.4-1.1 1.3zm1.8 1.7 8.4 4.6-11 23.3-13.1 4.5-3.9-10.1 19.6-22.3zm-0.4-0.8-0.8-0.5 1.6-1.9 1.5-0.2-2.3 2.6zm1.9-3.7 8.9-10.8 1 1.1-8.4 9.5-1.5 0.2zm-1.1 0.2-4.2 0.6 10.8-15.2 2.9 3-9.5 11.6zm-2.6 3-18 21.9-0.4-1 2.1-2.9 13.7-19.2h0.4l2.2 1.2zm-18.7 20.1-6.7-17.8 21.8-3.3-15.1 21.1zm0.3 2.4-2.5 3-0.3-0.5 2.5-3.4 0.3 0.9zm-0.7-1.8-2.5 3.6-12-20.7 7.5-1.1 7 18.2zm-2.2 5.3-4.8 5.7 4.5-6.2 0.3 0.5zm1.1 0.8 2.4-2.7 3.7 9.8-1.7 0.6-4.4-7.7zm6.3 7.8 3.6 9.5-5.2-9 1.6-0.5zm0.4 0 12.4-4.2-6.5 13.7c-0.7-0.2-1.4-0.3-2-0.1-0.1 0-0.2 0-0.3 0.1l-3.6-9.5zm13.8-5.7 10.8-22.7 11.8 6.5 0.8 8.2-23.4 8zm10.4-23.5-8.2-4.5 2.8-3.2 8.5-1.3c0 0.1 0.1 0.3 0.1 0.4 0.1 0.4 0.3 0.7 0.4 1.1l-0.1 0.1-3.5 7.4zm2.9-10.1-7.1 1.1 7.7-8.8 1.5 1.6c-1.5 1.6-2.3 3.8-2.1 6.1zm1.3-8.5 10.2-11.6-5.5 11.5c-1.2 0.3-2.2 0.9-3.1 1.6h-0.1l-1.5-1.5zm-2.1-2.3-2.9-3 7-9.8c1.7 1.1 3.6 1.4 5.6 1l-9.7 11.8zm-4.1-2.7-11.4 15.9h-0.2l-27.4-15.1 30.2-9.9 8.8 9.1zm-12.6 16.1-22 3.3-6.5-17 0.9-0.6c0.2-0.2 0.3-0.3 0.4-0.5 0-0.1 0.1-0.1 0.1-0.2l27.1 15zm-22.5 3.4-7.7 1.2-5.7-10 4.6-8.2h0.3c0.7 0.2 1.4 0.3 2 0.1l6.5 16.9zm-13.8-9.3-2.9-5 7-2.3-4.1 7.3zm-0.4 0.6-3.3 5.9-4.4-9.8 4.6-1.5 3.1 5.4zm-8.8-4.4-0.9 0.3-3.2-9.5 4.1 9.2zm-1.6 0.6-1 0.3-2.4-10.3 3.4 10zm-1.6 0.3-10.5 3.5 4.8-14.4c0.9 0.2 1.9 0.2 2.8 0.2 0.1 0 0.3 0 0.4-0.1l2.5 10.8zm-63.6 27.1 0.3-0.3 46.5-7-29.8 87.9-5.9 10.4-25.5-14.2 10.1-75.2c1.5 0.1 3.1-0.4 4.3-1.6zm15.8 83.7-2.9 8.5-1.5-0.8 4.4-7.7zm-17.5 39.9v-0.1c0-0.3 0-0.5-0.1-0.8l4.7-1-0.8 2.2-3.8-0.3zm-0.3-1.4c-0.2-0.8-0.6-1.6-1.3-2.3-0.3-0.3-0.6-0.5-0.9-0.7l15.1-26.8 1.6 0.9-9.4 27.8-5.1 1.1zm15.2-28.5 32.7 18.3-41.9 9 9.2-27.3zm131.2-54.3 85.9 18.7 13.5 11.5-63.8 13.7-30.9 6.6-4.7-50.5zm101.4 30.4 14.5-3.1c0.1 0.3 0.2 0.7 0.4 1l-10.1 6.2-4.8-4.1zm15.2-1.6c0.2 0.2 0.3 0.5 0.5 0.7 0.9 0.9 2.1 1.4 3.3 1.4h0.1l0.2 15.9-14-11.9 9.9-6.1zm0.5-6.3c-0.3 0.3-0.5 0.6-0.7 0.9l-38.9-21.4 63.8 5.6c0 0.9 0.2 1.8 0.7 2.6l-17.6 12.7c-0.1-0.1-0.2-0.3-0.3-0.4-1.9-1.9-5-1.9-7 0zm7 7c1.7-1.7 1.9-4.2 0.7-6.1l17.6-12.7 0.3 0.3c0.2 0.2 0.4 0.3 0.6 0.5l-1.9 8.3c0.2 0 0.4 0 0.6 0.1 0.1-0.1 0.3 0 0.4 0l0.9-4 0.9-3.9c0.1 0.1 0.2 0.1 0.4 0.1l-2 7.9c0.3 0.1 0.5 0.2 0.6 0.3l2-7.9h0.1c1.4 0.3 3-0.2 4.1-1.3 1.7-1.9 1.7-4.9-0.1-6.7-0.5-0.5-1.2-0.9-1.8-1.1l17.2-79.3 11.9-1.3 12.9 53.6h-0.3c-1 0.3-2 0.8-2.8 1.7-2.4 2.4-2.6 6.1-0.6 8.7l-31.6 26.6-9.5 8c0.1 0.1 0.1 0.2 0.2 0.3l-0.3-0.3c-0.4-0.4-0.9-0.7-1.4-1-0.2-0.1-0.4-0.2-0.5-0.2s-0.2-0.1-0.3-0.1-0.3-0.1-0.4-0.1c-0.2 0-0.4 0-0.6-0.1-1.4-0.1-2.9 0.3-4 1.4-2 2-2 5.2 0 7.2 0.5 0.5 1.1 0.9 1.8 1.2l-6.3 27.6-11.6-9.9-0.2-16.4c1.1-0.1 2.2-0.5 3-1.4zm243-115.6c0 0.2 0.1 0.4 0.2 0.5 0.3 0.9 0.8 1.8 1.5 2.5 1.3 1.8 3.4 2.3 5.5 1.8l3.8 13.1-9-6.6-7.3-9.4 5.2-1.3c-0.1-0.2-0.1-0.4-0.2-0.5l-5.4 1.4-6.6-8.5c0-0.1 0.1-0.1 0.1-0.2 0.1-0.1 0.2-0.1 0.3-0.2 2.2-2.2 2.2-5.7 0-7.9s-5.7-2.2-7.9 0l-0.7 0.7c-0.6 0.8-0.9 1.8-1 2.7v0.9c0 0.2 0 0.4 0.1 0.6l0.3 1.2c0.1 0.2 0.2 0.3 0.3 0.5 0 0 0 0.1 0.1 0.1 0.2 0.4 0.5 0.8 0.9 1.2 1.8 1.9 4.8 2.2 7 0.7l6.5 8.4-3.7 0.9-13.4-9.8 2.6-1.3s0-0.1-0.1-0.1c-0.1-0.2-0.2-0.3-0.3-0.5l-3 1.4-2.8-2 5.4-0.6c0-0.2 0-0.4-0.1-0.6l-6 0.7-1.7-1.2 7.7 0.3v-0.6l-8.5-0.3-28.5-20.9 4.8-0.6 7.9-0.9 25.3 19.9c0.1-0.2 0.2-0.3 0.4-0.4l-24.9-19.6 39.4-4.6 9.5 32.2c0.1-0.1 0.2-0.1 0.3-0.1-0.8 0.3-1.6 0.8-2.3 1.4-1.5 1.5-2.1 3.6-1.7 5.6zm0.4 10.1-9.7-7.1 3.5-0.9 6.2 8zm-83.4 11.1c0-0.2 0-0.3-0.1-0.3 0-0.1-0.1-0.2-0.2-0.3 0-0.1-0.1-0.1-0.1-0.2-0.1-0.1-0.1-0.2-0.2-0.3-0.1-0.2-0.3-0.4-0.4-0.5l-0.1-0.1c-0.1-0.1-0.2-0.2-0.4-0.3l-0.1-0.1c-1-0.7-2.2-0.9-3.3-0.7-0.3 0.1-0.6 0.1-0.8 0.2-0.1 0-0.2 0.1-0.3 0.2-0.2 0.1-0.3 0.2-0.5 0.3s-0.3 0.2-0.4 0.3l-0.2 0.2c-1.7 1.7-1.7 4.3-0.1 6l-64.3 32.1-25.8-50.3 43.1-4.8 47.4 16.6c0.1-0.1 0.3-0.2 0.4-0.3 0.2-0.1 0.3-0.2 0.5-0.3 0.1 0 0.2-0.1 0.3-0.2l-0.5-0.2-11.5-19.7 14.2-1.6-0.7 21.2h0.6l0.7-21.3 9.6-1.1-9.3 22.6c0.2 0.1 0.4 0.1 0.5 0.2l9.5-22.9 24-2.7 8.5 8.3-40.1 19h-0.1c0.1 0.2 0.2 0.3 0.3 0.5 0 0.1 0 0.2 0.1 0.2 0.1 0.2 0.1 0.4 0.2 0.6l0.2 0.1-0.2 0.1c0 0.2 0.1 0.4 0.1 0.6l0.6-0.3 4.7 1.6-5.5-0.8c-0.1-0.1-0.1-0.2-0.1-0.3 0-0.2 0-0.4-0.1-0.6v-0.2c0-0.2-0.1-0.3-0.1-0.5zm-7.1-3.3-44.7-15.6 33.4-3.8 11.3 19.4zm-18.1-32.3 22 0.8-0.3 10-14.5 1.6-7.2-12.4zm50.8 1.8 5.1 5-23.3 2.6 3.5-8.1 14.7 0.5zm-14.5-1 3.9-9.4 10 9.9-13.9-0.5zm29.6 15.8 6.9 6.9-41.6 10.5 34.7-17.4zm-37.4 18-2.2 0.6-0.6-0.2 19.6-9.3 20.1-9.5-36.9 18.4zm29.4-27.4 21.8-2.4 3.3 2.4-17 8-8.1-8zm-0.5-0.5-4.9-4.8 24.5 0.9 2 1.5-21.6 2.4zm-29.7 28.9 1-0.5 44.5-11.2 24.6 24.2-54.4-8.2-6.4-1-9.3-3.3zm39.3-19.4 16.8-8.4 13.2 9.6-21.5 5.4-1.4 0.4-7.1-7zm-18.6-35.8-2.8-2 3.6-8.8 11.9 9.3-12.7 1.5zm13.5-1.5-12.4-9.8 1.8-4.4 47.9-0.9 3 10.4-40.3 4.7zm-12.9-10.1-4.9-3.9 6.5-0.1-1.6 4zm-0.2 0.5-3.6 8.8-17.6-12.9 15.6-0.3 5.6 4.4zm-2 11.3-2.2 0.3 0.6-1.4 1.6 1.1zm1.3 0.9 28.1 20.6-24.3-0.8-11.2-11.1 3.4-8.2 4-0.5zm-7.9 8.3-6.6-6.5 9.8-1.1-3.2 7.6zm-0.4 1.1-4.1 9.8-13.1-0.5 0.5-15.7 9.1-1.1 7.6 7.5zm-4.3 10.4-3.4 8.3-9.8 1.1 0.3-9.9 12.9 0.5zm-13.4-1.1-22.5-0.8-6.6-11.4 29.6-3.4-0.5 15.6zm-23.2-0.9-78.2-2.9 71.7-8.3 6.5 11.2zm0.3 0.6 7.3 12.5-34.3 3.9-51.7-18v-0.1c0.1-0.4 0.2-0.8 0.2-1.2l78.5 2.9zm-29.7 16.8-17.9 2-24.2 2.7-9.9-19.2s0.1-0.1 0.2-0.1c1.1-0.7 1.9-1.6 2.4-2.7l49.4 17.3zm-43.3 4.8-8.3 0.9-4.7-19.5-0.1-0.5h0.2l0.1 0.6c0.8 0.1 1.7 0.1 2.6-0.2 0.2-0.1 0.3-0.1 0.5-0.2l9.7 18.9zm-8.9 0.9-11.6 1.3 4.6-21.2h0.2c0.5 0.1 1.1 0.1 1.6 0.1 0.1 0.1 0.3 0.1 0.5 0.2l4.7 19.6zm-35.9 108-4.7 19.1 4.7-19.1zm0.6 0.1 2.3 36.3-9.3-8 7-28.3zm72-57.9 64.4-32.2s0.1 0.1 0.2 0.1c0.4 0.3 0.9 0.5 1.3 0.7 1.5 0.5 3.2 0.1 4.3-1.1 0.2-0.2 0.4-0.4 0.6-0.7 0.3-0.5 0.5-1 0.6-1.5v-0.1l8.5 1.3 57.6 20.1-133 19.7-1.2 0.2-3.3-6.5zm85.9-32.6 13.9 2.1 44.7 6.8 8.2 8.1-12.9 1.9-53.9-18.9zm67.3 17.5 9.6 9.4-21.8-7.6 12.2-1.8zm1.4-0.2 17.1-2.5 5 17.1-11.4-4.1-10.7-10.5zm-0.5-0.5-7.7-7.6 24.8 3.8 0.4 1.2-17.5 2.6zm-8.3-8.4-25.2-24.9 22.9-5.8 13.7 10.1 10.9 14 1.6 5.4 1.5 5-25.4-3.8zm13-19.3 7 5.1 1.8 6.2-8.8-11.3zm3.2-10.1s0.1 0 0 0c0.1 0 0.1 0 0 0 0.1 0 0.1 0 0 0l7.2 16.3-3.2-2.4-4-13.9zm0.4-11.5c-1.2-0.5-2.5-0.5-3.7-0.3-0.1 0-0.2 0-0.3 0.1l-9.5-32.1 29.6-3.4-16.1 35.7zm16.8-36.9-30.4 3.5-3-10.3 36.9-0.7-3.5 7.5zm0.7-0.1 3.4-7.4 71.6-1.3-75 8.7zm8.6-18.7 70.2 8.8-74.9 1.4 4.7-10.2zm-0.6-0.1-4.7 10.3-37.7 0.7-2.9-9.7-2.1-7.2 47.4 5.9zm-81-10.2 33 4.1 5 17.1-47.1 0.9 9.1-22.1zm-36.1-4.5 14.6 1.8 2.9 17.2c0.2-0.1 0.5-0.1 0.8-0.1l-2.9-17 20.1 2.5-9.2 22.2h-0.6l-6.5 0.1c0.8-0.1 1.6-0.5 2.3-1.1 1.4-1.5 1.4-4-0.1-5.6-0.9-0.9-2-1.2-3.1-1.1-0.3 0-0.5 0.1-0.8 0.1-0.6 0.2-1.2 0.5-1.7 1-0.2 0.2-0.4 0.5-0.6 0.8-0.1 0.2-0.2 0.4-0.3 0.7-0.3 1-0.3 2 0.1 2.9l0.7 0.6 1.5 1.2 0.7 0.5h-0.2l-0.7-0.5-1.5-1.2-0.7-0.6-8.8-6.9 8.7 4c0.1-0.2 0.2-0.5 0.3-0.7l-11.6-5.4-4-3.1 0.6-12.3zm1.3 14.4-1.8-0.8v-0.6l1.8 1.4zm-1.8 0.1 4.4 2 13.1 10.3-15.8 0.3-2.1-1.5 0.4-11.1zm-0.5 12.4 0.3 0.2h-0.3v-0.2zm0 1.3h1.8l19 13.9-0.8 1.8-11.3 1.3-9.1-9 0.4-8zm-0.3 9.7 7.7 7.6-8 0.9 0.3-8.5zm-0.3-9.7-0.3 7.5-7.5-7.4 7.8-0.1zm-9.4 0.2 9.1 8.9v0.6l-0.3 8.5-30.3 3.5-12.2-20.9 33.7-0.6zm-46.9-21.1 12 20.6-33.1 0.7 21.1-21.3zm-22.4 22.4 34.9-0.7 7.8 13.3 4.5 7.7-71.3 8.3c0.1 0.4 0.1 0.7 0.1 1.1 0-0.3-0.1-0.6-0.1-1 0-0.1-0.1-0.3-0.1-0.4-0.3-0.9-0.7-1.7-1.3-2.4l-0.1-0.1 25.6-25.8zm-1.6 0-24.8 25c0.2 0.1 0.3 0.3 0.5 0.4-0.1-0.1-0.3-0.2-0.4-0.3-1.4-1.2-3.3-1.7-5.1-1.4-2.1-0.6-4.4 0-6 1.6-0.7 0.7-1.2 1.5-1.5 2.3-0.1 0.4-0.2 0.7-0.3 1.1-0.2 0.9-0.1 1.9 0.2 2.8 0 0.1 0 0.1 0.1 0.2 0.1 0.2 0.1 0.4 0.2 0.5 0 0.1 0.1 0.2 0.2 0.3 0.3 0.6 0.7 1.1 1.1 1.6 0.7 0.7 1.6 1.2 2.6 1.5l-5 21.5-63.1 7.1c-0.1-0.8-0.5-1.4-1.1-2.1-0.6-0.6-1.3-0.9-2-1.1-0.2-0.1-0.5-0.1-0.8-0.1-1 0-2 0.4-2.8 1.1-0.8 0.8-1.2 2-1.1 3h-0.1l-10.9 1.2-1.9-2.2 17.1-6.5-0.4 3.3c0.3 0 0.5 0 0.8 0.1l0.4-3.7 64.1-24.2 2.9-0.7c-0.1-0.1-0.1-0.2-0.2-0.3-0.1-0.2-0.1-0.4-0.2-0.5 0-0.1 0-0.1-0.1-0.2l-65.4 15.6 2.8-25.6 3.5-4.9 59 12.2c0.1-0.4 0.2-0.7 0.3-1.1l-58.5-12.1 9.7-13.8 86.2-1.6zm-103.8 48.4-0.9 8.6-17.6 6.6-4.1-4.8 4.3-6 18.3-4.4zm-17.4 3.1 20.2-28.7-2.7 24.5-17.5 4.2zm18.2-3.2 58.7-14-59.6 22.5 0.9-8.5zm2.9-33.7-2.1-0.4 2.6-4.6-0.5 5zm0.7 1.4 2.2 0.4-2.7 3.9 0.5-4.3zm1.5-14.1h2.1l-2.7 4.6 0.6-4.6zm-0.6 6 3.5-6.1 8.2-0.2-9.7 13.8-2.8-0.6 0.8-6.9zm-51.5-3.6c0.1-0.5 0.1-0.9 0.1-1.4v-0.1l51.1-1-0.7 6.3-3.4 5.9-47.1-9.7zm47.3 10.9 2.5 0.6-0.6 5.8-19.2 27.2-2 2.8-1.7 0.4s21-36.8 21-36.8zm-21.8 38.1 1.5-0.3-3.8 5.4-0.4-0.4 2.7-4.7zm-0.8 0.3-2.3 4-2.5-2.9 4.8-1.1zm-1.9 5.4-2.8 4 2.5-4.4 0.3 0.4zm-39-45.5 34.7 40.3-9.3 2.2-26.6-40.7-0.2-0.3c-0.2-0.5-0.4-1-0.8-1.5l0.5-0.7c-0.3-0.2-0.6-0.4-1-0.6l-0.2 0.4-0.3-0.4 0.3-0.3c0.1 0.1 0.2 0.1 0.3 0.2 0.3 0.2 0.6 0.4 1 0.6 0.5 0.3 1.1 0.6 1.6 0.8l-2.2-2.5 2.2 2.5zm8-22.3-10.7 13.1 10.7-13.1zm0.8 0.1 0.9-1.1 4.6-1.8-3.2 4.1c-0.7-0.5-1.5-0.9-2.3-1.2l-13.3 16.2 2.1 2.5-2.2-2.5 13.4-16.2zm-11.5 19.2-0.8 1-0.2 0.2-0.7-1 0.8 0.8 0.8-1-2.1-2.5 2.2 2.5zm-4.5-13.5 1.2-0.5c-0.2 0.3-0.3 0.5-0.4 0.9l-0.8-0.3v-0.1zm0 1.3 0.4 0.2c-0.2 0.4-0.3 0.9-0.4 1.3v-1.5zm0 1.5v4.6l2.2 2.6-0.1 0.1-2.2-2.6 0.1-4.7zm0 5.5 1.8 2v0.1l-1.8-2.1zm0.6 1.7-0.6-0.9v-0.8c0 0.1 0.1 0.3 0.1 0.4 0.2 0.5 0.3 0.9 0.5 1.3zm-0.7 0.3 0.9 1.3-0.9 1.1v-2.4zm-11.6 5.7 4.7 2.2c-0.3 1-0.4 2.1-0.3 3.1 0 0.3 0.1 0.7 0.2 1 0.2 0.7 0.5 1.3 0.9 1.9 0.1 0.2 0.3 0.4 0.5 0.6l0.5 0.5c0.2 0.2 0.4 0.3 0.6 0.5 0.5 0.4 1 0.7 1.6 0.9 0.4 0.2 0.7 0.3 1.1 0.4 2.2 0.5 4.6-0.1 6.3-1.8 1.5-1.5 2.1-3.4 2-5.4l-3.7-5.4c-0.8-0.5-1.8-0.7-2.7-0.8h0.2l1.2-1.5 1.5 2.3 3.6 5.5 25.7 39.3-59 14.1c0 0.1 0.1 0.2 0.1 0.3 0.1 0.3 0.1 0.6 0.2 0.8l59.4-14.2 4.7 7.3c-0.1 0-0.1 0.1-0.2 0.1-0.2 0.1-0.3 0.2-0.5 0.4-1.7 1.7-1.7 4.5 0 6.2s4.4 1.7 6.1 0.1l0.4-0.4c0.7-0.9 1.1-1.9 1-3 0-0.2 0-0.4-0.1-0.6 0.1-0.2 0.1-0.4 0-0.5-0.1-0.2-0.1-0.4-0.2-0.5-0.2-0.5-0.5-0.9-0.9-1.3-0.1-0.1-0.2-0.2-0.4-0.3-0.3-0.2-0.5-0.4-0.8-0.5-1.2-0.6-2.6-0.6-3.9 0l-4.6-7.1 9.4-2.3 2.8 3.3-3.5 6.1c0.3 0.1 0.6 0.3 0.8 0.5l3.7-5.3 3.9 4.5-6.4 2.4c0.1 0.2 0.1 0.4 0.2 0.5l6.6-2.5 1.8 2.1-8.2 0.9c0 0.2 0 0.4 0.1 0.6l8.6-1 1.8 2.1-9.9 3.4-1.5-1.5-0.4 0.4 1.3 1.2-56.1 19.2-16.7-14.1c-0.2 0.3-0.5 0.6-0.7 0.9l16 13.7-10.5 3.6-9.1-5-0.9-9.9c-0.4 0.1-0.8 0.1-1.1 0.1l0.9 9.2-11.5-6.3 3.3-7c1.5 2.5 4.3 4.1 7.3 4 0.4 0 0.8 0 1.1-0.1 0.3 0 0.6-0.1 0.9-0.2 1.4-0.4 2.7-1.2 3.6-2.2 0.3-0.3 0.5-0.6 0.7-0.9 1.3-1.7 1.9-4 1.5-6.2 0-0.2-0.1-0.5-0.2-0.8 0-0.1-0.1-0.2-0.1-0.3-0.5-1.7-1.5-3.1-2.8-4.1l27.7-42.1c-0.4-0.1-0.8-0.2-1.1-0.4l-27.5 41.9c-1.5-0.9-3.4-1.2-5.3-0.9l6-12.8 25.4-28.9c-0.2-0.2-0.4-0.3-0.6-0.5l-23.6 26.9 3.8-8.1 8.7-10.6 1.8-2.2 8.8-6.5c-0.2-0.2-0.3-0.4-0.5-0.6l-5.7 4.2-0.7 0.5 5.5-6.6c-0.1-0.3-0.1-0.6-0.2-1l-7.8 9.5-5.7 4.2 9.1-19.2zm-0.4-0.3-9.6 20.2-8.1 6-0.1-0.1c-0.1-0.2-0.3-0.3-0.5-0.5-2.8-2.8-7.3-3-10.2-0.4l-15.8-16.4 32.5-14.2 11.8 5.4zm2-12.2-13.6 5.9-22.1-10.1 35.7 4.2zm-38.2-4.4 23.7 10.8-32.2 14.1-18.8-19.6-9.2-9.6 36.5 4.3zm-32.2-14.8 28.8 13.2-33.3-3.9 4.5-9.3zm-1.1-0.3 0.5 0.1-4.6 9.5h-0.4l4.5-9.6zm-18-4.6 3.3-2.2 14.2 6.5-4.4 9.4s-13.1-13.7-13.1-13.7zm-9.2 18.9c1.5-1.7 2.5-3.8 2.9-6l18.7 2.3-8.2 17.6-13.4-13.9zm13.8 15.9 17.9 18.5-3.9 1.7-21.1-5.5 7.1-14.7zm-7.4 15.5 20.3 5.2-25.6 11.2c0.1 0.2 0.2 0.3 0.2 0.5l13.9-6 12.5-5.4 8.6 2.2 10.5 10.9-44.2 3.6c0 0.3 0.1 0.5 0.1 0.8l44.7-3.6 4.1 4.3-29.9 9.8c0.2-1.1 0-2.2-0.8-3.1-1.3-1.3-3.4-1.3-4.7 0s-1.3 3.4 0 4.7l0.1 0.1-7.5 2.5-6.7-11.7-0.1-0.3c0.4-0.9 0.6-1.9 0.6-2.8 0.3-0.2 0.2-0.5 0.2-0.7-0.1-1-0.5-2.1-1.1-3 0.1-0.7 0.1-1.5-0.2-2.2-0.1-0.2-0.1-0.4-0.2-0.5-0.2-0.4-0.4-0.7-0.8-1.1-0.3-0.3-0.6-0.5-1-0.7l7-14.7zm-34.9-9 34 8.8-6.8 14.6c-1.5-0.6-3.4-0.3-4.6 1-0.3 0.3-0.5 0.6-0.7 0.9l-29.4-14.5 7.5-10.8zm-15.8-4.1 14.6 3.8-7.4 10.6-16.3-8 9.1-6.4zm-1.5-0.4-8.8 6.2-19.9-9.8 1.2-3.5 27.5 7.1zm-17.6-41-10.8 32.9-20.4-5.3-42.7-21c0.1-0.4 0.2-0.8 0.2-1.1l11.9-2.4 61.8-3.1zm-65.8 3.3-8 1.6v-0.1c-0.1-0.4-0.3-0.7-0.6-1.1l8.6-0.4zm-8.1 3.3c-0.1 0.2-0.1 0.4-0.3 0.5 0.1-0.2 0.2-0.3 0.3-0.5zm-38.2-0.9v-0.1 0.1l33.3-1.8c-0.8 1.1-0.7 2.6 0.3 3.6 1.1 1.2 2.8 1.2 3.9 0.1 0.2-0.2 0.3-0.3 0.4-0.5l40.2 19.7-78.2-20.3c0.1-0.2 0.1-0.5 0.1-0.8zm-0.3 1.7s0-0.1 0.1-0.2l81.8 21.2 18.2 8.9-10.4 32.1-17.8 12.5-65.6-65.1-7.5-7.4c0.5-0.5 0.9-1.2 1.2-2zm-43.9-5.8 32.1 3.6v0.2c0 1.3 0.5 2.8 1.6 4.1l-18.5 18.9-15.2-26.8zm15.6 27.4 18.7-19c2.3 1.9 5.6 1.9 7.8 0h0.1l72.9 72.3-49.5 34.8-50-88.1zm48 90.9 1.6-1.1 0.6 1.1h-2.2zm2.5-1.7 49.8-35 9.9 9.8-8.4 25.6-50.4 1.3-0.9-1.7zm48.5 8.9-40 6.1-7.2-12.6 49.8-1.3-2.6 7.8zm1.3-0.1 2.5-7.7 20.4-0.5-3.7 5.3-19.2 2.9zm19.9-1.9 10.1-1.5-34.2 36.2 24.1-34.7zm-32.3 44.6-0.7 0.9c-0.1 0-0.1 0-0.1-0.1l0.8-0.8zm-17.9 18.8 6.9-7.3c1.7 2.8 5.1 4.1 8.4 3.2 2.1-0.6 3.8-2 4.7-3.9 0.3-0.3 0.4-0.7 0.5-1 0.5-1.4 0.5-2.9 0.1-4.4-0.4-1.6-1.3-2.9-2.5-3.8l5-7.1 38.4-40.6 1.7-0.3-0.9-0.6c-0.1-0.1-0.3-0.2-0.4-0.4l-0.1-0.1-0.2 0.2-10.5 1.6 3.5-5.1 5.7-0.1v-0.2c0.1 1.2 0.6 2.4 1.5 3.4l0.1 0.1c0.1 0.1 0.3 0.2 0.4 0.4l0.9 0.6c0.5 0.3 1.1 0.5 1.6 0.6h0.2l-10 74.9-34.3-19.2c-0.1 0.4-0.3 0.7-0.4 1.1l34.6 19.3-15.2 113.2-78.3-28.6-4.3-50.5 42.9-45.4zm-176.8 144 14.3 8-30.9-13.1c-0.4 0.1-0.9 0.2-1.3 0.3h-0.3l7.7 62-21.8 33.3 13.2-95.3c-0.3 0-0.5 0-0.8-0.1l-13.4 96.9-24.2 37-6.2 0.7 43.5-134.6c-0.2-0.1-0.5-0.1-0.7-0.2l-43.6 135-14.2 1.6-19.6-13.6 21.9-38.6 49.4-86.9 1.1-0.4 2.4 1c-0.3-0.4-0.5-0.7-0.7-1.1l-0.6-0.2 0.4-0.1c-0.1-0.2-0.2-0.5-0.2-0.7l-1.2 0.4-0.4-0.2 1.4-2.5c0-0.4 0.1-0.8 0.2-1.1 0 0 0-0.1 0.1-0.1-0.1 0.3-0.2 0.6-0.2 0.9-0.1 0.8 0 1.5 0.2 2.3 0.1 0.2 0.1 0.5 0.2 0.7 0.1 0.1 0.1 0.3 0.2 0.4 0.2 0.4 0.4 0.8 0.7 1.1 0.1 0.2 0.3 0.4 0.5 0.5 0.6 0.6 1.4 1.1 2.1 1.4 0.2 0.1 0.5 0.2 0.7 0.2 0.1 0 0.2 0.1 0.3 0.1 0.2 0 0.5 0.1 0.8 0.1s0.6 0 0.9 0h0.3c0.4 0 0.9-0.1 1.3-0.3 0.9-0.3 1.7-0.8 2.4-1.5 0.3-0.3 0.6-0.7 0.8-1 0.1-0.2 0.3-0.4 0.4-0.7 1.1-2.3 0.7-5.1-1.2-7.1-2.3-2-5.7-2.2-8.1-0.5l22.6-39.7 0.1 0.2 17.7 60.5c-0.8 0.3-1.5 0.8-2.2 1.4-0.3 0.3-0.6 0.7-0.9 1 0 0-0.1 0.1-0.1 0.2l-12.5-7.1-15.5-8.7c-0.1 0.2-0.2 0.4-0.4 0.7l13.4 7.5zm-33.5 93.8-4.6 33-18.4 2.1 23-35.1zm-30.5 37.1 5.7-0.7-6.9 10.6-1.6-1.1 2.8-8.8zm-3.6 8.3-9.8-6.8 12.5-1.4-2.7 8.2zm-12.3-129.8 8.3-36.6 38.4 16.1-4.1 6.1-42.6 14.4zm41.9-13.4-58.5 86.9 16.4-72.7 42.1-14.2zm-58.7-36.3-1.6-0.6 31.5-12.5-0.8 3.4-29.1 9.7zm1.4 1.3-1.3 0.5-0.9-0.4 1.3-0.4 0.9 0.3zm-32.9-9.1c-0.5 0.5-1 0.8-1.5 1.2l-3.8 10.9c-0.1 0-0.1 0-0.2-0.1-1.7-0.5-3.5-0.5-5.3 0-0.8 0.2-1.4 0.5-2 0.9l-1.8-2.9 5.5-8.7c2.4 1.2 5.2 1.2 7.4-0.2 0.5-0.3 1.1-0.7 1.5-1.2l0.1-0.1c0.6-0.6 1-1.3 1.4-2 0.2-0.3 0.3-0.7 0.4-1 0.3-1 0.4-2 0.3-3 0.1-0.2 0.1-0.5 0.1-0.7 0 0.2 0.1 0.3 0.1 0.5l0.8-2.1 11.8-4.5-7.9 11.5-5-1.9c-0.1 0.3-0.2 0.7-0.4 1l4.6 1.9-9.2 13.4 0.9 0.6 9.4-13.6 18 7.5-24.5 9.6c0.2 0.3 0.3 0.7 0.4 1.1 0 0.1 0.1 0.3 0.1 0.4v0.1l28.3-9.4 0.9 0.4-28.9 10.1c0-0.2-0.1-0.5-0.2-0.8-0.1-0.2-0.1-0.4-0.2-0.5-0.1-0.4-0.3-0.7-0.4-1.1-0.7-1.4-1.7-2.7-2.9-3.6l-0.9-0.6c-0.4-0.2-0.7-0.4-1.2-0.6l4.5-12.6c-0.1 0-0.1 0-0.2 0.1zm-289.6 121.7c-0.6-1.5-1.6-2.7-2.7-3.6l-0.1-0.1 15.3-21.5 1.4 20.3-13.9 4.9zm15-49.6 15-2.5-13.5 19-3.9-12.6c0.1 0 0.2-0.1 0.3-0.1 0.4-0.2 0.8-0.4 1.1-0.8 0.8-0.8 1.1-1.8 1.1-2.8-0.1-0.1-0.1-0.2-0.1-0.2zm1 17.3-3 4.2-1.2-17.5 4.2 13.3zm-15.6 33.4 13.6-4.8 1 15-14.7-5.1c0-0.1 0.1-0.1 0.1-0.2 0.4-1.5 0.5-3.2 0-4.9zm12.9-27.3 3.3-4.6 7 22.6-8.8 3.1-1.5-21.1zm3.8-5.5 14.6-20.5 17.4-2.9 5.3 36.1-30.1 10.5-7.2-23.2zm18.6-123.1 10.5 35.2c0.2-0.1 0.4-0.1 0.6-0.2-0.1 0-0.2 0-0.3 0.1-0.8 0.3-1.5 0.7-2.1 1.3-0.2 0.2-0.3 0.4-0.5 0.6l-0.6 0.9c-1.2 2.2-0.8 5 1 6.9 0.2 0.2 0.4 0.3 0.5 0.5l0.9 0.6c2.2 1.2 5.1 0.9 7-1 0.2-0.3 0.4-0.7 0.6-1l1.1 0.6 0.6 23.3-3.8 5.3-5.8-27-0.9-0.6 6.1 28.5-3.3 4.7-1-2-10.9-74.1 4.6 21.4 3 14.1 0.6-0.9-7.9-37.2zm168.6-64.7 1.3 0.4 0.1 0.1-0.3 0.3c-0.2 0.2-0.3 0.4-0.5 0.6-0.4 0.6-0.7 1.2-1 1.9l-18.4-5.6 3.3-2.6 13.4 4.2 2.7 2.1c0.1-0.2 0.3-0.4 0.5-0.6l-1.1-0.8zm-151.3 145.3-1.3-6.2 3.5-5 0.4 13.2 0.2 8.2c-0.2 0-0.4 0-0.6 0.1l-2.2-10.3zm1.5 10.5c-0.3 0.1-0.6 0.2-0.9 0.3l-5.6-11.7 3.1-4.4 3.4 15.8zm0.8-46.4 11.7 6.1-11.2 15.7-0.5-21.8zm0-0.9-0.1-3.2 19.8-1.1-7.5 10.7-12.2-6.4zm-0.1-3.9-0.1-2.9 21.9-13.3 6.1 4.5-7.5 10.6-20.4 1.1zm-1-2.3 0.1 2.3c-0.1-0.7-0.3-1.4-0.6-2l0.5-0.3zm-0.7-0.6 0.8-0.6v0.1l-0.8 0.5zm0.4 6c0.2-0.5 0.3-1 0.4-1.5l0.1 2.1-0.6-0.4s0.1-0.1 0.1-0.2zm0.4-36.3 18.8 14-18 14.2-0.8-28.2zm133.4-76.7-3.3 2.6-17.8-5.4-1.3-1.5c0.6-0.7 1.2-1.5 1.5-2.2v-0.1l20.9 6.6zm16.7 15.2-13.6 8.3-13.1-14.4 7.1-5.6 18.9 5.8c-0.5 2-0.3 4.1 0.7 5.9zm-20.5-12-6.8 5.3-9.2-10.2 16 4.9zm5.9 20.9-92.8 56.5 12.6-17.8 67.2-53 13 14.3zm-95.3 58-17.4 10.6-2.8-2.1 32.1-25.3-11.9 16.8zm-1.1 1.6-9.8 13.8-5.8-4.3 15.6-9.5zm-17 9.4-21.3 13v-0.3l18.6-14.7 2.7 2zm7.6 5.7 11.7 8.8-18.7 1 7-9.8zm0.4-0.5 11.4-16 94.4-57.5 67.1 73.9-160.4 8.9-12.5-9.3zm106.9-74.2 13.5-8.2c0.3 0.4 0.6 0.8 1 1.2 2.3 2.1 5.5 2.8 8.3 1.9 0.1 0 0.2-0.1 0.3-0.1l50 79.2-5.5 0.3-67.6-74.3zm-1.3-24.7 2.8-2.2 6.9 5.3-9.7-3.1zm-1.1-0.2-21.7-6.9c0.3-1.2 0.3-2.4-0.1-3.6-0.9-4.1-5-6.4-9-5.3-0.1 0-0.3 0.1-0.4 0.1h-0.1l-8.3-19.5 42.7 32.8-3.1 2.4zm-24.3-2.6h-0.1 0.1zm-2.7-0.1 0.3 0.1 0.7 0.2 3 0.9 10.4 11.6-65.1 51.4 45.2-63.6c1.7 0.9 3.6 1.2 5.5 0.7 0.6-0.2 1.2-0.4 1.7-0.7l-1-0.3-0.5-0.2-0.2-0.1-6.6-2-0.3-0.1-0.7-0.2-1-0.3c0.5 1 1.1 1.8 1.9 2.4 0.1 0.1 0.2 0.1 0.2 0.2l-47.4 66.6-34.3 27-19.4-14.4-2.2-82.1 93.4-2.1 7.9 2.4 1 0.3 0.7 0.2 0.3 0.1 6.5 2zm-109.9-4.2-0.6-23.4c1.5-0.1 3-0.8 4.2-2 0.7-0.7 1.3-1.6 1.6-2.5l57.6 17.6 27.2 8.3-90 2zm95.9-1 4.7-0.1c0 0.4 0.1 0.8 0.2 1.3 0 0.1 0.1 0.3 0.1 0.4l-5-1.6zm4.7-1.2-8.2 0.2-5.2-1.6-81.8-25c0.5-2.2 0-4.7-1.8-6.4-1.8-1.8-4.3-2.4-6.4-1.8l-4.4-13.9 83.7 36 24.5 10.6c-0.2 0.5-0.4 1.2-0.4 1.9zm-101.3 2.4h-0.5l0.2-12.7 0.3 12.7zm0 1.1 2.2 81.5-4.1-3.1 1-58.1 0.3-20.3h0.6zm2.1 82.6 0.8 29.4-1.3 1.1c-0.1-0.1-0.1-0.2-0.2-0.2-1-1-2.4-1.6-3.7-1.7h-0.2l0.5-31.7 4.1 3.1zm-6.9 75.5 1.2 8.1-4.2-3.8 3-4.3zm1.4 9.2 1 6.9-14 0.3 8.2-11.5 4.8 4.3zm1.1 7.7v0.3l-16.3 2.7-0.4 0.1 2-2.8 14.7-0.3zm4 21.9-2.7-18.6c-0.4-0.7-0.7-1.5-0.9-2.2-0.1-0.3-0.2-0.6-0.2-0.8v-1.1c0-0.6 0.1-1.1 0.2-1.6l-0.7-4.4 2 1.8c0.2-0.2 0.3-0.4 0.5-0.6l-2.7-2.4-1.4-9.7 0.4-0.5 5.4 11.3c-0.6 0.3-1.1 0.7-1.6 1.2-0.2 0.2-0.3 0.4-0.5 0.6-0.6 0.8-1.1 1.7-1.3 2.7-0.1 0.5-0.2 1.1-0.2 1.6v1.1c0 0.2 0.1 0.5 0.1 0.7 0.2 0.8 0.5 1.5 0.9 2.2 0.3 0.5 0.6 0.9 1 1.3 2.8 2.8 7.4 2.8 10.2 0s2.9-7.4 0-10.2c-1.4-1.3-3.1-2-4.9-2.1l-0.6-22.4 12.1-17.1 91.5 47.8-104.4 36.5-2.2-15.1zm15.5-69.8 8-11.2 20.2-1.1 75.4 56.4-11.5 3.9-92.1-48zm29.4-12.4 160.1-8.9 14.7 16.2-11.1 17.9-88.6 30.9-75.1-56.1zm161.6-9.1 5.3-0.3 9.1 14.6-0.6 1-13.8-15.3zm19.1 3.8c0.3 0.3 0.7 0.7 1.1 0.9l0.1 0.1-5.2 8.4-8.5-13.5 10.3-0.6v0.1c0.2 1.7 0.9 3.3 2.2 4.6zm-4.3 11.2 1.5 2.4h-0.1c-0.1 0.1-0.3 0.2-0.4 0.3l-1.6-1.8 0.6-0.9zm135.8-79.8 16.7 23.6-9.7-3.3-8.4-14.4 1.4-5.9zm-1.8 4.9-24.1-41.4 25.4 35.7-1.3 5.7zm20.3 19.3-18.2-25.7 2.2-9.6 8-34.5 37.8 1.5 15.8 27 14.7 24.9-50.3 19.8-10-3.4zm8.9 3.8-4.8 1.9-3.3-4.7 8.1 2.8zm-14.4 4.9c0.3-0.2 0.6-0.4 1-0.6l-6.4-11.1 9.9 3.4 4 5.7-2.4 0.9c0.7 0 1.5 0.2 2.2 0.4-0.7-0.2-1.4-0.3-2.2-0.4-1.1-0.1-2.1 0.1-3.2 0.4-0.7 0.2-1.3 0.4-1.9 0.7-0.3 0.2-0.7 0.4-1 0.6-0.6 0.4-1.2 0.9-1.7 1.4-0.1 0.1-0.2 0.2-0.2 0.3l-5.4 2.1-4.1-1.3-3.5-12.1c-0.2 0.1-0.5 0.2-0.7 0.2l3.4 11.6-28.2-8.9 17.1-6.5c0.3 0.7 0.8 1.3 1.3 1.9 1.7 1.7 4.1 2.3 6.4 1.8 0.2-0.1 0.5-0.1 0.7-0.2 0.9-0.3 1.8-0.8 2.5-1.6 0.7-0.7 1.1-1.3 1.5-2.2l3.8 1.3 7.1 12.2zm-73.5 36.7-3.6 16.1-20.6-7.6 24.2-8.5zm-25.9 7.9-0.9-0.3 27.1-9.1v0.2l-26.2 9.2zm23.1 9.3 40.4 15-2.1 3.2-38.7-16.2 0.4-2zm41.5 15.5 4.2 1.6-2 3.4-4.4-1.8 2.2-3.2zm0.5-0.7 28.8-42.9 0.2 0.6-24.9 43.8-4.1-1.5zm-1.1-0.4-40.7-15.1 3.8-17 63.4-22.1 3 10.3-29.5 43.9zm-71.9-25.2-14.3-6 15.2 5.6-0.9 0.4zm1.8 1.6-16.7 5.6 15.4-6.1 1.3 0.5zm-19.8-9.9 8.6-12.6 50.9-19.4-5.9 26.3-33.5 13.2-20.1-7.5zm80.1-39.8 2.9-1.1 30.3 9.6 0.5 1.9-59.1 23.3 5.9-26.3 19.5-7.4zm-19.2 6.5 3.1-13.6 17.8 5.6-20.9 8zm55.2 11.2-34.3 11.4-28.1 9.3 0.8-3.5 59.7-23.5 1.9 6.3zm-1.9-8.9 2 0.6-1.6 0.7-0.4-1.3zm-60.8 31 8-2.7-8.1 2.8 0.1-0.1zm61.6-28.5 3.1-1.2 3 0.9c-0.4 1.6-0.4 3.3 0 5v0.3l-4.2 1.4-1.9-6.4zm4.7-1.9 2.4-1c-0.3 0.4-0.5 0.9-0.7 1.4v0.1l-1.7-0.5zm-15.5-26.1c-0.2 0.2-0.5 0.4-0.7 0.6l-30.5-29.4 3.5-15.3 27.7 44.1zm-1.3 1.2c-1.6 1.8-2 4.3-1.3 6.5 0 0 0 0.1 0.1 0.1l-18 6.9-19.3-6.1 8.3-36.5 30.2 29.1zm-39.7 6.9-24.5-7.8 25.3-36.7 7.6 7.4-8.4 37.1zm-0.4 1.1-3.3 14.5-17.9 6.8-32.3 12.3 28.6-41.5 24.9 7.9zm-36.1 6.5-19.2 27.8-12.3 4.7 19.2-54.4 16.6 5.3 5.9 1.9-10.2 14.7zm-5.7 50.3-1.4-0.6 1-0.4 1.6 0.6-1.2 0.4zm5.4 1.2 21.6 8-0.4 1.9-22.6-9.4 1.4-0.5zm61.5 27.7 4.4 1.9-0.4 0.7-7.5 2.5 3.5-5.1zm32.5-48.2 2.5-3.7-2.4 4.2-0.1-0.5zm16.6 57.1-16-54.8 5.4-9.6c-0.3-0.2-0.7-0.4-1-0.6-0.2-0.1-0.4-0.3-0.6-0.4l-4.8 7.1-2.8-9.7 4.4-1.6c0.7 1.6 1.8 2.9 3.1 4 0.2 0.2 0.4 0.3 0.6 0.4 0.4 0.2 0.8 0.4 1.1 0.5 2.1 1.1 4.7 1.4 7.2 0.7 4.8-1.3 7.8-5.9 7.3-10.7l36.8 51.9-33.1 30.8 0.5 0.5 33-30.7 22.4 31.6-53.9 2.4c-0.1-1.1-0.6-2.2-1.4-3.1l-0.5-0.5c-1.6-1.5-3.7-2-5.7-1.6h-0.1l-1.9-6.6zm41.8-23 35.3-32.8 0.2 0.2c2.6 2.5 6.7 2.5 9.2-0.1l0.2-0.2 34.7 28.6 2.9 34.1-59.6 2.6-22.9-32.4zm62.8-19.2-17.4-14.3c0.3-0.4 0.5-0.8 0.7-1.3v-0.1l6.2 2.3 25.7 9.4 1.5 17.8-16.7-13.8zm11.1-54.7-29.6 31.3c0.2 0.1 0.3 0.3 0.4 0.4l0.1 0.1 29.1-30.8 4.1 48.9-31.6-11.6c0.6-2.2 0.1-4.5-1.5-6.3l-0.5-0.5c-2.1-1.7-4.9-2-7.3-0.8-0.2 0.1-0.4 0.2-0.7 0.4-0.4 0.2-0.7 0.5-1 0.8-0.7 0.7-1.1 1.4-1.5 2.2-0.1 0.2-0.2 0.5-0.2 0.7-0.6 2-0.1 4.3 1.3 6l-0.2-0.2-32.3 30-2.9 2.7-1.8-2.6-36.5-51.6s0-0.1-0.1-0.1c-0.5-1.2-1.3-2.2-2.2-3-0.8-0.8-1.7-1.4-2.7-1.9l-1.5-0.6 0.9-0.4 0.6 0.9c1 0.5 1.9 1.1 2.7 1.9l-2.3-3.2 5.8-2.3 24.7 8.4 46.5 15.8c0.1-0.2 0.1-0.5 0.2-0.7l-70.3-24 49.2-19.4 23.6 40.3c0.2-0.1 0.4-0.3 0.7-0.4l-23.5-40.2 57.6-22.7 2.7 32.5zm49.7-56.6v0.3c0 0.6 0.1 1.2 0.3 1.8l-51.4 20.3-2.1-24.6 53.2 2.2zm-52.5 23-58.1 22.9-30.1-51.5 85.8 3.5h0.3l2.1 25.1zm-15.5-57.9c0 0.2 0.1 0.4 0.1 0.6 1.4 5.1 6.1 8.4 11.2 8.2h0.3l1.9 22.8-86.7-3.5-7.2-12.4-1.2-2.1 81.6-13.6zm-101.5 17 18.8-3.1 8.4 14.3-36.9-1.5 1.9-8.4 7.8-1.3zm-71-73.3 65.8 35.3s0 0.1-0.1 0.1c-1 2.2-0.6 5 1.2 6.8 0.9 0.7 1.8 1.2 2.7 1.5 0.1 0 0.2 0.1 0.3 0.1l-6.9 29.6-32.9 5.5c0.1 0.4 0.1 0.7 0.2 1.1l32.5-5.4-1.9 8.2-30.5-1.2v1.1l30.2 1.2-10.4 43.5-25.1-35.4c-0.3 0.2-0.6 0.5-0.9 0.7v-0.1c-0.3 0.2-0.6 0.4-1 0.6l25 43-0.8 3.6c0.2 0 0.5 0.1 0.7 0.2l0.7-2.8 6.9 11.8 0.2 0.4-3.2-1v-0.1c0.6-2.3 0.1-4.8-1.7-6.6-0.9-0.8-1.9-1.4-3-1.7-0.2-0.1-0.5-0.1-0.7-0.2-1.5-0.3-3.1 0-4.3 0.7l-28.2-44.8 0.2-1.1c-0.4-0.1-0.7-0.1-1.1-0.2l-0.1-0.2c0.4 0.1 0.6 0.2 1 0.2 1.9 0.3 3.8 0.3 5.8-0.3 0.9-0.3 1.8-0.6 2.6-1 0.3-0.2 0.7-0.4 1-0.6s0.6-0.4 0.9-0.7c2.9-2.2 4.7-5.6 5-9.2v-1.1s-0.1-0.8-0.1-1.4c0-0.4-0.1-0.7-0.2-1.1-0.1-0.3-0.1-0.5-0.2-0.8-1.9-6.9-9.1-11-16-9.1-4.9 1.4-8.4 5.4-9.3 10.1l-20.7-32.7 7.5-21.3 8.9-25.2zm-45.9-0.4-20.7-33c0.2-0.2 0.4-0.3 0.6-0.4 0.3-0.3 0.6-0.7 0.8-1 0 0 0-0.1 0.1-0.1l64.1 34.4-16.2 45.8-28.7-45.7zm29.2 47.9 13.5 21.4 7.3 11.6 0.1 0.2c-0.1 1.5 0 3 0.4 4.5 0.8 2.9 2.5 5.2 4.7 6.9 0.2 0.2 0.5 0.4 0.9 0.6 0.8 0.5 1.4 0.9 2.3 1.2l0.9 1.4-3.6 15.7-7.4-7.1 7.7-11.1-0.9-0.6-7.6 11-28.3-27.4 10-28.3zm-10.2 29 28.2 27.2-25.7 37.1-22.7-7.2 20.2-57.1zm-49.9-48.1 20.4 19.7 28.5 27.5-20.3 57.6-29-9.2-1.3-41.7-1.6-52.5c1.2-0.1 2.3-0.6 3.3-1.4zm-8.2-0.5 0.2 0.2c0.1 0.1 0.1 0.1 0.2 0.1 0.2 0.2 0.4 0.3 0.6 0.5 0.9 0.7 2 1 3.1 1.1l2.9 93.9-51.8-16.3-10.6-3.4c0.1 0.4 0.2 0.9 0.3 1.3l62 19.7 1.9 60.1h0.8l-1.9-59.9 28.6 9.1-0.8 2.1-18.8 53.1-0.3 0.1v0.1c-0.4-0.8-0.9-1.5-1.5-2.2-1.5-1.5-3.4-2.2-5.3-2.3h-0.8c-1.8 0.1-3.5 0.9-4.8 2.2-1.5 1.5-2.3 3.4-2.3 5.4l-10.7 0.6-50.3-79.6c0.7-0.4 1.3-0.8 1.9-1.4 1.9-1.9 2.7-4.5 2.3-7-0.1-0.4-0.2-0.9-0.3-1.3-0.4-1.2-1-2.3-1.9-3.2-0.1-0.1-0.2-0.2-0.4-0.3-0.2-0.2-0.4-0.3-0.6-0.5-1.5-1.1-3.2-1.6-4.9-1.6l-1.2-19.8 64.4-50.8zm-72.3 56.9 5.8 14.4c0.2-0.1 0.5-0.2 0.7-0.3l-5.9-14.6 6.5-5.1 1.2 19.3c-0.6 0.1-1.2 0.2-1.8 0.4-0.2 0.1-0.5 0.2-0.7 0.3-0.5 0.2-1 0.5-1.5 0.9-0.3 0.2-0.6 0.5-0.9 0.7 0.3-0.3 0.6-0.5 0.9-0.7l-0.4-0.1-7.7-12.2 3.8-3zm2.4 14.6-3-0.9-8.4-6.5 4.5-3.5 6.9 10.9zm-127.5-184.3c2.5 2.2 6.1 3.2 9.6 2.2 0.3-0.1 0.5-0.2 0.7-0.2 0.4-0.1 0.7-0.3 1-0.4 0.2-0.1 0.3-0.2 0.5-0.2l79.2 125.3 29.1 46.1-4.7 3.7-44-33.8-33.5-78.8-26.5-62.3c-0.3 0.2-0.7 0.3-1 0.4l59.2 139.3-118.6-91.2 49-50.1zm-49.6 50.7 119.8 92.1 9.1 21.4c-1.3 0.7-2.4 1.8-3.1 3.1l-109.1-46.9-12.2-38.7-8.5-26.9 4-4.1zm-11.8 12 7.2-7.3 20.3 64.6-37.4-16.1 1.5-6.1 8.4-35.1zm-31.9-10.2-5.7 1.4-2.4-16.5 8.6-7.1-0.5 22.2zm-57.7-27 9.9-7.6 0.4 2.1-8.3 9.2-2-3.7zm1.4 4.3-4.4 4.9-3.4-4.2 5.8-4.5 2 3.8zm9.2-8.4 6.9 35c0.2-0.1 0.5-0.1 0.7-0.1l-7-35.6 2.8-3.1h0.1c3.1 2.5 7.3 3.6 11.4 2.5 0.3-0.1 0.5-0.2 0.8-0.3l8.6 21.1-12.6 16.4c0.2 0.1 0.4 0.3 0.6 0.5l12.3-16 2 4.9-1.9 1.6-12 10-0.4-0.4c-0.2-0.2-0.4-0.3-0.6-0.5-1.2-0.8-2.7-1.1-4.1-1-0.3 0-0.5 0.1-0.7 0.1-0.3 0.1-0.6 0.2-0.9 0.3l-14-26.5 8-8.9zm0-3.9 1.8-1.5c0.2 0.3 0.5 0.6 0.8 0.8l-2.2 2.6-0.4-1.9zm26.9 30 3.7 9.1-16.5 4c-0.2-0.6-0.5-1.2-0.9-1.7l13.7-11.4zm0.9-0.8 10.2-8.4 2.3 15.9-8.6 2.1-3.9-9.6zm20.2-35.2-0.3 14.9-8.1-4 8.4-10.9zm-8.8 11.5 8.5 4.2v2l-8.8 7.3-1.6-11.1 1.9-2.4zm-0.7-0.3-1.3 1.7-0.4-2.5 1.7 0.8zm-0.6 14.7-10.3 8.5-2.1-5.1 10.9-14.1 1.5 10.7zm-42-40.4 5.1 3.8c-0.5 0.7-0.8 1.3-1.1 2.1l4.7 2.3 13.3 6.6-13.3-6.5-4.7-2.3-3.1-1.5-0.9-4.5zm1.1 5.3 2.7 1.3 4.7 2.3 13.1 6.4 4.7 2.3 13.4 6.7 0.6 4.4-11 14.3-8.4-20.6c2.2-1 4.1-2.7 5.4-4.6l-4.7-2.3-13.1-6.5-4.7-2.3c-0.8 2.4-1 5-0.3 7.6 0.1 0.3 0.2 0.7 0.3 1 0.1 0.4 0.3 0.7 0.4 1 0.3 0.6 0.6 1.2 1 1.8l-1.4 1.1-0.5-2.5 0.9-0.4c-0.2-0.3-0.3-0.7-0.4-1l-0.7 0.3-2-10.3zm1.5 11.7 0.5 2.7-10.2 7.8-2.7-5.3 12.4-5.2zm-13.2 5.6 2.9 5.5-6 4.6-5.3-6.6 8.4-3.5zm-21.9 9.1 12.8-5.4 5.4 6.7-12.6 9.7-5.6-11zm6.1 12.1 12.9-9.9 3.5 4.3-12.4 13.7-4-8.1zm67 133.6-30.6-61 32.6-14.4c-0.2-0.3-0.3-0.7-0.5-1l-32.6 14.5-31.3-62.5 12.5-13.8 17.7 21.7c0.2-0.2 0.4-0.3 0.6-0.5l-17.8-21.8 4.3-4.7 13.9 26.3c-0.1 0.1-0.2 0.2-0.3 0.2-0.2 0.1-0.4 0.3-0.6 0.5-0.1 0-0.1 0.1-0.2 0.1-2.4 2.3-2.4 6.1 0 8.5 2.3 2.4 6.1 2.4 8.5 0 1.4-1.4 1.9-3.4 1.6-5.2l16.6-4 5.5 13.5 6.4 15.7c0.3-0.2 0.7-0.3 1.1-0.4l-11.9-29.1 8.4-2 4.4 30.9c0.2 0 0.4-0.1 0.5-0.1-0.1 0-0.2 0.1-0.3 0.1-0.2 0-0.4 0.1-0.6 0.1s-0.3 0.1-0.4 0.1c-0.4 0.1-0.7 0.3-1.1 0.4-4 1.9-6.1 6.4-4.9 10.8 0.1 0.2 0.2 0.5 0.2 0.7 0.1 0.4 0.3 0.7 0.5 1 1.8 3.9 6.2 5.9 10.5 4.7 2.6-0.7 4.6-2.5 5.7-4.7 0.2-0.3 0.3-0.7 0.5-1 0.6-1.7 0.7-3.7 0.2-5.6-0.4-1.4-1.1-2.7-2-3.7v-0.1l24.3-24.8-9.5 39.8-13-5.6c-0.1 0.4-0.3 0.7-0.5 1l13.3 5.7-16.6 69.4-15.1 0.3zm14.4 17.6s-0.1-0.1-0.1-0.2c-0.7-0.7-1.5-1.1-2.3-1.4h-0.1l3.6-15.1 20.5-0.5-21.6 17.2zm1.5-17.9 16.5-69.1 38.1 16.4 4.6 14.5h-0.1c-0.9 0.3-1.7 0.8-2.4 1.5-2.4 2.4-2.7 6.1-0.8 8.8l0.2 0.2-34.3 27.3s-21.8 0.4-21.8 0.4zm23.1-0.5 33.5-26.6c0.1 0.1 0.1 0.1 0.1 0.2 0.9 0.9 2.1 1.5 3.3 1.8 0.2 0.1 0.5 0.1 0.7 0.1h0.6c0 0.1-0.1 0.1-0.2 0.1l-0.4 23.5-4.1 0.1 4.2-23.6c-0.3 0-0.5-0.1-0.7-0.1l-4.2 23.8-32.8 0.7zm24.6 63.5c-0.6-0.7-1.4-1.1-2.3-1.3l11-61.8 4.3-0.1-1.1 62.8-0.3 15-10.9-8.1c-0.1 0.2-0.3 0.4-0.5 0.6l11.3 8.5-0.5 32.3h0.2c-0.4 0-0.7 0.1-1 0.1-0.1 0-0.2 0.1-0.3 0.1l-11.6-39.6c-0.1 0-0.3 0.1-0.4 0.1-0.1 0.1-0.3 0.1-0.4 0.1 0.1 0 0.2-0.1 0.3-0.1s0.3-0.1 0.4-0.1c0.7-0.2 1.3-0.6 1.8-1.2 0.1-0.1 0.2-0.2 0.2-0.3 0.2-0.2 0.3-0.4 0.5-0.6 1.3-2 1.1-4.7-0.7-6.4zm-2.7 8.8h-0.3 0.3zm-1.5 0h1l11.6 78.4-19.7-41.3 7.1-37.1zm-7.4 38.3 20.3 42.6 0.5 3.5-3.6 5.1-23.1-20.6 5.9-30.6zm-6 31.5 22.8 20.3-8.7 12.3-20.4 0.5 6.3-33.1zm-7.3 33.9-0.5 2.5c0.3 0 0.5 0.1 0.7 0.1l0.5-2.7 20-0.5-2.1 3-15.9 2.7c-0.2-0.6-0.5-1.1-0.9-1.5s-1-0.7-1.5-0.9c-0.2-0.1-0.5-0.1-0.7-0.1-1-0.1-2.1 0.2-2.9 1-0.6 0.6-0.9 1.4-1 2.1v0.8c0 0.6 0.2 1.1 0.5 1.6 0.1 0.2 0.3 0.4 0.5 0.6 0.6 0.6 1.4 0.9 2.2 1l1.3 18.5-16 22.9c-2.1-1.3-4.8-1.8-7.3-1.1-1.2 0.3-2.2 0.9-3.2 1.6-0.1 0-0.1 0.1-0.2 0.1l-12.8-14.8 35.9-27.9c-0.2-0.2-0.3-0.4-0.5-0.6l-35.9 27.6-26.5-30.7 61.9 1.2v-0.8l-62.6-1.2-2.6-2.9 69.6-1.6zm-98.9 2.3 27.8-0.6 2.5 2.9-29.1-0.6-1.2-1.7zm1.8 2.5 29.2 0.6 27.1 31.3-22.3 17.3-34-49.2zm35.2 52.8c-0.8 0.7-1.5 1.5-2 2.4v0.1l-3.4-1.6 3.9-3 1.5 2.1zm2.9-1.5c-0.7 0.2-1.4 0.5-2 0.9l-1.5-2.2 22.3-17.3 12.9 14.9c-1.8 1.9-2.9 4.5-2.7 7.3 0 0.2 0 0.4 0.1 0.6 0-0.2-0.1-0.4-0.1-0.6l-18.6 2.6v0.3-0.2c0-0.2-0.1-0.3-0.1-0.5-1.2-4.4-5.8-7-10.3-5.8zm73.6 179.1-13.6-32.9-19.8-134.2c-0.4 0.1-0.7 0.1-1.1 0.2l13.1 88.6 6.1 41-52.3-126.4h0.1c3-1.5 4.8-4.7 4.6-8v-0.1l18.5-2.6c0 0.2 0.1 0.4 0.1 0.6 1.2 4.4 5.4 7.2 9.8 6.8 0.4 0 0.7-0.1 1.1-0.2 0.2 0 0.4-0.1 0.6-0.1 2.8-0.8 4.9-2.7 6-5.2l15.2 5.3 11.6 167.2zm-10.8-168.2-1.1-15.5 9.1-3.2 7.5 24.1-15.5-5.4zm16.4 5.7-7.6-24.7 17.5-6.1 12.5-4.4 2.2 15.2 4.4 30.1-29-10.1zm182.5-47.6-0.6 0.6s-0.3 0.4-0.5 0.6c-0.1 0.2-0.2 0.3-0.3 0.5s-0.2 0.4-0.4 0.7c-1.4 3.1-0.9 6.9 1.6 9.5 0.4 0.4 0.8 0.7 1.2 1h0.1l-50.6 81.1-25.7-9-77.4-27-6.8-45.8 105.6-36.9 52 27.1c0.1-0.2 0.2-0.5 0.4-0.7l-51.4-26.8 11.2-3.9 40.4 30.2c0.1-0.2 0.3-0.4 0.5-0.6l-40-29.9 86.5-30.2-35.9 58.1c-3.2-1.8-7.2-1.3-9.9 1.4zm11.8 0c-0.4-0.4-0.8-0.7-1.2-1h-0.1l36.4-58.9 12-4.2c-0.2-0.3-0.5-0.6-0.6-1l-10.4 3.6 10.4-16.9 1.4 1.6c-2.4 2.4-3.4 6-2.4 9.4 0.2 0.8 0.6 1.6 1 2.3 0.2 0.3 0.4 0.7 0.6 1 2.3 3.1 6.4 4.6 10.4 3.5 4.4-1.2 7.3-5.3 7.1-9.7v-0.2l30.3-10.6 23.4 9.8-8.5 37.4-108.1 36.5c-0.4-0.9-0.9-1.8-1.7-2.6zm77.9 63.8-46.3-32.3-30.5-21.3c1.2-2 1.5-4.4 0.9-6.6v-0.4l107.6-36.2-16.9 74.8-14.8 22zm8.7 6.3-7.6-5.3 13.2-19.6-5.6 24.9zm1.1 0.6 6.3-28.1 39.5-58.7 21.5-31.9 7.6-2.6-70.6 124.3-4.3-3zm-1 14.8c-0.1-0.1-0.3-0.2-0.4-0.3l5.8-10.3 18.8 13.1-20.9 2.5c0-0.1-0.1-0.3-0.1-0.5-0.5-1.9-1.7-3.4-3.2-4.5zm-6.9 63.9 0.4-8.2 51.6-19.8 1.3 0.7-53.3 27.3zm53.4-28.6 1.8-0.7 0.7 0.6-1.4 0.7-1.1-0.6zm1.9 1.1 1.2-0.6 3.4 3.2-4.6-2.6zm18.1-1.5 5.9 7.7-11.1-6.5c1.8 0.3 3.7-0.1 5.2-1.2zm-11.9-1.7 19.5 11.4 6.9 8.9 2.5 3.1-27.7-15.9-5.6-5.2 4.4-2.3zm-0.8-0.7 0.2 0.2-4.2 2.2-0.6-0.6 4.6-1.8zm-1.6-0.8-4.4 1.6-10.5-9.9c0-0.1 0.1-0.1 0.1-0.2l0.1-0.1 14.7 8.6zm-9.1-16-5.7 2.5c-0.1-0.2-0.2-0.3-0.4-0.5-0.1-0.1-0.3-0.2-0.4-0.3-0.2-0.2-0.4-0.3-0.6-0.4-0.1-0.1-0.2-0.1-0.3-0.2-0.2-0.1-0.5-0.2-0.7-0.2-1.4-0.3-2.8 0.1-3.9 1.1-1.6 1.6-1.7 4.3 0 5.9 1.6 1.6 3.9 1.7 5.6 0.3l10.3 9.7-2.1 0.8-42.3-24.3s0-0.1 0.1-0.1c0.6-1.2 0.8-2.4 0.8-3.8v-0.2l22.1-2.5 10.7 7.4-1.7 5.4c0.2 0.1 0.5 0.1 0.7 0.2l1.7-5.2 1.5 1-2.8 4.3c0.2 0.1 0.4 0.3 0.6 0.4l2.8-4.3 4.2 2.9-0.2 0.1zm22.2-9.2-20.8 9.2-4.6-3.2 7.3-11.2 19.1-2.2-1 7.4zm0.8-0.3 1-7.1 20.4-2.4-21.4 9.5zm24.9-11.1-23.8 2.7 4.8-34.4 22.2-33.9 7.6 60.8-10.8 4.8zm10.9-3.9v0.1l-8.3 3.5 8.3-3.6zm-5.6 3.3 5.6-2.4 0.2 1.7-5.8 0.7zm-1.5-65.8 27-41.2c-0.2-0.1-0.4-0.3-0.6-0.4l-9.3 14.2-17.2 26.2-7.6-60.8 31.8 13.4c-0.7 2.2-0.2 4.6 1.6 6.2 0.2 0.2 0.5 0.4 0.7 0.6s0.4 0.3 0.6 0.4c2.4 1.4 5.4 1 7.5-1 1.2-1.2 1.8-2.7 1.8-4.3l54.4-2.4 39.7 56-122.7 54.5-7.7-61.4zm7.8 62.2 123.3-54.4 1.1 1.5-124.4 52.9zm151.1-24.9s-0.1 0 0 0c-0.6 0.1-1.1 0.2-1.5 0.3-1.1 0.3-2 0.7-2.9 1.3-0.3 0.2-0.6 0.4-0.9 0.7-2.8 2.2-4.4 5.5-4.1 9.2l-141.3 16.3-0.2-2 124.6-53.2 21 29.6c0.3-0.2 0.6-0.5 0.9-0.7l-20.9-29.4 22.1-9.4 3.2 37.3zm-3.3-38.1-22.5 9.6-1.1-1.5 13.8-6.1 9.6-4.2 0.2 2.2zm-0.3-3-23.7 10.5-39.4-55.7 59.1-2.5 4 47.7zm-2.9-48.6-2.8-33 38.2 31.5-35.4 1.5zm36.5-1.5-39.4-32.5-1.6-18.3 78 28.7-0.5 3.5-39-11c0.2-1.2-0.1-2.5-1.1-3.4-1.5-1.8-4-1.8-5.6-0.2-1.6 1.5-1.6 4.1 0 5.7 1.3 1.3 3.2 1.5 4.7 0.7l17.4 26.2-12.9 0.6zm-3.9-27.2c-0.2 0.2-0.4 0.3-0.6 0.4 0.2-0.1 0.4-0.3 0.6-0.4zm17.7 26.6-17.7-26.6c0.1-0.1 0.2-0.2 0.3-0.2 0.4-0.4 0.7-0.9 0.9-1.4v-0.1l39.1 11-2.2 16.4-20.4 0.9zm18.3 21.2c-0.1 0-0.2 0-0.3-0.1l2.9-21.2 4.8-0.2-7.4 21.5zm8.5-21.6 10-0.4-15.7 21.3-1.7 0.8 7.4-21.7zm-5 24.1c0.1 0.2 0.3 0.4 0.4 0.7-0.2-0.2-0.3-0.5-0.4-0.7zm-0.3-0.4c-0.2-0.2-0.3-0.4-0.5-0.6-0.1-0.1-0.2-0.2-0.4-0.3 0 0-0.1 0-0.1-0.1l0.8-1.1 38.7-17.1-38.5 19.2zm48.8-24.5-47.7 21.1 15.2-20.8 32.3-1.4c0 0.4 0.1 0.7 0.2 1.1zm-0.1-2.7c-0.1 0.3-0.1 0.5-0.1 0.8l-31.7 1.4 6.8-9.3 25 7.1zm-4.3-2.1-20.4-5.7 1-1.4 19.4 7.1zm-19.7-8-13.3-4.9 15-44.1 8.7-25.7 41.8 3.2-52.2 71.5zm52.7-72.2-42-3.2 0.8-2.4 42.9-9.2 6.5 3.6-8.2 11.2zm0.9 0.2 8-10.9 23.7 13.3-31.7-2.4zm8.7-11.9 4.1-5.6 89.3-19.1 3.9 41.7h-0.1c-1-0.3-2.2 0-3 0.8-0.5 0.5-0.8 1.1-0.9 1.7l-67.5-5.1-25.8-14.4zm213.1 36.9c-0.2 0.1-0.4 0.1-0.6 0.2l16.5 62.1-117.6-39c0-0.1 0-0.1 0.1-0.1 0.5-1.7 0.5-3.5 0-5.3-1.5-4.5-5.7-7.4-10.2-7.2l-2.4-25.5c-0.1 0.1-0.1 0.2-0.2 0.3-0.3 0.3-0.5 0.4-0.8 0.6l2.3 24.7c-0.4 0.1-0.8 0.1-1.2 0.2-2.5 0.7-4.4 2.1-5.6 4.2l-66.3-37 66.2 5c0 0.8 0.3 1.6 0.9 2.1 1 1.1 2.5 1.3 3.6 0.7 0.3-0.1 0.6-0.3 0.8-0.6 0.1-0.1 0.1-0.2 0.2-0.3 0.3-0.4 0.6-0.9 0.6-1.4 0-0.2 0.1-0.4 0.1-0.6 0-0.5-0.1-0.9-0.3-1.3l0.1 0.1 96.1-59.2 15 12.8 0.4 32.2 0.2 20.8h-0.1c-1.4 0.1-2.7 0.6-3.8 1.7-0.9 0.9-1.5 2.1-1.7 3.3v0.1l-105.8-10.3c0 0.2 0 0.4-0.1 0.6l105.8 10.3c-0.1 1.6 0.5 3.1 1.7 4.3 1.5 1.5 3.5 2 5.4 1.6 0.2 0 0.4-0.1 0.6-0.2 0.9-0.3 1.7-0.7 2.4-1.4 2.3-2.3 2.3-6 0-8.3-0.7-0.6-1.5-1.1-2.5-1.4-0.2-0.1-0.4-0.1-0.6-0.2-0.3 0-0.5-0.1-0.7-0.1l-0.2-19-0.4-33.5 11.3 9.7-9.9 42.9c0.2 0 0.4 0.1 0.6 0.2l10.4-42.1 9.7 8.3 6.6 110.8-10-3.3-16.6-62.5zm29.1 108.9h-0.2l-11.9-45 9.7 3.2 0.8 13.8 1.6 28c0.1 0 0 0 0 0zm3.1 1-0.1-0.1c-0.7-0.6-1.4-0.9-2.3-0.9l-2.5-41.6 34.9 11.6-30 31zm31.3-31.8 17-17.6c-0.1-0.1-0.2-0.2-0.3-0.2l-0.1-0.1-17.2 17.8-35.8-11.9-6.6-110.5 27 23.1 33.7 74.6c-0.3 0.2-0.6 0.3-0.8 0.6-1.7 1.7-1.7 4.3-0.1 6-0.1 0.2-0.1 0.3 0 0.3 0.1 0.1 0.2 0.2 0.3 0.2 1.6 1.4 3.9 1.4 5.6 0l41.3 38.9-64-21.2zm76.4-20.3 26 54.3-37.1-12.3-42.1-39.8 0.1-0.1c1.1-1.3 1.3-3.1 0.6-4.6l22.4-12.7 7.5-4.2 22.6 19.4zm-9.6-28.9c-0.1 0-0.1 0 0 0-1.6-1.1-3.7-1-5.1 0.3-1.2 1.2-1.4 2.9-0.8 4.4 0 0 0 0.1 0.1 0.1l-6.6 3.7-6.3-5.4 44.5-40.1 2.3 4.5-28.1 32.5zm146.8-29.3-2.5 26.7c-0.9 0-1.9 0.3-2.6 1l-0.2 0.2-64.4-49.8-15.3-11.8c-0.1 0.2-0.2 0.3-0.4 0.4l79.8 61.7c-0.3 0.5-0.5 1.1-0.6 1.6v0.2l-93.4 1.3-18-35.1 25.1-29c-0.2-0.1-0.3-0.2-0.4-0.4l-23.3 26.9-1.6 1.9-2.2-4.4 27.1-24.5c0.1 0.1 0.3 0.2 0.3 0.4 2 1.6 5 1.5 6.8-0.4 0.1-0.1 0.2-0.2 0.2-0.3l0.4-0.4c0.3-0.5 0.6-1.1 0.7-1.6 0-0.2 0.1-0.4 0.1-0.6 0.2-1.6-0.2-3.2-1.4-4.4-1.8-2-5.1-2-7.1 0-0.1 0.1-0.2 0.2-0.2 0.3l-71.6-55.6-7.2-14.1 169.9 90c-0.1 0.2-0.2 0.4-0.2 0.7-0.1 0.2-0.1 0.4-0.1 0.6-0.2 1.4 0.2 2.8 1.3 3.8 0.6 0.6 1.5 1 2.3 1.2l-1.3 13.5zm-6.6-121.7 0.1 1.3 8.3 97.9h-0.3c-0.9 0.1-1.8 0.5-2.5 1.3-0.3 0.3-0.5 0.6-0.7 0.9l-170.6-90.4-11.6-22.5 135.2-20 26.1 9.1 7.3 7.2-0.1 0.1c-2.1 2.4-3 5.8-2.1 9.1 1.3 4.7 5.7 7.6 10.4 7.2l-0.1-1.3-0.1-3.1-0.6-6.6-2.1-7-0.4-1.3h-0.2c-1.4 0.4-2.8 1.1-3.8 2.1l-5.6-5.6 10 3.5v0.1l0.4 1.3 2.1 7 0.6 6.6 0.3 3.1zm-2.7-16.9 0.9 3 0.3 0.8v0.4l-0.4-1.2-0.8-3-0.5-1.3c0.4-0.1 0.8-0.2 1.2-0.2-0.4 0-0.8 0.1-1.1 0.2l0.4 1.3zm12.2 41.4-7-23.9c0.6-0.2 1.1-0.6 1.7-0.9l-0.3-1.4-0.8-3.6-1.7-7.9-0.8-3.6-0.3-1.4c-0.4-0.2-0.9-0.2-1.3-0.2h-0.3v-0.1h0.4l-0.4-0.1-1.2-14.4 0.6 2.7 2.3 12 0.3 1.4 0.8 3.6 1.7 7.9 0.8 3.6 0.3 1.4 5.2 24.9zm-4.7-41c-1.1-0.8-2.4-1.4-3.6-1.7l0.3 1.5 0.6 3.9 1.4 6.8 0.8 3.9 0.2 1.2-0.1 0.1-0.3-1.5-0.8-3.9-1.4-6.8-0.8-3.9-0.3-1.5-3.4-16.4h0.1c0.4-0.1 0.9-0.4 1.2-0.7 1.2-1.2 1.2-3.1 0-4.2-0.8-0.8-2-1.1-3.1-0.7-0.2 0.1-0.4 0.1-0.5 0.2-0.1 0-0.1 0-0.2 0.1-0.2 0.1-0.3 0.2-0.4 0.4h-0.1c-0.4 0.4-0.7 0.9-0.8 1.4 0 0.2-0.1 0.4-0.1 0.6 0.1-0.1 0.1 0 0.1 0.1 0 0.2 0 0.4 0.1 0.6 0.1 0.5 0.4 1 0.8 1.4 0.6 0.6 1.2 0.8 1.9 0.9l1.4 15.6-1.4-0.5-1.4-4.9-3.7-12.5 2.2-0.3c0-0.2-0.1-0.4-0.1-0.6l-2.3 0.3-0.3-1 2.6 0.4c0-0.2 0-0.4 0.1-0.6l-2.9-0.4-2.7-9.3 6.4 8.3 0.4-0.4-7.3-9.4-2-6.9 3.6 2.6 5.9 13.6c0.2-0.1 0.3-0.2 0.5-0.2l-5.2-12.4 29.6 21.7-14.6 15.3-0.4-0.2zm14.5 32.5-13.9-17.2c0.2-0.2 0.5-0.4 0.7-0.7l16 12.9-2.8 5zm5.5 6.5-4.8-5.9 2.8-5.2 10 8-7.2 4.1-0.8-1zm1.2 1.4 7.3-4.1 27.3 21.9-7.5 15.5-27.1-33.3zm16.4 144.1-34.1-14.3 0.9-1.8 37.4-3.7-4.2 19.8zm4.5-20.3-37.3 3.7 17.8-37.5 8.8 4.6 15.2 8-4.5 21.2zm4.6-21.9-23.8-12.5 15.5-32.6 13.5 20.3-5.2 24.8zm5.3-25.5-13.3-20.1 9.8-20.8 9.6 11.8-6.1 29.1zm26.5 40s-0.1 0-0.1 0.1l-25.6-38.7 6.2-29.3 7.1 8.7 5.8 25.7 7.5 33.1c-0.3 0.1-0.6 0.2-0.9 0.4zm1.5-0.5-7.4-32.8-5.6-24.8 30.5 37.5-11.7 16.7-2.9 4.1c-0.9-0.7-1.9-0.9-2.9-0.7zm3.3 40.8c-0.6-0.2-1.2-0.3-1.7-0.3h-0.1l-0.5-31.9h0.1c1-0.1 1.9-0.5 2.7-1.2 1.7-1.7 1.7-4.4 0-6.1-0.1-0.1-0.2-0.2-0.4-0.3l14.5-20.6 5.4 6.7-20 53.7zm2.2 1.3s-0.1-0.1 0 0c-0.6-0.5-1.1-0.8-1.7-1.1l19.9-53.3 14.8 18.2-33 36.2zm18.6-55.9 10.3-27.6c-0.2-0.1-0.4-0.1-0.5-0.2l-10.1 27.2-5.2-6.4 14.8-21.1c-0.2-0.1-0.3-0.2-0.5-0.3l-14.7 21-31.8-39-4.6-20.3 2.3-10.8 43 34.4 5.5 7.2c-1.9 1.9-1.9 4.9 0 6.8 0.1 0.1 0.3 0.2 0.4 0.4 0.2 0.1 0.3 0.2 0.5 0.3l0.6 0.3c0.2 0.1 0.4 0.1 0.5 0.2 1.6 0.5 3.5 0.1 4.8-1.2 0 0.1 0.2-0.1 0.3-0.3s0.2-0.3 0.3-0.5c0.4-0.7 0.6-1.4 0.6-2.2v0.1h0.4l0.1 0.1 2.7 4.5-3.8-2.4c-0.1 0.2-0.2 0.3-0.3 0.5l4.7 3 14.1 23.9-19.2 21-15.2-18.6zm45.8 56.1-30.1-37 19.1-20.9 11.2 18.9 6.8 11.5-7 27.5zm7.4-29.2-17.6-29.7 7.6-8.3 16.3 13.1-6.3 24.9zm6.6-26.1-11.6-9.3 12 7.7-0.4 1.6zm4.7 1.3c-0.4 0.6-0.6 1.3-0.7 2l-3.5-2.8 0.4-1.7 3.8 2.5zm5.1-3c-1.6 0-3.1 0.6-4.2 1.7-0.2 0.2-0.5 0.5-0.6 0.8l-4-2.6 8.2-32.4h1.4l-0.8 32.5zm4.4 1.8c-1.2-1.2-2.5-1.7-3.9-1.8h0.1l0.4-17.8 0.4-14.6h1.2l5.8 31-3.8 3.3c-0.1 0-0.1-0.1-0.2-0.1zm1 1.3c0-0.1-0.1-0.1-0.1-0.2-0.1-0.2-0.2-0.4-0.4-0.5l3.7-3.2 0.4 2-3.6 1.9zm3.7-4.4 5.4-4.7 1.4 3.5-6.4 3.3-0.4-2.1zm0.4 2.7 6.4-3.3 2.9 7.2-8.5 0.2-0.8-4.1zm5.7 32.9-9.9-19 7.4 5.9 2.5 13.1zm14.4-1-16.5-13.2-2.6-14.1 8.5-0.2 10.6 27.5zm91.3-30.1-101.5 2.1-2.9-7.5 77.6-40.2 26.8 45.6zm-26.1-46.6-4.9-8.3 105.9-44-101 52.3zm96.9-51.7-46.7 16.9 53.4-19.9c0 0.2 0.1 0.4 0.1 0.5l-6.8 2.5zm13.2-5.8c0-0.1-0.1-0.1-0.2-0.2-1.4-1.4-3.7-1.4-5.2 0-0.7 0.7-1 1.5-1.1 2.4l-106.1 39.5c0.1 0.2 0.2 0.4 0.2 0.6l98.3-35.5-8.9 3.7-92.2 38.3-0.7-1.2c-0.5 0-0.9 0-1.4-0.1l1 1.8-37 15.3v-0.1c-0.1-0.3-0.2-0.4-0.3-0.6-0.2-0.3-0.5-0.7-0.8-1-1.1-1.1-2.5-1.7-4-1.7l-6.6-94.8 44.7 75.9c-0.3 1-0.2 1.9 0.2 2.8l-33.5 18.8c0.1 0.2 0.2 0.3 0.3 0.5l27-15.2 6.5-3.6v0.1c0.1 0.2 0.3 0.4 0.5 0.6 0.6 0.6 1.3 0.9 2 1.1 0.4 0.1 0.9 0.1 1.4 0.1 0.9-0.1 1.8-0.5 2.5-1.2 1-1.1 1.3-2.7 0.9-4.1-0.1-0.2-0.1-0.4-0.2-0.6-0.2-0.4-0.5-0.8-0.8-1.2l-0.3-0.3 51.7-83.1 105 27-42.9 16zm44.7-16.9-106.2-27.3 7-11.2 143.9 21.9-13.2 4.9-31.5 11.7zm2 0.5 44.1-16.9 0.6 0.1 0.3 0.3-36.6 18.7-8.4-2.2zm9.2 2.4 36.2-18.5 12.2 11.5 28.4 26.8-76.8-19.8zm78.1 20.1-41.3-38.9 0.3-0.2 7.7 1.2 10.1 5.9 6.7 8.7 18.3 23.8-1.8-0.5zm2.7 0.7-20.5-26.6-4.2-5.3 26.5 15.4 2.2 17.5-4-1zm58.2-18.7c0.9 0.3 1.8 0.4 2.7 0.4l4.4 28.5c-0.1 0-0.2 0-0.4 0.1-0.6 0.2-1.2 0.4-1.8 0.7-0.3 0.2-0.7 0.4-1 0.6-1.1 1-2 2.1-2.5 3.5l-16.6-4.3 8.2-15.9 11 16.5c0.3-0.2 0.6-0.4 1-0.6l-11.4-17 6.4-12.5zm-3.8-6.3v0.3c0 0.7 0 1.3 0.2 2 0.4 1.5 1.4 2.7 2.6 3.5l-6.2 11.9-13.6-20.3 17 2.6zm-4 19-8.5 16.8-23.2-6 12.1-2.2v0.1c0.1 0.5 0.4 0.9 0.8 1.3 1.2 1.2 3.1 1.2 4.3 0s1.2-3.1 0-4.3-3.1-1.2-4.3 0c-0.1 0.1-0.2 0.3-0.3 0.4-0.1 0.2-0.2 0.3-0.3 0.5-0.2 0.5-0.3 1-0.3 1.5v-0.1l-13.3 2.4-12.8-3.3-2.2-17.3 28.5 16.7c0.1-0.2 0.2-0.3 0.3-0.5l-28.9-16.9-2-16.2 35.6 5.4 14.5 21.7zm-15.3-23-34.9-5.3-4.8-38.2 8.2-3.5 31.5 47zm-31.9-47.4-7.9 3.4v-0.1l7.9-3.3zm-0.4-0.7-7.6 3.3-2.2-18 9.8 14.7zm-8.1 3.6-26.9 11.8 4.5-32.1 9.6-14.6 10.4 15.6 2.4 19.3zm-2.7-21.9-9.5-14 6.5-9.9 3 23.9z"/>
<path class="st4" d="m334.8 552.3-2.1 4 1-0.2 1.8-3.4c-0.2-0.1-0.5-0.2-0.7-0.4z"/>
<polygon class="st4" points="0 569.7 66.8 602.5 67.9 602.3 0 568.9"/>
<path class="st4" d="m1769.4 134.9c-0.2-0.1-0.3-0.2-0.5-0.3-0.1 0-0.2-0.1-0.2-0.1-0.2-0.1-0.4-0.1-0.6-0.2-1-0.2-2.1 0-2.9 0.8-1.2 1.2-1.2 3.2 0 4.5 1.2 1.2 3.1 1.2 4.3 0.1l0.1-0.1c0.1-0.1 0.2-0.2 0.2-0.3l0.1-0.1c0.1-0.2 0.2-0.3 0.3-0.5 0.4-0.8 0.5-1.6 0.2-2.4-0.1-0.2-0.1-0.4-0.2-0.5-0.1-0.2-0.3-0.5-0.5-0.7-0.1-0.1-0.2-0.2-0.3-0.2z"/>
<path class="st4" d="m1484.9 246c0.2-0.1 0.4-0.1 0.5-0.2 0.6-0.2 1.1-0.6 1.5-1 2-2 2.1-5.3 0-7.4-1.8-2-5.1-2-7.1 0-1.2 1.2-1.6 2.7-1.5 4.2 0 0.2 0 0.4 0.1 0.6 0.2 0.9 0.6 1.8 1.3 2.5 0.1 0.1 0.3 0.2 0.4 0.3 0.5 0.4 1.1 0.7 1.7 0.9 0.2 0.1 0.4 0.1 0.5 0.2 0.2 0 0.4 0 0.6 0.1h1.1s0.4-0.1 0.6-0.1c0.1 0 0.2-0.1 0.3-0.1z"/>
</svg>
