<?xml version="1.0" encoding="UTF-8"?>
<svg enable-background="new 0 0 411.7 80.3" version="1.1" viewBox="0 0 411.7 80.3" xml:space="preserve" xmlns="http://www.w3.org/2000/svg">
<style type="text/css">
	.st0{fill:#1B75BC;}
	.st1{fill:#818285;}
	.st2{fill:#231F20;}
</style>
<rect class="st0" x="13" y="57.8" width="37.7" height="5.9"/>
<rect class="st0" x="13" y="-.3" width="37.7" height="5.9"/>
<rect class="st0" y="12.9" width="5.9" height="37.7"/>
<path class="st0" d="m32 12.2c-5.4 0-10.1 1.9-13.9 5.7-3.9 3.8-5.8 8.4-5.8 13.7 0 6 2.2 10.9 6.4 14.6 3.9 3.3 8.3 5 13.1 5 5.5 0 10.2-1.9 14.1-5.7 3.8-3.8 5.8-8.4 5.8-13.8s-1.9-10-5.8-13.8-8.6-5.7-13.9-5.7m9 28.9c-2.5 2.5-5.6 3.8-9.3 3.8-3.4 0-6.4-1.3-8.9-3.7-2.6-2.5-3.9-5.6-3.9-9.5 0-3.7 1.2-6.7 3.7-9.3 2.5-2.5 5.6-3.8 9.2-3.8s6.7 1.3 9.2 3.8 3.7 5.7 3.7 9.4c0.1 3.6-1.2 6.7-3.7 9.3"/>
<rect class="st0" x="57.8" y="12.9" width="5.9" height="37.7"/>
<path class="st1" d="m105.5 74c0.4 0.4 0.9 0.8 1.4 1 0.6 0.3 1.1 0.4 1.7 0.4 0.8 0 1.3-0.2 1.8-0.5 0.4-0.3 0.6-0.8 0.6-1.3 0-0.3 0-0.5-0.1-0.7s-0.2-0.4-0.4-0.5-0.4-0.3-0.6-0.4-0.5-0.2-0.8-0.4l-1.6-0.7c-0.3-0.1-0.5-0.3-0.8-0.4-0.3-0.2-0.5-0.4-0.8-0.6-0.2-0.2-0.4-0.5-0.5-0.8s-0.2-0.7-0.2-1.1 0.1-0.8 0.3-1.2 0.4-0.7 0.7-1 0.7-0.5 1.1-0.6c0.4-0.2 0.9-0.2 1.4-0.2 0.7 0 1.3 0.1 1.9 0.4s1.1 0.6 1.5 1l-0.8 0.9c-0.3-0.3-0.7-0.6-1.2-0.8-0.4-0.2-0.9-0.3-1.4-0.3-0.6 0-1.2 0.1-1.5 0.4-0.4 0.3-0.6 0.7-0.6 1.2 0 0.3 0.1 0.5 0.2 0.7s0.3 0.4 0.4 0.5c0.2 0.1 0.4 0.3 0.6 0.4s0.4 0.2 0.7 0.3l1.6 0.7c0.3 0.1 0.6 0.3 0.9 0.5s0.5 0.4 0.8 0.6c0.2 0.2 0.4 0.5 0.5 0.8s0.2 0.7 0.2 1.1c0 0.5-0.1 0.9-0.3 1.3s-0.4 0.7-0.8 1c-0.3 0.3-0.7 0.5-1.2 0.7s-1 0.3-1.6 0.3c-0.8 0-1.5-0.2-2.2-0.5s-1.3-0.7-1.8-1.2l0.9-1z"/>
<path class="st1" d="m114 72.2c0-0.7 0.1-1.3 0.3-1.9s0.5-1 0.9-1.4 0.8-0.7 1.2-0.9c0.5-0.2 1-0.3 1.5-0.3s1 0.1 1.5 0.3 0.9 0.5 1.2 0.9c0.4 0.4 0.6 0.9 0.9 1.4 0.2 0.6 0.3 1.2 0.3 1.9s-0.1 1.3-0.3 1.9-0.5 1-0.9 1.4-0.8 0.7-1.2 0.9c-0.5 0.2-1 0.3-1.5 0.3s-1-0.1-1.5-0.3-0.9-0.5-1.2-0.9c-0.4-0.4-0.6-0.8-0.9-1.4-0.2-0.6-0.3-1.2-0.3-1.9m1.5 0c0 0.5 0.1 0.9 0.2 1.3s0.3 0.7 0.5 1 0.5 0.5 0.8 0.7 0.6 0.2 1 0.2 0.7-0.1 1-0.2c0.3-0.2 0.6-0.4 0.8-0.7s0.4-0.6 0.5-1 0.2-0.8 0.2-1.3-0.1-0.9-0.2-1.3-0.3-0.7-0.5-1-0.5-0.5-0.8-0.7-0.6-0.2-1-0.2-0.7 0.1-1 0.2c-0.3 0.2-0.6 0.4-0.8 0.7s-0.4 0.6-0.5 1c-0.2 0.4-0.2 0.8-0.2 1.3"/>
<path class="st1" d="m124.1 64h1.4v10.8c0 0.2 0 0.4 0.1 0.5s0.2 0.1 0.3 0.1h0.1 0.2l0.2 1.1c-0.1 0-0.2 0.1-0.3 0.1h-0.5c-0.5 0-0.9-0.2-1.2-0.5-0.2-0.3-0.3-0.8-0.3-1.4v-10.7z"/>
<path class="st1" d="m127.3 68h1.5l1.6 4.8c0.1 0.4 0.3 0.8 0.4 1.3 0.1 0.4 0.3 0.8 0.4 1.2h0.1c0.1-0.4 0.3-0.8 0.4-1.2s0.3-0.8 0.4-1.3l1.6-4.8h1.4l-3 8.5h-1.7l-3.1-8.5z"/>
<path class="st1" d="m137.4 66.2c-0.3 0-0.5-0.1-0.7-0.3s-0.3-0.4-0.3-0.7 0.1-0.5 0.3-0.7 0.4-0.3 0.7-0.3 0.5 0.1 0.7 0.3 0.3 0.4 0.3 0.7-0.1 0.5-0.3 0.7-0.4 0.3-0.7 0.3m-0.8 1.8h1.4v8.5h-1.4v-8.5z"/>
<path class="st1" d="m140.9 68h1.2l0.1 1.2h0.1c0.4-0.4 0.8-0.7 1.3-1 0.4-0.3 1-0.4 1.6-0.4 0.9 0 1.5 0.3 2 0.8 0.4 0.6 0.6 1.4 0.6 2.5v5.4h-1.4v-5.2c0-0.8-0.1-1.4-0.4-1.7-0.3-0.4-0.7-0.5-1.2-0.5-0.4 0-0.8 0.1-1.2 0.3-0.3 0.2-0.7 0.5-1.2 1v6.1h-1.4v-8.5z"/>
<path class="st1" d="m149.8 78.1c0-0.4 0.1-0.7 0.3-1s0.5-0.6 0.9-0.9v-0.1c-0.2-0.1-0.4-0.3-0.5-0.5s-0.2-0.5-0.2-0.8c0-0.4 0.1-0.7 0.3-0.9 0.2-0.3 0.4-0.5 0.6-0.6v-0.1c-0.3-0.2-0.5-0.5-0.8-0.9-0.2-0.4-0.3-0.8-0.3-1.3s0.1-0.9 0.3-1.3 0.4-0.7 0.7-1 0.6-0.5 1-0.6 0.8-0.2 1.2-0.2c0.2 0 0.4 0 0.7 0.1 0.2 0 0.4 0.1 0.5 0.1h2.9v1.1h-1.7c0.2 0.2 0.4 0.4 0.5 0.8 0.1 0.3 0.2 0.6 0.2 1 0 0.5-0.1 0.9-0.2 1.2-0.2 0.4-0.4 0.7-0.7 0.9-0.3 0.3-0.6 0.4-1 0.6-0.4 0.1-0.8 0.2-1.2 0.2-0.2 0-0.4 0-0.6-0.1s-0.4-0.1-0.6-0.2c-0.2 0.1-0.3 0.3-0.4 0.4-0.1 0.2-0.2 0.4-0.2 0.6 0 0.3 0.1 0.5 0.3 0.7s0.6 0.3 1.2 0.3h1.6c1 0 1.7 0.2 2.2 0.5s0.7 0.8 0.7 1.5c0 0.4-0.1 0.8-0.3 1.1-0.2 0.4-0.5 0.7-0.9 0.9-0.4 0.3-0.8 0.5-1.4 0.6-0.5 0.2-1.1 0.2-1.8 0.2-0.5 0-1 0-1.4-0.1s-0.8-0.2-1.1-0.4-0.5-0.4-0.7-0.7c0-0.4-0.1-0.8-0.1-1.1m1.3-0.2c0 0.5 0.2 0.8 0.7 1.1 0.4 0.3 1 0.4 1.8 0.4 0.4 0 0.8 0 1.1-0.1s0.6-0.2 0.8-0.4 0.4-0.3 0.5-0.5 0.2-0.4 0.2-0.6c0-0.4-0.1-0.7-0.4-0.8-0.3-0.2-0.7-0.2-1.3-0.2h-1.5-0.5c-0.2 0-0.4-0.1-0.6-0.1-0.3 0.2-0.5 0.5-0.7 0.7-0.1 0-0.1 0.2-0.1 0.5m2.2-5.1c0.2 0 0.5 0 0.7-0.1s0.4-0.2 0.6-0.4 0.3-0.4 0.4-0.6c0.1-0.3 0.1-0.5 0.1-0.8 0-0.6-0.2-1.1-0.5-1.5s-0.8-0.5-1.3-0.5-0.9 0.2-1.3 0.5c-0.3 0.3-0.5 0.8-0.5 1.5 0 0.3 0 0.6 0.1 0.8 0.1 0.3 0.2 0.5 0.4 0.6 0.2 0.2 0.4 0.3 0.6 0.4 0.3 0.1 0.5 0.1 0.7 0.1"/>
<polygon class="st1" points="165.3 66.2 161.8 66.2 161.8 65 170.2 65 170.2 66.2 166.7 66.2 166.7 76.4 165.3 76.4"/>
<path class="st1" d="m172.1 64h1.4v3.4l-0.1 1.7c0.4-0.4 0.8-0.7 1.3-1 0.4-0.3 1-0.4 1.6-0.4 0.9 0 1.5 0.3 2 0.8 0.4 0.6 0.6 1.4 0.6 2.5v5.4h-1.4v-5.2c0-0.8-0.1-1.4-0.4-1.7-0.3-0.4-0.7-0.5-1.2-0.5-0.4 0-0.8 0.1-1.2 0.3-0.3 0.2-0.7 0.5-1.2 1v6.1h-1.4v-12.4z"/>
<path class="st1" d="m181 72.2c0-0.7 0.1-1.3 0.3-1.9s0.5-1 0.9-1.4 0.8-0.7 1.2-0.9c0.5-0.2 0.9-0.3 1.4-0.3s1 0.1 1.4 0.3 0.8 0.5 1.1 0.8 0.5 0.8 0.7 1.3 0.2 1 0.2 1.6c0 0.3 0 0.6-0.1 0.8h-5.7c0.1 0.9 0.3 1.6 0.8 2.2 0.5 0.5 1.2 0.8 2 0.8 0.4 0 0.8-0.1 1.1-0.2s0.7-0.3 1-0.5l0.5 0.9-1.2 0.6c-0.5 0.2-1 0.3-1.6 0.3s-1.1-0.1-1.6-0.3-0.9-0.5-1.3-0.9-0.7-0.8-0.9-1.4c-0.1-0.5-0.2-1.1-0.2-1.8m5.9-0.6c0-0.9-0.2-1.5-0.5-2-0.4-0.5-0.9-0.7-1.5-0.7-0.3 0-0.6 0.1-0.9 0.2s-0.5 0.3-0.7 0.5-0.4 0.5-0.5 0.8-0.2 0.7-0.3 1.1h4.4z"/>
<path class="st1" d="m193.9 65h3.5c0.6 0 1.2 0.1 1.7 0.2s1 0.3 1.3 0.6c0.4 0.3 0.7 0.6 0.9 1s0.3 1 0.3 1.6-0.1 1.1-0.3 1.6c-0.2 0.4-0.5 0.8-0.9 1.1s-0.8 0.5-1.3 0.7c-0.5 0.1-1.1 0.2-1.7 0.2h-2.1v4.5h-1.4v-11.5zm3.3 5.7c1 0 1.7-0.2 2.2-0.6s0.7-1 0.7-1.8-0.2-1.4-0.7-1.7-1.2-0.5-2.2-0.5h-1.9v4.5h1.9z"/>
<path class="st1" d="m203.8 68h1.2l0.1 1.5h0.1c0.3-0.5 0.6-1 1.1-1.3 0.4-0.3 0.9-0.5 1.4-0.5 0.3 0 0.6 0.1 0.9 0.2l-0.3 1.3c-0.1 0-0.3-0.1-0.4-0.1h-0.4c-0.4 0-0.7 0.1-1.1 0.4s-0.7 0.8-1 1.5v5.4h-1.4v-8.4z"/>
<path class="st1" d="m209.1 72.2c0-0.7 0.1-1.3 0.3-1.9s0.5-1 0.9-1.4 0.8-0.7 1.2-0.9c0.5-0.2 1-0.3 1.5-0.3s1 0.1 1.5 0.3 0.9 0.5 1.2 0.9c0.4 0.4 0.6 0.9 0.9 1.4 0.2 0.6 0.3 1.2 0.3 1.9s-0.1 1.3-0.3 1.9-0.5 1-0.9 1.4-0.8 0.7-1.2 0.9c-0.5 0.2-1 0.3-1.5 0.3s-1-0.1-1.5-0.3-0.9-0.5-1.2-0.9c-0.4-0.4-0.6-0.8-0.9-1.4-0.2-0.6-0.3-1.2-0.3-1.9m1.4 0c0 0.5 0.1 0.9 0.2 1.3s0.3 0.7 0.5 1 0.5 0.5 0.8 0.7 0.6 0.2 1 0.2 0.7-0.1 1-0.2c0.3-0.2 0.6-0.4 0.8-0.7s0.4-0.6 0.5-1 0.2-0.8 0.2-1.3-0.1-0.9-0.2-1.3-0.3-0.7-0.5-1-0.5-0.5-0.8-0.7-0.6-0.2-1-0.2-0.7 0.1-1 0.2c-0.3 0.2-0.6 0.4-0.8 0.7s-0.4 0.6-0.5 1-0.2 0.8-0.2 1.3"/>
<path class="st1" d="m219.1 64h1.4v3.4 1.5c0.4-0.3 0.8-0.6 1.3-0.8s0.9-0.3 1.4-0.3 1 0.1 1.4 0.3 0.8 0.5 1.1 0.9 0.5 0.8 0.6 1.4c0.1 0.5 0.2 1.1 0.2 1.8s-0.1 1.4-0.3 1.9c-0.2 0.6-0.5 1.1-0.8 1.4-0.3 0.4-0.7 0.7-1.2 0.9-0.4 0.2-0.9 0.3-1.4 0.3-0.4 0-0.8-0.1-1.2-0.3s-0.8-0.4-1.2-0.8h-0.1l-0.1 0.8h-1.2v-12.4zm1.5 10.6c0.4 0.3 0.7 0.6 1.1 0.7s0.7 0.2 1 0.2 0.7-0.1 1-0.2c0.3-0.2 0.6-0.4 0.8-0.7s0.4-0.6 0.5-1.1c0.1-0.4 0.2-0.9 0.2-1.4s0-0.9-0.1-1.3-0.2-0.7-0.4-1-0.4-0.5-0.7-0.6c-0.3-0.2-0.6-0.2-1-0.2-0.7 0-1.4 0.4-2.3 1.2v4.4z"/>
<path class="st1" d="m228.8 64h1.4v10.8c0 0.2 0 0.4 0.1 0.5s0.2 0.1 0.3 0.1h0.1 0.2l0.2 1.1c-0.1 0-0.2 0.1-0.3 0.1h-0.5c-0.5 0-0.9-0.2-1.2-0.5-0.2-0.3-0.3-0.8-0.3-1.4v-10.7z"/>
<path class="st1" d="m232.6 72.2c0-0.7 0.1-1.3 0.3-1.9s0.5-1 0.9-1.4 0.8-0.7 1.2-0.9c0.5-0.2 0.9-0.3 1.4-0.3s1 0.1 1.4 0.3 0.8 0.5 1.1 0.8 0.5 0.8 0.7 1.3 0.2 1 0.2 1.6c0 0.3 0 0.6-0.1 0.8h-5.7c0.1 0.9 0.3 1.6 0.8 2.2 0.5 0.5 1.2 0.8 2 0.8 0.4 0 0.8-0.1 1.1-0.2s0.7-0.3 1-0.5l0.5 0.9-1.2 0.6c-0.5 0.2-1 0.3-1.6 0.3s-1.1-0.1-1.6-0.3-0.9-0.5-1.3-0.9-0.7-0.8-0.9-1.4c-0.1-0.5-0.2-1.1-0.2-1.8m5.9-0.6c0-0.9-0.2-1.5-0.5-2-0.4-0.5-0.9-0.7-1.5-0.7-0.3 0-0.6 0.1-0.9 0.2s-0.5 0.3-0.7 0.5-0.4 0.5-0.5 0.8-0.2 0.7-0.3 1.1h4.4z"/>
<path class="st1" d="m241.9 68h1.2l0.1 1.2h0.1c0.4-0.4 0.8-0.7 1.2-1s0.9-0.4 1.4-0.4c0.7 0 1.2 0.1 1.5 0.4 0.4 0.3 0.6 0.7 0.8 1.2 0.4-0.5 0.9-0.9 1.3-1.2s0.9-0.4 1.5-0.4c0.9 0 1.5 0.3 1.9 0.8 0.4 0.6 0.6 1.4 0.6 2.5v5.4h-1.4v-5.2c0-0.8-0.1-1.4-0.4-1.7-0.3-0.4-0.7-0.5-1.2-0.5-0.6 0-1.3 0.4-2.1 1.3v6.1h-1.4v-5.2c0-0.8-0.1-1.4-0.4-1.7-0.3-0.4-0.7-0.5-1.2-0.5-0.6 0-1.3 0.4-2.1 1.3v6.1h-1.4v-8.5z"/>
<path class="st1" d="m264.2 76.7c-0.7 0-1.4-0.1-2-0.4s-1.1-0.7-1.5-1.2-0.8-1.1-1-1.9c-0.2-0.7-0.4-1.6-0.4-2.5s0.1-1.7 0.4-2.5c0.2-0.7 0.6-1.3 1-1.8s0.9-0.9 1.5-1.2 1.3-0.4 2-0.4 1.4 0.1 2 0.4 1.1 0.7 1.6 1.2c0.4 0.5 0.8 1.1 1 1.8s0.4 1.5 0.4 2.4-0.1 1.7-0.4 2.5c-0.2 0.7-0.6 1.4-1 1.9s-1 0.9-1.6 1.2-1.3 0.5-2 0.5m0-1.3c0.5 0 1-0.1 1.4-0.3s0.8-0.5 1.1-0.9 0.5-0.9 0.7-1.5 0.2-1.2 0.2-1.9-0.1-1.3-0.2-1.9c-0.2-0.6-0.4-1.1-0.7-1.4-0.3-0.4-0.7-0.7-1.1-0.9s-0.9-0.3-1.4-0.3-1 0.1-1.4 0.3-0.8 0.5-1.1 0.9-0.5 0.9-0.7 1.4c-0.2 0.6-0.2 1.2-0.2 1.9s0.1 1.4 0.2 1.9c0.2 0.6 0.4 1.1 0.7 1.5s0.7 0.7 1.1 0.9 0.9 0.3 1.4 0.3"/>
<path class="st1" d="m275.3 65.2c-0.3-0.1-0.6-0.2-1-0.2-0.8 0-1.2 0.5-1.2 1.6v1.4h1.8v1.2h-1.8v7.3h-1.4v-7.3h-1.2v-1.1l1.2-0.1v-1.3c0-0.9 0.2-1.6 0.6-2.1s1-0.7 1.9-0.7c0.3 0 0.5 0 0.8 0.1 0.2 0.1 0.5 0.1 0.7 0.2l-0.4 1z"/>
<path class="st1" d="m280.2 65h3.5c0.6 0 1.2 0.1 1.7 0.2s1 0.3 1.3 0.6c0.4 0.3 0.7 0.6 0.9 1s0.3 1 0.3 1.6-0.1 1.1-0.3 1.6c-0.2 0.4-0.5 0.8-0.9 1.1s-0.8 0.5-1.3 0.7c-0.5 0.1-1.1 0.2-1.7 0.2h-2.1v4.5h-1.4v-11.5zm3.3 5.7c1 0 1.7-0.2 2.2-0.6s0.7-1 0.7-1.8-0.2-1.4-0.7-1.7-1.2-0.5-2.2-0.5h-1.9v4.5h1.9z"/>
<path class="st1" d="m290.1 68h1.2l0.1 1.5h0.1c0.3-0.5 0.6-1 1.1-1.3 0.4-0.3 0.9-0.5 1.4-0.5 0.3 0 0.6 0.1 0.9 0.2l-0.3 1.3c-0.1 0-0.3-0.1-0.4-0.1h-0.4c-0.4 0-0.7 0.1-1.1 0.4s-0.7 0.8-1 1.5v5.4h-1.4v-8.4z"/>
<path class="st1" d="m295.3 72.2c0-0.7 0.1-1.3 0.3-1.9s0.5-1 0.9-1.4 0.8-0.7 1.2-0.9c0.5-0.2 1-0.3 1.5-0.3s1 0.1 1.5 0.3 0.9 0.5 1.2 0.9c0.4 0.4 0.6 0.9 0.9 1.4 0.2 0.6 0.3 1.2 0.3 1.9s-0.1 1.3-0.3 1.9-0.5 1-0.9 1.4-0.8 0.7-1.2 0.9c-0.5 0.2-1 0.3-1.5 0.3s-1-0.1-1.5-0.3-0.9-0.5-1.2-0.9c-0.4-0.4-0.6-0.8-0.9-1.4-0.2-0.6-0.3-1.2-0.3-1.9m1.5 0c0 0.5 0.1 0.9 0.2 1.3s0.3 0.7 0.5 1 0.5 0.5 0.8 0.7 0.6 0.2 1 0.2 0.7-0.1 1-0.2c0.3-0.2 0.6-0.4 0.8-0.7s0.4-0.6 0.5-1 0.2-0.8 0.2-1.3-0.1-0.9-0.2-1.3-0.3-0.7-0.5-1-0.5-0.5-0.8-0.7-0.6-0.2-1-0.2-0.7 0.1-1 0.2c-0.3 0.2-0.6 0.4-0.8 0.7s-0.4 0.6-0.5 1-0.2 0.8-0.2 1.3"/>
<path class="st1" d="m305.4 64h1.4v3.4 1.5c0.4-0.3 0.8-0.6 1.3-0.8s0.9-0.3 1.4-0.3 1 0.1 1.4 0.3 0.8 0.5 1.1 0.9 0.5 0.8 0.6 1.4c0.1 0.5 0.2 1.1 0.2 1.8s-0.1 1.4-0.3 1.9c-0.2 0.6-0.5 1.1-0.8 1.4-0.3 0.4-0.7 0.7-1.2 0.9-0.4 0.2-0.9 0.3-1.4 0.3-0.4 0-0.8-0.1-1.2-0.3s-0.8-0.4-1.2-0.8h-0.1l-0.1 0.8h-1.2v-12.4zm1.4 10.6c0.4 0.3 0.7 0.6 1.1 0.7s0.7 0.2 1 0.2 0.7-0.1 1-0.2c0.3-0.2 0.6-0.4 0.8-0.7s0.4-0.6 0.5-1.1c0.1-0.4 0.2-0.9 0.2-1.4s0-0.9-0.1-1.3-0.2-0.7-0.4-1-0.4-0.5-0.7-0.6c-0.3-0.2-0.6-0.2-1-0.2-0.7 0-1.4 0.4-2.3 1.2v4.4z"/>
<path class="st1" d="m315.1 64h1.4v10.8c0 0.2 0 0.4 0.1 0.5s0.2 0.1 0.3 0.1h0.1 0.2l0.2 1.1c-0.1 0-0.2 0.1-0.3 0.1h-0.5c-0.5 0-0.9-0.2-1.2-0.5-0.2-0.3-0.3-0.8-0.3-1.4v-10.7z"/>
<path class="st1" d="m318.9 72.2c0-0.7 0.1-1.3 0.3-1.9s0.5-1 0.9-1.4 0.8-0.7 1.2-0.9c0.5-0.2 0.9-0.3 1.4-0.3s1 0.1 1.4 0.3 0.8 0.5 1.1 0.8 0.5 0.8 0.7 1.3 0.2 1 0.2 1.6c0 0.3 0 0.6-0.1 0.8h-5.7c0.1 0.9 0.3 1.6 0.8 2.2 0.5 0.5 1.2 0.8 2 0.8 0.4 0 0.8-0.1 1.1-0.2s0.7-0.3 1-0.5l0.5 0.9-1.2 0.6c-0.5 0.2-1 0.3-1.6 0.3s-1.1-0.1-1.6-0.3-0.9-0.5-1.3-0.9-0.7-0.8-0.9-1.4c-0.1-0.5-0.2-1.1-0.2-1.8m5.9-0.6c0-0.9-0.2-1.5-0.5-2-0.4-0.5-0.9-0.7-1.5-0.7-0.3 0-0.6 0.1-0.9 0.2s-0.5 0.3-0.7 0.5-0.4 0.5-0.5 0.8-0.2 0.7-0.3 1.1h4.4z"/>
<path class="st1" d="m328.2 68h1.2l0.1 1.2h0.1c0.4-0.4 0.8-0.7 1.2-1s0.9-0.4 1.4-0.4c0.7 0 1.2 0.1 1.5 0.4 0.4 0.3 0.6 0.7 0.8 1.2 0.4-0.5 0.9-0.9 1.3-1.2s0.9-0.4 1.5-0.4c0.9 0 1.5 0.3 1.9 0.8 0.4 0.6 0.6 1.4 0.6 2.5v5.4h-1.4v-5.2c0-0.8-0.1-1.4-0.4-1.7-0.3-0.4-0.7-0.5-1.2-0.5-0.6 0-1.3 0.4-2.1 1.3v6.1h-1.4v-5.2c0-0.8-0.1-1.4-0.4-1.7-0.3-0.4-0.7-0.5-1.2-0.5-0.6 0-1.3 0.4-2.1 1.3v6.1h-1.4v-8.5z"/>
<path class="st1" d="m346.3 74c0.4 0.4 0.9 0.8 1.4 1 0.6 0.3 1.1 0.4 1.7 0.4 0.8 0 1.3-0.2 1.8-0.5 0.4-0.3 0.6-0.8 0.6-1.3 0-0.3 0-0.5-0.1-0.7s-0.2-0.4-0.4-0.5-0.4-0.3-0.6-0.4-0.5-0.2-0.8-0.4l-1.6-0.7c-0.3-0.1-0.5-0.3-0.8-0.4-0.3-0.2-0.5-0.4-0.8-0.6-0.2-0.2-0.4-0.5-0.5-0.8s-0.2-0.7-0.2-1.1 0.1-0.8 0.3-1.2 0.4-0.7 0.7-1 0.7-0.5 1.1-0.6c0.4-0.2 0.9-0.2 1.4-0.2 0.7 0 1.3 0.1 1.9 0.4s1.1 0.6 1.5 1l-0.8 0.9c-0.3-0.3-0.7-0.6-1.2-0.8-0.4-0.2-0.9-0.3-1.4-0.3-0.6 0-1.2 0.1-1.5 0.4-0.4 0.3-0.6 0.7-0.6 1.2 0 0.3 0.1 0.5 0.2 0.7s0.3 0.4 0.4 0.5c0.2 0.1 0.4 0.3 0.6 0.4s0.4 0.2 0.7 0.3l1.6 0.7c0.3 0.1 0.6 0.3 0.9 0.5s0.5 0.4 0.8 0.6c0.2 0.2 0.4 0.5 0.5 0.8s0.2 0.7 0.2 1.1c0 0.5-0.1 0.9-0.3 1.3s-0.4 0.7-0.8 1c-0.3 0.3-0.7 0.5-1.2 0.7s-1 0.3-1.6 0.3c-0.8 0-1.5-0.2-2.2-0.5s-1.3-0.7-1.8-1.2l0.9-1z"/>
<path class="st1" d="m354.8 72.2c0-0.7 0.1-1.3 0.3-1.9s0.5-1 0.9-1.4 0.8-0.7 1.2-0.9c0.5-0.2 1-0.3 1.5-0.3s1 0.1 1.5 0.3 0.9 0.5 1.2 0.9c0.4 0.4 0.6 0.9 0.9 1.4 0.2 0.6 0.3 1.2 0.3 1.9s-0.1 1.3-0.3 1.9-0.5 1-0.9 1.4-0.8 0.7-1.2 0.9c-0.5 0.2-1 0.3-1.5 0.3s-1-0.1-1.5-0.3-0.9-0.5-1.2-0.9c-0.4-0.4-0.6-0.8-0.9-1.4-0.2-0.6-0.3-1.2-0.3-1.9m1.5 0c0 0.5 0.1 0.9 0.2 1.3s0.3 0.7 0.5 1 0.5 0.5 0.8 0.7 0.6 0.2 1 0.2 0.7-0.1 1-0.2c0.3-0.2 0.6-0.4 0.8-0.7s0.4-0.6 0.5-1 0.2-0.8 0.2-1.3-0.1-0.9-0.2-1.3-0.3-0.7-0.5-1-0.5-0.5-0.8-0.7-0.6-0.2-1-0.2-0.7 0.1-1 0.2c-0.3 0.2-0.6 0.4-0.8 0.7s-0.4 0.6-0.5 1-0.2 0.8-0.2 1.3"/>
<path class="st1" d="m364.9 64h1.4v10.8c0 0.2 0 0.4 0.1 0.5s0.2 0.1 0.3 0.1h0.1 0.2l0.2 1.1c-0.1 0-0.2 0.1-0.3 0.1h-0.5c-0.5 0-0.9-0.2-1.2-0.5-0.2-0.3-0.3-0.8-0.3-1.4v-10.7z"/>
<path class="st1" d="m368.1 68h1.5l1.6 4.8c0.1 0.4 0.3 0.8 0.4 1.3 0.1 0.4 0.3 0.8 0.4 1.2h0.1c0.1-0.4 0.3-0.8 0.4-1.2s0.3-0.8 0.4-1.3l1.6-4.8h1.4l-3 8.5h-1.7l-3.1-8.5z"/>
<path class="st1" d="m378.2 66.2c-0.3 0-0.5-0.1-0.7-0.3s-0.3-0.4-0.3-0.7 0.1-0.5 0.3-0.7 0.4-0.3 0.7-0.3 0.5 0.1 0.7 0.3 0.3 0.4 0.3 0.7-0.1 0.5-0.3 0.7-0.4 0.3-0.7 0.3m-0.7 1.8h1.4v8.5h-1.4v-8.5z"/>
<path class="st1" d="m381.8 68h1.2l0.1 1.2h0.1c0.4-0.4 0.8-0.7 1.3-1 0.4-0.3 1-0.4 1.6-0.4 0.9 0 1.5 0.3 2 0.8 0.4 0.6 0.6 1.4 0.6 2.5v5.4h-1.4v-5.2c0-0.8-0.1-1.4-0.4-1.7-0.3-0.4-0.7-0.5-1.2-0.5-0.4 0-0.8 0.1-1.2 0.3-0.3 0.2-0.7 0.5-1.2 1v6.1h-1.4v-8.5z"/>
<path class="st1" d="m390.7 78.1c0-0.4 0.1-0.7 0.3-1s0.5-0.6 0.9-0.9v-0.1c-0.2-0.1-0.4-0.3-0.5-0.5s-0.2-0.5-0.2-0.8c0-0.4 0.1-0.7 0.3-0.9 0.2-0.3 0.4-0.5 0.6-0.6v-0.1c-0.3-0.2-0.5-0.5-0.8-0.9-0.2-0.4-0.3-0.8-0.3-1.3s0.1-0.9 0.3-1.3 0.4-0.7 0.7-1 0.6-0.5 1-0.6 0.8-0.2 1.2-0.2c0.2 0 0.4 0 0.7 0.1 0.2 0 0.4 0.1 0.5 0.1h2.9v1.1h-1.7c0.2 0.2 0.4 0.4 0.5 0.8 0.1 0.3 0.2 0.6 0.2 1 0 0.5-0.1 0.9-0.2 1.2-0.2 0.4-0.4 0.7-0.7 0.9-0.3 0.3-0.6 0.4-1 0.6-0.4 0.1-0.8 0.2-1.2 0.2-0.2 0-0.4 0-0.6-0.1s-0.4-0.1-0.6-0.2c-0.2 0.1-0.3 0.3-0.4 0.4-0.1 0.2-0.2 0.4-0.2 0.6 0 0.3 0.1 0.5 0.3 0.7s0.6 0.3 1.2 0.3h1.6c1 0 1.7 0.2 2.2 0.5s0.7 0.8 0.7 1.5c0 0.4-0.1 0.8-0.3 1.1-0.2 0.4-0.5 0.7-0.9 0.9-0.4 0.3-0.8 0.5-1.4 0.6-0.5 0.2-1.1 0.2-1.8 0.2-0.5 0-1 0-1.4-0.1s-0.8-0.2-1.1-0.4-0.5-0.4-0.7-0.7c-0.1-0.4-0.1-0.8-0.1-1.1m1.2-0.2c0 0.5 0.2 0.8 0.7 1.1 0.4 0.3 1 0.4 1.8 0.4 0.4 0 0.8 0 1.1-0.1s0.6-0.2 0.8-0.4 0.4-0.3 0.5-0.5 0.2-0.4 0.2-0.6c0-0.4-0.1-0.7-0.4-0.8-0.3-0.2-0.7-0.2-1.3-0.2h-1.5-0.5c-0.2 0-0.4-0.1-0.6-0.1-0.3 0.2-0.5 0.5-0.7 0.7 0 0-0.1 0.2-0.1 0.5m2.3-5.1c0.2 0 0.5 0 0.7-0.1s0.4-0.2 0.6-0.4 0.3-0.4 0.4-0.6c0.1-0.3 0.1-0.5 0.1-0.8 0-0.6-0.2-1.1-0.5-1.5s-0.8-0.5-1.3-0.5-0.9 0.2-1.3 0.5-0.5 0.8-0.5 1.5c0 0.3 0 0.6 0.1 0.8 0.1 0.3 0.2 0.5 0.4 0.6 0.2 0.2 0.4 0.3 0.6 0.4s0.4 0.1 0.7 0.1"/>
<polygon class="st1" points="404 64.8 402.4 64.8 402.4 64.2 406.3 64.2 406.3 64.8 404.7 64.8 404.7 69.6 404 69.6"/>
<path class="st1" d="m407.3 64.2h0.8l1 2.9 0.4 1.1 0.4-1.1 1-2.9h0.8v5.3h-0.6v-2.9-0.8c0-0.3 0-0.5 0.1-0.8l-0.4 1.2-1 2.8h-0.4l-1-2.8-0.4-1.2c0 0.2 0 0.5 0.1 0.8s0 0.5 0 0.8v2.9h-0.6v-5.3z"/>
<polygon class="st2" points="105.3 49.2 105.3 13.6 111.6 13.6 111.6 43.7 127.2 43.7 127.2 49.2"/>
<path class="st2" d="M127.4,49.3h-22.2V13.5h6.5v30.1h15.7V49.3z M105.5,49h21.6v-5.2h-15.7V13.7h-6V49z"/>
<polygon class="st2" points="139.3 49.2 139.3 13.6 163.7 13.6 163.7 19.1 145.5 19.1 145.5 28.3 163.3 28.3 163.3 33.8 145.5 33.8 145.5 43.7 163.7 43.7 163.7 49.2"/>
<path class="st2" d="M163.8,49.3h-24.6V13.5h24.6v5.8h-18.1v8.9h17.8V34h-17.8v9.6h18.1V49.3z M139.4,49h24.1v-5.2h-18.1V33.7h17.8  v-5.2h-17.8V19h18.1v-5.2h-24.1V49z"/>
<polygon class="st2" points="201.3 49.2 182.7 23.8 182.7 49.2 176.5 49.2 176.5 13.6 182.9 13.6 201 38.3 201 13.6 207.3 13.6 207.3 49.2"/>
<path class="st2" d="M207.4,49.3h-6.2l0-0.1l-18.3-25v25.1h-6.5V13.5h6.6l18,24.4V13.5h6.5V49.3z M201.3,49h5.8V13.7h-6v25l-18.4-25  h-6.2V49h6V23.4L201.3,49z"/>
<path class="st2" d="m219 44.2l3.5-4.8c2.5 2.6 6.3 4.9 11.3 4.9 5.1 0 7.1-2.5 7.1-4.9 0-7.5-20.7-2.8-20.7-15.9 0-5.9 5.2-10.4 13-10.4 5.5 0 10 1.8 13.3 5l-3.6 4.6c-2.8-2.8-6.6-4.1-10.3-4.1s-6 1.8-6 4.4c0 6.6 20.7 2.5 20.7 15.8 0 5.9-4.2 11-13.8 11-6.7 0-11.4-2.3-14.5-5.6"/>
<path class="st2" d="m233.4 50c-6 0-11.1-2-14.6-5.7l-0.1-0.1 3.6-5 0.1 0.1c1.7 1.8 5.4 4.9 11.2 4.9 5.2 0 7-2.5 7-4.7 0-3.1-3.8-4.1-8.1-5.2-5.9-1.5-12.6-3.2-12.6-10.8 0-6.1 5.5-10.5 13.1-10.5 5.5 0 10 1.7 13.4 5l0.1 0.1-3.7 4.9-0.1-0.1c-2.6-2.6-6.2-4-10.2-4-3.6 0-5.9 1.7-5.9 4.3s3.5 3.5 7.6 4.6c5.8 1.5 13.1 3.3 13.1 11.2 0 3.2-1.2 5.9-3.3 7.8-2.5 2-6 3.2-10.6 3.2m-14.3-5.8c3.4 3.6 8.4 5.5 14.3 5.5 4.4 0 8-1.1 10.4-3.2 2.1-1.9 3.2-4.5 3.2-7.6 0-7.7-7.1-9.5-12.9-11-4.2-1.1-7.8-2-7.8-4.8s2.4-4.6 6.2-4.6c4 0 7.6 1.4 10.3 4l3.4-4.4c-3.4-3.2-7.8-4.8-13.1-4.8-7.4 0-12.8 4.3-12.8 10.3 0 7.4 6.6 9 12.4 10.5 4.5 1.1 8.3 2.1 8.3 5.4 0 2.3-1.9 5-7.3 5-5.7 0-9.5-3-11.2-4.8l-3.4 4.5z"/>
<path class="st2" d="m258.3 46c0-2 1.7-3.7 3.7-3.7s3.7 1.7 3.7 3.7-1.7 3.7-3.7 3.7c-2 0.1-3.7-1.6-3.7-3.7"/>
<path class="st2" d="m262 49.9c-2.1 0-3.9-1.8-3.9-3.9s1.8-3.9 3.9-3.9 3.9 1.8 3.9 3.9-1.8 3.9-3.9 3.9m0-7.5c-1.9 0-3.6 1.6-3.6 3.6s1.6 3.6 3.6 3.6c1.9 0 3.6-1.6 3.6-3.6s-1.6-3.6-3.6-3.6"/>
<path class="st2" d="m277.2 31.4c0-10.6 7.5-18.4 18.2-18.4s18.2 7.8 18.2 18.4-7.5 18.4-18.2 18.4-18.2-7.8-18.2-18.4m30 0c0-7.4-4.6-12.8-11.8-12.8s-11.8 5.5-11.8 12.8 4.6 12.9 11.8 12.9c7.1 0 11.8-5.6 11.8-12.9"/>
<path class="st2" d="m295.4 50c-10.6 0-18.3-7.8-18.3-18.5s7.7-18.5 18.3-18.5 18.3 7.8 18.3 18.5-7.7 18.5-18.3 18.5m0-36.8c-10.5 0-18 7.7-18 18.3s7.6 18.3 18 18.3 18-7.7 18-18.3c0-10.7-7.6-18.3-18-18.3m0 31.2c-7 0-11.9-5.3-11.9-13 0-7.6 4.9-13 11.9-13s11.9 5.3 11.9 13-4.9 13-11.9 13m0-25.7c-6.9 0-11.6 5.2-11.6 12.7s4.8 12.7 11.6 12.7c6.9 0 11.6-5.2 11.6-12.7s-4.8-12.7-11.6-12.7"/>
<path class="st2" d="m346.3 49.2l-7.9-13.3h-6.2v13.3h-6.2v-35.6h15.6c7 0 11.6 4.6 11.6 11.1 0 6.3-4.2 9.8-8.4 10.5l8.7 14h-7.2zm0.5-24.4c0-3.4-2.6-5.7-6.1-5.7h-8.5v11.3h8.5c3.6 0 6.1-2.2 6.1-5.6"/>
<path class="st2" d="m353.7 49.3h-7.5v-0.1l-7.9-13.2h-6v13.3h-6.5v-35.8h15.8c7 0 11.8 4.5 11.8 11.3 0 6.7-4.4 9.8-8.3 10.6l8.6 13.9zm-7.3-0.3h6.9l-8.7-13.9h0.2c3.8-0.6 8.3-3.7 8.3-10.3s-4.6-11-11.5-11h-15.5v35.2h6v-13.2h6.4l7.9 13.2zm-5.7-18.5h-8.7v-11.5h8.7c3.7 0 6.2 2.4 6.2 5.8 0.1 3.4-2.5 5.7-6.2 5.7m-8.3-0.2h8.4c3.5 0 5.9-2.3 5.9-5.5s-2.4-5.5-5.9-5.5h-8.4v11z"/>
<path class="st2" d="m364.3 31.4c0-11.1 8.4-18.4 18.7-18.4 6.9 0 11.5 3.3 14.3 7.4l-5.1 2.9c-1.9-2.7-5.2-4.7-9.2-4.7-7 0-12.3 5.4-12.3 12.8 0 7.5 5.2 12.9 12.3 12.9 3.6 0 6.8-1.7 8.4-3.2v-5.5h-10.6v-5.5h16.9v13.3c-3.5 3.9-8.5 6.5-14.7 6.5-10.4 0-18.7-7.3-18.7-18.5"/>
<path class="st2" d="m382.9 50c-10.9 0-18.8-7.8-18.8-18.6 0-10.7 7.9-18.5 18.8-18.5 6.1 0 11 2.5 14.5 7.5l0.1 0.1-5.4 3-0.1-0.1c-2-2.9-5.5-4.7-9.1-4.7-7 0-12.1 5.3-12.1 12.7s5.1 12.8 12.1 12.8c3.4 0 6.6-1.6 8.3-3.1v-5.3h-10.6v-5.8h17.1v13.5c-3.8 4.3-9 6.5-14.8 6.5m0-36.8c-10.7 0-18.5 7.7-18.5 18.3s7.8 18.3 18.5 18.3c5.7 0 10.7-2.2 14.5-6.4v-13.2h-16.6v5.2h10.6v5.7c-1.6 1.5-4.8 3.2-8.5 3.2-7.2 0-12.4-5.5-12.4-13s5.2-13 12.4-13c3.6 0 7.2 1.8 9.3 4.7l4.9-2.7c-3.4-4.7-8.2-7.1-14.2-7.1"/>
</svg>
