<?xml version="1.0" encoding="UTF-8"?>
<svg enable-background="new 0 0 411.7 77.4" version="1.1" viewBox="0 0 411.7 77.4" xml:space="preserve" xmlns="http://www.w3.org/2000/svg">
<style type="text/css">
	.st0{fill:#1D9ADA;}
</style>
	<path class="st0" d="m61.3 77.4c-13-9.6-34.5-25.9-61.3-29.5l11.4-11.2c32.9 12.7 49.9 40.7 49.9 40.7zm-59.9-18l8.9-7.1c26.1 6.4 48.2 25.1 48.2 25.1-9.3-5.3-35.7-18.2-57.1-18zm8.2-25.9l29.8-26.5 6.4 3.7-14.4 16.4c15.5 12.9 32.8 26.5 31.3 48.8-15.4-21.7-33.5-37.3-53.1-42.4zm25.5-6.9l22.9-26.6c12.2 10 19 25.5 19 33.9-1 10.7-11.5 36.6-12.4 39.5-0.7-6.5 4.6-18-29.5-46.8z"/>
		<path d="m117.4 54.3h-3v-17.2c0-1.4 0.1-3 0.3-5h-0.1c-0.3 1.2-0.5 2-0.8 2.5l-8.8 19.7h-1.5l-8.8-19.6c-0.3-0.6-0.5-1.5-0.8-2.6h-0.1c0.1 1 0.1 2.7 0.1 5v17.2h-2.9v-25.7h4l7.9 17.9c0.6 1.4 1 2.4 1.2 3.1h0.1c0.5-1.4 0.9-2.5 1.2-3.2l8.1-17.9h3.8v25.8z"/>
		<path d="m125.1 31.3c-0.5 0-1-0.2-1.3-0.5-0.4-0.4-0.6-0.8-0.6-1.4s0.2-1 0.6-1.4 0.8-0.5 1.3-0.5 1 0.2 1.4 0.5c0.4 0.4 0.6 0.8 0.6 1.4 0 0.5-0.2 1-0.6 1.3-0.4 0.4-0.8 0.6-1.4 0.6zm1.5 23h-2.9v-18.3h2.9v18.3z"/>
		<path d="m145 53.5c-1.4 0.8-3.1 1.3-5 1.3-2.6 0-4.7-0.9-6.3-2.6s-2.4-3.9-2.4-6.6c0-3 0.9-5.5 2.6-7.3s4-2.8 6.9-2.8c1.6 0 3 0.3 4.3 0.9v3c-1.4-1-2.8-1.4-4.4-1.4-1.9 0-3.4 0.7-4.6 2s-1.8 3.1-1.8 5.3 0.6 3.9 1.7 5.1 2.6 1.9 4.5 1.9c1.6 0 3.1-0.5 4.5-1.6v2.8z"/>
		<path d="m158.7 38.9c-0.5-0.4-1.3-0.6-2.2-0.6-1.3 0-2.3 0.6-3.1 1.8s-1.3 2.8-1.3 4.8v9.4h-2.9v-18.3h2.9v3.8h0.1c0.4-1.3 1.1-2.3 1.9-3 0.9-0.7 1.8-1.1 2.9-1.1 0.8 0 1.4 0.1 1.8 0.3v2.9z"/>
		<path d="m169.9 54.8c-2.7 0-4.9-0.9-6.5-2.6s-2.4-4-2.4-6.8c0-3.1 0.8-5.5 2.5-7.2s4-2.6 6.8-2.6c2.7 0 4.9 0.8 6.4 2.5s2.3 4 2.3 7c0 2.9-0.8 5.3-2.5 7-1.6 1.8-3.8 2.7-6.6 2.7zm0.2-16.8c-1.9 0-3.4 0.6-4.5 1.9s-1.6 3.1-1.6 5.3 0.6 3.9 1.7 5.1c1.1 1.3 2.6 1.9 4.5 1.9s3.4-0.6 4.4-1.8 1.5-3 1.5-5.3-0.5-4.1-1.5-5.3c-1.1-1.2-2.6-1.8-4.5-1.8z"/>
		<path d="m182.7 53.7v-3.2c1.6 1.2 3.4 1.8 5.3 1.8 2.6 0 3.9-0.9 3.9-2.6 0-0.5-0.1-0.9-0.3-1.2s-0.5-0.6-0.9-0.9-0.8-0.5-1.3-0.7-1.1-0.4-1.6-0.7c-0.8-0.3-1.5-0.6-2.1-1-0.6-0.3-1.1-0.7-1.5-1.1s-0.7-0.9-0.9-1.4-0.3-1.1-0.3-1.8c0-0.9 0.2-1.6 0.6-2.3s0.9-1.2 1.6-1.7c0.7-0.4 1.4-0.8 2.3-1 0.8-0.2 1.7-0.3 2.6-0.3 1.6 0 3 0.3 4.3 0.8v3c-1.4-0.9-2.9-1.3-4.7-1.3-0.5 0-1 0.1-1.5 0.2-0.4 0.1-0.8 0.3-1.1 0.5s-0.6 0.5-0.7 0.8c-0.2 0.3-0.3 0.7-0.3 1 0 0.5 0.1 0.9 0.3 1.2s0.4 0.6 0.8 0.9c0.3 0.3 0.7 0.5 1.2 0.7s1 0.4 1.6 0.7c0.8 0.3 1.5 0.6 2.2 1 0.6 0.3 1.2 0.7 1.6 1.1 0.5 0.4 0.8 0.9 1 1.4s0.4 1.2 0.4 1.9c0 0.9-0.2 1.7-0.6 2.4s-0.9 1.2-1.6 1.7c-0.7 0.4-1.4 0.8-2.3 1s-1.8 0.3-2.7 0.3c-2.3-0.1-3.9-0.5-5.3-1.2z"/>
		<path d="m207.3 54.8c-2.7 0-4.9-0.9-6.5-2.6s-2.4-4-2.4-6.8c0-3.1 0.8-5.5 2.5-7.2s4-2.6 6.8-2.6c2.7 0 4.9 0.8 6.4 2.5s2.3 4 2.3 7c0 2.9-0.8 5.3-2.5 7-1.6 1.8-3.8 2.7-6.6 2.7zm0.2-16.8c-1.9 0-3.4 0.6-4.5 1.9s-1.6 3.1-1.6 5.3 0.6 3.9 1.7 5.1c1.1 1.3 2.6 1.9 4.5 1.9s3.4-0.6 4.4-1.8 1.5-3 1.5-5.3-0.5-4.1-1.5-5.3c-1.2-1.2-2.6-1.8-4.5-1.8z"/>
		<path d="m230 29.7c-0.6-0.3-1.2-0.5-2-0.5-2.1 0-3.1 1.3-3.1 3.9v2.9h4.3v2.5h-4.2v15.9h-3v-15.9h-3.1v-2.5h3.1v-3c0-1.9 0.6-3.4 1.7-4.6 1.1-1.1 2.5-1.7 4.2-1.7 0.9 0 1.6 0.1 2.1 0.3v2.7z"/>
		<path d="m242.5 54.1c-0.7 0.4-1.6 0.6-2.7 0.6-3.2 0-4.8-1.8-4.8-5.4v-10.8h-3.2v-2.5h3.2v-4.5l2.9-1v5.5h4.6v2.5h-4.6v10.3c0 1.2 0.2 2.1 0.6 2.6s1.1 0.8 2.1 0.8c0.7 0 1.4-0.2 1.9-0.6v2.5z"/>
		<path d="m277.9 54.3h-3.3l-2.7-7.2h-10.9l-2.6 7.2h-3.4l9.9-25.7h3.1l9.9 25.7zm-7-9.9l-4-11c-0.1-0.4-0.3-0.9-0.4-1.7h-0.1c-0.1 0.7-0.3 1.3-0.4 1.7l-4 11h8.9z"/>
		<path d="m293.7 53.5c-1.4 0.8-3.1 1.3-5 1.3-2.6 0-4.7-0.9-6.3-2.6s-2.4-3.9-2.4-6.6c0-3 0.9-5.5 2.6-7.3s4-2.8 6.9-2.8c1.6 0 3 0.3 4.3 0.9v3c-1.4-1-2.8-1.4-4.4-1.4-1.9 0-3.4 0.7-4.6 2s-1.8 3.1-1.8 5.3 0.6 3.9 1.7 5.1 2.6 1.9 4.5 1.9c1.6 0 3.1-0.5 4.5-1.6v2.8z"/>
		<path d="m311.7 54.3h-2.9v-2.9h-0.1c-1.3 2.2-3.2 3.3-5.6 3.3-1.8 0-3.3-0.5-4.3-1.5s-1.6-2.3-1.6-3.9c0-3.4 2-5.4 6.1-6l5.5-0.8c0-3.1-1.3-4.7-3.8-4.7-2.2 0-4.2 0.8-6 2.3v-3c1.8-1.1 3.9-1.7 6.2-1.7 4.3 0 6.5 2.3 6.5 6.9v12zm-3-9.3l-4.4 0.6c-1.4 0.2-2.4 0.5-3.1 1s-1 1.3-1 2.6c0 0.9 0.3 1.6 1 2.2 0.6 0.6 1.5 0.9 2.6 0.9 1.5 0 2.7-0.5 3.6-1.5 1-1 1.4-2.3 1.4-3.9v-1.9z"/>
		<path d="m333.1 54.3h-2.9v-3.1h-0.1c-1.4 2.4-3.5 3.6-6.3 3.6-2.3 0-4.2-0.8-5.5-2.5-1.4-1.6-2.1-3.9-2.1-6.7 0-3 0.8-5.5 2.3-7.3s3.6-2.7 6.1-2.7 4.4 1 5.5 3h0.1v-11.5h2.9v27.2zm-2.9-8.3v-2.7c0-1.5-0.5-2.7-1.5-3.8-1-1-2.2-1.5-3.7-1.5-1.8 0-3.2 0.7-4.2 2s-1.5 3.1-1.5 5.5c0 2.1 0.5 3.8 1.5 5s2.3 1.8 4 1.8c1.6 0 3-0.6 4-1.8 0.9-1.2 1.4-2.7 1.4-4.5z"/>
		<path d="m354 45.9h-13c0 2 0.6 3.6 1.6 4.7 1.1 1.1 2.5 1.7 4.3 1.7 2.1 0 4-0.7 5.7-2v2.7c-1.6 1.2-3.7 1.8-6.4 1.8-2.6 0-4.6-0.8-6.1-2.5s-2.2-4-2.2-7c0-2.9 0.8-5.2 2.4-7s3.6-2.7 6-2.7 4.3 0.8 5.6 2.3c1.3 1.6 2 3.7 2 6.5v1.5zm-3.1-2.5c0-1.7-0.4-3-1.2-4-0.8-0.9-1.9-1.4-3.4-1.4-1.4 0-2.6 0.5-3.5 1.5-1 1-1.6 2.3-1.8 3.9h9.9z"/>
		<path d="m384.7 54.3h-2.9v-10.5c0-2-0.3-3.5-0.9-4.4s-1.7-1.4-3.2-1.4c-1.3 0-2.3 0.6-3.2 1.7s-1.3 2.5-1.3 4.1v10.5h-2.9v-10.9c0-3.6-1.4-5.4-4.2-5.4-1.3 0-2.4 0.5-3.2 1.6s-1.3 2.5-1.3 4.2v10.5h-2.9v-18.3h2.9v2.9h0.1c1.3-2.2 3.2-3.3 5.7-3.3 1.3 0 2.3 0.3 3.3 1 0.9 0.7 1.6 1.6 1.9 2.8 1.4-2.5 3.4-3.8 6.1-3.8 4 0 6.1 2.5 6.1 7.5v11.2z"/>
		<path d="m391.8 31.3c-0.5 0-1-0.2-1.3-0.5-0.4-0.4-0.6-0.8-0.6-1.4s0.2-1 0.6-1.4 0.8-0.5 1.3-0.5 1 0.2 1.4 0.5c0.4 0.4 0.6 0.8 0.6 1.4 0 0.5-0.2 1-0.6 1.3-0.4 0.4-0.8 0.6-1.4 0.6zm1.5 23h-2.9v-18.3h2.9v18.3z"/>
		<path d="m411.7 53.5c-1.4 0.8-3.1 1.3-5 1.3-2.6 0-4.7-0.9-6.3-2.6s-2.4-3.9-2.4-6.6c0-3 0.9-5.5 2.6-7.3s4-2.8 6.9-2.8c1.6 0 3 0.3 4.3 0.9v3c-1.4-1-2.8-1.4-4.4-1.4-1.9 0-3.4 0.7-4.6 2s-1.8 3.1-1.8 5.3 0.6 3.9 1.7 5.1 2.6 1.9 4.5 1.9c1.6 0 3.1-0.5 4.5-1.6v2.8z"/>
</svg>
