<?xml version="1.0" encoding="UTF-8"?>
<svg enable-background="new 0 0 238.5 91.3" version="1.1" viewBox="0 0 238.5 91.3" xml:space="preserve" xmlns="http://www.w3.org/2000/svg">
<style type="text/css">
	.st0{fill:#DA202C;}
</style>
	<path d="m150.8 10.5c-0.1-1.3-0.3-2.6-0.5-3.7-0.1-0.2-0.1-0.4-0.2-0.7-0.3-1.1-0.7-2-1.1-2.8-0.6-1-1.2-1.7-2-2.3-0.3-0.2-0.5-0.3-0.8-0.5-0.3-0.1-0.6-0.2-0.9-0.3-1.1-0.3-2.4-0.3-3.8 0-0.2 0-0.4 0.1-0.6 0.2-7.8 2.3-19.9 14.3-35.9 40.4 13.6-17.4 23.6-26.7 30.1-29.7 0.4-0.2 0.7-0.3 1.1-0.5 2.1-0.8 3.8-0.8 5.1-0.2 0.6 0.3 1.2 0.8 1.6 1.5 0.3 0.4 0.5 1 0.7 1.5s0.3 1.2 0.4 1.9 0.2 1.5 0.2 2.3c0 5.9-2.2 14.9-6.5 26-0.6 1.6-1.3 3.2-2 4.9-5.3 12.5-13 27.1-23.1 42.7 23.3-25.7 35.5-54.3 37.9-72.5 0.1-0.7 0.2-1.4 0.2-2 0.2-2.2 0.2-4.3 0.1-6.2z"/>
		<path d="m105.9 43.6c0 1.4-1.2 2.6-2.6 2.6s-2.6-1.2-2.6-2.6 1.2-2.6 2.6-2.6 2.6 1.1 2.6 2.6"/>
	<g transform="matrix(.18306 0 0 .18306 .36674 -2.2536)">
			<path class="st0" d="m456.3 236.1l-11.1 17.7c-3.5-4.4-7.3-8.7-12-11.8-7.6-5.3-17.5-6.5-26.3-4.4-7.3 1.7-13.6 6.7-17.6 13-3.9 6.1-5.3 13.5-5.3 20.7 0.2 9.2 4.8 18.2 12.4 23.4 15.2 10.8 33.7 16.7 47.1 30.1 8 7.8 9.8 20.8 4.8 30.7-3.2 6.3-9.3 11.1-16.2 12.7-11.1 2.6-23.2-1.7-30.8-10.1-10.8-11.6-15.2-27.6-17.4-42.9h-3v56.3h2.8l9.3-18c3.9 5.3 8.5 10.3 14.1 13.8 7.4 4.8 16.6 6.5 25.2 4.7 9.7-1.7 18.1-8.2 23-16.6 5-8.4 6.3-18.7 4.7-28.3-1.5-9.1-7.3-16.8-14.4-22.4-14.2-11.8-32.5-17.4-46.3-29.6-3.5-3.2-6.9-7-8-11.7-0.8-5.9 1.6-12 5.9-16 6.4-6.4 16.3-8.2 25-6.3 7.7 1.7 14.2 7 18.7 13.3 7.1 9.7 10.2 21.4 12.9 32.9l2.8 0.4c-0.1 0-0.3-51.6-0.3-51.6zm414.9 41.2c-1.9 0-3.9 0.3-5.8 0.7-7.7 1.5-14.5 6.1-19.8 11.8-11.2 12-16.8 28.3-18.8 44.3-2 18.6-0.3 38.4 9.3 54.8 6 10.8 15.7 20 27.8 23.1 9.7 2.6 20.3 0.2 28.4-5.5 12.2-8.4 19.6-22.3 23.2-36.4 3.7-15.6 3.4-32-0.2-47.6-3.4-13.9-10.1-27.5-21.1-36.9-6.3-5.4-14.6-8.5-23-8.3zm1.4 3.5c6.3 0.2 12.5 3.3 16.8 7.8 7.2 7.1 9.5 17.6 10.2 27.4 1.2 16.7 1 33.4 0.5 50.1-0.4 9-0.7 18.3-4.8 26.6-3.6 6.9-9.2 13.5-16.9 15.7-7.5 2.3-15.9 0.1-21.6-5.1-7.4-6.7-11.3-16.5-12.1-26.3-1.4-16.3-1-32.7-0.7-49 0.5-9.9 0.5-20.1 4.3-29.4 3.2-7.9 9.7-14.6 18-16.9 2.1-0.7 4.2-1 6.3-0.9zm-361.5 0.4c-7.4 0-14.7 2.8-20 8-17.8 17-20.4 46.8-7.3 67.3 4.4 6.8 10.7 12.9 18.7 15.1 8.9 2.5 19.3 0.6 25.8-6.2 7.5-7.4 10.2-18.2 11.1-28.4h-3.2c-0.6 5.9-1.6 12-4.2 17.4-3 6.2-8 11.9-14.9 13.9-6.4 1.9-14.3 1.3-19.1-3.9-4.2-4.6-5.2-11.1-6-17-1.4-12.3-1.1-24.8 0-37.2 0.8-6.4 1.4-13.3 5-18.9 4.8-7.1 14.9-8.4 22.4-5.4 5.8 2.4 9.2 8.1 10.8 13.9-3.1-2.5-7.6-3.7-11.1-1.5-5.5 3.3-5.3 12.5 0.4 15.5 4.8 2.8 11.5 0.1 13.2-5.1 3.5-10.9-3.5-23.5-14.4-26.6-2.3-0.6-4.8-0.9-7.2-0.9zm184.4 0.3h-92.7v3.8h19v124h-19v3.8h94.8l-0.1-52.5-2.4 0.4c-1.1 6.6-1.9 13.3-3.9 19.7-2.1 7.7-5.5 15.5-11.4 21.1-5.2 5.1-12.6 7.5-19.7 7.5h-22.5v-65.2c7.2 0 15.5-0.8 21.3 4.4 6.1 5.7 6.7 14.6 7.7 22.4l1.9 0.8 0.1-60-1.9-0.2c-0.6 9.3-2.6 19.9-10.7 25.8-5.3 4-12.2 3.4-18.4 3.3v-55.2h24.6c8.2 0.1 16.8 3.4 21.4 10.4 6.1 9 7.8 20.1 9.8 30.6l2.2 0.5-0.1-45.4zm21.6 0v3.8h17.9l0.1 124h-18v3.8h94v-59.2h-2.2c-0.9 6.9-2 13.8-3.9 20.5-3.2 12-8.9 24.5-20.3 30.8-10.3 5.8-33.9 4.2-33.9 4.2v-124l18 0.2v-3.9l-51.7-0.2zm-169.1 4.1v3.2h12.8l0.1 80.7-12.8 0.1v3.2h39.7v-3.3h-13v-84h-26.8z"/>
	</g>
</svg>
