<?xml version="1.0" encoding="UTF-8"?>
<svg enable-background="new 0 0 411.7 129.6" version="1.1" viewBox="0 0 411.7 129.6" xml:space="preserve" xmlns="http://www.w3.org/2000/svg">
<style type="text/css">
	.st0{fill:#FF8200;}
</style>
		<path class="st0" d="m33.8 44.8c-0.7-0.4-1.4-0.8-2.1-1.3-1.3-0.8-2.6-1.5-3.9-2.3-7.6-4.3-14.1-8-14.1-16.2 0-7.2 5.4-14.9 15.5-14.9 9.6 0 15.7 1.6 23.2 6.1 0.1 0.1 0.3 0.1 0.4 0s0.2-0.2 0.2-0.3l0.7-11.1c0-0.2-0.1-0.3-0.2-0.4-7.6-3-13-4.4-25.1-4.4-16.5 0-28.1 10.6-28.1 25.9 0 13.3 10.8 19.7 21.2 26l3 1.8c1.3 0.8 2.6 1.5 3.9 2.3 7.2 4.1 13.5 7.7 13.5 15.4 0 8.4-7.5 15-17.1 15-8.8 0-14.9-1.8-22.5-6.4-0.1-0.1-0.2-0.1-0.4 0-0.1 0.1-0.2 0.2-0.2 0.3l-1.7 11c0 0.2 0.1 0.3 0.2 0.4 7.5 3.5 15 4.9 25.1 4.9 14.7 0 29.7-9.2 29.7-26.7 0-12.7-10.3-18.7-21.2-25.1z"/>
		<path class="st0" d="m116.7 79.9c-0.1-0.1-0.3 0-0.4 0.1-4.3 3.5-12.4 6.4-17.7 6.4-9.8 0-19.7-7.6-19.7-24.7 0-16.1 8.1-21 9.8-21.8 0.4-0.3 2.3-1.1 7.5-1.1 7.9 0 10.3 1.5 10.3 6.4 0 0.2 0.2 0.4 0.4 0.4h10.1c0.2 0 0.4-0.2 0.4-0.4 0-1.6 0-3.4-0.1-4.7-0.8-7.8-8-11.7-21.5-11.7-11.8 0-29.3 8.9-29.3 33.3 0 21.2 11.2 34.4 29.3 34.4 8.3 0 15.9-2.1 21.9-6.1 0.1-0.1 0.2-0.2 0.2-0.3l-0.8-9.8-0.4-0.4z"/>
		<path class="st0" d="m156.1 28.7c-19 0-31.4 13.3-31.4 33.9s11.7 33.9 29.8 33.9c18.8 0 31.5-13.6 31.5-33.9 0-20.6-11.7-33.9-29.9-33.9zm-12 13.4c1.1-1.1 5.5-3.4 10.5-3.4 11.5 0 17.7 7.2 18.8 22 0.1 1 0.1 1.9 0.1 2.9 0 12.2-7 19.3-7 19.4-1.4 1.4-6.5 3.4-10.7 3.4-7 0-18.8-3.2-18.8-24.4 0.1-10.7 5.6-18.4 7.1-19.9z"/>
		<path class="st0" d="m233.6 28.7c-8.6 0-14.7 3-21.5 10.6l-1.5-8.6c0-0.2-0.2-0.3-0.4-0.3h-10c-0.1 0-0.2 0-0.3 0.1s-0.1 0.2-0.1 0.3 1.1 7.9 1.1 17.6v80.8c0 0.2 0.2 0.4 0.4 0.4h10.8c0.2 0 0.4-0.2 0.4-0.4v-35.7c4 2 8.5 3 13.6 3 18.4 0 30.8-14.7 30.8-36.5 0-27.2-14.6-31.3-23.3-31.3zm-10.8 12.1c0.9-0.5 5.1-1.6 8.2-1.6 8.9 0 13.4 7.4 13.4 22.1 0 16.2-7 25.1-19.8 25.1-5.8 0-11.1-2.9-12.1-3.5v-31c3.1-4.5 9.2-10.3 10.3-11.1z"/>
		<path class="st0" d="m324.6 30.8c0-0.2-0.2-0.4-0.4-0.4h-10.8c-0.2 0-0.4 0.2-0.4 0.4v42.1c-2.6 5.6-8.1 10.5-8.7 11-3.7 1.7-7.1 2.5-11 2.5-9.4 0-10.1-6.6-10.1-14.5v-41.1c0-0.2-0.2-0.4-0.4-0.4h-10.8c-0.2 0-0.4 0.2-0.4 0.4v48.6c0 11.3 7 17.1 20.7 17.1 9.9 0 15.2-2.6 21.2-10.5l1.5 8.4c0 0.2 0.2 0.3 0.4 0.3h9.8c0.1 0 0.2 0 0.3-0.1s0.1-0.2 0.1-0.3-1.1-7.7-1.1-17.5v-46z"/>
		<path class="st0" d="m364.5 57c-7.2-3.2-13.5-6-13.5-10.9 0-5.8 6-7.9 11.5-7.9 8.3 0 14.6 1.9 19.7 6.1 0.1 0.1 0.3 0.1 0.4 0.1 0.1-0.1 0.2-0.2 0.2-0.3l1.1-10.1c0-0.2-0.1-0.3-0.2-0.4-6.3-3.2-12.9-4.8-20.4-4.8-14.8 0-23.9 6.9-23.9 18 0 10.8 10.6 15.6 20 19.9 7.4 3.3 13.8 6.2 13.8 11.3 0 5.4-5.3 9-13.2 9-8.4 0-11.8-2.1-18.4-6.4-0.1-0.1-0.2-0.1-0.4 0-0.1 0.1-0.2 0.2-0.2 0.3l-1.3 10.1c0 0.1 0 0.3 0.2 0.4 4.8 3.3 12.4 5.3 20.4 5.3 16.9 0 24.5-9.7 24.5-19.3 0-11.3-10.8-16.2-20.3-20.4z"/>
		<path class="st0" d="m402.6 31.1c-5.1 0-9.2-4.1-9.2-9.1s4.1-9.1 9.2-9.1c5 0 9.1 4.1 9.1 9.1s-4.1 9.1-9.1 9.1zm0-16.3c-4.1 0-7.3 3.2-7.3 7.2s3.2 7.3 7.3 7.3c4 0 7.3-3.3 7.3-7.3s-3.3-7.2-7.3-7.2zm2.3 12.1c-0.2-0.2-0.6-0.7-1.1-1.4 0 0-1.3-1.7-2-2.7h-0.8v4h-1.6v-9.8c1-0.1 2-0.2 2.9-0.2 2.1 0 3.7 0.8 3.7 2.9 0 1.4-1 2.5-2.2 2.8 1.2 1.7 2 2.8 3.4 4.2h-2.3zm-3-8.5h-1.1v3h1.1c1.6 0 2.1-0.6 2.1-1.6 0.1-1-0.6-1.4-2.1-1.4z"/>
</svg>
