<?xml version="1.0" encoding="UTF-8"?>
<svg enable-background="new 0 0 411.7 94.8" version="1.1" viewBox="0 0 411.7 94.8" xml:space="preserve" xmlns="http://www.w3.org/2000/svg">
<style type="text/css">
	.st0{fill:#4CAF50;}
</style>
	<path class="st0" d="m82.6 0.2v94.4c-0.5 0.4-1 0.2-1.5 0.2h-30.5c-5.3 0-10.6-0.4-15.7-1.7-4.5-1.2-8.7-3.1-12.6-5.6-11.7-7.5-18.9-17.9-21.4-31.4-2.5-13.7 0.4-26.3 8.9-37.4 8.3-11 19.7-17.1 33.5-18.5 1.2-0.1 2.5-0.2 3.7-0.2h34.2c0.4 0 0.8-0.1 1.4 0.2zm-45 46.4c0-0.1-0.1-0.2-0.1-0.4v-10.7c0-1.7 0.6-3.2 1.6-4.6 2.7-3.7 6.2-4.2 9.9-3.2 3 0.8 5.9 4 5.9 8.1 0 1.4 0.8 2.3 2.2 2.4 0.8 0.1 1.6 0.1 2.5 0 1.3-0.1 2-1 2-2.3 0.1-1.9-0.3-3.8-1-5.5-2.4-6-8.7-10.6-16.3-9.7-4.6 0.6-8 2.8-10.8 6.4-2 2.6-2.8 5.7-2.8 8.9v9.4c0 0.5 0.2 1-0.2 1.4h-0.6c-2 0-3.1 1-3.4 3-0.1 0.6-0.1 1.1-0.1 1.7v17.2c0 0.7 0.1 1.3 0.2 1.9 0.1 0.8 0.5 1.4 1 1.9 0.9 0.8 1.9 0.9 3 0.9h31.2c0.5 0 1 0 1.5-0.1 1.1-0.2 2-0.9 2.4-1.9 0.3-0.6 0.3-1.3 0.3-2v-17.1-2.1c-0.1-1.5-0.8-2.5-2.2-3.1-0.6-0.2-1.2-0.2-1.8-0.2h-23.8c-0.1 0-0.4 0-0.6-0.3z"/>
	<path class="st0" d="m328 53c1.3-4 2.5-7.7 3.7-11.5 0.2-0.6 0.4-1.2 0.6-1.7 0.4-0.9 1-1.5 2.1-1.5h7.3c1.3 0 1.8 0.7 1.5 2-0.1 0.3-0.2 0.7-0.3 1-3 8.7-6 17.4-9 26.2-0.6 1.8-0.9 2-2.8 2h-5.7c-1.6 0-2.1-0.3-2.6-1.9-1.1-3.3-2.3-6.7-3.4-10-0.2-0.6-0.4-1.1-0.6-1.7-0.4 0.3-0.5 0.8-0.6 1.2-1.2 3.4-2.3 6.8-3.4 10.2-0.1 0.3-0.2 0.7-0.3 1-0.4 0.9-1 1.3-2 1.3h-6.6c-1.2 0-1.7-0.3-2.1-1.5-0.5-1.5-1-2.9-1.5-4.4-2.6-7.5-5.1-14.9-7.7-22.4 0-0.1-0.1-0.2-0.1-0.4-0.6-1.7 0-2.5 1.7-2.5h6.5c1.6 0 2.1 0.4 2.6 1.9 1.3 3.9 2.6 7.9 3.9 11.8l0.3 0.9c0.3-0.3 0.4-0.6 0.5-0.9 1.3-3.9 2.5-7.7 3.8-11.6 0.6-1.9 1-2.2 3.1-2.2h4.4c1.6 0 2.1 0.4 2.7 1.9 1.2 3.8 2.5 7.5 3.7 11.3-0.2 0.5-0.2 1 0.3 1.5z"/>
	<path class="st0" d="m196 40.9c0.2 0 0.2 0 0.3-0.1 3.6-3.9 8-3.6 12.5-2.4s7.4 4.4 8.4 9c1 4.5 1 9-0.1 13.5-1.3 5.1-5.5 8.6-10.7 9.1-0.9 0.1-1.7 0.2-2.6 0.1-2.7-0.1-5.1-1-7-3-0.1-0.1-0.2-0.1-0.4-0.2-0.2 0.4-0.1 0.7-0.1 1v10.7c0 0.5 0 1-0.3 1.4-0.3 0.5-0.8 0.8-1.4 0.8h-7.5c-1 0-1.6-0.6-1.7-1.6v-0.9-37.5-0.6c0.1-1.2 0.6-1.8 1.8-1.8h6.6c1.5 0 2 0.5 2.1 2 0.1 0.1 0.1 0.3 0.1 0.5zm11 13c-0.1-0.7-0.1-1.5-0.2-2.3-0.3-1.6-0.9-3-2.3-3.9-3.5-2.1-7.8 0-8.3 4.1-0.2 1.3-0.2 2.7 0 4 0.4 3.5 2.8 5.4 6.4 4.9 2.1-0.3 3.4-1.5 4-3.5 0.4-1.1 0.3-2.2 0.4-3.3z"/>
	<path class="st0" d="m241.1 49c0.1-1.8-0.7-2.8-2.4-3.1-1.5-0.2-2.9 0-4.1 1-0.6 0.5-1.3 0.7-2.1 0.7h-7.2c-1.5 0-2-0.7-1.6-2.1 0.4-1.2 1.1-2.2 2-3.1 2.2-2.2 4.9-3.5 7.9-4.2 3.6-0.8 7.1-0.7 10.6 0.4 4.8 1.4 7.8 5.2 7.9 10.2 0.1 6.3 0 12.6 0 18.9 0 1.3-0.6 1.8-1.8 1.8h-7c-1.4 0-1.9-0.5-2-2 0-0.3 0.1-0.6-0.2-0.8-0.1 0-0.2 0-0.2 0.1-3.9 3.9-8.6 4.1-13.5 2.5-3.4-1.1-5.4-3.6-5.9-7.2-0.5-3.8 0.8-6.8 4.1-8.9 2.3-1.5 4.9-2.2 7.5-2.7 2.5-0.5 5-0.9 7.5-1.3 0.1 0 0.3 0 0.5-0.2zm0 7.3c-2 0.3-3.9 0.6-5.8 0.9-0.9 0.2-1.7 0.5-2.4 1.2-0.7 0.6-0.8 1.4-0.6 2.2s0.9 1.2 1.6 1.3c2.5 0.3 4.6-0.3 6.2-2.3 0.7-0.9 1.1-2 1-3.3z"/>
	<path class="st0" d="m365.6 49c0.1-1.8-0.7-2.8-2.4-3.1-1.5-0.2-2.9 0-4.1 1-0.6 0.5-1.2 0.7-2 0.7h-7.5c-1.4 0-1.9-0.6-1.5-2 0.2-1 0.8-1.8 1.4-2.6 2-2.4 4.7-3.8 7.6-4.6 3.9-1 7.8-1 11.6 0.2 4.7 1.4 7.7 5.2 7.8 10.1 0.1 6.3 0 12.6 0 18.9 0 1.3-0.5 1.8-1.8 1.8h-6.9c-1.6 0-2-0.5-2.1-2.1 0-0.2-0.1-0.4-0.1-0.6l-0.1-0.1c-0.1 0-0.2 0-0.3 0.1-2.5 2.7-5.7 3.4-9.2 3.3-1.6 0-3.3-0.3-4.8-1-3.1-1.4-4.9-3.8-5.3-7.1-0.4-3.6 0.7-6.5 3.7-8.5 2.4-1.6 5.1-2.4 7.9-3 2.5-0.5 4.9-0.9 7.4-1.3 0.3 0.1 0.6 0.1 0.7-0.1zm0.1 7.3c-2.1 0.3-4.1 0.6-6.1 1-0.8 0.1-1.5 0.5-2.1 1-0.7 0.6-1 1.4-0.7 2.3 0.2 0.9 0.9 1.2 1.7 1.3 0.7 0.1 1.4 0.1 2.1 0 2.9-0.3 5.1-2.7 5.1-5.6z"/>
	<path class="st0" d="m157.4 41.1c1.7-1.8 3.6-2.8 5.8-3.2 2.8-0.4 5.6-0.3 8.3 0.8 3.9 1.5 6.1 4.5 6.9 8.5 0.3 1.6 0.4 3.2 0.4 4.8v14.9 0.9c-0.1 1.1-0.6 1.7-1.7 1.7h-7.4c-1.1 0-1.6-0.6-1.7-1.7v-3.9-10.7c0-1-0.1-2.1-0.5-3.1-0.7-1.8-2-2.8-3.9-3-3.9-0.4-6 1.5-6 5.4v14.4 1.2c-0.1 0.8-0.7 1.4-1.5 1.4h-7.8c-0.9 0-1.4-0.6-1.5-1.4v-1-26.1-0.9c0.1-0.9 0.6-1.6 1.6-1.6h7.4c0.9 0 1.4 0.6 1.6 1.5v1.1z"/>
	<path class="st0" d="m129.6 66.7c-2.9 3.2-6.4 3.7-10.2 3.3-1.1-0.1-2.1-0.3-3.2-0.7-4-1.4-6.3-4.3-7.2-8.4-0.3-1.3-0.4-2.6-0.4-4v-16.3-0.8c0.1-0.9 0.6-1.4 1.5-1.5 2.5 0 5.1-0.1 7.6 0 1.1 0 1.6 0.7 1.6 1.9v9.7 4.8c0 0.7 0.1 1.5 0.2 2.2 0.7 3.5 4.8 5.1 7.7 3 0.9-0.7 1.4-1.6 1.6-2.7 0.2-0.8 0.3-1.7 0.3-2.6v-14.1c0-1.8 0.5-2.2 2.2-2.2h6.5c1.6 0 2.1 0.5 2.1 2.1v26.9c0 1.6-0.5 2.1-2.1 2.1h-6c-1.7 0-2.1-0.4-2.2-2.2 0.1 0 0.1-0.1 0-0.5z"/>
	<path class="st0" d="m273.9 54.9c0.4-0.2 0.5-0.7 0.6-1.1 1.9-4.5 3.8-9 5.7-13.5 0.8-2 1-2.1 3.2-2.1h6.3c0.7 0 1.3 0.1 1.7 0.8 0.3 0.6 0.1 1.2-0.1 1.7-1.2 2.9-2.4 5.7-3.6 8.6-4.2 9.8-8.4 19.7-12.6 29.5-0.1 0.3-0.2 0.6-0.4 0.8-0.4 0.8-0.9 1.2-1.8 1.2-2.4 0-4.8-0.1-7.2 0-1.4 0.1-2.2-1-1.6-2.4 1.2-2.8 2.3-5.7 3.6-8.4 0.6-1.2 0.5-2.3 0-3.5-3.7-8.4-7.3-16.9-10.9-25.3-0.9-2.2-0.5-2.9 1.9-2.9 2.1 0 4.1 0.1 6.2 0 1.3-0.1 2 0.5 2.5 1.7 1.9 4.6 3.9 9.2 5.9 13.8 0.2 0.4 0.2 0.8 0.6 1.1z"/>
	<path class="st0" d="m383.3 48.2v-18.6-0.9c0.1-1.1 0.6-1.7 1.7-1.7h7.4c1.1 0 1.6 0.6 1.7 1.7v0.9 37.4 0.9c-0.1 1-0.7 1.6-1.7 1.6h-7.5c-1 0-1.6-0.6-1.7-1.6v-1c0.1-6.3 0.1-12.5 0.1-18.7z"/>
	<path class="st0" d="m411.7 48.3v18.5 1.2c-0.1 0.9-0.7 1.5-1.5 1.5h-7.8c-0.9 0-1.4-0.6-1.5-1.5v-0.8-37.9-0.8c0.1-0.9 0.7-1.5 1.6-1.6h7.6c0.9 0 1.4 0.6 1.6 1.4 0.1 0.4 0 0.8 0 1.2v18.8z"/>
</svg>
