<?xml version="1.0" encoding="UTF-8"?>
<svg enable-background="new 0 0 198 52.2" version="1.1" viewBox="0 0 198 52.2" xml:space="preserve" xmlns="http://www.w3.org/2000/svg">
<style type="text/css">
	.st0{fill-rule:evenodd;clip-rule:evenodd;fill:#5E33BF;}
	.st1{fill-rule:evenodd;clip-rule:evenodd;fill:#000100;}
</style>
	<path class="st0" d="m42.8 33.4c-0.1-0.2-0.3-0.3-0.4-0.3l-0.8-1.3c-0.2-0.3-0.5-0.4-0.8-0.2s-0.3 0.5-0.2 0.8l0.8 1.3c0 0.2 0 0.4 0.1 0.5l4.4 6.9c0.1 0.2 0.4 0.4 0.6 0.4 0.1 0 0.3 0 0.4-0.1 0.4-0.2 0.5-0.7 0.2-1.1l-4.3-6.9zm43.3-1.7c-0.3-0.2-0.6-0.1-0.8 0.2l-2 3.1c-0.2 0-0.3 0.2-0.4 0.3l-3.2 5.1c-0.2 0.4-0.1 0.8 0.2 1.1 0.1 0.1 0.3 0.1 0.4 0.1 0.3 0 0.5-0.1 0.6-0.4l3.2-5.1c0.1-0.2 0.1-0.4 0.1-0.5l2-3.1c0.3-0.3 0.2-0.7-0.1-0.8zm1.5-6.4l-5.2 9.2c0 0.2 0 0.4-0.1 0.5l-5.2 9.3c-0.1 0.3-0.4 0.4-0.7 0.4-0.1 0-0.3 0-0.4-0.1-0.3-0.2-0.4-0.5-0.4-0.9l-0.9 1.9c-0.1 0.3-0.4 0.4-0.7 0.4-0.1 0-0.2 0-0.3-0.1-0.2-0.1-0.4-0.3-0.4-0.5l-0.4 1c-0.1 0.3-0.4 0.5-0.7 0.5h-0.3c-0.2-0.1-0.3-0.2-0.4-0.4l-0.2 0.5c-0.1 0.2-0.3 0.4-0.5 0.5-2.3 0.8-4.8 1.2-7.4 1.2s-5.1-0.4-7.5-1.2c-0.2-0.1-0.4-0.2-0.5-0.5l-0.2-0.5c-0.1 0.2-0.2 0.3-0.4 0.4-0.1 0-0.2 0.1-0.3 0.1-0.3 0-0.6-0.2-0.7-0.5l-0.4-1c-0.1 0.2-0.2 0.4-0.4 0.5-0.1 0-0.2 0.1-0.3 0.1-0.3 0-0.6-0.2-0.7-0.4l-0.9-1.9c0.1 0.3-0.1 0.7-0.4 0.9-0.1 0.1-0.2 0.1-0.4 0.1-0.3 0-0.5-0.1-0.7-0.4l-4.6-8.5c-0.1-0.2-0.1-0.4-0.1-0.5l-5.6-10c-0.2-0.3-0.1-0.6 0.2-0.8s0.6-0.1 0.8 0.2l5.6 10c0.2 0.1 0.3 0.2 0.4 0.4l4.3 7.8-3.2-6.5c-0.1-0.2-0.1-0.4-0.1-0.5l-4.8-9.9c-0.1-0.2-0.1-0.3 0-0.5l-2.8-5.8c-0.1-0.2 0-0.4 0.2-0.5s0.4 0 0.5 0.2l2.8 5.8c0.1 0 0.3 0.1 0.4 0.3l4.8 9.9c0.2 0.1 0.3 0.2 0.4 0.4l3.1 6.4-2.4-5.8c-0.1-0.2-0.1-0.4 0-0.5l-4.1-9.8c-0.1-0.2-0.1-0.3 0-0.5l-3.3-7.8c-0.1-0.1 0-0.3 0-0.4l-1.1-2.5c0-0.1 0-0.2 0.1-0.2s0.2 0 0.2 0.1l1.1 2.5c0.1 0 0.2 0.1 0.3 0.2l3.3 7.8c0.1 0 0.3 0.2 0.3 0.3l4.1 9.8c0.2 0.1 0.3 0.2 0.4 0.4l2.4 5.7-1.6-5.6c-0.1-0.2-0.1-0.4 0-0.5l-3.5-9.7c-0.1-0.1 0-0.3 0-0.5l-3-8.5c0-0.1 0-0.3 0.1-0.4l-1.9-5.3c0-0.1 0-0.2 0.1-0.3 0.1 0 0.2 0 0.2 0.1l1.9 5.4c0.1 0 0.2 0.1 0.3 0.2l3 8.5c0.1 0.1 0.3 0.2 0.3 0.3l3.5 9.7c0.2 0.1 0.3 0.2 0.4 0.4l1.9 5.3-1.6-5.3c-0.1-0.2 0-0.4 0-0.5l-2.9-9.8c0-0.2 0-0.3 0.1-0.5l-2.5-8.5c0-0.1 0-0.3 0.1-0.4l-2.3-7.9c0-0.1 0-0.2 0.1-0.2s0.2 0 0.2 0.1l2.3 7.9c0.1 0 0.2 0.1 0.3 0.3l2.5 8.6c0.1 0.1 0.3 0.2 0.3 0.4l2.9 9.8c0.1 0.1 0.3 0.2 0.3 0.4l1.5 5.3-1.3-5.6c0-0.2 0-0.4 0.1-0.5l-2.3-10.1c0-0.2 0-0.3 0.1-0.5l-1.8-7.8c0-0.1 0-0.3 0.1-0.4l-2.2-10.3c0-0.1 0-0.2 0.1-0.2s0.2 0 0.2 0.1l2.4 10.3c0.1 0 0.2 0.1 0.3 0.3l1.8 7.8c0.1 0.1 0.2 0.2 0.3 0.4l2.4 10.1c0.1 0.1 0.3 0.3 0.3 0.4l1.3 5.5-1-6c0-0.2 0-0.4 0.1-0.5l-1.9-10.7c0-0.2 0-0.3 0.1-0.5l-1.1-6.2c0-0.1 0-0.3 0.1-0.4l-2.1-12.5c0-0.1 0.1-0.2 0.2-0.2s0.2 0.1 0.2 0.2l2.2 12.6c0.1 0 0.2 0.2 0.2 0.3l1.1 6.2c0.1 0.1 0.2 0.2 0.3 0.4l1.9 10.7c0.1 0.1 0.2 0.3 0.3 0.5l1 6-0.8-6.8c0-0.2 0-0.4 0.1-0.5l-1.4-11.6c0-0.2 0-0.3 0.1-0.4l-0.4-3.5c0-0.1 0-0.3 0.2-0.4l-1.7-15c0-0.1 0.1-0.2 0.2-0.2s0.2 0.1 0.2 0.2l1.7 14.9c0.1 0 0.2 0.2 0.2 0.3l0.4 3.5c0.1 0.1 0.2 0.2 0.2 0.4l1.4 11.4c0.1 0.1 0.2 0.3 0.2 0.5l0.8 6.7s0 0 0 0l-0.5-7.7c0-0.2 0.1-0.4 0.2-0.5l-0.7-12.9c0-0.3 0.1-0.5 0.4-0.6l-1-17c0-0.1 0.1-0.2 0.2-0.2s0.2 0.1 0.2 0.2l1 17.1c0.2 0.1 0.4 0.3 0.4 0.5l0.8 12.9c0.1 0.1 0.2 0.3 0.2 0.5l0.4 7.7v-8.9c0-0.2 0.1-0.4 0.2-0.5v-9.9c0-0.2 0.1-0.3 0.2-0.4v-4.6c0-0.1 0.1-0.3 0.2-0.3v-14.4c0-0.1 0.1-0.2 0.2-0.2s0.2 0.1 0.2 0.2v14.4c0.1 0.1 0.2 0.2 0.2 0.3v4.5c0.1 0.1 0.2 0.3 0.2 0.4v9.9c0.1 0.1 0.2 0.3 0.2 0.5v8.9l0.6-10.4c0-0.2 0.1-0.4 0.2-0.5l0.4-6.5c0-0.2 0.1-0.3 0.2-0.4l0.6-9.6c0-0.1 0.1-0.3 0.2-0.3l0.6-10.9c0-0.1 0.1-0.2 0.2-0.2s0.2 0.1 0.2 0.2l-0.7 10.9c0.1 0.1 0.2 0.2 0.2 0.3l-0.6 9.6c0.1 0.1 0.2 0.3 0.2 0.4l-0.4 6.5c0.1 0.1 0.2 0.3 0.2 0.5l-0.6 10.4 1.4-12c0-0.2 0.1-0.4 0.2-0.5l0.4-3.1c0-0.2 0.1-0.3 0.2-0.4l1.7-14.2c0-0.1 0.1-0.3 0.2-0.3l0.9-7.4c0-0.1 0.1-0.2 0.2-0.2s0.2 0.1 0.2 0.2l-0.9 7.4c0.1 0.1 0.2 0.2 0.1 0.4l-1.7 14.3c0.4 0.2 0.4 0.4 0.4 0.6l-0.4 3c0.1 0.1 0.1 0.3 0.1 0.5l-1.4 12s0 0 0 0l2.2-12.6 0.2-1c0.1-0.3 0.2-0.5 0.5-0.6l3.1-18c0-0.1 0.1-0.2 0.2-0.3l0.7-4c0-0.1 0.1-0.2 0.2-0.2s0.2 0.1 0.2 0.2l-0.7 4c0.1 0.1 0.2 0.2 0.1 0.4l-3.1 18c0.2 0.2 0.3 0.4 0.3 0.7l-2.4 13.7 2.9-12.2c0-0.2 0.2-0.3 0.3-0.4l0.7-2.9c0-0.2 0.1-0.3 0.3-0.4l4-17c0-0.1 0.1-0.2 0.3-0.3l0.4-1.7c0-0.1 0.1-0.2 0.2-0.1s0.2 0.2 0.1 0.4l-0.4 1.7c0.1 0.1 0.1 0.2 0.1 0.4l-4 17c0.1 0.1 0.1 0.3 0.1 0.5l-0.7 2.9c0.1 0.2 0.1 0.3 0.1 0.5l-2.9 12.3 3.2-11.1c0.1-0.2 0.2-0.3 0.3-0.4l1.6-5.4c0-0.2 0.2-0.3 0.3-0.4l4.4-15.1c0.1-0.2 0.3-0.3 0.5-0.3 0.2 0.1 0.3 0.3 0.3 0.5l-4.4 15.1c0.1 0.1 0.1 0.3 0.1 0.4l-1.6 5.4c0.1 0.2 0.1 0.4 0 0.5l-3.3 11.1 3.6-10.1c0.1-0.2 0.2-0.3 0.4-0.4l2.6-7.5c0.1-0.2 0.2-0.3 0.3-0.3l4.4-11.4c0.1-0.2 0.3-0.3 0.5-0.2s0.3 0.3 0.2 0.5l-4.1 11.5c0.1 0.1 0.1 0.3 0 0.5l-2.6 7.3c0.1 0.2 0.1 0.4 0 0.5l-3.6 10.2 3.9-9.4c0.1-0.2 0.2-0.3 0.4-0.4l3.6-8.7c0.1-0.2 0.2-0.3 0.3-0.3l3.3-7.8c0.1-0.2 0.3-0.3 0.5-0.2s0.3 0.3 0.2 0.5l-3.2 7.9c0.1 0.1 0.1 0.3 0 0.5l-3.6 8.7c0.1 0.2 0.1 0.4 0 0.5l-4 9.5 4.3-8.9c0.1-0.2 0.2-0.3 0.4-0.4l4.5-9.2c0.1-0.1 0.2-0.3 0.4-0.3l2-4.1c0.1-0.2 0.3-0.3 0.5-0.2s0.3 0.3 0.2 0.5l-2 4.1c0.1 0.2 0.1 0.3 0 0.5l-4.5 9.2c0 0.2 0 0.4-0.1 0.5l-4.4 9 4.8-8.7c0.1-0.2 0.2-0.3 0.4-0.3l5.2-9.2c0.2-0.3 0.5-0.4 0.8-0.2s0.4 0.6 0.3 0.8z"/>
	<path class="st1" d="m158.8 27.7c0-1.1-0.1-1.9-0.4-2.6s-0.6-1.3-1.1-1.7c-0.4-0.4-1-0.8-1.6-1s-1.2-0.3-1.8-0.3c-0.7 0-1.3 0.1-1.9 0.4-0.6 0.2-1.1 0.6-1.5 1s-0.8 1-1 1.6c-0.3 0.6-0.4 1.3-0.4 2s0.1 1.4 0.4 2c0.2 0.6 0.6 1.1 1 1.6 0.4 0.4 1 0.8 1.6 1 0.6 0.3 1.2 0.4 1.9 0.4 1 0 2-0.2 2.8-0.7s1.5-1.2 1.9-2.2l-2.8-0.3c-0.2 0.3-0.4 0.6-0.8 0.7-0.3 0.2-0.7 0.3-1.1 0.3-0.6 0-1.1-0.2-1.5-0.6s-0.6-0.8-0.7-1.3l7-0.3zm-2.9-1.8h-4.2c0.1-0.5 0.3-0.9 0.7-1.2s0.8-0.5 1.4-0.5 1 0.2 1.4 0.5 0.7 0.7 0.7 1.2m-5.3-23.3h0.4v-2.4c-0.2 0-0.5 0-0.7-0.1h-0.6-0.6c-0.4 0-0.7 0-1 0.1s-0.6 0.2-0.8 0.4-0.4 0.4-0.6 0.8c-0.1 0.3-0.2 0.7-0.2 1.2v2.7h-1.5v2.3h1.5v7.1h2.6v-7.2h1.8v-2.2h-1.8v-2c0-0.3 0.1-0.5 0.2-0.6s0.4-0.1 0.6-0.1h0.3 0.4m-6.4 9.3c0.3-0.6 0.4-1.3 0.4-2s-0.1-1.4-0.4-2-0.6-1.1-1.1-1.6c-0.5-0.4-1-0.8-1.6-1-0.6-0.3-1.2-0.4-2-0.4-0.7 0-1.3 0.1-1.9 0.4-0.6 0.2-1.1 0.6-1.6 1s-0.8 1-1.1 1.6-0.4 1.3-0.4 2 0.1 1.4 0.4 2 0.6 1.1 1.1 1.6c0.4 0.4 1 0.8 1.6 1 0.6 0.3 1.2 0.4 1.9 0.4s1.3-0.1 2-0.4c0.6-0.2 1.1-0.6 1.6-1 0.4-0.4 0.8-1 1.1-1.6m-2.3-2c0 0.7-0.2 1.4-0.6 1.8-0.4 0.5-1 0.7-1.7 0.7-0.4 0-0.7-0.1-1-0.2s-0.5-0.3-0.7-0.5-0.4-0.5-0.5-0.8-0.2-0.6-0.2-1c0-0.7 0.2-1.4 0.7-1.8 0.4-0.5 1-0.7 1.7-0.7 0.4 0 0.7 0.1 0.9 0.2 0.3 0.1 0.5 0.3 0.7 0.5s0.4 0.5 0.5 0.8 0.2 0.7 0.2 1m-6.1 12.3c-0.4-0.2-0.9-0.2-1.4-0.2s-1.1 0.1-1.6 0.3-0.9 0.6-1.3 1v-0.2-0.2-0.3-0.4h-2.5v9.4h2.7v-6.1c0.3-0.3 0.6-0.6 0.9-0.8s0.7-0.3 1.1-0.3 0.8 0.1 1.1 0.4 0.5 0.7 0.5 1.3v5.5h2.6v-6.2c0-0.5-0.1-1-0.3-1.5-0.2-0.4-0.4-0.8-0.7-1.1-0.3-0.2-0.7-0.5-1.1-0.6m-5.3-10.3c0.2-0.6 0.3-1.3 0.3-2s-0.1-1.4-0.3-2-0.6-1.1-1-1.6c-0.4-0.4-0.9-0.8-1.4-1s-1.1-0.3-1.7-0.3c-0.7 0-1.3 0.1-1.8 0.4s-0.9 0.6-1.1 1v-0.6-0.9-4.6h-2.7v14.4h2.7v-1.2c0.2 0.4 0.6 0.7 1.1 1s1.1 0.4 1.8 0.4c0.6 0 1.2-0.1 1.8-0.4s1-0.6 1.5-1c0.3-0.4 0.6-1 0.8-1.6m-2.3-2c0 0.4-0.1 0.7-0.2 1s-0.3 0.6-0.5 0.8-0.5 0.4-0.8 0.6c-0.3 0.1-0.6 0.2-1 0.2s-0.7-0.1-1-0.2-0.5-0.3-0.8-0.6c-0.2-0.2-0.4-0.5-0.5-0.8s-0.2-0.6-0.2-1 0.1-0.7 0.2-1 0.3-0.6 0.5-0.8 0.5-0.4 0.8-0.5 0.6-0.2 1-0.2 0.7 0.1 1 0.2 0.5 0.3 0.8 0.5c0.2 0.2 0.4 0.5 0.5 0.8s0.2 0.7 0.2 1m-15.4 0.8h7v-0.1c0-1-0.1-1.8-0.4-2.5s-0.6-1.3-1.1-1.7c-0.4-0.4-1-0.8-1.6-1s-1.2-0.3-1.8-0.3c-0.7 0-1.3 0.1-1.9 0.4-0.6 0.2-1.1 0.6-1.5 1s-0.8 1-1 1.6-0.4 1.3-0.4 2 0.1 1.4 0.4 2c0.2 0.6 0.6 1.1 1 1.6 0.4 0.4 1 0.8 1.6 1 0.6 0.3 1.2 0.4 1.9 0.4 1 0 2-0.2 2.8-0.7s1.4-1.2 1.9-2.2l-2.8-0.3c-0.2 0.3-0.4 0.6-0.8 0.7-0.3 0.2-0.7 0.3-1.1 0.3-0.6 0-1.1-0.2-1.5-0.6-0.4-0.6-0.6-1.1-0.7-1.6m0-1.8c0.1-0.5 0.3-0.9 0.7-1.2s0.8-0.5 1.4-0.5 1 0.2 1.4 0.5 0.6 0.8 0.7 1.2h-4.2zm-5.2 5.7l3.5-14.4h-2.9l-2.3 10.3-2.7-10.3h-3l-2.7 10.3-2.3-10.2h-3.1l3.5 14.4h3.2l2.7-10.5 2.8 10.5h3.3zm-14 12.8l-1.5 2.2 0.8 0.8c0.3 0.3 0.7 0.5 1.2 0.7 0.4 0.2 0.9 0.4 1.5 0.5 0.5 0.1 1.1 0.2 1.7 0.2 0.7 0 1.4-0.1 2-0.3s1.1-0.5 1.5-0.9 0.7-0.8 1-1.3c0.2-0.5 0.3-1 0.3-1.6 0-0.5-0.1-0.9-0.2-1.3s-0.3-0.8-0.6-1.1-0.6-0.7-1.1-1c-0.4-0.3-1-0.6-1.6-0.9l-1.8-0.9c-0.5-0.3-0.9-0.5-1-0.8-0.2-0.3-0.2-0.5-0.2-0.8 0-0.2 0-0.3 0.1-0.5 0.1-0.1 0.2-0.3 0.3-0.4s0.3-0.2 0.6-0.3c0.2-0.1 0.5-0.1 0.8-0.1 0.5 0 1 0.1 1.5 0.4s1 0.7 1.4 1.2l1.7-2c-0.6-0.7-1.3-1.3-2.2-1.6-0.9-0.4-1.7-0.5-2.5-0.5-0.6 0-1.2 0.1-1.8 0.3s-1 0.5-1.5 0.8c-0.4 0.4-0.8 0.8-1 1.3s-0.4 1-0.4 1.6c0 0.9 0.2 1.6 0.7 2.3 0.5 0.6 1.2 1.2 2.2 1.7l1.7 0.8c0.7 0.3 1.1 0.6 1.4 0.9s0.4 0.6 0.4 1.1-0.2 0.8-0.5 1.1c-0.4 0.3-0.8 0.4-1.3 0.4-0.4 0-0.7-0.1-1.1-0.2s-0.7-0.2-1-0.4l-0.9-0.6c-0.2-0.3-0.4-0.5-0.6-0.8m-0.9 10.9c-0.4 0.9-0.6 1.9-0.6 3s0.2 2.1 0.6 3 0.9 1.7 1.5 2.3c0.7 0.7 1.4 1.2 2.3 1.5 0.9 0.4 1.8 0.6 2.9 0.6 0.7 0 1.2-0.1 1.8-0.2 0.5-0.2 0.9-0.3 1.3-0.6 0.4-0.2 0.7-0.5 0.9-0.7 0.2-0.3 0.4-0.5 0.6-0.7v2h2.3v-7.1h-6.1v2.3h3.1c-0.1 0.3-0.3 0.6-0.5 0.9s-0.5 0.6-0.8 0.8-0.7 0.4-1.1 0.5-0.9 0.2-1.4 0.2c-0.6 0-1.2-0.1-1.8-0.3s-1-0.5-1.4-1c-0.4-0.4-0.7-0.9-1-1.5-0.2-0.6-0.3-1.3-0.3-2s0.1-1.3 0.3-1.9 0.5-1.1 0.9-1.5 0.9-0.8 1.4-1c0.6-0.2 1.2-0.4 1.8-0.4 1 0 1.8 0.2 2.4 0.7 0.7 0.5 1.2 1.1 1.4 2h3.1c-0.2-0.8-0.5-1.6-1-2.3s-1-1.2-1.6-1.7-1.3-0.8-2.1-1.1c-0.8-0.2-1.5-0.4-2.3-0.4-1 0-2 0.2-2.9 0.5-0.9 0.4-1.7 0.9-2.4 1.6-0.4 0.9-0.9 1.6-1.3 2.5m13.2-6.8c0.6 0.3 1.3 0.4 1.9 0.4 0.5 0 1-0.1 1.5-0.2s0.9-0.3 1.3-0.6 0.7-0.6 1-1 0.5-0.8 0.7-1.3l-2.5-0.8c-0.2 0.4-0.4 0.8-0.8 1.1s-0.8 0.4-1.3 0.4c-0.7 0-1.3-0.2-1.7-0.7s-0.7-1.1-0.7-1.8 0.2-1.3 0.7-1.8c0.4-0.5 1-0.7 1.7-0.7 0.5 0 0.9 0.1 1.3 0.4s0.6 0.6 0.8 1l2.5-0.8c-0.2-0.4-0.4-0.9-0.7-1.3s-0.7-0.7-1-1c-0.4-0.3-0.8-0.5-1.3-0.6s-1-0.2-1.5-0.2c-0.7 0-1.3 0.1-1.9 0.4s-1.1 0.6-1.6 1-0.8 1-1.1 1.6-0.4 1.3-0.4 2 0.1 1.4 0.4 2 0.6 1.1 1.1 1.6c0.5 0.3 1 0.6 1.6 0.9m4.6 7.6h-2.6v9.4h2.7v-4.5c0-0.8 0.2-1.4 0.5-1.8 0.3-0.3 0.8-0.5 1.5-0.5h1.1v-2.7c-0.2 0-0.5-0.1-0.7-0.1-0.6 0-1.1 0.1-1.5 0.4s-0.7 0.7-0.9 1.2l-0.1-1.4zm6.5-16.9h-4v2.3h1.3v7.1h2.7v-9.4zm-2.6-4.5c-0.3 0.3-0.5 0.7-0.5 1.2s0.2 0.9 0.5 1.2 0.7 0.5 1.2 0.5 0.9-0.2 1.2-0.5 0.5-0.7 0.5-1.2c0-0.2 0-0.4-0.1-0.7-0.1-0.2-0.2-0.4-0.4-0.5-0.2-0.2-0.3-0.3-0.5-0.4s-0.4-0.1-0.7-0.1c-0.5 0-0.9 0.2-1.2 0.5m0.1 24.1c-0.3 0.6-0.4 1.3-0.4 2s0.1 1.4 0.4 2 0.6 1.1 1.1 1.6c0.5 0.4 1 0.8 1.6 1 0.6 0.3 1.2 0.4 1.9 0.4s1.3-0.1 1.9-0.4c0.6-0.2 1.1-0.6 1.6-1s0.8-0.9 1.1-1.6c0.3-0.6 0.4-1.3 0.4-2s-0.1-1.4-0.4-2-0.6-1.1-1.1-1.6c-0.5-0.4-1-0.8-1.6-1-0.6-0.3-1.2-0.4-1.9-0.4s-1.3 0.1-1.9 0.4c-0.6 0.2-1.1 0.6-1.6 1-0.5 0.5-0.9 1-1.1 1.6m2.2 2c0-0.7 0.2-1.3 0.7-1.8 0.4-0.5 1-0.7 1.7-0.7 0.3 0 0.7 0.1 0.9 0.2 0.3 0.1 0.5 0.3 0.7 0.5s0.4 0.5 0.5 0.8 0.2 0.6 0.2 1c0 0.7-0.2 1.3-0.6 1.8s-1 0.7-1.7 0.7c-0.4 0-0.7-0.1-1-0.2s-0.5-0.3-0.7-0.5-0.4-0.5-0.5-0.8-0.2-0.6-0.2-1m4.9-14.8c-0.4-0.4-0.6-0.8-0.7-1.3h7v-0.1c0-1-0.1-1.8-0.4-2.5s-0.6-1.3-1.1-1.7c-0.4-0.4-1-0.8-1.6-1s-1.2-0.3-1.8-0.3c-0.7 0-1.3 0.1-1.9 0.4-0.6 0.2-1.1 0.6-1.5 1s-0.8 1-1 1.6-0.4 1.3-0.4 2 0.1 1.4 0.4 2c0.2 0.6 0.6 1.1 1 1.6 0.4 0.4 1 0.8 1.6 1 0.6 0.3 1.2 0.4 1.9 0.4 1 0 2-0.2 2.8-0.7s1.4-1.2 1.9-2.2l-2.8-0.3c-0.2 0.3-0.4 0.6-0.8 0.7-0.3 0.2-0.7 0.3-1.1 0.3-0.6-0.3-1.1-0.5-1.5-0.9m-0.7-3.1c0.1-0.5 0.3-0.9 0.7-1.2s0.8-0.5 1.4-0.5 1 0.2 1.4 0.5 0.6 0.7 0.7 1.2h-4.2zm6.7 13.2h-2.7v6c0 0.5 0.1 1 0.3 1.4s0.5 0.8 0.9 1.2c0.4 0.3 0.8 0.6 1.4 0.8s1.2 0.3 1.9 0.3 1.4-0.1 1.9-0.3c0.6-0.2 1-0.5 1.4-0.8 0.4-0.4 0.7-0.7 0.8-1.2 0.2-0.4 0.3-0.9 0.3-1.4v-6h-2.6v5.5c0 0.6-0.2 1.1-0.5 1.4-0.4 0.3-0.8 0.4-1.3 0.4s-0.9-0.1-1.2-0.4c-0.4-0.3-0.5-0.8-0.5-1.4l-0.1-5.5zm10.1 0h-2.7v13h2.7v-4.8c0.2 0.4 0.6 0.7 1.1 1s1.1 0.4 1.8 0.4c0.6 0 1.2-0.1 1.8-0.4 0.6-0.2 1-0.6 1.5-1 0.4-0.4 0.7-0.9 1-1.6 0.2-0.6 0.3-1.3 0.3-2s-0.1-1.4-0.3-2-0.6-1.1-1-1.6c-0.4-0.4-0.9-0.8-1.4-1-0.5-0.3-1.1-0.4-1.8-0.4s-1.3 0.1-1.8 0.4-0.9 0.6-1.1 1v-0.3-0.5-0.2zm-0.1 4.7c0-0.4 0.1-0.7 0.2-1s0.3-0.6 0.5-0.8 0.5-0.4 0.8-0.5 0.6-0.2 1-0.2 0.7 0.1 1 0.2 0.5 0.3 0.8 0.5c0.2 0.2 0.4 0.5 0.5 0.8s0.2 0.6 0.2 1-0.1 0.7-0.2 1-0.3 0.6-0.5 0.8-0.5 0.4-0.8 0.6c-0.3 0.1-0.6 0.2-1 0.2s-0.7-0.1-1-0.2-0.5-0.3-0.8-0.6c-0.2-0.2-0.4-0.5-0.5-0.8s-0.2-0.6-0.2-1m6.2-12c0.5 0 1-0.1 1.5-0.2s0.9-0.4 1.3-0.6c0.4-0.3 0.7-0.6 1-1s0.5-0.8 0.7-1.3l-2.5-0.8c-0.2 0.4-0.4 0.8-0.8 1-0.4 0.3-0.8 0.4-1.3 0.4-0.7 0-1.3-0.2-1.7-0.7s-0.6-1.1-0.6-1.8 0.2-1.4 0.6-1.8c0.4-0.5 1-0.7 1.7-0.7 0.5 0 0.9 0.1 1.3 0.4s0.6 0.6 0.8 1l2.5-0.8c-0.1-0.5-0.4-0.9-0.7-1.3s-0.6-0.7-1-1-0.8-0.5-1.3-0.6-1-0.2-1.5-0.2c-0.7 0-1.3 0.1-2 0.4-0.6 0.2-1.1 0.6-1.6 1-0.4 0.4-0.8 1-1.1 1.6s-0.4 1.3-0.4 2 0.1 1.4 0.4 2 0.6 1.1 1.1 1.6c0.4 0.4 1 0.8 1.6 1 0.7 0.3 1.3 0.4 2 0.4"/>
</svg>
